<?xml version="1.0" encoding="UTF-8"?>
<svg id="Layer_2" data-name="Layer 2" xmlns="http://www.w3.org/2000/svg" viewBox="0 0 1167.41 205.18">
  <defs>
    <style>
      .cls-1 {
        fill: #004447;
      }
    </style>
  </defs>
  <g id="Layer_1-2" data-name="Layer 1">
    <g>
      <path class="cls-1" d="m813.96,171.86c-7.12,4.22-14.54,8.01-21.27,12.78-6.45,4.56-13.32,6.78-21.03,6.69-22.03-.24-44.05-.77-66.08-.79-28.07-.02-56.14.46-84.21.54-53.7.16-107.39.2-161.09.27-28.23.03-56.46.25-84.68-.07-23.66-.27-47.35-.53-70.94-2.14-10.2-.7-19.91,2.03-29.91,1.43-.81-.05-1.65.2-2.44.09-6.99-.89-12.44.27-17.79,6.28-6.43,7.22-22.53,5.11-29.92-2.66-2.28-2.4-4.49-3.22-7.64-3.17-26.27.45-52.53.74-78.8,1.2-1.39.02-3.29.63-4.05,1.65-8.46,11.19-27.08,12.76-37.13,2.51-3.14-3.21-5.9-4.52-10.19-3.43-1.99.51-4.24.3-6.33.08-3.9-.4-6.14-2.58-6.57-6.62-.39-3.66-1.01-7.29-1.53-10.97-23.29,5.27-40.95,5.73-46.89.35,3.26-.68,5.73-1.54,8.24-1.66,8.79-.41,17.6-.44,26.38-.89,3.79-.19,6.69-1.45,8.72-5.64,2.31-4.78,7.58-7.38,12.73-8.1,9.65-1.34,19.42-2.25,29.15-2.49,12.23-.3,24.48.14,36.71.52,3.76.12,5.31-.7,5-4.82-.98-12.75,1.81-11.08-11.87-11.49-.65-.02-1.31-.03-1.96-.05-5.43-.19-10.75-.53-11.21-8.66-5.75,3.51-10.71,6.57-15.71,9.57-4.9,2.93-9.76,5.94-14.78,8.65-4.54,2.45-6.63,1.62-6.98-3.33-.33-4.81-2.71-5.35-6.68-5.36-9.13-.04-18.26-.58-27.4-.75-3.69-.07-5.41-1.66-5.38-5.33.04-4.08-.2-8.16,0-12.23.31-6.1,3.34-8.41,9.44-8.19,6.47.23,12.96.05,20.2.05-.35-4.78-.5-9.62-1.24-14.36-.15-.97-2.55-2.27-3.89-2.25-5.2.07-10.41.46-15.59,1-5.62.59-7.88-.86-8.67-6.58-.45-3.22-.37-6.51-.49-9.77-.28-7.67,1.7-9.96,9.52-10.23,7.34-.25,14.69-.22,22.03-.12,4.64.06,7.42-1.04,6.97-6.62-.33-4.08,1.62-5.09,5.13-2.93,4.72,2.9,9.45,5.89,13.71,9.41,3.81,3.15,7.83,4.41,12.6,3.92,4.64-.47,9.86,1.63,13.53-3.2.38-.5,1.51-.56,2.3-.57,5.32-.05,10.63-.02,16.5-.02v-18.7h-25.25c-.09-.56-.18-1.11-.27-1.67,1.48-.35,2.96-.97,4.45-.99,6.2-.08,12.41-.14,18.6.12,3.28.14,4.07-1.16,3.3-4.71-18.67.71-37.4,1.42-56.14,2.13-.03-.79-.07-1.58-.1-2.37,19.04-.87,38.08-1.74,57.12-2.61.03-.5.06-1,.09-1.51-1.75-.18-3.5-.52-5.25-.52-24.81-.04-49.62.05-74.42-.12-5.93-.04-11.85-.91-17.77-1.4.02-.6.03-1.21.05-1.81,2.14,0,4.27-.02,6.41,0,29.69.26,59.38.52,89.07.82,2.41.02,4.24-.48,4.4-3.31.19-3.27-2.24-3.14-4.34-3.18-17.6-.35-35.2-.79-52.8-.93-13.22-.1-26.44.28-39.66.29-17.6.02-35.2-.05-52.8-.22-2.37-.02-4.72-.86-7.08-1.32l-.09-2.23c2.66-.59,5.31-1.65,7.98-1.68,15.17-.17,30.35.02,45.53-.13,22.35-.23,44.7-.66,67.05-.98,2.12-.03,4.28-.22,6.36.09,8.44,1.26,16.07.9,22.82-5.83,2.68-2.67,7.67-3.72,11.75-4.14,8.37-.85,16.85-1.2,25.26-.95,5.85.17,10.22,3.55,13.24,8.84.86,1.51,3.54,2.78,5.4,2.8,18.77.2,37.54.06,56.31.17,3.51.02,4.88-1.15,5.04-4.76.35-7.89.52-7.84,8.74-8.09,3.37-.1,7.54,1.12,7.84-4.86,1.76,1.66,3.05,2.88,4.34,4.1.94-1.29,1.88-2.59,2.79-3.83,1.34,1.14,2.75,2.34,4.16,3.54.65-1.35,1.3-2.7,2.65-5.51,2.62,5.73,5.32,10.43,6.87,15.49.88,2.88,1.67,4.16,4.69,4.11,7.78-.11,15.57-.04,23.15-.04.34-.67.6-.95.61-1.24.31-9.54,1.28-10.23,10.98-10.53,13.52-.42,27.03-1.09,40.53-1.93,3.79-.24,5.65.95,6.71,4.6,2.58,8.86,2.71,8.84,12.21,8.41,1.91-.09,3.81-.31,5.79-.48,0-1.87.05-3.31,0-4.74-.2-4.52,2.21-6.62,6.47-6.84,13.84-.74,27.68-1.61,41.53-2.06,10.99-.36,11.08.01,14.22,10.45.36,1.18,2.15,2.92,2.94,2.76,1.34-.27,2.5-1.78,3.56-2.93.36-.39.22-1.25.29-1.9.75-7.73,1.18-8.27,8.96-9.18,3.4-.4,6.84-.51,10.26-.5,30.52.1,61.04.38,91.56.35,12.06-.01,24.12-.81,36.19-.89,2.3-.02,4.54,1.93,6.93,2.51,3.56.86,7.22,1.32,11.28,2.02,0-4.1.08-6.84-.02-9.57-.12-3.17,1.31-4.95,4.46-5.26,2.11-.21,4.22-.47,6.33-.45,19.74.17,39.48.51,59.23.55,12.56.02,25.11-.43,37.67-.59,3.09-.04,6.19.19,9.28.32,5.12.22,8.5,2.1,7.9,8.02-.31,3.1,1.85,3.22,4.16,3.26,8.1.14,8.1.18,8.58,8.29.39,6.56,1.23,7.09,9.98,5.87.37-5.5.97-11.13,1.06-16.76.06-4.15,1.9-5.94,5.87-6.11,14.02-.59,28.03-1.23,42.04-1.86,3.29-.15,5.87.57,7.85,3.75.8,1.28,3.58,1.86,5.46,1.87,23.5.13,47,.09,70.5.13,7.75.01,8.51.75,9.32,8.53.07.65.14,1.3.19,1.95.61,7.45,2.13,8.34,8.91,4.75,2.42-1.28,4.82-2.88,6.7-4.84,5.58-5.81,12.54-8.36,20.27-8.34,19.22.04,38.45.28,57.67.85,10.59.31,19.67,4.8,26.64,12.75,4.82,5.5,9.23,11.41,13.42,17.43,12.68,18.21,25.22,36.51,37.69,54.86,4.86,7.15,9.3,14.57,14.07,21.78,6.05,9.12,8.86,19.14,8.88,30.02,0,1.76.26,3.51.41,5.39,5,.27,8.8-.82,11.78-4.86,1.19-1.61,3.68-2.85,5.73-3.14,4.99-.7,10.07-.69,15.1-1.07,4.25-.33,6.41,1.69,6.91,5.77.12.97.23,1.94.29,2.92.56,9.05-.61,10.32-9.56,10.35-5.06.02-10.16.41-15.16-.15-2.33-.26-4.41-2.48-6.69-3.63-1.95-.98-4.02-2.21-6.08-2.29-.8-.03-2.35,2.71-2.49,4.28-1.2,13.46-5.91,18.52-19.62,19.53-12.85.94-25.73,1.31-38.6,1.93-1.71.08-3.43.15-5.12.75,9.92,5.41,19.98.47,31.01,1-.28,2.32-.01,5.36-1.22,7.6-.54,1-4.14.87-6.19.46-9.08-1.83-18.11-3.94-27.52-6.03-1.02,4.64-4.38,5.25-8.49,5.01-4.06-.24-8.16-.13-12.24.06-3.37.15-5.48-1.14-5.63-4.56-.23-5.12-2.88-7.62-7.7-9.03-3.19-.93-6.29-2.84-8.89-4.97-7.08-5.78-14.93-9.17-24.14-9.42-14.68-.39-29.35-.89-44.03-1.31-.78-.02-1.58.21-3.18.44.61,5.54,1.16,10.96,1.82,16.37,1.09,8.95,1.12,8.95,9.97,9.05,2.12.02,4.34.46,6.33-.03,1.44-.35,2.62-1.88,3.84-2.97,1.02-.91,1.89-2.69,2.92-2.77,4.38-.32,8.81-.29,13.2-.05,1.02.06,1.97,1.44,2.55,2.96,7.55-1.72,13.06,3.6,19.36,7.2-.51-5.43-3.36-7.97-10.63-9.47,1.55-1.14,2.68-1.97,4.71-3.45-2.7-2.16-5.16-4.14-7.82-6.27-3.36,7.38-7.79,9.01-17.15,7.26-2.67-.5-5.4-.8-8.11-.92-5.32-.23-7.63-2.47-7.52-8.11,2.94-.16,5.92-.32,8.9-.48.01-.26.02-.52.03-.78-5.14-.31-10.27-.61-15.41-.92.02-.51.03-1.02.05-1.53,6.92-.72,13.2-4.55,21.04-.29,3.9,2.12,10.11.11,15.26-.2,3.41-.21,6.81-.71,10.21-1.09.1.63.2,1.27.3,1.9-2.39.46-4.78.91-6.14,1.17,4.42,5.74,9.13,11.52,13.42,17.61,1.72,2.44,2.63,5.49,3.57,8.38.24.74-.6,2.16-1.35,2.75-.4.32-1.98-.2-2.51-.79-7.26-8.2-16.77-5.09-25.82-5.79-.97,8.72-6.45,12.84-13.8,14.3-8.91,1.77-16.32-1.63-22.22-8.41-.75-.86-1.17-2.04-2.02-2.75-1.93-1.61-4.02-2.09-4.7,1.09-.6,2.83-2.12,3.7-4.81,3.63-17.45-.44-34.91-.73-52.36-1.28-3.42-.11-7.03-.12-8.51-4.84-.82-2.61-4.77-1.66-6.13,1.49-3.03,7.07-7.98,11.37-15.96,11.64-7.99.27-13.78-3.44-16.33-11.28-1.06-3.28-2.73-4.35-5.94-4.34-8,.03-15.99-.11-23.99-.27-1.69-.03-3.37-.47-6.49-.94,6.13-6.06,11.32-11.2,16.52-16.34,0,0-.13-.13-.13-.13Zm-733.48-4.86c.34-.34.69-.68,1.03-1.02l2.97-.87h19.79c-1.55,1.25-1.97,1.87-2.48,1.95-6.43.98-13.21.18-19.01,4.32-1.21.86-3.32.46-5.01.63.01.45.02.9.03,1.35h18.31c0,.66-.02,1.33-.02,1.99h-18.9l-.02,1.4,10.13,1.1c-.01.43-.03.87-.04,1.3-3.47.46-6.95.91-10.42,1.37,0,.42,0,.83,0,1.25,2.67.46,5.35.92,8.02,1.38,0,.37,0,.74,0,1.11-2.27.56-4.54,1.12-6.93,1.71,1.45,1.86,7.01-.85,3.34,5.81,4.1-1.4,8.76-1.59,9.85-3.67,2.22-4.19,5.26-4.99,9.09-5.11,11.19-.37,22.37-.68,33.56-.88,2.05-.04,4.11.56,5.66.79-1.41,2.29-2.47,4.01-3.71,6.03,11.25,2.28,81.04.1,85.26-3.51h-18.49c0-.81-.02-1.62-.03-2.43h16.93c0-.53,0-1.06-.01-1.6-1.76-.47-3.52-.93-5.27-1.4-.03-.35-.07-.7-.1-1.05,1.72-.48,3.45-.96,5.68-1.58-2.28-.85-3.93-1.47-6.33-2.38,2.45-1.04,3.95-1.67,5.58-2.36-2.64-.95-4.88-1.76-7.12-2.56.59-.5,1.17-1.01,1.76-1.51-.2-.18-.41-.36-.61-.54-.43.64-.87,1.27-1.3,1.91q-7.01,8.4-12.59,3.01c-2.63-.5-5.27-1-8.69-1.65,2.01-1.22,3.36-2.04,4.71-2.86-6.38.85-12.42,2.5-18.33,4.54-1.38.48-3.34,2.41-3.23,3.51.31,3.25,2.89,2.11,4.89,1.61,6.91-1.73,13.81-3.48,20.72-5.23-1.13,1.01-2.11,2.58-3.43,2.96-13.92,4.04-27.86,8.03-41.91,11.62-1.67.43-4.32-1.22-5.9-2.6-2.06-1.8-3.52-4.29-5.17-6.38,5.28-4.86,12.34-4.52,20.28-3.63-1.66-1.19-2.7-1.93-4.92-3.52,6.77-.43,12.15-.77,17.53-1.12-2.28-1.78-4.52-3.33-6.73-3.28-7.76.18-15.51,1-23.27,1.4-2.63.14-3.98.88-4.72,3.71-1.59,6.11-11.3,8.47-15.64,3.99-2.33-2.4-4.51-4.95-6.96-7.66,1.34-.65,2.41-1.17,4.29-2.07-4.54-.45-8.56.04-11.77-1.34-8.96-3.85-17.57-2.3-26.31.24-.99.29-1.97.59-2.96.88-.34.34-.67.69-1.01,1.03l-.29.2.22-.27Zm206.63,18.69s.07-.06.07-.06c.07.14.11.31.22.42.07.06.24.03.36.03-.22-.13-.43-.26-.65-.38Zm-115.54-110.64l-12.17.22.29,2.32c3.94-.87,7.88-1.74,11.82-2.61h3.02c-.05-.3-.1-.6-.16-.9-.94.33-1.87.65-2.81.98Zm12.88-56.99c-.18.04-.37.08-.55.11.07.1.13.2.2.3,4.7,1.89,6.28,8.98,13.05,8.28-1.87-6.02-5.75-8.54-12.7-8.69Zm166.72,6.32c8.9-1.29,17.79-2.57,26.69-3.86-13.16-2.72-26.13-3.39-39.52.65,4.56.95,8.33,1.74,12.1,2.52-4.71.6-9.42,1.19-14.12,1.79.03.46.06.92.09,1.38h40.17c-6.32-.87-12.65-.74-18.98-.95-2.16-.07-4.29-1-6.44-1.53Zm415.64-5.39c-2.72.4-6.22-.13-8.02,1.37-5.85,4.89-12.04,2.14-18.05,2.69-.07-.52-.15-1.04-.22-1.57,3.89-.58,7.79-1.16,12.7-1.89-1.76-.15-2.52-.27-3.28-.28-37.96-.46-75.92-.89-113.87-1.41-1.71-.02-4.2-.23-4.99-1.32-2.96-4.06-7.01-3.61-11.04-3.45-5.05.2-10.09.88-15.13.89-34.91.06-69.83-.05-104.74.02-5.52.01-11.04.63-16.54,1.11-.84.07-1.61.98-2.42,1.5,54.2.74,108.09.88,161.93,3-.01.75-.02,1.49-.03,2.24-33.01-.61-66.02-1.23-99.03-1.84,0,.22,0,.45.01.67,4.83.4,9.65.79,14.48,1.19-.03.79-.06,1.57-.09,2.36h-27.01l.07,1.47h244c-3.26-1.54-8.48-.01-8.22-6.17,1.17-.4,2.34-.81,3.51-1.21-.21-.43-.42-.85-.63-1.28-1.13.64-2.25,1.27-3.38,1.91Zm-404.43,107.13l.36-.07.06-.36c.63-13.5,1.23-27.01,1.92-40.51.22-4.28,1.99-7.84,6.55-8.55,3.67-.57,7.49-.44,11.21-.17.96.07,2.6,1.82,2.59,2.78-.17,14.49-.49,28.99-.97,43.48-.13,3.76-2.91,6.54-6.28,6.38-6.05-.29-10.08,3.16-14.71,5.85-2.73,1.59-3.95,3.4-3.81,6.62.28,6.68.23,13.37.29,20.05.07,7.56,1.57,9.29,9.44,10.79q2.16-8.76,12.01-9.15c1.63-.07,3.26-.33,4.88-.25,4.76.24,6.38-1.69,6.3-6.64-.49-29.18-.7-58.36-.86-87.54-.02-3.46-1.32-4.62-4.6-4.59-7.18.08-14.35-.08-21.53-.03-6.61.05-7.83,1.01-7.77,7.68.16,16.3.53,32.59,1.17,48.87.07,1.84,2.45,3.58,3.76,5.37ZM977.96,47.41c.05-.83.1-1.67.15-2.5,2.24,0,4.48,0,6.71,0,5.71-.01,11.43.04,17.13-.13.78-.02,1.52-1.15,2.28-1.77-.72-.5-1.41-1.34-2.18-1.42-2.1-.22-4.24-.13-6.36-.13-261.78.21-523.56.42-785.35.6-1.22,0-2.43-.45-3.65-.69.03-.54.06-1.09.08-1.63,1.77-.18,3.53-.51,5.3-.52,261.29-.11,522.59-.19,783.88-.28,1.47,0,3.06.33,4.38-.11,1.57-.53,2.92-1.74,4.36-2.65-1.43-.85-2.82-2.3-4.31-2.42-4.07-.34-8.18-.12-12.27-.12,0-.6-.02-1.19-.03-1.79,4.29-.26,8.64-.23,12.86-.95,1.55-.26,3.97-2.31,3.96-3.54-.02-4.45-.89-8.9-1.52-13.34-.02-.17-.9-.33-1.37-.32-12.97.22-25.93.46-38.9.69l-.04,1.51c1.59.42,3.18.83,5.48,1.43-5.33,3.6-12.35-.34-16.83,5.61h33.82c.03.41.06.82.09,1.23-1.51.22-3.01.5-4.52.64-14.16,1.29-28.78-1.42-42.39,4.86-.69.32-1.61.2-2.42.21-41.93.63-83.85,1.67-125.78,1.79-51.73.15-103.46-.7-155.19-.69-62.83.02-125.66.48-188.5.76-14.85.07-29.7.18-44.55.33-35.41.36-70.82,1-106.23,1.09-42.11.1-84.21-.27-126.32-.38-2.51,0-5.78-.47-5.74,3.48.04,4.15,3.5,2.43,5.56,2.63,2.99.29,6.02.07,9.04.07,0,.83-.02,1.67-.02,2.5-3.6,0-7.21-.19-10.78.09-1.48.12-2.88,1.26-4.32,1.94,1.33.77,2.65,2.17,4,2.2,16.95.48,33.91.75,50.87,1.09,1.66.03,3.32.21,4.98.32v1.46c-1.97.24-3.95.71-5.92.68-16.47-.26-32.94-.52-49.4-1.01-4.04-.12-5.63,1.35-5.58,5.27.06,4.89-.28,9.79-.09,14.67.05,1.26,1.16,3.03,2.28,3.6,5.35,2.76,10.87,5.19,16.34,7.73,3.7,1.71,6.42.59,7.49-3.32.88-3.19,3.08-3.82,5.95-3.82,8.81,0,17.63-.09,26.44-.11,2.51,0,4.24-.35,4.65-3.56.73-5.71,2.19-6.43,7.43-3.61,7.76,4.17,15.3,8.74,23.02,12.97,1.6.88,3.61,1.49,5.41,1.45,13.85-.33,27.7-.83,41.55-1.35,4.58-.17,7.16,2.1,7.74,6.41.65,4.83,1.68,9.81,1.14,14.57-.9,8.01,1.69,12.86,9.53,15.29,3.7,1.15,7.02,3.51,11.32,5.73,0-3.23.03-5.15,0-7.07-.23-14.02-.72-28.04-.64-42.05.05-10.11,2.63-12.28,12.62-12.43,19.9-.3,39.81-.63,59.71-.95,7.6-.12,10.84,2.58,11.4,10.23.43,5.84.52,11.74.38,17.6-.59,24.78-1.36,49.55-1.91,74.32-.05,2.11.34,5.2,1.71,6.2,6.27,4.54,12.41,8.87,21.09,8.86,111.47-.09,222.94.16,334.41.12,3.64,0,7.4-1.82,10.89-3.3,8.64-3.67,16.83-9.27,25.81-11.12,14.6-3.02,29.67-4.69,44.58-5.1,26.42-.71,52.87-.04,79.31.05,1.62,0,3.25,0,4.87,0,0-.56.01-1.12.02-1.69-2.65-.19-5.3-.54-7.95-.56-19.57-.11-39.15-.14-58.72-.27-2.01-.01-4.03-.6-6.04-.92.08-.52.16-1.04.24-1.55h72.13c.01-.34.03-.68.04-1.03-4.36-.27-8.72-.53-13.09-.8,0-.48-.02-.97-.03-1.45,4.77-.46,9.55-.92,14.32-1.38-.06-.55-.13-1.1-.19-1.65-2.57-.32-5.13-.64-7.7-.96.58-1.23,1.26-1.88,1.89-1.84,6.41.38,6.4-3.5,6.43-8.41.15-24.46.72-48.91,1.03-73.37.06-4.55,2.16-7.38,6.48-7.67,9.43-.63,18.9-.9,28.35-1.09,3.57-.07,5.77,2.06,6.27,5.64.29,2.09.42,4.21.42,6.32-.03,30.01-.06,60.02-.19,90.02-.01,3.22.31,5.58,4.67,4.84.13-1.11.38-2.2.38-3.29-.17-32.79-.36-65.58-.56-98.37q-.05-8.67-8.77-8.66c-6.11,0-12.21,0-18.32,0Zm45.77,121.1c8.52,7.95,69.27,11.02,83.31,3.63h-18.15c0-.62,0-1.25.01-1.87,9.87-.44,19.74-.88,29.62-1.33-.03-.55-.06-1.11-.09-1.66h-69.92c0-.73,0-1.46,0-2.19,23.47-.14,46.93-.27,70.4-.41-.01-.42-.02-.85-.04-1.27-14.48-2.13-29.2,2.18-43.65-1.87,7.7-1.04,15.41-.82,23.09-1.1,7.56-.28,15.27,1.11,22.71-.89l.09-1.67c-4.53-.6-9.07-1.21-13.6-1.81.08-.5.17-1,.25-1.51,3.56,0,7.13.14,10.68-.09.96-.06,1.85-1.24,2.77-1.91-.89-.75-1.68-1.85-2.7-2.15-1.36-.39-2.91-.17-4.38-.18-3.65-.01-7.29,0-10.94,0-.03-.58-.05-1.15-.08-1.73,1.64-.25,3.28-.65,4.92-.71,3.26-.12,6.54.12,9.78-.17,1.08-.1,2.05-1.36,3.08-2.09-1.05-.73-2.03-1.95-3.17-2.1-2.4-.33-4.88-.05-7.33-.15-3.86-.15-7.71-.41-11.57-.63.02-.71.04-1.42.05-2.13h21.29c.03-.8.06-1.59.09-2.39-5.33-.38-10.66-.76-15.99-1.14,0-.45.01-.9.02-1.35,5.01-.36,10.02-.73,15.02-1.09.06-.62.13-1.25.19-1.87-3.58-.61-7.17-1.22-10.75-1.83.02-.39.04-.78.06-1.17,2.82-.36,5.64-.72,8.8-1.12-7.13-6.42-13.68-12.19-20.07-18.13-3.75-3.49-3.17-5.93,1.5-7.91.7-.3,1.32-.78,2.1-1.25-.44-.96-.67-1.75-1.11-2.4-14.68-21.37-29.69-42.53-43.99-64.15-10.59-16.01-25.75-20.95-43.78-20.58-3.14.06-4.46,1.24-4.46,4.31,0,7.5-.02,15-.2,22.5-.07,3.01,1.24,4.04,4.08,4.05,1.78,0,3.55.51,5.32.79-.02.55-.04,1.11-.05,1.66-2,0-4.08-.32-5.99.11-1.21.27-2.17,1.66-3.24,2.54,1.05.91,2.04,2.53,3.15,2.61,4.05.3,8.18-.23,12.21.19,2.84.29,5.57,1.62,8.35,2.48-6.72.63-12.95.43-19.16.11-3.65-.19-4.72,1.46-4.69,4.99.14,17.28.04,34.57.09,51.85.02,7.5.36,15,.26,22.5-.06,4.39,1.2,6.66,6.11,6.32,2.93-.2,5.93.6,8.9.95,0,.45,0,.9,0,1.36-1.31.24-2.61.65-3.92.69q-10.77.31-10.43,11.18c.02.65-.24,1.54.09,1.91.89,1,2.01,2.51,3.08,2.53,15.64.37,31.29.52,46.94.78,1.22.02,2.44.48,3.66.73-.06.44-.12.87-.18,1.31h-46.18c3.27,6.96,9.63.39,14.19,4.36-2.48.61-4.21,1.03-6.47,1.58Zm-816.97-35.89c-2.38,1.1-4.25,1.7-5.82,2.75-5.55,3.72-11.17,7.38-16.37,11.56-1.47,1.18-2.24,4.11-2.03,6.1.11,1.04,3.05,2.59,4.67,2.54,9.78-.28,19.57-.67,29.3-1.57,22.49-2.07,43.25,1.62,60.81,17.01,1.22,1.07,2.55,2.05,3.94,2.89,4.37,2.65,6.93,1.42,7.23-3.59.26-4.33,1.8-7.01,6.69-7.22,7.49-.32,14.95-1.16,22.44-1.53,12.1-.6,11.93-.5,11.09-12.47-.28-3.94-1.92-4.91-5.46-5-8.64-.22-17.28-1.09-25.91-.98-5.77.07-10.21-.55-10.8-7.46-.01-.16-.53-.29-.62-.33-10.1,5.87-20.06,11.73-30.09,17.47-5.81,3.32-6.1,3.11-6.72-3.46-.65-6.84-1.34-7.69-8.24-8.14-7.48-.48-14.98-.85-22.47-.83-5.61,0-10.73-.16-11.65-7.76Zm92.79,49.33c-.07.35-.14.71-.21,1.06,1.85.3,3.7.82,5.56.86,40.61.9,81.22,2.16,121.83,2.49,40.29.32,80.59-.26,120.89-.52,46.33-.29,92.67-.84,139-.92,27.57-.05,55.13.64,82.7.88,3.6.03,7.21-.63,10.81-.97-.01-.5-.02-1.01-.03-1.51-9.31-.44-18.62-.87-27.94-1.31.03-.61.06-1.23.1-1.84,6.24,0,12.49.13,18.72-.04,6.03-.16,12.19.78,18.13-.51-.03-.67-.07-1.33-.1-2h-499.08c-.01.63-.02,1.26-.03,1.89h19.37c0,.57,0,1.14,0,1.71-3.24.24-6.49.48-9.73.73Zm128.67-20.74c.14-3.07.27-4.98.31-6.89.26-14.82.45-29.65.77-44.48.28-13.19.89-26.37.95-39.56.03-6.18-1.79-7.28-7.89-6.88-5.2.34-10.42.47-15.63.58-9.79.21-10.04.18-9.98,9.98.18,27.71.56,55.41.93,83.11.03,2.06-.75,5.54,2.76,4.97,3.33-.54,8.34,1.6,9.47-4.3.89-4.7,2.32-5.37,6.72-3.09,3.58,1.85,7.02,3.95,11.59,6.55Zm565.84-92.49c0-3.58-.03-7.17,0-10.75.04-3.42-1.35-5.05-5.01-4.78-6.01.46-12.04.74-18.06.93-8.3.27-9.16,1.09-9.3,9.42-.25,15.15-.64,30.29-.78,45.44-.13,13.85-.02,27.71,0,41.57,0,3.86,1.46,5.96,5.83,5.87,7.82-.17,15.66.13,23.48.15,1.06,0,2.11-.45,3.17-.69-.04-.53-.09-1.06-.13-1.58h-22.53c-.03-.37-.06-.73-.09-1.1.83-.47,1.66-.94,3.17-1.79-2.27-.72-3.79-1.2-5.3-1.68.02-.26.05-.53.07-.79l24.86-1.74c-.05-.55-.1-1.11-.15-1.66h-25.92c-.02-.42-.04-.85-.06-1.27,8.58-.87,17.15-1.74,25.73-2.6l-.22-2.05c-1.86,0-3.73.06-5.59-.02-1.72-.07-3.44-.29-5.15-.45.02-.44.04-.87.06-1.31,3.75-.54,7.51-1.09,11.26-1.63-.01-.57-.03-1.14-.04-1.71l-10.14-1.03c0-.45,0-.91,0-1.36,3.27-.46,6.54-.92,10.47-1.47v-28.19c-1.26.82-2.03,1.37-2.86,1.84-9.79,5.61-20.94.98-22.8-10.01-1.08-6.36-1.12-12.98-.94-19.46.3-10.88,4.56-14.76,15.51-15.02,7.47-.18,9.93,1.85,11.45,8.92Zm-79.47,121.31c2.48-.28,6.13.35,7.2-1.02,2.81-3.62,6.21-2.36,9.58-2.96,3.07-.54,6.06-2.46,8.66-4.35.94-.68.67-3.05.94-4.59-1.28-.11-3.17-.28-5.31-.47,2.18-3.73,4.1-7.01,5.98-10.23-.64-.39-2.16-1.13-2.1-1.33.73-2.19.64-4.19-2.1-3.82-.96.13-1.68,2.72-2.33,4.27-.37.88-.37,1.91-.54,2.87-1.29,6.96-1.42,7.25-8.48,7.17-8.27-.1-16.54-.66-24.82-.8-6.84-.11-13.69.22-20.53.08-1.78-.04-3.53-1.15-5.29-1.76.68-1.89,1.08-3.95,2.11-5.62,1.21-1.96,2.96-3.58,5.1-6.08h-18.74c3.07,4.24,5.51,7.62,8.67,11.99-3.35.38-5.85,1.45-6.95.64-3.06-2.27-5.54-5.32-8.01-7.83-8.36,9.13-19.86,5.27-30.59,7.05,1.99,1.47,3.25,3.15,4.73,3.36,4.79.7,9.66,1.1,14.51,1.16,4.63.05,8.89,3.05,8.9,7.29-.96-.58-1.82-.94-2.48-1.53-2.87-2.56-5.57-4.23-8.53.03-.65.94-2.37,1.13-4.17,1.92.39-2.04.63-3.25,1.04-5.4-4.98-.28-9.62-.5-14.26-.8q-8.05-.51-7.3,8.47h70.82c.02.44.03.87.05,1.31-1.86.36-3.72.71-5.26,1.01,1.97.29,4.26.63,6.54.97-.02.4-.03.81-.05,1.21l-6.85,1.76c.03.31.06.61.09.92h49.74c.23-1.4.52-3.09,1.01-6.02-7.28,3.73-14.04,4.43-20.95,1.13ZM92.3,104.23c-.88.4-1.42.85-1.94.83-3.03-.07-5.46.08-5.14,4.34.48,6.28,1.4,7.97,6.08,7.91,11.89-.15,23.77-.55,35.66-.71,5.71-.08,3.97-4.43,4.43-7.43.53-3.52-1.86-3.94-4.59-3.93-6.35.03-12.71.03-19.06-.04-1.57-.02-3.14-.33-4.7-.51.04-.65.07-1.3.11-1.96h14.38q15.35,0,14.16-15.43c-.01-.16-.02-.33-.02-.49.03-2.86-1.45-4.13-4.24-4.13-12.71.01-25.41-.05-38.12.11-1.36.02-3.8,1.21-3.87,2.02-.44,5.14-.85,10.4-.13,15.45.21,1.48,4.12,2.43,6.99,3.97Zm191.41,3.14c-1.11,1.8-3.08,3.53-3.02,5.18.15,3.85,3.41,4.12,6.52,4.09,11.4-.11,22.8-.13,34.2-.34,1.65-.03,3.29-.95,4.93-1.45-.15-.52-.3-1.03-.45-1.55-2.9-.27-5.8-.55-8.7-.82l-.03-1.41,8.21-1.23-.16-1.92h-33.92c-.01-.59-.02-1.17-.04-1.76,1.52-.17,3.03-.47,4.55-.49,5.21-.07,10.42-.03,15.64-.04,16.55-.05,16.44-.04,14.3-16.56-.54-4.17-2.4-5.57-6.37-5.41-8.62.34-17.26.22-25.87.73-13.23.78-13.24.93-13.41,14.48-.05,3.65-1.37,8,3.62,8.51ZM647.46,13.43c.02.74.04,1.47.06,2.21h115.61c-2.73-.53-5.13-.99-7.53-1.45,0-.35.02-.69.02-1.04,1.28-.4,2.57-.8,3.85-1.2-.71-.55-1.39-1.07-2.89-2.23,3.24-.65,5.51-1.12,7.79-1.58-1.79-1.36-4.63-1.22-4.99-2.1-2.43-5.97-7.35-3.25-11.14-3.31-17.11-.25-34.24-.17-51.35-.13-15.17.04-30.34.14-45.51.32-1.74.02-3.47.65-5.21,1,.04.38.07.75.11,1.13,2.22.56,4.44,1.12,6.66,1.69-.07.34-.13.69-.2,1.03-1.98.45-3.95.89-5.93,1.34.08.54.15,1.07.23,1.61,3.7,0,7.4-.12,11.09.03,3.67.16,7.32.59,10.98.91-.05.58-.09,1.17-.14,1.75h-21.51Zm196.7-8.65h-41.29c-.54,3.09-.92,5.27-1.36,7.8,2.23,0,4.01,0,5.79,0,17.93.03,35.87.13,53.8.03,4.4-.02,6.83,1.34,6.74,6.1-.04,2.03.49,4.07.65,5.23h60.67c.02-.53.04-1.06.06-1.59-4.75-1.57-11.48,2.39-14.05-5.38,4.08-.61,8.45-1.27,12.82-1.92-2.63-.6-5.15-.17-7.67-.07-2.42.09-4.86-.17-7.29-.28-.01-.57-.03-1.15-.04-1.72,5.08-.6,10.17-1.2,15.25-1.79-.03-.59-.05-1.18-.08-1.76-29.69-.75-59.45.61-89.12-.82-.05-.47-.1-.94-.15-1.41,1.48-.68,2.96-1.36,5.26-2.41ZM203.38,105.97c14.53-.57,28.68-1.13,42.83-1.68,2.9-.11,4.01-1.61,3.7-4.46-.42-3.89-.73-7.79-1.01-11.69-.23-3.32-1.66-4.99-5.26-4.77-8.46.51-16.94.62-25.38,1.24-15.85,1.16-15.68-1.49-15.45,17.54.01.95.27,1.9.56,3.82Zm785.42-18.25c-.42-6.4-.74-12.25-1.24-18.09-.1-1.2-.5-2.76-1.33-3.43-3.36-2.69-12.5.39-12.7,4.7-.39,8.2-.13,16.5.73,24.66.45,4.23,4.89,5.73,10.2,4.93,4.29-.65,4.33-3.73,4.33-6.94,0-2.12,0-4.24,0-5.82Zm-752.66,25.46l.05-1.49c2.84-.22,5.73-.2,8.51-.73,1.79-.34,3.43-1.48,5.13-2.26-1.68-.55-3.36-1.61-5.03-1.58-13.19.18-26.38.57-39.57.92-.6.02-1.19.33-1.69.47-1.3,8.36-.17,11.39,5.04,11.4,12.22.04,24.44-.32,36.64-.86,1.75-.08,3.42-2.05,5.12-3.15-.25-.53-.5-1.07-.74-1.6l-13.46-1.1ZM805,25.33h57.31c-3.45-1.85-8.56.47-9.32-6.13,3.15-.43,6.31-.87,8.72-1.2-8.92-.92-18.4-2.24-27.92-2.78-8.78-.49-17.61-.2-26.42-.1-1.65.02-3.28.75-5.63,1.33,2.47,3.02,4.4,5.39,6.51,7.98-1.42.39-2.72.75-3.25.9ZM223.7,181.13c-.07.69-.13,1.38-.2,2.07,16.83,1.49,33.65,2.97,51.23,4.52-2.91-4.31-5.46-8.16-8.13-11.94-.26-.36-1.23-.24-1.87-.31-7.58-.78-15.15-1.83-22.75-2.25-5.45-.3-10.94.25-16.41.42.03.3.06.6.1.9,1.48.55,2.95,1.09,4.42,1.64-.08.35-.16.71-.23,1.06-1.31.35-2.62.69-3.94,1.04l.03.99h22.55c0,.62,0,1.24,0,1.86h-24.79ZM411.79,25.64c2.35.41,3.65.83,4.94.83,15.61-.04,31.23-.23,46.84-.19,4.17,0,5.07-1.65,4.06-5.41-1.02-3.77-2.89-6-7.14-5.76-9.73.55-19.47.94-29.21,1.43-5.13.26-10.26.59-15.39.9,0,.18-.01.37-.02.55,2.51.49,5.01.98,7.52,1.47v1.03c-3.48,1.55-6.97,3.1-11.6,5.15Zm-223.62,1.13c-6.72-10.76-22.23-9.64-32.83.72,4.77.66,7.49,2.98,7.46,7.97,0,.81,1.77,2.15,2.88,2.33,1.88.31,3.88-.22,5.83-.19,4.22.07,7.12-.96,7.54-6.04.11-1.4,2.71-2.84,4.43-3.78,1.31-.72,3.03-.68,4.7-1.01Zm9.15,67.28c-4.65,3.26-7.67,6.11-11.25,7.66-3.35,1.45-3.83,3.41-4.18,6.61-.69,6.15.76,10.28,7.26,12.11,3.08.86,5.8,2.93,8.75,4.32,2.39,1.13,4.87,2.07,7.31,3.1.2-.36.39-.73.59-1.09-.78-.61-1.46-1.49-2.34-1.78-3.58-1.17-5.22-3.71-5.48-7.29-.26-3.57-.53-7.14-.63-10.72-.11-3.81-.02-7.63-.02-12.92Zm77.23.61c-6.71,4.81-12.25,8.51-17.44,12.64-2.16,1.72-1.71,3.88,1.01,5.36,8.13,4.45,16.18,9.04,24.29,13.53.88.49,1.94.66,2.91.98.32-.34.64-.69.97-1.03-1.06-1.31-1.93-3.51-3.21-3.79-6.98-1.5-8.3-6.6-8.5-12.46-.16-4.64-.03-9.29-.03-15.23Zm-157.8,106.11c2.58-1,7.81-2.34,12.3-4.96,3.83-2.23,3.24-4.77-1.23-8.96-2.55-2.39-4.57-1.94-6.78,1.01-3.26,4.35-10.27,4.89-13.21.69-2.72-3.89-5.85-3.31-9.35-2.8-3.72.55-4.77,2.28-2.45,5.64,4.37,6.31,10.59,8.85,20.73,9.37Zm215.78-47.48c7.5,4.08,14.03,7.63,20.89,11.36v-24.08c-7.25,4.41-13.56,8.25-20.89,12.71Zm-180.37-53.24c-3.4,0-5.64.08-7.88-.02-6.92-.3-6.98-.33-7.13,6.41-.32,13.71-2.13,10.64,11.59,11.08,2.57.08,3.49-.96,3.44-3.42-.08-4.35-.02-8.69-.02-14.06Zm227.27-5.7h.22c0-2.6-.04-5.19.01-7.79.05-2.4.08-4.64-3.29-4.72-3.02-.07-5.74.32-6.03,4.01-.47,5.98-.79,11.98-.95,17.98-.03,1,.81,2.6,1.65,2.96,5.14,2.18,8.27,0,8.39-5.62.05-2.27,0-4.54,0-6.81Zm-121.61,94.32c-4.13-1.16-7.85-2.43-11.84.85-3.13,2.57-7.71,3.1-10.34.1-3.77-4.31-7.42-1.76-12.14-2.12,3.6,7.99,9.89,9.98,16.55,10.87,7.86,1.05,14.05-2.5,17.77-9.71Zm720.01,1.95c-4.06-.55-7.38-1.06-10.34,2.64-2.1,2.62-5.56,2.38-8.42.26-.77-.57-1.32-1.42-1.99-2.13-2.56-2.7-7.06-2.88-9.47-.21-3.21,3.55.67,5.12,2.49,6.26,3.37,2.11,7.14,4.06,11,4.82,7.86,1.54,15.45-3.89,16.73-11.64Zm185.35-31.91l.02-1.72h-8.35c-.04-.39-.08-.79-.13-1.18,2.25-.63,4.5-1.26,7.4-2.07-2.7-.59-4.58-1-6.47-1.41l.03-1.29c1.67-.38,3.33-.77,5.04-1.16-2.42-.26-4.73-.51-7.04-.76l-.05-1.22c2.28-.59,4.56-1.18,6.84-1.77-7.16.82-15.75-3.31-20.6,4.56,3.08,2.15,5.55,3.87,8.87,6.19-2.92.82-4.61,1.29-6.56,1.84h20.98Zm-299.74,32.12c-3.48-.64-6.55-1.2-9.77,1.78-3.01,2.78-6.89,1.89-10.4-.23-1.94-1.17-4.18-1.85-6.78-2.97.29,7.92,5.49,12.97,12.22,13.21,7.93.28,13.84-4.38,14.73-11.78Zm-630.59-23.42v-.05c2.28,0,4.66.4,6.81-.13,1.66-.41,3.03-2,4.53-3.06-1.23-1.38-2.28-3.69-3.71-3.95-4.45-.8-9.04-.84-13.58-1.13-3.24-.21-4.68,1.13-4.64,4.58.04,3.56,1.92,3.96,4.72,3.76,1.95-.14,3.91-.03,5.86-.03Zm658.42,1.4c1.77,1.55,2.75,3.15,3.87,3.25,3.54.32,7.21.52,10.66-.12,1.54-.29,3.76-2.64,3.82-4.14.18-4.5-2.38-6.62-6.79-6.65-1.95-.01-3.91-.19-5.84.01-1.64.18-3.24.8-4.86,1.22,1.4.99,2.82,1.95,4.19,2.97.34.25.54.68,1.02,1.32-1.69.6-3.15,1.11-6.07,2.13ZM175.27,51.04c-.02-.38-.04-.75-.06-1.13-1.75-.34-3.5-.69-5.25-1.03,0-.32,0-.65,0-.97,2.26-.64,4.51-1.28,6.77-1.91-.05-.34-.09-.68-.14-1.02-1.28-.39-2.56-.78-4.48-1.36,1.41-1.17,2.3-1.91,3.51-2.92-13.96-1.17-17.61,1.92-15.48,12.56,5.05-.74,10.09-1.49,15.12-2.23Zm20.49,110.3c3.19,4.96,5.72,8.89,8.24,12.82.59-.15,1.18-.3,1.78-.45l6.7-12.39c-.31-.44-.63-.87-.94-1.31-4.83.41-9.65.82-15.78,1.33Zm726.59-.02c-.19,3.05-.2,5.75-.56,8.4-.36,2.64.76,3.38,3.2,3.48,5.61.24,7.1-1.42,7.38-8.02.24-5.48-3.65-4.14-6.66-4.23-1.24-.04-2.5.26-3.36.37Zm-99.43,7.44c.13.48.26.96.39,1.44,6.06,0,12.14.2,18.17-.19,1.01-.07,2.13-2.61,2.59-4.19.12-.41-2.21-2.28-3.21-2.13-4.94.73-9.84,1.82-14.7,3-1.18.28-2.16,1.36-3.24,2.07Zm148.68,1.07c1.64,2.85,2.51,6.16,3.89,6.39,3.7.62,7.67.18,11.4-.51.62-.11.61-3.62.93-5.88h-16.22Zm-839-7.07c-1.3,0-2.63-.16-3.89.06-.82.14-2.14.77-2.19,1.29-.1.97.32,2.21.95,2.99,1.57,1.95,3.4,3.69,5.09,5.55,1.86,2.04,4.84,1.49,5.83-1.11,2.32-6.11.58-8.76-5.78-8.78Zm19.3,19c1.33,1.16,2.19,2.42,2.74,2.3,5.17-1.13,10.3-2.43,15.37-3.92.48-.14.98-2.22.58-2.81-.52-.77-2.11-1.55-2.9-1.29-5.04,1.64-9.98,3.57-15.8,5.72Zm725.95-9.96c4,0,6.73.32,9.31-.16.98-.18,2.31-2.25,2.25-3.39-.12-2.28-1.07-4.53-1.79-6.75-.03-.08-1.41-.04-1.72.32-2.47,2.93-4.83,5.95-8.06,9.99ZM167.49,103.15c0-.05,0-.11-.01-.16-2.58.22-5.19.26-7.72.75-.74.14-1.25,1.54-1.86,2.36.69.5,1.4,1.46,2.07,1.43,4.69-.21,9.38-.56,14.05-1.05.71-.07,1.32-1.09,1.97-1.68-.73-.67-1.41-1.85-2.19-1.92-2.08-.17-4.2.14-6.3.27Zm870.54,81.05c5.03,5.74,11.34,3.54,17.55,2.16-1.84-1.04-3.87-1.14-5.73-1.76-1.1-.36-1.85-1.68-2.92-2.28-.81-.45-1.98-.8-2.8-.55-2.09.62-4.08,1.6-6.09,2.43ZM175.53,126.52c-.11-.52-.21-1.05-.32-1.57-5.24,0-10.48-.08-15.72.11-.56.02-1.56,1.67-1.45,2.44.09.64,1.52,1.61,2.31,1.57,4.54-.22,9.07-.65,13.58-1.15.58-.06,1.07-.92,1.6-1.41Zm192.33-10.35c3.96-.36,6.54-.43,9.04-.92.83-.16,1.79-1.27,2.08-2.15.24-.72-.29-2.45-.69-2.51-2.82-.47-5.75-1.06-8.49-.62-.81.13-1.12,3.42-1.94,6.2Zm22.77-88.69c-1.59-4.34-2.57-7.11-3.75-9.79-.03-.08-2.9.5-3.13,1.21-.74,2.22-1.71,5.02-.91,6.86.5,1.15,4.03.98,7.79,1.72Zm-233.58,92.43c7.23-1.36,12.84-2.41,18.46-3.47-.08-.44-.15-.89-.23-1.33-5.24,0-10.49-.12-15.72.15-.67.04-1.22,2.18-2.51,4.64Zm-.1,30.01c1.57,2.16,2.47,4.32,3.19,4.26,4.92-.44,9.8-1.33,14.69-2.08-.03-.42-.06-.84-.09-1.25-5.36-.28-10.72-.55-17.79-.92Zm18.42-38.66c-.02-.64-.05-1.27-.07-1.91-5.32,0-10.64-.06-15.95.1-.48.01-1.21,1.34-1.29,2.11-.05.48.96,1.57,1.41,1.53,5.31-.51,10.61-1.19,15.91-1.83Zm-16.52,49.44c3.56-.84,6.43-1.59,9.33-2.2,2.67-.56,5.36-.98,8.05-1.45-.11-.61-.22-1.22-.33-1.82-4.61.3-9.22.76-13.84.84-4.02.07-3.95,2.11-3.21,4.63Zm16.34-27.47c-.07-.59-.13-1.18-.2-1.77-5.37,0-10.75-.03-16.12.06-.34,0-.99,1-.91,1.43.12.65.78,1.76,1.15,1.73,5.37-.39,10.72-.94,16.08-1.45Zm.89-44.15l-.46-2.5c-5.8,1.15-11.61,2.29-17.41,3.44.15.74.3,1.48.45,2.23,5.81-1.06,11.62-2.11,17.43-3.17Zm821.83-28.83c-.14.05-.27.09-.41.14v37.79c.14,0,.27,0,.41,0v-37.92ZM158.43,98.5c.07.83.13,1.66.2,2.49,5.67-.48,11.35-.97,17.02-1.45l-.2-2.38c-5.67.45-11.35.9-17.02,1.35Zm16.77,44.67c-5.42-2.69-14.93-2.04-16.99,0h16.99Zm.58-86.97c-.06-.5-.11-1-.17-1.5-5.07,0-10.15-.03-15.22.05-.45,0-1.32.85-1.25,1.11.17.64.8,1.7,1.18,1.68,5.16-.35,10.31-.86,15.46-1.34Zm-17.25,28.2c.15.87.3,1.75.45,2.62,5.4-1.08,10.79-2.16,16.19-3.25-.1-.53-.2-1.06-.3-1.6-5.45.74-10.89,1.48-16.34,2.22Zm16.66,54.08c.03-.56.07-1.12.1-1.68-5.58-.73-11.16-.26-16.74.28,0,.47-.02.93-.03,1.4h16.66Zm-15.63-117.9l-.92-1.67-12.12,6.61c.45.79.9,1.58,1.35,2.36,3.89-2.44,7.79-4.87,11.68-7.31Zm209.13,98.07c-.04.79-.09,1.58-.13,2.38,2.94.28,5.87.64,8.82.77.36.02,1.1-1.16,1.08-1.76-.02-.61-.77-1.69-1.21-1.69-2.85-.03-5.71.18-8.56.31Zm486.42,47.28c-2.17-1.89-3.43-3.66-4.15-3.47-1.45.39-2.62,1.86-3.9,2.89.92.98,1.77,2.64,2.79,2.75,1.25.14,2.65-1.01,5.26-2.17ZM173.44,64.27c-.1-.38-.2-.75-.31-1.13l-14.2,1.57c.11.69.21,1.37.32,2.06,4.73-.83,9.46-1.67,14.19-2.5Zm-52.26,59.35c2.03,1.47,3.76,2.73,5.68,4.12,1.17-5.44.33-6.05-5.68-4.12Zm52.6,24.2c-.04-.52-.09-1.04-.13-1.56-4.97.23-9.93.46-14.9.69.04.29.07.58.11.87h14.92Zm.58-68.51l-.16-1.08c-4.86.65-9.71,1.29-14.57,1.94l.18,1.26c4.85-.71,9.7-1.42,14.55-2.13Zm1.11,15.14c-.05-.72-.1-1.45-.16-2.17-2.84.47-5.68.94-8.52,1.41.05.42.11.83.16,1.25,2.84-.16,5.68-.32,8.52-.48Zm-.67,27.23c-.02-.65-.04-1.3-.06-1.94-2.92.45-5.85.89-8.77,1.34.04.2.08.4.11.6h8.72Zm816.89,29.52c0-.17-.02-.34-.03-.52h-7.12c0,.17,0,.34,0,.52h7.14Zm-30.7,39.19c0,.36,0,.71,0,1.07h4.11c0-.36,0-.71,0-1.07h-4.11Zm-813.48-26.08c-.15-.51-.24-.96-.3-.96-1.44.06-2.88.16-4.31.26.06.43.13.87.19,1.3,1.46-.2,2.91-.4,4.42-.61Zm12.31-103.69c.03.33.05.67.08,1,1.74-.12,3.48-.25,5.22-.37-.02-.21-.05-.42-.07-.63h-5.23Zm836.81,76.91c.1-.03.2-.05.3-.08v-3.62c-.1,0-.2,0-.3,0v3.7ZM174.22,60.13v-.54h-3.27v.54h3.27Zm646.98,113.17c-.54-.51-.82-.97-1.19-1.06-.22-.06-.59.43-.9.68.19.22.36.61.58.64.4.05.82-.12,1.51-.25Zm-573.52-6.03c.53-.32.9-.53,1.26-.75-.33-.4-.65-.8-.98-1.21-.3.28-.76.52-.84.84-.07.28.31.67.55,1.11Zm-95.76-87.2c-.12.04-.3.04-.35.12-.06.09-.02.25-.03.39.2-.06.4-.12.6-.19l-.22-.32Zm36.91,81.72c.57-.12.28-.06,0,0,.29-.02.58-.05,0,0Zm-28.07-66.32c0-.24.02-.48.03-.72-.54.03-1.07.05-1.61.1-.03,0-.05.38-.04.38.54.09,1.08.16,1.62.24ZM927.47,18.83c-.26-.08-.43-.12-.59-.17.04.08.07.21.12.22.11.02.24-.02.47-.04Zm-77.68,172.32c-.2-.18-.36-.37-.56-.49-.09-.05-.28.05-.42.08.06.21.13.43.19.64.26-.08.52-.15.79-.24Zm241.92-2.62c-.05-.11-.08-.28-.17-.32-.09-.04-.23.06-.35.09.1.17.19.34.29.51.08-.09.15-.19.23-.28Zm-844.43-19.9c.26.1.52.3.76.27.16-.02.28-.36.43-.55-.25-.11-.51-.32-.75-.3-.15.01-.28.37-.43.58Zm-61.22-1.76c0-.18,0-.37,0-.55h-1.8c0,.18,0,.37,0,.55h1.8Zm93.6,14.56c0-.13.03-.32-.03-.37-.11-.08-.29-.06-.43-.09.01.19.02.38.03.56.15-.03.29-.07.44-.1Zm-102.77-20.76l.31.2.05-.31-.36.11Zm633.07,20.36c-.13.03-.26.06-.38.1.15.08.31.17.46.25-.03-.12-.05-.23-.08-.35ZM159.85,69.55c-.12-.04-.24-.08-.36-.11-.03.1-.07.21-.1.31.12.04.24.1.36.1.04,0,.07-.19.1-.29Z"/>
      <path class="cls-1" d="m5.06,164.79c20.69-1.78,41.93,5.82,61.63-6.07.23.41.46.83.69,1.24-1.82,1.26-3.48,3.23-5.48,3.65-7.75,1.6-15.57,3.56-23.41,3.79-9.73.28-19.5-.98-29.25-1.66-1.41-.1-2.79-.62-4.18-.95Z"/>
      <path class="cls-1" d="m43.6,40.24H9.98c.01-.43.03-.86.04-1.28h33.61l-.03,1.28Z"/>
      <path class="cls-1" d="m41.86,157.59H10.17c-.01-.28-.02-.55-.03-.83h31.67c.02.28.04.55.05.83Z"/>
      <path class="cls-1" d="m81.85,48.67h-19.56c0-.37,0-.74,0-1.11h19.57c0,.37,0,.74-.01,1.11Z"/>
      <path class="cls-1" d="m34.97,46.91h-12.82c0-.38,0-.77-.01-1.15h12.79c.01.38.03.77.04,1.15Z"/>
      <path class="cls-1" d="m21.68,148.47l11.8-.78c.04.66.07,1.32.11,1.99-3.97.2-7.93.41-11.9.61,0-.61,0-1.21-.01-1.82Z"/>
      <path class="cls-1" d="m151.04,61.4c-3.27.23-6.54.46-9.82.69-.07-.65-.13-1.31-.2-1.96,3.27-.35,6.53-.7,9.8-1.05l.22,2.32Z"/>
      <path class="cls-1" d="m952.25,178.55c1.41-.13,2.82-.26,4.23-.39.04.6.09,1.19.13,1.79-1.41.09-2.82.17-4.23.26-.04-.55-.09-1.11-.13-1.66Z"/>
      <path class="cls-1" d="m625.37,76c8.57.43,16.87.75,25.17,1.31,5.67.39,9.19,3.21,9.26,8.83.15,12.53-.3,25.08-1.01,37.59-.09,1.65-3.04,4.44-4.75,4.51-13.32.51-26.68.83-40,.45-6.15-.18-8.98-2.97-9.43-9.27-.84-11.82-.86-23.7-.96-35.56-.03-3.91,2.4-6.42,6.37-6.8,5.18-.5,10.39-.73,15.36-1.05Zm-14.04,44.19c3.53,5.2,38.3,5.36,42.26-.56h-15.54c-.01-.46-.02-.91-.04-1.37.89-.27,1.78-.73,2.68-.78,3.25-.17,6.53-.05,9.77-.37,1-.1,1.9-1.26,2.84-1.93-1.01-.58-1.98-1.57-3.03-1.66-2.26-.19-4.56.19-6.83.16-5.85-.09-11.69-.28-17.54-.43,0-.57,0-1.13,0-1.7,2.53-.28,5.05-.73,7.58-.8,5.54-.15,11.09-.16,16.63-.1,2.72.03,4.44-.84,4.44-3.83,0-6.19.34-12.41-.25-18.55-.18-1.93-2.81-5.09-4.45-5.17-12.18-.64-24.4-.68-36.61-.81-2.66-.03-4.23,1.35-4.27,4.22-.07,6.34-.2,12.69-.32,19.03-.09,4.73.77,8.47,6.97,7.23.7-.14,1.59.65,2.39,1,0,.32,0,.65,0,.97-2.47.48-4.94.97-8.67,1.7,3.78.83,6.17,1.35,8.55,1.87-.09.42-.17.84-.26,1.26-1.9.18-3.79.36-6.31.6Z"/>
      <path class="cls-1" d="m950.58,93.26h-36.61c3.35,5.8,8.52,1.93,12.49,5.54-3.01.25-5.04.68-7.03.53-3.78-.28-4.99,1.46-4.61,4.95.35,3.24.78,6.48.79,9.73.02,5.75-2.22,9.16-7.81,9.31-12.34.33-24.74.2-37.05-.64-6.46-.44-8.4-3.85-8.55-10.36-.2-8.45-.47-16.91-.74-25.36-.16-4.84,1.9-7.79,6.59-7.88,12.37-.26,24.75-.24,37.12-.13,5.41.05,8.76,2.61,9.6,8.41.18,1.22,2.85,2.9,4.44,2.96,8.63.36,17.27.26,25.91.36,1.83.02,3.66.2,5.49.3l-.03,2.27Zm-41.35,23.41c-.11-.5-.21-1-.32-1.5-4.88-.36-9.75-.73-14.63-1.09,0-.52,0-1.04-.01-1.56,4.79-.37,9.58-.75,14.37-1.12-.03-.56-.06-1.13-.09-1.69h-25.63c-.01-.53-.02-1.06-.04-1.59,1.54-.18,3.07-.49,4.62-.53,4.89-.13,9.78-.15,14.68-.24q7.15-.13,6.89-7.06c-.14-3.58-.54-7.17-.36-10.73.18-3.67-1.49-5.12-4.85-5.12-10.92-.02-21.83.02-32.75-.01-3.02,0-3.81,1.37-3.67,4.29.32,6.5.36,13.02.34,19.53-.02,8.18.75,9.49,8.97,9.87,9.11.42,18.26.2,27.39.07,1.7-.03,3.39-.99,5.09-1.52Z"/>
      <path class="cls-1" d="m478.18,128.57c-7.01,0-14.03.23-21.03-.07-6.67-.28-9.54-2.66-9.75-9.16-.35-10.89.03-21.81.28-32.71.12-5.07,3.42-8.11,8.07-8.22,13.82-.33,27.65-.29,41.46.07,4.52.12,6.99,3.85,6.98,8.12-.03,12.7-.44,25.41-.8,38.11-.09,3.23-2.43,3.82-5.16,3.8-6.68-.05-13.37-.02-20.05-.02,0,.03,0,.06,0,.08Zm9.44-16.7c0-.49-.01-.99-.02-1.48,2.28-.23,4.56-.63,6.84-.65,2.52-.02,4.15-.81,4.19-3.54.08-6.03.4-12.08-.05-18.07-.12-1.57-2.66-4.18-4.15-4.22-12.03-.38-24.08-.3-36.12-.26-3.26.01-5.17,1.79-5.25,5.16-.19,7.33-.34,14.65-.51,21.98-.06,2.7,1.25,3.8,3.92,3.67,2.44-.12,4.9-.03,7.35-.03.03.6.07,1.2.1,1.8-3.21.43-6.43.86-9.64,1.29.03.15.06.3.1.45,2.85.36,5.7.71,8.55,1.07-.02.47-.03.94-.05,1.41-2.46.34-4.93.67-8.25,1.12,1.38.75,1.8,1.17,2.22,1.17,12.71,0,25.42-.03,38.13-.08.48,0,1.1-.04,1.4-.33.53-.51,1.22-1.25,1.18-1.85-.04-.55-.89-1.41-1.48-1.5-1.59-.26-3.24-.17-4.87-.26-3.68-.21-7.36-.44-11.04-.67.03-.46.06-.92.08-1.38,5.83-.44,11.65-.89,17.48-1.33-.02-.7-.04-1.4-.06-2.1-3.34-.46-6.69-.92-10.03-1.37Z"/>
      <path class="cls-1" d="m715.24,128.81c-6.03,0-12.07.09-18.1-.02-6.79-.12-9.91-3-10.11-9.83-.16-5.85.36-11.71.44-17.57.07-5.21.15-10.43-.13-15.62-.22-4.15,1.58-6.72,5.39-7.51,3.64-.75,7.41-1.1,11.13-1.13,8.64-.07,17.29,0,25.92.31,9.36.34,13.3,3.99,13.2,13.26-.12,10.74-1.08,21.47-1.8,32.2-.23,3.5-2.42,5.18-5.9,5.18-6.68,0-13.37,0-20.05,0v.74Zm-1.59-18.13c0-.11,0-.22,0-.33,6.2,0,12.41.18,18.59-.13,1.49-.08,4.05-1.7,4.16-2.8.58-6.14.7-12.34.7-18.52,0-3.42-2.05-5.54-5.53-5.61-11.25-.22-22.5-.37-33.74-.4-3.11,0-4.59,1.79-4.64,5.03-.09,6.35-.33,12.69-.66,19.03-.16,3.03,1,3.93,4,3.81,5.7-.24,11.42-.07,17.13-.07Zm21.49,4.31c0-.43,0-.87,0-1.3-.69-.23-1.38-.67-2.07-.67-12.55.06-25.09.11-37.63.41-1.01.02-2.63,1.74-2.84,2.87-.81,4.52,1.18,6.99,5.67,6.94,11.24-.14,22.48-.44,33.71-.89,1.2-.05,2.35-1.51,3.52-2.31-1.3-.57-2.58-1.51-3.92-1.63-2.76-.26-5.56-.08-8.35-.08.02-.56.04-1.12.06-1.68,3.95-.55,7.89-1.1,11.84-1.65Z"/>
      <path class="cls-1" d="m556.95,78.19c3.69.18,10.37.46,17.04.85,5.94.34,8.44,2.54,8.31,8.5-.26,12.2-.97,24.4-1.55,36.59-.16,3.26-2.32,4.57-5.28,4.52-13.36-.24-26.73-.38-40.07-.93-5.82-.24-8.12-2.56-8.34-8.17-.47-11.72-.58-23.46-.76-35.19-.06-4.36,2.69-6.09,6.62-6.15,7.01-.1,14.02-.03,24.03-.03Zm-3.18,5.44c-5.14,0-10.85.14-16.54-.05-3.9-.13-5.73,1.18-5.48,5.32.25,4.06.03,8.14.07,12.22.08,8.65.09,8.6,8.69,8.52,9.78-.1,19.56-.21,29.34-.07,3.94.06,5.55-1.38,5.63-5.36.09-4.88.65-9.75,1.09-14.61.32-3.47-1-5.09-4.65-5.14-5.86-.09-11.72-.51-18.15-.82Zm11.51,34.06c0-.47-.02-.94-.03-1.41,1.71-.26,3.46-.35,5.1-.82,1.47-.42,2.83-1.26,4.23-1.92-1.39-.52-2.77-1.48-4.16-1.48-11.08-.06-22.17.09-33.25.09-2.4,0-4.75-.35-4.65,3.18.09,3.06-.59,6.75,4.03,6.91,11.88.41,23.77.64,35.66.78.92.01,1.87-1.3,2.8-2-.88-.93-1.62-2.44-2.66-2.69-2.28-.55-4.71-.46-7.08-.63Z"/>
      <path class="cls-1" d="m809.87,76.09c5,.23,11.84.62,18.68.82,3.63.11,5.56,2,5.72,5.36.49,10.88,1.16,21.78,1,32.65-.1,6.93-3.27,9.73-10.17,9.88-11.54.24-23.11.33-34.64-.09-6.71-.25-9.05-2.77-9.52-9.44-.69-9.88-1.43-19.8-1.12-29.68.21-6.5,2.95-8.18,9.62-8.54,6.19-.33,12.38-.59,20.42-.96Zm-1.21,33.84c-.04-.71-.09-1.41-.13-2.12,5.79-.36,11.57-.9,17.36-1.03,3.07-.07,4.59-.98,4.34-4.23-.41-5.2-.82-10.4-1.03-15.61-.13-3.27-1.57-4.65-4.84-4.61-10.92.12-21.84.28-32.76.12-4.59-.07-6.91,1.94-6.72,6.26.38,8.94.92,17.89,1.93,26.77.16,1.43,3.1,3.59,4.8,3.64,11.22.31,22.45.22,33.68.01,1.36-.03,2.7-1.56,4.05-2.39-.22-.51-.44-1.03-.66-1.54h-20.15c-.02-.44-.04-.88-.07-1.33,7.03-.65,14.05-1.3,21.08-1.96-.03-.67-.07-1.34-.1-2h-20.77Z"/>
      <path class="cls-1" d="m648.38,51.37c101.39.67,202.78,1.16,304.16,2.31,0,.8-.01,1.6-.02,2.4-101.39-.75-202.77-1.51-304.16-2.26,0-.81.01-1.63.02-2.44Z"/>
      <path class="cls-1" d="m759.76,169.41c5.93-.33,11.87-.93,17.8-.94,7.54-.01,14.5-1.87,21.04-5.46,23.72-13.05,49.5-15.11,75.84-14.25.69.02,1.37.44,2.05,1.88-1.89.16-3.78.51-5.66.44-17.05-.61-33.87,1.23-50.28,5.74-6.68,1.84-13.26,4.63-19.33,8-12.64,7.02-26.26,6.78-39.96,6.66-.54,0-1.08-.53-1.62-.81.04-.43.08-.85.12-1.28Z"/>
      <path class="cls-1" d="m658.06,170.51c28.99-.85,57.99-1.7,86.98-2.54.03.84.05,1.67.08,2.51-28.95.85-57.9,1.7-86.85,2.56-.07-.84-.14-1.68-.21-2.52Z"/>
      <path class="cls-1" d="m859.15,59.99h73.07c-.01.49-.02.98-.03,1.48h-73.17c.04-.49.09-.98.13-1.48Z"/>
      <path class="cls-1" d="m901.02,46.22c19.8-1.35,39.61-2.47,59.46-2.08l.07,2.23c-19.86.64-39.71,1.28-59.57,1.92.01-.69.02-1.38.04-2.07Z"/>
      <path class="cls-1" d="m328.5,72.46c-.96-5.34-4.73-4.7-8.34-4.65-11.1.14-22.2.15-33.29.26-3.33.03-7.18-.92-7.83,4.72-2.67-4.34-1.51-6.8,2.74-7.12,4.06-.31,8.16-.06,12.23-.14,9.62-.17,19.25-.39,28.87-.59,5.74-.12,7.62,2.03,5.63,7.52Z"/>
      <path class="cls-1" d="m800.32,156.07c4.36-6.31,26.95-13.79,35.85-11.59-12.04,3.89-24.13,7.8-35.85,11.59Z"/>
      <path class="cls-1" d="m846.98,46.12h40.35c-4.41,2.79-32.74,2.51-40.35,0Z"/>
      <path class="cls-1" d="m638.03,52.8h-31.02c-.02-.22-.05-.44-.07-.66,10.34-.5,20.67-.99,31.01-1.49.03.72.06,1.43.08,2.15Z"/>
      <path class="cls-1" d="m972.98,17.41h26.63v1.16h-26.63v-1.16Z"/>
      <path class="cls-1" d="m758.92,159.4c.95-1.19,1.9-2.38,3.09-3.87-1.41-.86-2.94-1.26-3.39-2.19-.61-1.26-1.04-3.39-.38-4.28.88-1.19,2.85-1.95,4.42-2.09.63-.06,2.07,2.01,2.07,3.11,0,2.69-.25,5.52-1.14,8.02-.44,1.22-2.53,1.86-3.88,2.76-.26-.49-.52-.98-.79-1.47Zm2.25-9.33c-.13.25-.26.49-.39.74.25.1.56.33.74.26.18-.08.24-.45.35-.7-.23-.1-.46-.19-.7-.29Z"/>
      <path class="cls-1" d="m727.71,159.18c.54-.88,1.08-1.77,1.61-2.65-3.85-3.76-4.09-6.69-.54-8.11,1.04-.41,3.45-.13,3.48.08.37,2.59.89,5.33.35,7.81-.34,1.54-2.41,2.7-3.71,4.03-.4-.39-.8-.78-1.19-1.16Zm2.32-7.32c-.05-.11-.08-.29-.17-.33-.1-.04-.25.03-.39.06.08.16.17.32.25.49.1-.07.2-.14.31-.21Z"/>
      <path class="cls-1" d="m322.8,72.55h-21.41c7.02-3.13,14.24-1.65,21.37-2.06l.04,2.06Z"/>
      <path class="cls-1" d="m708.79,156.46c-.37-3.66-.99-6.74-.82-9.77.07-1.22,1.7-2.85,2.98-3.32.87-.32,3.11.79,3.4,1.7.48,1.46.34,3.53-.39,4.89-1.13,2.1-2.97,3.82-5.17,6.5Zm3.52-9.43c-.33-.2-.65-.4-.97-.6-.15.24-.48.6-.41.71.21.33.56.55.86.82.14-.25.28-.51.52-.93Z"/>
      <path class="cls-1" d="m776.28,154.68c.23-2.23-.1-4.77.91-6.56.52-.91,3.81-1.21,5.18-.49,2.84,1.49,2.88,4.4,2.42,8.13-2.07-2.4-3.45-4.01-4.83-5.62-.71,1.48-1.43,2.96-2.14,4.44l-1.54.1Z"/>
      <path class="cls-1" d="m720.52,146.91c3.38.47,2.84,3.76,2.25,6.39-.25,1.11-2.31,2.01-3.73,2.57-.53.21-1.95-.61-2.23-1.27-.26-.63.33-1.71.73-2.5.71-1.4,1.55-2.73,2.97-5.19Z"/>
      <path class="cls-1" d="m748.56,155.55c.41-1.03.73-2.11,1.25-3.08.97-1.77,2.06-3.48,3.62-6.09,2.52.8,2.23,3.65,1.76,6.09-.75,3.82-3.47,4.16-6.68,3,0,0,.05.08.05.08Z"/>
      <path class="cls-1" d="m748.51,155.47c-3.05,2.35-5.32,1.36-4.88-2.19.35-2.85-3.6-6.54,1.22-8.85,1.28,3.84,2.49,7.48,3.71,11.13,0,0-.05-.08-.05-.08Z"/>
      <path class="cls-1" d="m930.7,145.97h-13.74v-1.26h13.75c0,.42,0,.84,0,1.26Z"/>
      <path class="cls-1" d="m772.72,155.63c-4.29-.24-6.11-1.76-5.02-4.65.42-1.13,2.97-1.46,4.55-2.16.15,2.18.3,4.36.47,6.81Z"/>
      <path class="cls-1" d="m736.96,147.45c3.02.72,4.78,4.67,2.69,6.75-.55.55-1.84.83-2.55.58-.5-.18-.85-1.49-.83-2.28.04-1.54.4-3.06.69-5.05Z"/>
      <path class="cls-1" d="m184.78,52.97h9.66c0,.43.01.85.02,1.28h-9.66c0-.43-.01-.85-.02-1.28Z"/>
      <path class="cls-1" d="m689.47,138.61c.95-.97,1.79-2.16,2.93-2.79.36-.2,1.54,1.08,2.35,1.68l-3.54,2.87c-.58-.59-1.16-1.17-1.75-1.76Z"/>
      <path class="cls-1" d="m292.18,72.48h-6.31c.01-.39.02-.77.03-1.16h6.31c-.01.39-.02.77-.04,1.16Z"/>
      <path class="cls-1" d="m700.21,136.85c-.44.98-.88,1.97-1.33,2.99-.62-.31-1.11-.5-1.1-.56.24-1.05.55-2.09.85-3.13.53.23,1.06.47,1.58.7Z"/>
      <path class="cls-1" d="m706.36,139.15h-2.69c-.04-.36-.09-.73-.13-1.09.92-.15,1.84-.3,2.76-.45.02.51.04,1.03.06,1.54Z"/>
      <path class="cls-1" d="m711.8,139.07c-.43-.79-.84-1.29-.92-1.83-.03-.23.62-.56.95-.85.34.47.8.9.97,1.43.07.21-.49.63-1.01,1.24Z"/>
      <path class="cls-1" d="m728.91,137.76c-.23.15-.46.43-.69.42-.16,0-.31-.39-.46-.61.23-.15.46-.43.69-.42.16,0,.31.39.46.61Z"/>
      <path class="cls-1" d="m753.09,143.61c-.26-.11-.53-.23-.79-.34.2-.34.39-.69.59-1.03.21.21.55.39.6.63.04.21-.25.48-.4.75Z"/>
      <path class="cls-1" d="m720.5,138.52c-.11.22-.14.43-.24.47-.09.04-.26-.1-.39-.16.19-.09.38-.18.64-.3Z"/>
      <path class="cls-1" d="m716.13,138.25c-.05-.13-.1-.25-.14-.38.13-.05.29-.17.39-.13.09.04.11.24.16.37-.14.04-.27.09-.41.13Z"/>
      <path class="cls-1" d="m720.26,144.07c-.1-.05-.2-.09-.31-.14.06-.1.09-.26.18-.29.07-.03.2.08.3.12-.06.1-.11.21-.17.31Z"/>
      <path class="cls-1" d="m1038.15,93.58c.13,9.06-.97,10.1-10.14,9.5-4.22-.28-8.51-.26-12.63-1.08-1.68-.34-4.13-2.45-4.27-3.94-1.01-10.35-1.5-20.76-2.17-31.14-.22-3.37.38-6.4,4.19-7.22,4.49-.96,10.17-3.58,13.08,1.32,5.94,10.01,11.92,20.28,11.94,32.57Zm-24.39-24.66c.37.26.73.52,1.1.78.23,5.04.53,10.07.69,15.11.35,11.58.34,11.45,11.72,12.62,4.21.43,6.35-1.2,5.13-5.06-2.66-8.46-5.89-16.74-8.96-25.08-1.01-2.75-3.28-3.96-5.82-2.72-1.61.79-2.6,2.85-3.87,4.35Z"/>
      <path class="cls-1" d="m1014.28,18.01c8.13-1.22,16.25-1.29,23.04,4.48,4.31,3.66,8.53,7.75,11.65,12.41,11.69,17.45,22.95,35.19,34.27,52.88,1.53,2.39,2.51,5.13,3.74,7.71-.37.23-.74.46-1.11.7-1.51-2.16-3.09-4.27-4.52-6.48-11.12-17.24-22.13-34.56-33.38-51.71-2.48-3.78-5.69-7.11-8.79-10.44-5.06-5.44-11.41-7.89-18.86-7.63-2.09.07-4.19-.25-6.29-.39.08-.51.16-1.02.25-1.53Z"/>
      <path class="cls-1" d="m1090.86,134.59h-63.22c4.36-3.31,56.27-3,63.22,0Z"/>
      <path class="cls-1" d="m1051.85,51.47c-10.33-9.63-15.83-25.1-33.05-26.12.13-.6.26-1.2.4-1.8,2.26.12,4.81-.4,6.71.48,3.92,1.83,7.96,3.9,11.1,6.79,6.27,5.77,11.56,12.47,14.84,20.64Z"/>
      <path class="cls-1" d="m1047.06,141.8h40.51c0,.49.02.97.03,1.46-13.49,1.2-27,1.23-40.52.48,0-.65-.01-1.29-.02-1.94Z"/>
      <path class="cls-1" d="m1071.76,153.77h27.43c-1.68,2.49-21.82,3.31-27.43,0Z"/>
      <path class="cls-1" d="m1054.63,127.53c-5.39-.4-10.79-.8-16.18-1.2.02-.4.04-.79.06-1.19h16.24c-.04.79-.08,1.59-.12,2.38Z"/>
      <path class="cls-1" d="m1019.88,156.01c-3.03-.31-6.06-.62-9.09-.93.07-.74.14-1.49.21-2.23,3.03.31,6.06.62,9.08.93l-.2,2.22Z"/>
      <path class="cls-1" d="m1063.03,70.18c-1.77-2.63-3.54-5.27-5.31-7.9.6-.4,1.21-.8,1.81-1.2,1.71,2.67,3.42,5.34,5.14,8.01-.55.36-1.09.72-1.64,1.08Z"/>
      <path class="cls-1" d="m1045.68,119.35h-6.7c0-.41-.02-.81-.02-1.22h6.72c0,.41,0,.81,0,1.22Z"/>
      <path class="cls-1" d="m1077.32,172.06c-2.04.1-4.08.21-6.12.31-.05-.59-.11-1.19-.16-1.78,2.01-.23,4.02-.46,6.03-.7.08.72.16,1.45.25,2.17Z"/>
      <path class="cls-1" d="m1042.84,70.18c-.83-1.03-1.67-2.05-2.5-3.08.4-.33.81-.66,1.21-.99.84,1.02,1.67,2.04,2.51,3.07l-1.22,1Z"/>
      <path class="cls-1" d="m1044.53,153.5c-.12.23-.22.47-.37.66-.04.05-.38-.04-.39-.1-.04-.25-.01-.51,0-.76.26.07.51.13.77.2Z"/>
      <path class="cls-1" d="m742.05,181.7h-418.87c0-.49,0-.97,0-1.46h418.88c0,.49,0,.97,0,1.46Z"/>
      <path class="cls-1" d="m402.85,103.3c0-5.86.06-11.71-.02-17.57-.05-3.6,1.48-6.18,5.02-6.7,3.8-.56,7.81-1.05,11.49-.34,1.86.36,4.5,3.41,4.54,5.29.27,11.99.38,24.03-.4,35.99-.45,6.84-12.15,11.38-17.67,7.17-1.62-1.24-2.63-4.1-2.77-6.29-.38-5.83-.13-11.7-.13-17.56h-.07Zm5.47-8.38s.02,0,.03,0c0,2.6.08,5.21-.02,7.81-.15,3.93,2.46,3.91,5.22,3.86,2.81-.05,5.87.32,5.78-3.91-.09-4.39-.42-8.78-.36-13.16.07-4.24-1.43-6.11-5.99-6.07-4.75.04-4.72,2.85-4.66,6.11.03,1.79,0,3.58,0,5.37Zm10.19,17c-.05-.84-.1-1.69-.15-2.53-2.87,0-5.75-.03-8.61.15-.08,0-.02,2.2-.03,3.37,2.93-.33,5.86-.66,8.78-.99Zm-9.37,7.38c-.24.44-.47.88-.71,1.31.97.69,2,2.02,2.9,1.94,2.05-.18,4.04-1.05,6.05-1.64-.14-.54-.29-1.07-.43-1.61h-7.81Zm7.6-3.66l.28.18.05-.28-.32.1Z"/>
      <path class="cls-1" d="m990.2,111.47v13.8h-1.51v-13.81c.5,0,1.01,0,1.51.01Z"/>
      <path class="cls-1" d="m863.93,180.98c9.06,0,18.14-.21,27.19.06,8.76.26,17.99-1.26,26.76,6.19-5.18-.15-9.14,2.09-12.73-1.99-.79-.89-2.64-1.13-4.02-1.17-10.88-.3-21.77-.44-32.66-.72-1.62-.04-3.22-.56-4.83-.87.09-.5.19-1.01.28-1.51Z"/>
      <path class="cls-1" d="m874.52,176.4h15.76c-2.95,2.76-10.74,2.86-15.76,0Z"/>
      <path class="cls-1" d="m920.63,179.59c3.72-.22,7.45-.45,11.17-.67.05.71.1,1.42.15,2.12-3.73.19-7.46.38-11.19.57-.04-.67-.09-1.34-.13-2.01Z"/>
      <path class="cls-1" d="m832.3,184.53c-2.53.11-5.06.22-7.59.34l-.12-1.8c2.56-.25,5.12-.5,7.68-.75.01.74.02,1.48.04,2.22Z"/>
      <path class="cls-1" d="m905.87,191.59c-1.65.24-3.3.48-4.95.72l-.34-1.58c1.62-.35,3.23-.7,4.85-1.05.15.63.29,1.27.44,1.9Z"/>
      <path class="cls-1" d="m858.81,175.16c1.02-.16,2.03-.33,3.07-.49.09.76.17,1.29.15,1.3-1.01.2-2.03.35-3.05.5-.06-.44-.12-.87-.18-1.31Z"/>
      <path class="cls-1" d="m99.13,178.06c6.09-.3,12.17-.61,18.26-.91.03.81.06,1.61.1,2.42-6.12.31-12.24.63-18.36.94v-2.45Z"/>
      <path class="cls-1" d="m113.72,171.27h-5.04c-.04-.43-.08-.87-.12-1.3l5.04-.36.11,1.66Z"/>
      <path class="cls-1" d="m192.57,184.62h-4.76c0-.36,0-.72-.01-1.07h4.75c0,.36.02.72.02,1.07Z"/>
      <path class="cls-1" d="m103.28,174.17h-2.94c-.02-.39-.04-.79-.06-1.18l2.95-.13c.02.44.03.87.05,1.31Z"/>
      <path class="cls-1" d="m93.89,181.26c-.42.38-.89.94-.99.88-.42-.25-.73-.69-1.08-1.06.33-.24.67-.69.98-.68.33.02.64.48,1.09.85Z"/>
      <path class="cls-1" d="m115.12,109.39h12.93c0,.41.01.83.02,1.24h-12.93c0-.41-.01-.83-.02-1.24Z"/>
      <path class="cls-1" d="m743.78,12.98h-54.12c5.52-2.93,50.35-2.83,54.12,0Z"/>
      <path class="cls-1" d="m904.89,16.71h-31.17c-.02-.46-.05-.93-.07-1.39,10.41-.49,20.83-.98,31.24-1.46,0,.95,0,1.9,0,2.85Z"/>
      <path class="cls-1" d="m896.38,20.02h8.42c0,.41-.01.83-.02,1.24h-8.55c.05-.41.1-.83.15-1.24Z"/>
      <path class="cls-1" d="m881.55,20.06h7.6c0,.42,0,.84,0,1.26h-7.81c.07-.42.14-.84.21-1.26Z"/>
      <path class="cls-1" d="m215.39,112.22c2.44.12,4.87.24,7.31.36,0,.47-.02.94-.02,1.41h-7.42c.05-.59.09-1.18.14-1.77Z"/>
      <path class="cls-1" d="m818.24,19.86h23.19c-3.11,2.64-17.9,2.83-23.19,0Z"/>
      <path class="cls-1" d="m261.4,182.54h-5.82l-.03-1.41c1.9-.1,3.8-.2,5.71-.29l.14,1.71Z"/>
      <path class="cls-1" d="m462.66,24.5c-1.99-1.07-4.18-1.92-5.81-3.38-.35-.31,1.35-2.88,2.1-4.41,1.81,1.84,3.61,3.68,5.42,5.53-.57.76-1.14,1.51-1.71,2.27Z"/>
      <path class="cls-1" d="m447.52,22.22h-13.33l-.09-1.19c4.44-.23,8.87-.46,13.31-.69.04.63.07,1.25.11,1.88Z"/>
      <path class="cls-1" d="m126.25,194.69c-3.95,5.37-15.43,6.07-20.36,1.15,6.58-.37,13.55-.76,20.36-1.15Z"/>
      <path class="cls-1" d="m101.85,192.46c-1.65-1.26-2.33-1.77-3.01-2.29.73-.1,1.46-.28,2.18-.25.15,0,.26.77.82,2.54Z"/>
      <path class="cls-1" d="m252.49,190.44c-2.74,5.4-6.65,6.77-12.7,4.43,4.32-1.51,8.19-2.86,12.7-4.43Z"/>
      <path class="cls-1" d="m974.02,193.82c-2.52,5.45-7.06,7.19-12.17,4.8,4.03-1.59,7.78-3.06,12.17-4.8Z"/>
      <path class="cls-1" d="m955.41,198.27c-1.3-1.04-2.61-2.09-3.91-3.13.32-.43.64-.86.97-1.3,1.36.94,2.72,1.87,4.07,2.81l-1.13,1.62Z"/>
      <path class="cls-1" d="m844.84,196.75c4.68-.34,9.36-.69,14.26-1.05-.6,3.08-3.61,3.88-6.22,3.91-2.82.04-5.66-1.14-8.49-1.79.15-.36.29-.71.44-1.07Z"/>
      <path class="cls-1" d="m482.36,111.92h-25.81c0-.46,0-.92,0-1.38,8.6-1.47,17.21-.87,25.81-.51,0,.63,0,1.26,0,1.89Z"/>
      <path class="cls-1" d="m556.76,118.26h-9.34c0-.42-.02-.83-.03-1.25h9.34c.01.42.02.83.03,1.25Z"/>
    </g>
  </g>
</svg>