<?xml version="1.0" encoding="UTF-8"?>
<svg id="Layer_2" data-name="Layer 2" xmlns="http://www.w3.org/2000/svg" viewBox="0 0 124.33 26.68">
  <defs>
    <style>
      .cls-1 {
        fill: #004447;
      }
    </style>
  </defs>
  <g id="Layer_1-2" data-name="Layer 1">
    <g>
      <path class="cls-1" d="m123.89,24.21s-.16.16-.32.28c-.08-.32-.04-.64-.04-.92.04-.04.12-.12.24-.28-.08-.12-.16-.24-.24-.32l.24-.24c-.08-.12-.12-.2-.24-.4v-.6c.12,0,.2,0,.28-.04.04.04.08.08.08.08v2.43Zm-1.4-3.91c-.16.32-.56.48-.76.84-.16.36-.48.6-.76.92v.16c-.2.2-.44.44-.68.68h-.08c-.04.08-.08.12-.12.16-.16-.16,0-.16.16-.2-.12-.28.12-.48.24-.72.08-.24.4-.36.48-.6.08-.24.24-.32.4-.48.16-.2.36-.36.52-.56.2-.24.32-.48.52-.68.16-.24.4-.44.64-.64.04.08.08.12.12.2-.2.36-.56.52-.68.92m.24,2.07c-.2.12-.44.2-.56.44-.04.04-.04.12-.04.16-.4.44-.8.84-1.24,1.24,0,.04-.04,0-.04,0-.04-.04-.04-.12-.08-.16,0-.04,0-.08.04-.08.24-.28.48-.52.72-.76.04-.4.44-.56.64-.84v-.16c.24-.24.44-.48.68-.68.12-.04.28-.04.28.16-.12.2-.16.56-.4.68m.4,2.59c-.08.04-.2.12-.36.28h-.72c-.08.08-.12.12-.16.16-.08-.04-.16-.12-.28-.2h-.8c.08-.16.12-.28.16-.4.04-.08.12-.16.2-.24.36-.4.76-.76,1.16-1.2v-.2c.16-.16.32-.32.52-.48.04.08.08.16.12.24-.16.24-.4.36-.64.68v.2c-.08.12-.24.24-.36.32,0,.2-.04.32.16.32.48-.08.36-.64.76-.8.04.04.12.04.16.04s.08.04.08.08v1.2Zm-2.71-1.32v.28c-.16.16-.28.32-.48.44-.12-.08-.12-.16-.12-.2.16-.16.32-.4.6-.52-.04-.12.04-.2.16-.2v-.24c.2-.2.32-.44.6-.52v-.28c.24-.28.56-.52.68-.88.04-.08.12-.24.32-.2-.04-.16.04-.2.16-.2,0-.16.08-.2.2-.2.04-.2.2-.28.36-.4.04.12.04.24.04.36-.16.04-.28.04-.4.04,0,.12-.04.2-.2.2.04.12-.04.2-.16.2v.28c-.08.08-.16.12-.2.2v.2c-.28.2-.44.56-.8.68v.28c-.2.16-.32.4-.6.48.04.16-.04.24-.16.2m-.04,1c.08,0,.16,0,.2.08-.08-.04-.12-.08-.2-.08m-.48.76h-.36c-.28-.2,0-.48-.12-.64.12-.16.2-.24.28-.32h.12c.04.12.12.2.2.2.28.4.08.56-.12.76m1.56-13.64c-.2.28-.52.44-.68.8-.12.32-.52.48-.68.8-.28.56-.8.88-1.16,1.36-.12-.16-.16-.28-.04-.36.16-.16.12-.44.32-.56.16-.12.2-.4.36-.52.2-.16.2-.4.36-.56.16-.16.32-.32.48-.48.08-.08.16-.16.16-.24-.04-.32.44-.36.44-.72-.04-.08.12-.2.24-.28.2.08.32.28.48.44-.04.36.44.44.44.84-.12,0-.24.04-.36.08-.24.24-.48.52-.72.76h-.12v.2s.04.08,0,.08c-.12.12-.16.28-.2.4-.12.24-.4.32-.4.64-.28.24-.56.52-.88.88-.08-.12-.16-.24-.28-.36.24-.2.44-.4.64-.6.2-.2.24-.52.48-.68.24-.2.4-.4.64-.64v-.2c.32-.24.48-.6.6-.92-.04-.08-.08-.12-.12-.16m-2.95,2.35c-.12,0-.28,0-.24-.24.08-.32.52-.4.6-.8.04-.32.56-.4.56-.84.24-.24.52-.48.76-.72,0-.04-.04-.04-.04-.04.12-.2.24-.36.36-.52.12.12.2.2.28.32-.28.28-.68.56-.88.88-.2.4-.56.68-.84,1.04-.16.32-.2.68-.56.92m-.96-.04c-.04-.08-.08-.12-.08-.2,0-.16.28-.24.2-.48.2-.2.48-.32.56-.56.08-.28.28-.4.4-.6v-.2c.36-.32.72-.64.92-1.08.08-.16.28-.28.36-.4.2.04.32.04.32.28,0-.04,0,0-.04.04-.36.4-.76.76-1.16,1.16v.2c-.32.24-.4.68-.72.96-.32.24-.36.72-.76.88m-.4-.56c-.12.16-.24.28-.36.4-.12-.04-.16-.04-.24-.04-.12-.16,0-.32-.04-.44.12-.16.32-.32.36-.48.04-.2.2-.28.32-.44.12-.16.32-.24.28-.48.24-.24.44-.48.72-.68.28-.24.32-.6.6-.84.2-.2.36-.48.52-.72h.24q.08.08.08.44c-.08.24-.36.28-.4.52-.04.28-.36.32-.36.52-.04.24-.2.36-.32.48-.16.16-.32.32-.48.48.04.24-.16.36-.28.48-.16.12-.08.36-.28.48-.12.08-.24.2-.36.32m-1.44.32c.04.12-.04.24-.16.32-.36.24-.44.76-.8,1.04-.04,0,0,.12-.04.16-.16.2-.44.36-.52.56-.08.28-.24.44-.44.64v.52c-.08.16-.16.28-.32.56-.12.16-.48.36-.6.68-.16.28-.4.48-.6.72-.08.12-.04.32-.2.4-.24.12-.2.44-.4.6-.16.16-.32.36-.48.48-.16.16-.12.36-.28.48-.16.12-.28.28-.4.44-.08.08,0,.24-.16.28h-.2c-.16-.2,0-.44-.08-.64.2-.12.36-.24.56-.36.04-.24.04-.44.04-.68.32-.32.64-.64.96-.96v-.36c.2-.2.48-.36.56-.6.08-.24.28-.4.4-.6.08-.04.04-.2.08-.24.24-.28.48-.48.64-.8.16-.28.44-.52.68-.72.16-.12.12-.36.28-.48.28-.16.28-.52.56-.76.24-.2.44-.44.68-.68.16-.28.24-.6.48-.88.2-.2.28-.56.56-.72-.08-.28.28-.36.2-.6.44-.44.84-.84,1.24-1.24h.32c-.08.16-.16.32-.28.56-.28.24-.6.56-.92.88,0,.08.04.16,0,.2-.24.28-.56.52-.68.88-.32.24-.36.68-.68.92m-1.16,5.62l.04-.04s.12.04.16.04t-.08.08s-.08-.04-.12-.08m.36,5.5s-.04.04-.12.08c-.12-.36,0-.76-.08-1.12-.04-.04-.08-.08-.12-.12,0-.24.16-.12.32-.16v1.32Zm-1.16-.8c.08.24-.16.32-.28.44h-.44s-.04-.04-.04-.08l.04-.04c.44-.28.52-.8.88-1.08.08-.04.12-.08.16-.12.16.12.04.32.12.52-.16.08-.28.24-.44.36m.28.48s-.04-.04-.04-.08.04-.08.04-.12c.04.04.08.04.08.08s-.04.08-.08.12m-1.52,0h-.24c-.16-.16-.04-.32-.08-.56.12-.12.28-.28.48-.4.16-.12.04-.36.24-.48.24-.12.24-.36.36-.52.12-.16.28-.24.32-.48.04-.2.28-.32.44-.48.2.16.08.4.12.64-.36.32-.48.84-.92,1.12-.08.52-.68.64-.72,1.16m-.28-1.2c-.04-.12,0-.2.16-.16,0-.12-.04-.2,0-.28.04-.04.08-.08.12-.08.08.04.08.16.08.2-.04.08-.12.12-.2.16,0,.12-.08.2-.2.16-.04.08-.08.16-.12.2-.12-.16.04-.16.16-.2m.32-.56h.04c0-.08.08-.12.12-.2.12.16,0,.16-.16.2m-.36-2.43c-.2.16-.36.36-.56.52,0,.44-.52.56-.6.92-.12.36-.48.52-.72.84-.04-.12-.08-.2-.08-.28.12-.2.32-.36.36-.52.08-.24.24-.32.36-.44.2-.16.2-.4.36-.56.12-.16.32-.24.4-.4.12-.36.4-.56.64-.84,0-.36.48-.48.48-.84.12-.16.28-.32.44-.48.04.08.12.16.08.2-.08.2-.16.4-.28.56-.12.2-.32.4-.48.6,0,.32-.48.36-.4.72m-.56,2.11c-.16.2-.44.32-.44.6-.16.2-.4.36-.52.56-.08.2-.16.36-.28.48-.12.08-.2.16-.32.28,0-.16-.04-.32,0-.32.16-.12.12-.36.24-.48.16-.16.12-.44.36-.56.2-.08.08-.36.28-.48.04-.04.04-.16.12-.32.2-.2.44-.44.72-.68-.08-.4.48-.44.4-.84.16-.16.32-.32.48-.48.16-.16.12-.4.36-.52.2-.12.12-.4.32-.56.2-.12.32-.32.44-.44.16.08.28.16.4.24-.08.36-.32.48-.52.68-.16.16-.32.36-.4.6-.08.24-.24.44-.4.6-.16.2-.44.32-.48.6-.04.28-.4.32-.4.6-.04.16-.24.32-.36.44m-.84,1.99s-.08,0-.16-.04c.2-.12.16,0,.2.16.04-.04.12.04.16.08-.16.12-.16-.04-.2-.2m-.96-7.26v-.68l.4-.8c.08-.16.24-.28.24-.48.2-.2.32-.44.48-.68.12-.2.4-.32.44-.52.04-.24.24-.4.4-.52.2-.12.16-.4.32-.52.12-.08.2-.2.28-.28-.12-.16-.32-.08-.48-.12-.08.16-.16.36-.28.44-.2.16-.16.4-.32.56-.16.16-.28.28-.44.4-.2.24-.48.4-.6.64-.08.28-.28.4-.44.68v.44c-.32-.16-.12-.36-.2-.48-.04-.08-.12-.16-.16-.24.16-.16.36-.36.52-.52.12-.24.2-.48.32-.68.08-.2.36-.28.32-.56.16-.16.32-.36.48-.48.24-.16.28-.44.44-.6.12-.16.32-.28.36-.32.08-.28.12-.36.16-.44h.2s.08.04.08.04c0,.32.04.6.04.88.16.12.24.24.36.36v.76c-.2.16-.2.48-.44.68-.16.16-.2.44-.32.64-.04.04-.04.12-.08.16-.24.16-.28.4-.44.6-.12.2-.32.32-.48.48-.12.2-.2.4-.36.56-.16.12-.16.4-.32.52-.08.08-.12.12-.2.2-.08,0-.16-.04-.2-.04-.04-.04-.08-.04-.08-.08m-.6-2.43h-.24c-.16-.08-.2-.24-.08-.32.2-.12.12-.32.16-.52.2-.2.4-.36.56-.52v-.28c.08-.12.24-.16.2-.32,0-.04.04-.12.08-.16.2-.16.28-.4.44-.6.16-.28.44-.48.68-.68v-.2c.08-.12.16-.2.28-.32h.56s.04.04.08.08c-.08.16-.12.36-.24.52-.2.24-.44.44-.56.72-.16.36-.56.52-.76.88-.16.32-.48.56-.76.88.08.4-.6.4-.4.84m-.52-.92c-.24.24-.52.52-.76.76-.12-.04-.2-.08-.32-.12.16-.28.24-.6.48-.8.2-.2.36-.44.48-.68.04-.12.08-.28.16-.36.16-.16.28-.36.4-.6.12-.2.4-.36.48-.56.08-.24.28-.36.4-.52.04-.08,0-.16,0-.2.16-.16.32-.32.48-.48h.4c.12.08.16.2.08.32-.12.16-.32.24-.4.52-.04.2-.32.32-.44.48-.12.28-.36.48-.44.72-.12.24-.28.4-.44.6.04.36-.48.4-.44.8,0,.04-.08.08-.12.12m-1.4.32s0,.08,0,.12c-.24.28-.6.48-.72.88h-.16c-.28.24-.52.52-.8.76-.16-.12-.16-.24,0-.36.4-.32.44-.88.72-1.24.16-.32.56-.44.56-.84.28-.28.52-.52.76-.76.04-.4.48-.48.56-.76.12-.36.36-.52.56-.76.24-.24.44-.44.64-.64.04-.28-.16-.44-.32-.48-.24,0-.28-.2-.44-.28.16-.12.32-.2.52-.28.04.04.08.08.16.16h.24c.24.12.36.2.48.28-.04.12-.04.24-.08.24-.32.2-.32.64-.64.84-.16.12-.08.36-.24.48-.16.08-.24.2-.36.32-.04.08-.04.2-.08.28-.08.12-.28.2-.2.4-.16.2-.36.36-.56.56-.04.04,0,.12-.04.16-.24.28-.44.6-.56.92m-2.23,1.52c-.36.36-.44.84-.72,1.2-.12.16-.08.44-.24.56-.28.24-.32.6-.6.84-.2.16-.28.4-.44.6-.12.16-.24.36-.36.52-.12.2-.08.44-.32.56-.2.08-.12.36-.28.48-.24.2-.36.48-.48.76-.08.2-.16.28-.32.4-.16-.2-.04-.44-.08-.68.36-.16.36-.64.68-.88.08-.36.4-.56.6-.8.04-.04.04-.12.08-.16.16-.24.2-.52.44-.72.2-.16.16-.44.4-.6.2-.16.16-.44.4-.64.16-.12.24-.4.32-.6.08-.28.4-.32.44-.64,0-.16.28-.32.36-.52.04-.2.24-.28.32-.44.08-.2.16-.4.36-.52.04.04.08.08.12.12-.12.24-.2.48-.32.64-.16.16-.2.4-.36.52m-.32,8.09c-.08.28-.52.32-.36.76h-.52l-.08-.08c.08-.12.24-.2.16-.4.24-.24.48-.44.72-.68.16.08.04.28.08.4m-1.48.76h-.2s-.04-.16-.04-.16c.2-.08.12-.32.28-.48.28-.2.36-.68.68-.88.04,0,.12-.04.16-.04,0-.08,0-.2.04-.28,0-.04.08-.08.12-.08.04.04.08.16.04.2-.04.08-.12.12-.2.16v.28c-.48.28-.44.96-.88,1.28m1.08-1.95h0c.04-.08.08-.12.12-.2.12.2,0,.16-.12.2m-2.07,2.15h-.16c-.24-.2,0-.44-.16-.68.24-.2.48-.36.64-.52v-.28c.28-.24.52-.52.72-.72.12-.24.2-.44.4-.8.08-.16.52-.28.48-.72h.36c0,.2.04.32,0,.44-.08.2-.2.36-.32.56-.12.2-.44.28-.44.6-.04.24-.4.28-.44.6,0,.24-.4.28-.36.64-.32.2-.36.64-.72.88m-1.04-.4c0,.08.04.2,0,.28-.04.04-.08.04-.16.08-.04-.08-.08-.16-.04-.24.04-.04.12-.08.2-.12-.08-.28.24-.44.2-.68.36-.28.4-.72.76-.96.2-.12.16-.36.28-.48.12-.16.32-.28.36-.56.04-.16.32-.28.32-.44.08-.28.4-.32.44-.6.04-.2.12-.4.28-.56.16-.2.28-.4.4-.64.04-.04.12-.12.2-.16.04.04.08.04.08.08v1c-.12.08-.2.28-.44.28-.12.04-.32.2-.32.32-.04.24-.2.32-.32.48-.12.12-.08.36-.28.48-.2.08-.16.32-.28.44-.12.16-.32.24-.32.48-.24.28-.52.56-.8.88q-.04.24-.56.64m-.2.4c-.04.08-.08.12-.12.16-.12-.16,0-.16.16-.2-.04,0-.04.04-.04.04m-.6-1.08c.32-.32.68-.64,1-.96-.08-.36.12-.6.28-.88.08-.16.08-.36.24-.48.12-.08.24-.2.28-.36.04-.16.28-.28.32-.44.08-.16.12-.32.24-.4-.04-.24.16-.32.28-.48.04-.08.08-.16.12-.24.16-.32.32-.68.64-.92.2-.12.12-.4.36-.56.12-.04.2-.08.36,0v.64c-.12.12-.28.2-.36.36-.04.16-.08.28-.2.4-.16.16-.36.28-.44.52-.04.2-.32.32-.36.52-.04.28-.28.36-.4.52.12.28-.32.36-.2.6-.16.2-.36.32-.44.6-.04.2-.36.28-.32.56-.28.24-.52.52-.6.6-.24.36-.36.52-.48.72-.12-.12-.2-.24-.32-.32m.6-1.56c-.08.08-.16.16-.28.24-.16,0-.08-.16-.12-.24.08-.12.2-.2.28-.28.2.04.12.16.12.28m4.75-7.94c-.12-.16.04-.16.2-.2-.04-.04,0-.12.04-.16.16.16,0,.16-.16.2.04.04,0,.12-.08.16m-4.75,6.06c-.12-.36.2-.56.2-.88.48-.4.6-1.04.96-1.52.04-.36.32-.6.4-.92.04-.08.04-.12.08-.16.12-.16.32-.28.4-.44.16-.4.48-.64.76-.92.2-.16.12-.44.36-.56.16-.08.16-.28.2-.4.12-.16.32-.24.36-.44.04-.16.16-.28.2-.4,0-.16.16-.2.2-.32.12-.16.44,0,.4-.32.12-.12.24-.28.36-.44.04-.04,0-.2.08-.24.24-.28.48-.52.76-.76.04-.04.08-.04.16-.08,0-.08.08-.12.12-.16.12.16-.04.12-.2.2.16.24-.16.4-.12.64-.36.28-.44.72-.76.96-.12.12-.2.24-.24.4,0,.16-.28.24-.32.36-.08.28-.24.44-.44.6-.08.12-.24.2-.2.4-.2.28-.36.56-.56.84-.2.28-.28.64-.52.88-.04.04-.08.08-.08.16-.08.12-.16.24-.2.4-.12.32-.48.44-.6.72-.12.24-.16.52-.36.72-.28.24-.32.64-.64.84-.08.04-.12.12-.16.2-.08.2-.16.44-.28.6-.16.24-.4.4-.6.64-.04-.08-.08-.16-.16-.32.16-.08.32-.2.44-.28m-.16-6.74c.24-.44.44-.88.68-1.28.04-.08.08-.16.12-.32.16-.16.36-.36.56-.56.24-.2.24-.52.48-.68.16-.12.24-.36.28-.56.04-.2.2-.24.28-.4h.68c-.08.2-.12.4-.2.52-.2.2-.36.4-.48.68-.12.2-.44.28-.48.56-.04.24-.28.32-.4.52-.08.08-.16.12-.2.2-.08.2-.12.44-.24.6-.12.16-.36.28-.44.48-.12.32-.36.52-.56.76-.2-.16-.16-.4-.08-.52m-.04-1.52c.32-.48.52-1.04.8-1.52.12-.2.32-.4.44-.56h.24s.08.08.08.16c.08.28-.16.52-.24.76-.12.28-.52.36-.56.76-.2.2-.44.44-.68.68-.04-.12-.12-.24-.08-.28m.08,5.38s.08.04.12.04t-.08.08s-.08-.04-.12-.08c.04,0,.04-.04.08-.04m1.67-3.47c.24-.2.44-.4.64-.64.2-.2.24-.56.56-.72.28-.16.12-.6.52-.64.28.28-.08.56-.16.8-.12.24-.36.44-.56.64.08.24-.24.32-.24.6,0,.16-.32.24-.36.52-.04.16-.24.28-.4.4.12.28-.28.36-.2.6-.32.2-.32.6-.6.84-.24.16-.2.52-.48.64h-.4c-.04-.08-.08-.2-.08-.32.08-.08.24-.2.32-.32.08-.08.12-.2.16-.32.12-.28.24-.48.48-.68.28-.24.28-.64.6-.8-.12-.28.32-.36.2-.6m1.16,1c-.32.32-.64.64-.96.96,0,.08.04.16,0,.2-.36.2-.36.76-.76.88v.08c0,.08,0,.16-.04.2-.28.4-.4.88-.64,1.28-.08.08-.16.12-.24.2h-.08c-.04.08-.08.12-.12.16-.12-.16.04-.12.16-.2-.04,0-.04-.04-.04-.04,0-.08-.04-.16,0-.2.32-.4.44-.88.68-1.28.04-.08.12-.12.2-.2h.12c-.12-.28.24-.44.2-.68.28-.2.28-.56.52-.76.16-.12.2-.32.28-.44.16-.2.12-.44.36-.56.2-.08.12-.36.28-.48.28-.2.28-.64.6-.8h.2c.16.16-.08.2-.12.32v.36c-.12.12-.24.28-.4.4.12.28-.28.36-.2.6m.8-5.26v1.2c-.24.16-.36.44-.52.64-.2.24-.28.56-.52.76-.2.2-.44.36-.56.68-.08.24-.36.44-.56.64,0,.04.04.16,0,.16-.2.12-.12.4-.28.48-.28.16-.28.52-.48.72-.12.08-.24.2-.36.32-.08-.08-.16-.12-.28-.16.08-.16.16-.28.24-.4.08-.16.12-.36.2-.52.08-.12.24-.24.32-.36.08-.24.28-.4.4-.6.12-.24.32-.4.4-.64.08-.24.32-.36.4-.6.08-.16.12-.28.24-.4.12-.12.32-.28.36-.44.04-.2.24-.28.32-.44.12-.16.08-.36.28-.48-.04-.24.16-.32.4-.56m.88,1.67c.24-.28.52-.56.76-.8h.44c.04.2-.16.32-.16.52-.08.04-.16.04-.4.08-.12.12-.32.32-.52.56q-.12-.08-.2-.2c0-.08.04-.12.08-.16m2.15.2c.12-.24.4-.36.52-.68.08-.2.28-.36.44-.52.12.12.24.2.32.28-.12.08-.2.2-.28.28h-.2c-.2.16-.16.4-.36.56-.2.12-.32.32-.4.6-.08.16-.36.24-.36.52,0,.08-.16.2-.28.28-.04.04-.16,0-.32-.04.2-.24.4-.4.52-.68.08-.2.28-.4.4-.6m5.18,2.59c.24-.08.44-.2.6-.44v-.36c.32-.32.64-.64.96-.96v-.56c.24-.24.44-.48.68-.72.2.08.28-.12.4-.2h.4c.04.12.08.2.08.28-.16.28-.52.44-.64.8-.08.32-.52.44-.6.84-.32.36-.68.68-1.04,1.08-.12.2-.16.48-.32.68-.24.24-.32.56-.56.76-.2.16-.24.48-.44.68-.2.2-.28.52-.52.64v.24c-.4.36-.76.76-1.16,1.16-.08.24-.32.68-.48.88-.28-.24.04-.36.08-.6-.04-.08-.08-.16-.16-.32.44-.28.6-.88,1.04-1.24.16-.12.08-.36.28-.48.2-.08.2-.32.28-.48.12-.12.32-.2.32-.44.32-.32.44-.76.8-1.04v-.2Zm3.23-4.19c.08,0,.16,0,.24.04-.04.16-.2.24-.28.36-.08,0-.16-.04-.24-.04.04-.2.16-.24.28-.36m-5.54,9.53s-.04.04-.04.04c-.04.04-.08.12-.12.16-.12-.16,0-.16.16-.2m5.34-7.02c-.12.2-.36.28-.48.48-.12.16-.16.4-.24.56-.04.08-.12.16-.16.24-.16.2-.44.28-.4.6-.16.16-.4.28-.48.48-.12.28-.32.44-.48.68-.08.12-.08.28-.2.4-.36.28-.6.68-1,.88v.32c-.08.04-.16.12-.2.2-.04.04-.16.08-.16.12,0,.32-.32.44-.44.68-.04.16-.12.28-.2.44v.12c-.32.24-.52.64-.92.84-.04-.08-.04-.16-.04-.28.16-.16.4-.28.4-.6.2-.08.16-.32.28-.48.16-.12.28-.24.4-.4.08-.08.08-.16.12-.32.24-.16.4-.52.76-.64v-.28c.16-.28.52-.4.6-.72.36-.44.56-.92.88-1.6.12-.08.32-.28.56-.52.2-.24.44-.44.56-.72.12-.28.52-.4.52-.76.24-.16.32-.44.6-.48,0-.08.08-.12.12-.2.12.2-.04.16-.2.2.16.32-.08.52-.2.76m1.16-3.11c.28,0,.28.12.28.32-.08.04-.2.12-.4.24-.04,0-.2.08-.32,0,0-.04-.04-.08-.04-.08.16-.16.32-.32.48-.48m1.24-.2h.16c.24.08.44.2.64.28q-.12.36-.76.88v-.84c-.08-.08-.16-.16-.2-.2.04-.04.08-.08.16-.12m4.27,3.35c.12.2.04.44.04.64-.2.28-.52.44-.64.84-.08.28-.48.36-.52.72-.04.12-.16.2-.28.28-.28.28-.4.6-.48.8-.32.32-.56.56-.8.8,0,0-.08,0-.12-.04-.16-.2-.04-.4-.08-.6.2-.24.4-.44.6-.68-.08-.32.44-.36.36-.72.28-.2.36-.48.56-.72.16-.24.28-.48.48-.68.2-.24.44-.48.64-.68.12.04.16.04.24.04m.24,1.87c-.2.2-.48.44-.72.72-.16.16-.4.28-.44.56-.04.24-.36.28-.4.52,0,.24-.2.32-.36.44-.16.16-.2.4-.32.56-.12.16-.24.28-.32.4-.16,0-.24-.04-.32-.04.08-.16.12-.36.24-.52.12-.24.44-.36.48-.68.08-.24.44-.28.4-.6,0-.08.12-.16.2-.2.16-.2.44-.32.4-.64.16-.16.32-.32.48-.48.16-.16.12-.48.48-.56h.12c.16.12.04.32.08.52m.24,1.12c-.16.12-.32.2-.44.24v.36c-.24.24-.48.52-.72.76.04.36-.48.44-.44.8-.16.16-.32.32-.48.48-.12.16-.28.24-.32.44-.04.2-.28.36-.48.56-.08-.08-.16-.16-.24-.24.08-.32.2-.56.44-.76.12-.08.2-.16.28-.28.04-.04,0-.16.04-.2.32-.28.44-.72.76-1.04,0-.28.36-.32.36-.52.04-.28.24-.36.36-.52.16-.16.36-.28.28-.56h.48c.16.12.04.32.12.48m-1.2,1.95c.36-.32.72-.68,1.12-1.04,0,.08.04.16.04.24-.16.28-.56.44-.6.84-.24.24-.52.48-.76.76v.16c-.12.24-.44.32-.4.64-.16.16-.32.32-.44.6-.08.2-.2.4-.32.64-.12.16-.16.36-.28.56-.12.16-.28.28-.4.4q-.12-.28-.12-.68c.2-.2.4-.36.56-.56v-.36c.12-.24.44-.32.4-.64.28-.24.52-.48.76-.76-.04-.36.48-.4.44-.8m1.36.8c-.36.2-.4.64-.68.88-.28.28-.68.44-.72.88-.24.24-.48.52-.72.76-.08.44-.48.56-.72.92-.04-.04-.08-.08-.16-.16.12-.16.2-.28.24-.4.08-.16.12-.36.24-.48.08-.16.2-.24.28-.36.08-.12.08-.28.16-.32.16-.16.08-.44.32-.56.2-.08.16-.32.28-.48.08-.08.08-.2.16-.4.28-.24.6-.56.92-.88,0-.08,0-.12.04-.24.08-.04.2-.04.32-.04.08.32,0,.6.04.88m-23.09,2.39s-.12-.04-.12-.08v-2.55c.08-.04.2-.04.28-.08.04.08.08.12.08.12v2.35c-.12.12-.2.2-.24.24m.24,1.44c-.08.16-.16.28-.24.4-.08-.08-.12-.12-.12-.12v-.88s.04-.12.08-.28c.12.24.2.4.28.64v.24Zm-.28-8.41l.08.08c.04.92.04,1.83.04,2.71.04.08.12.16.16.24v.4c-.08.08-.16.16-.28.24,0-.04-.08-.04-.08-.08v-3.47s.04-.08.08-.12m.04-1.91c.04.08.16.24-.04.32q-.08-.24.04-.32m.08-.04c0-.08.04-.12.08-.2.16.16,0,.16-.12.2h.04Zm24.12,9.81s-.08-.12-.12-.16v-1.36c.04-.08.12-.2.2-.28-.08-.12-.12-.24-.2-.32.04-.08.12-.12.16-.2-.04-.08-.12-.12-.2-.2v-2.31c-.08-.08-.12-.16-.2-.24v-2.75c-.12-.32-.16-.44-.24-.6-.12-.04-.2-.08-.32-.12.08-.2-.12-.28-.2-.44v-1.52c-.48-.52-1-1-1.48-1.52-.32.24-.48-.24-.8-.16-.4-.28-.84-.56-1.4-.64-.04,0-.08-.08-.12-.12h-1.95c-.08-.08-.12-.16-.2-.2h-.56c-.24.2-.44.4-.68.56-.16.12-.4.16-.56.24l-2.15,2.15s-.08.08-.16.12c0,.04-.04,0-.08-.04.08-.36-.28-.64-.24-1.04-.12-.16-.36-.24-.4-.52,0-.16-.24-.28-.36-.44-.16-.16-.32-.32-.48-.48h-.76c-.12.12-.24.16-.32.24-.28-.16-.52-.28-.72-.4h-1.28c-.44.2-.8.4-1.16.56-.32.16-.64.32-.96.52-.16.12-.32.28-.48.44-.32-.04-.4.32-.64.4-.08-.28-.04-.56-.04-.84.04-.08.12-.16.2-.24.08-.08.2-.12.16-.36-.04-.04-.12-.12-.16-.24-.04-.12,0-.24,0-.32-.12-.16-.2-.24-.28-.32-.32.16-.32.56-.6.76-.2-.12-.4-.24-.64-.36h-2.11s-.12.12-.2.16h-1.36c-.16.2-.32.36-.48.52v2.11c-.08.08-.16.16-.2.2v9.97c.08.08.12.16.2.24v2.71c.36.24.44.68.76.96.04.04.04.16.04.28h4.9s.08-.08.16-.12v-.36c-.08-.08-.16-.16-.2-.2v-1s.08-.08.16-.16v-6.06c.08-.08.16-.12.2-.16.32-.36-.24-.52-.16-.8.2-.12.44-.2.56-.44v-.2c.48-.36.8-.92,1.4-1.16.04,0,.08-.04.12-.04h.6s-.04.04-.08.08c.12.04.24.08.36.16-.2.16-.32.24-.2.44.24.08.4.16.56.36v.96c.04.08.12.16.2.24v1.52c.08.08.12.16.2.24v5.26c.32.16.04.56.36.72,0,.24,0,.44.04.72h4.67l.96-.96v-1.32c-.08-.04-.12-.08-.2-.16v-5.86c-.08-.08-.12-.12-.2-.2v-.8c.28-.16.24-.48.48-.64.2-.16.28-.48.48-.68.2-.16.36-.36.52-.48h1c.2.2.4.36.56.56h.2c.08.16.16.32.32.56v1.48s0,.04.04.04c.04.08.08.12.12.16-.04.08-.12.12-.16.2q.36.56.36,1c-.08.08-.12.16-.16.2v1.36c.08.08.12.12.16.2v3.07s0,.04-.04.08c-.04.04-.08.08-.12.16v.16c.04.08.12.16.16.24l-.16.16c.04.12.12.16.2.24.2.32-.28.44-.24.72.08.08.12.16.2.24,0,.12.04.28.04.44h2.39c.12-.08.24-.12.32-.2.12.08.2.16.28.2h1.79c.12-.08.2-.2.28-.28v-.72c.16-.28.28-.48.36-.68v-2.75s0-.12-.04-.16m-28.55-5.22c-.24.24-.6.48-.72.76-.16.32-.48.48-.56.76-.16.36-.44.6-.72.88-.2.16-.16.44-.4.6-.2.12-.36.28-.36.52,0,.08-.08.12-.12.16-.16.16-.36.32-.48.48-.16.16-.4.28-.36.52-.16.2-.32.36-.48.52l-.48.48v.2c-.36.2-.44.68-.76.96-.28.24-.4.68-.76.92-.08.44-.52.64-.72.92h-.68c.08-.2.12-.4.24-.52.16-.2.32-.4.4-.6.12-.28.44-.36.52-.68.04-.24.44-.32.4-.64l.48-.48c.12-.16.12-.4.32-.52.2-.12.16-.4.36-.56.16-.12.32-.32.48-.48.12-.12.28-.24.32-.44.04-.16.2-.32.36-.44.2-.12.16-.32.28-.48.16-.2.4-.36.48-.56.12-.28.32-.4.48-.6.16-.2.36-.36.56-.56.2-.16.36-.36.56-.52v-.12c.4-.4.76-.76,1.12-1.12.08.08.16.16.24.24v.4Zm-.24,2.75c-.2.16-.12.32-.16.52-.2.28-.44.52-.76.64v.2c-.24.24-.48.44-.72.68-.2.2-.4.44-.6.6-.24.2-.24.44-.4.64-.2.2-.32.48-.52.68-.16.2-.4.4-.6.6h-.32c0,.08-.04.12-.08.2-.16-.16,0-.16.16-.2,0-.16.08-.32.2-.56.28-.24.6-.56.92-.88v-.16c.24-.4.6-.6.8-1,.2-.32.64-.56.84-.92.28-.56.8-.88,1.16-1.36.16.08.2.24.08.32m-1,3.55c-.28.04-.44.28-.6.44h-.4c-.08.08-.16.16-.28.24-.04,0-.08.08-.12.12-.16-.16,0-.16.16-.2-.04-.08-.04-.16-.04-.28.12-.12.24-.28.4-.4.12-.12.2-.28.44-.28.16-.04.28-.24.4-.4.12.12.2.2.32.32.04.24-.16.4-.28.44m-2.15,1.56s-.08-.04-.12-.04t.08-.08s.08.04.12.08c-.04,0-.04.04-.08.04m-1.48-.92v.28c-.08.08-.2.16-.32.28-.04-.08-.04-.12-.08-.2.08-.2.2-.32.4-.36v-.36c.12-.12.28-.24.36-.32.04-.12.04-.16.04-.24.08-.08.16-.12.2-.2.24-.32.64-.48.76-.88.12-.36.6-.48.64-.88.16-.2.36-.4.52-.56,0-.32.28-.4.44-.6.16-.24.44-.36.56-.64.08-.32.44-.44.52-.68.12-.32.32-.52.56-.72.04.04.08.04.08.08v.8c-.28.28-.56.6-.88.88-.28.2-.32.6-.6.84-.28.2-.6.44-.76.72-.24.48-.72.76-.96,1.16-.32.64-.88,1-1.32,1.52-.04.04-.12.04-.16.08m-3.23,1.56h-.44c0-.12-.04-.2-.08-.28.16-.16.28-.28.44-.44-.08-.32.36-.36.4-.68,0-.16.16-.32.28-.6.16-.16.44-.4.68-.64v-.2c.08-.12.2-.2.28-.28.16-.04.32-.04.44,0,.2.36-.2.44-.32.64-.08.2-.16.4-.2.56-.36.32-.64.64-.92.88-.16.44-.24.8-.56,1.04m-1.04-.32c0,.24-.2.36-.36.52-.08-.04-.12-.04-.2-.04-.04-.08-.04-.16-.08-.24.08-.08.16-.16.2-.24v-.56c.28-.28.6-.52.76-.88.2-.32.48-.52.72-.76.24-.28.52-.56.8-.84.16.04.32-.04.52.16-.24.16-.44.36-.64.56-.12.12-.28.2-.36.36-.04.12-.04.28-.2.4,0,.28-.28.4-.4.64v.16c-.28.24-.52.48-.76.76m-.8-.76c-.04.36-.32.52-.6.68-.04,0-.12-.04-.2-.08v-.56c.08-.12.16-.24.32-.48.12-.12.36-.36.68-.64,0,0,.08-.04.12-.04,0-.48.64-.6.68-1.08.2-.12.44-.04.68-.04.04.08.04.16.08.24-.32.32-.64.64-.96.96-.12.48-.56.68-.8,1.04m-1.48.08c-.16-.12-.16-.24,0-.36.12-.12.08-.28.08-.48.12-.2.36-.36.48-.64.12-.28.44-.48.64-.72l.64-.64.4.4c-.2.2-.4.4-.6.6.04.36-.28.44-.48.68-.16.2-.36.36-.52.52-.2.24-.44.44-.64.64m-.4-.96c-.32-.08-.36-.16-.24-.36.08-.12.16-.2.16-.32.44-.44.88-.88,1.32-1.36,0-.04.04-.12.04-.24.12-.08.2-.12.36,0,0,.08.04.24.04.32-.04.08-.08.16-.12.2-.24.28-.52.52-.8.8l-.36.36c-.08.12-.12.28-.2.4-.08.08-.16.12-.2.2m-.76-.64s-.04,0-.08,0c0-.08-.04-.2,0-.24.12-.2.32-.36.4-.6.08-.24.36-.4.52-.6.04,0,0-.12,0-.16.24-.24.48-.48.72-.68.08.08.24.16.28.32q-.32.52-.84.84c-.2.12-.36.28-.36.52-.2.2-.44.4-.64.6m-.56-.24c0,.12-.16.28-.28.28-.24,0-.32-.2-.4-.24.2-.44.4-.84.6-1.28.24-.28.52-.6.84-.84.36-.28.44-.72.76-.96.12.12.2.2.32.32-.04.04-.04.2-.08.24-.28.16-.32.44-.48.68-.2.2-.32.48-.52.64-.2.2-.28.48-.48.72-.12.12-.2.24-.28.44m-1.08-.68s-.12-.04-.16-.04c-.16-.12,0-.32-.08-.44.2-.2.44-.36.52-.56.12-.28.28-.44.44-.64.04-.04,0-.12.04-.16.24-.28.52-.56.76-.84.08-.44.48-.56.68-.84.12.12.2.2.28.28v.4c-.44.32-.6.88-1,1.24-.4.32-.76.72-1.12,1.08.04.28-.16.4-.36.52m2.91-5.42c-.08.08-.16.16-.2.24v.36c-.16.16-.28.28-.4.44v.2c-.36.32-.68.64-1,.96v.2c-.32.32-.64.64-.96.92v.24c-.2.08-.36.16-.56.28,0-.08-.04-.2-.04-.28.16-.2.4-.32.4-.6.16-.16.28-.28.44-.4.24-.28.52-.48.6-.84.32-.16.28-.56.56-.76.24-.16.32-.44.48-.68.2-.24.36-.48.56-.72.04.04.08.04.08.08,0,.12,0,.24.04.36m-2.39,1.44c.04-.36.36-.48.56-.76.08-.12.08-.32.24-.48.16-.08.36-.24.4-.4.04-.24.24-.28.32-.48.12-.32.36-.56.6-.8.04-.36.48-.52.48-.88.2-.2.36-.36.56-.56-.08-.32.4-.36.4-.72,0-.24.36-.32.4-.6.04-.24.4-.32.4-.64.48-.36.64-1,1.16-1.32v-.24c.08-.08.2-.16.28-.28.24.2,0,.44.16.64-.2.2-.36.44-.6.56-.24.16-.2.44-.4.64-.16.16-.4.28-.44.6-.04.12-.2.24-.32.32-.16.2-.4.32-.44.52-.04.28-.36.32-.36.52-.04.24-.28.36-.24.6-.24.16-.2.52-.48.68-.2.12-.28.4-.4.6-.16.24-.44.36-.52.68-.04.2-.4.32-.4.6-.36.32-.48.84-.88,1.12-.2.12-.2.36-.36.52-.12.2-.32.32-.48.48,0,.12-.04.2-.04.28-.12.04-.2.04-.28.04-.16-.16-.04-.32-.12-.48.28-.24.52-.52.8-.76m-.96-.2c.12-.12.32-.24.36-.4.04-.24.16-.32.32-.48.12-.12.24-.28.4-.4.16-.12.08-.36.28-.48.16-.08.2-.32.28-.48.08-.16.32-.2.32-.44,0-.2.2-.24.28-.36.08-.12.12-.32.2-.4.32-.2.32-.64.64-.84.04-.32.4-.48.52-.72.2-.36.48-.6.72-.88v-.2c.24-.28.48-.52.72-.76.12-.24.2-.44.32-.68h.44c.08.04.08.08,0,.12-.12.16-.32.28-.36.56-.04.16-.16.4-.32.52-.2.16-.16.4-.32.56-.2.12-.36.32-.4.36-.16.32-.24.52-.32.72l-.76.76c.12.24-.32.32-.2.6-.2.2-.48.36-.56.64-.08.24-.4.32-.4.6-.04.28-.48.36-.4.72-.2.16-.36.36-.56.52,0,.32-.28.44-.4.64v.2c-.12.04-.24.04-.36.12-.12.08-.2.24-.32.36-.2-.12-.08-.32-.12-.48m.2-1.6c.12-.16.36-.24.4-.52.04-.16.32-.28.36-.44.04-.28.24-.36.36-.52.08-.16.08-.4.28-.48.2-.12.12-.36.28-.48.12-.12.24-.24.32-.48.04-.16.28-.28.44-.48.12-.2.2-.44.4-.6.16-.16.16-.44.36-.56.04-.04.08-.16.12-.24l.2-.4c.28-.28.48-.52.68-.76h.44c.12.24-.28.28-.16.48-.16.2-.44.36-.52.56-.08.28-.24.48-.44.6-.2.16-.16.48-.4.64-.16.12-.36.24-.4.52,0,.24-.44.28-.36.64-.28.24-.48.56-.6.92-.04.08-.12.12-.16.2-.16.24-.48.32-.44.64-.16.16-.28.32-.48.48-.12.12-.08.36-.24.48-.16.08-.24.2-.36.32-.08-.04-.16-.04-.2-.04-.12-.2.28-.28.12-.48m.28-2.03s.04.04.08.08c0,.04-.04.08-.08.12,0-.04-.04-.04-.04-.08s.04-.08.04-.12m.32-1c.16-.32.32-.6.44-.92.32-.16.32-.6.64-.84.24.36-.32.52-.12.84-.08.24-.44.32-.4.64-.16.16-.28.32-.48.52-.04-.12-.12-.2-.08-.24m1.44-.96l.08.08s-.04.08-.08.12c0-.04-.04-.04-.04-.08s.04-.08.04-.12m1-1.56s.08.04.08.08.04.16,0,.16c-.24.24-.2.68-.56.8v.32h-.4c.28-.52.4-1.04.88-1.36m4.47-.64c.16.08.2.08.28.12-.16.28-.28.56-.44.88-.08,0-.2.04-.32.08v.2c-.2.24-.4.44-.56.68.04.32-.48.36-.4.72-.16.12-.28.28-.4.4-.28.28-.6.6-.88.88-.04-.08-.08-.12-.08-.2-.04-.2.24-.28.16-.48.52-.36.68-1.04,1.2-1.36v-.16c.28-.32.56-.6.76-.92.16-.32.48-.48.68-.84m.68.68c0-.36.16-.52.36-.64.24-.04.28.2.44.32v.4c-.36.16-.4.6-.68.84-.28.28-.64.52-.8.84-.24.44-.64.76-.72,1.28-.12.08-.28.04-.44.04-.12-.08-.2-.2-.28-.28,0-.08-.04-.16,0-.2.16-.12.16-.32.24-.48.2-.2.48-.32.52-.64.08-.24.44-.32.4-.64.32-.28.68-.6.96-.84m1.28-.04c.12,0,.16,0,.24.04.12.12.04.28.08.44-.12.2-.36.28-.44.52-.04.2-.28.32-.4.52-.12.16-.2.36-.36.52-.12.16-.32.32-.44.48-.12-.12-.24-.2-.44-.36.32-.32.56-.52.76-.76.16-.24.28-.48.48-.68.2-.24.36-.52.52-.72m.8.56c.2.04.32.04.44.04.08.24.04.44.04.68-.24.24-.52.52-.76.76-.04.4-.44.52-.56.76-.04.12-.08.24-.08.32h-.48c-.12-.2,0-.4-.08-.56.84-1.36.64-1.2,1.48-1.99m-1.12,3.83c.04-.12.08-.2.08-.24.16.16.32.32.48.48-.04.04-.12.04-.12.04-.2-.12-.32-.2-.44-.28m-5.42,3.67c-.08-.2.16-.24.2-.36.04-.2-.12-.24-.16-.36-.04-.12-.04-.24-.04-.4.04-.04.12-.12.2-.2v-1.32c.36-.36.68-.72,1.08-1.08.2-.04.4-.32.72-.24.24-.28.6-.2.88-.2h.88c2.19,1.28,1.6.8,2.47,2.23v2.51c-.72,1.2-.68,1.2-1.67,2.07h-.76c-.04.08-.12.12-.16.2h-.8s-.12-.12-.2-.2h-.4c-.08-.28-.28-.44-.44-.68-.2-.24-.52-.24-.68-.48-.2-.24-.56-.2-.68-.48.04-.08.08-.2.16-.28-.08-.36-.44-.48-.6-.76m7.02-3.67c-.12.12-.24.12-.36.04,0-.2.2-.2.28-.48.04.24.08.36.08.44m.16-2.71c.04-.24.16-.4.36-.52h.36c.04.08.08.12.12.16.04.32-.16.56-.28.76-.12.24-.28.4-.4.64-.08.16-.36.28-.32.52-.24.24-.48.44-.68.68-.08,0-.16-.04-.2-.04-.16-.12-.04-.28-.08-.44.04-.08.12-.16.2-.2v-.36c.08-.16.16-.28.32-.56.12-.12.36-.4.6-.64m1.12.48c.16.12.04.32.12.4-.32.32-.64.64-.92.92-.12-.04-.12-.2-.04-.28.2-.2.2-.52.44-.68.12-.08.16-.24.2-.36h.2Zm.44,1.4c.12.2,0,.44.04.56-.08.2-.16.36-.24.52-.32.32-.64.68-1,1-.16-.04-.12-.16-.12-.28.12-.12.24-.24.36-.32.16-.32-.12-.52-.16-.8.2-.2.4-.4.6-.56v-.28s.16-.08.24-.12c.08.12.2.2.28.28m.24,1.91v.12c-.28.28-.6.56-.92.88-.04-.12-.04-.2-.08-.28.08-.08.16-.16.2-.24v-.28c.24-.24.44-.4.64-.6.28,0,.12.24.16.4m.32-3.11h.4c.12.16.04.32.08.48-.28.12-.16.52-.56.68-.04,0-.12-.04-.2-.04-.12-.28.04-.56-.08-.84.12-.08.24-.16.36-.28m.96.96c.16.12.08.28.08.4-.36.4-.72.76-1.08,1.12-.12-.16-.16-.36,0-.52.16-.16.16-.4.32-.56.16-.08.2-.28.28-.44h.4Zm.28,1.24v.44c-.44.44-.92.88-1.36,1.36v.2c-.28.28-.6.56-.88.84-.04-.04-.12-.08-.08-.12.08-.36.28-.68.56-.92v-.2c.4-.4.8-.76,1.16-1.16,0-.28.2-.36.36-.52.08.04.16.08.24.08m-15.03,1.36s-.08.12-.2.2c0,0-.04.08-.08.12-.16-.16,0-.16.16-.2,0-.16-.16-.4.04-.56.16.12.08.28.08.44m-.32,1.75s.04-.04.04-.04c.04.04.04.08.08.12-.04,0-.04.04-.08.08,0-.08-.04-.12-.04-.16m.08,1.2c-.2-.36-.08-.6-.16-.84q.24.04.16.84m16.27-.56v-.8s.12-.12.16-.16v-1c-.08-.12-.12-.16-.2-.24v-1.48c-.12-.28-.24-.44-.36-.68v-.32c-.08-.08-.12-.16-.2-.24v-.96c-.08-.08-.12-.16-.2-.2.12-.36-.2-.52-.2-.8-.24-.2-.44-.44-.6-.56-.2-.12-.36-.2-.6-.32h-.48c-.36-.32-.6-.72-1.04-.84-.28-.4-.76-.4-1.08-.72h-1s-.12-.12-.2-.2h-.36s-.08-.04-.08-.08c-.16-.24-.56.04-.68-.24-.28-.04-.56-.04-.84-.08-.04-.04-.12-.08-.16-.16h-1.4c-.08.08-.12.12-.2.2h-.92s-.08.04-.08.04c-.08.04-.12.08-.16.16h-.52c-.24.12-.48.24-.72.4h-.52c-.16.2-.4.28-.52.56-.04.2-.28.36-.4.52-.16.24-.44.24-.6.44-.16.16-.36.36-.52.48-.12.44-.28.76-.6,1v.4c-.28.16-.4.48-.52.76-.12.24-.36.44-.28.76-.32.2-.04.64-.36.84v.36c-.08.08-.16.16-.2.24v.56c-.08.08-.16.16-.2.2v3.83c.2.44.4.76.6,1.12v.48q-.2.24-.16.52c.24,0,.44,0,.64.04.12.16.12.36.28.48s.32.24.4.44c.08.36.44.48.64.8.32,0,.48.28.68.48.24.16.52.24.68.48.2.24.52.32.8.44.04,0,.08.08.12.12.04.04.04.12.04.2.44.08.76.52,1.24.48.08.04.16.12.2.16h1c.04-.08.08-.12.16-.2h1c.08-.08.12-.12.2-.2.44,0,.92.04,1.36,0,.08-.08.16-.12.2-.2h.72c.4-.2.72-.36,1.12-.6h.72c.12-.28.4-.12.64-.2.56-.56,1.12-1.16,1.67-1.71h.2c.24-.28.4-.64.48-1,.04-.08.12-.12.16-.24.04-.2.16-.36.32-.52.16-.16.2-.36.32-.56v-.48c.12-.24.24-.44.4-.68v-.72c.04-.08.12-.16.2-.24v-.16c-.08-.08-.16-.16-.2-.2m-29.47,6.26c-.24.16-.48,0-.8.12.16-.28.24-.44.32-.64.28,0,.4.16.48.36v.16Zm-1.48.08h-.36c-.08-.08-.12-.12-.2-.2h-.6c-.08-.12-.24-.2-.28-.36,0-.28.36-.32.36-.52.04-.28.24-.4.4-.52.16-.16.16-.4.32-.56h.2c.2.2.04.44.12.72-.16.08-.28.2-.4.28v.44c-.08.08-.16.16-.24.28.12,0,.24.04.36.04.04-.12.04-.2.08-.24.24-.28.44-.52.68-.72.08.08.16.16.28.28v.4c-.24.2-.48.44-.72.68m-1.91-.64c0,.08-.08.24-.24.2-.12-.16-.04-.32-.08-.44.36-.24.44-.72.76-.96.08-.44.52-.56.68-.88.2.04.2.24.12.28-.16.12-.12.36-.28.48-.28.16-.24.52-.52.72-.2.16-.32.36-.44.6m-.64-.48c-.12.12,0,.36-.24.32-.04.08-.08.12-.12.2-.12-.2,0-.16.16-.2-.04-.28-.04-.56-.04-.88.16-.16.36-.32.52-.56.12-.16.16-.36.24-.56.04-.04.08-.12.12-.16.32-.12.2-.6.64-.72,0,.04.08.16.12.28.04-.04.08-.04.08-.08.04.12.04.24.04.36-.04.08-.04.12-.08.16-.16.2-.4.36-.48.6-.12.24-.36.32-.4.48-.04.2-.12.32-.24.4-.12.12-.24.24-.32.36m-.68-.52c-.2.08-.08.36-.24.44h-.24s-.08-.16-.04-.24c.08-.2.16-.36.28-.52.16-.16.04-.32.2-.64.04-.04.24-.2.4-.4.12-.16.16-.4.28-.56.04-.12.12-.2.24-.28.08-.12.12-.2.16-.36,0-.08.16-.16.24-.28.16.04.24.2.36.28-.04.08-.08.2-.12.24-.12.2-.36.28-.32.56-.32.44-.44.96-.88,1.28-.16.12-.12.4-.32.48m-.68-.76c-.08-.04-.08-.16-.04-.2,0-.08.12-.12.16-.16,0,.12.04.2,0,.28,0,.04-.08.08-.12.08m-.08.04c0,.08-.04.12-.08.2-.16-.16,0-.16.12-.2h-.04Zm-.72-.24c-.04-.08-.04-.16-.04-.24.16-.2.36-.32.4-.6.04-.2.28-.36.32-.56.08-.28.28-.4.44-.6-.12-.24.32-.32.2-.6.16-.2.48-.32.4-.68.16,0,.28.04.36.04,0,.16.04.28.04.4-.12.24-.44.36-.44.68-.2.16-.32.36-.44.6-.08.24-.2.52-.4.68-.28.28-.56.6-.84.88m-.2-.72c-.24-.04-.28-.24-.44-.28.24-.12.44-.2.6-.44-.08-.04-.12-.08-.16-.12.04-.2.2-.36.16-.6.12-.24.36-.36.44-.68.08-.2.36-.36.56-.56.2-.16.16-.52.48-.68.12.12.12.32.08.44-.08.2-.16.36-.24.48-.2.24-.36.44-.48.72-.08.2-.2.44-.28.64-.16.24-.2.56-.48.68-.16.08,0,.44-.24.4m-.72-1c-.24-.16,0-.44-.12-.6.12-.2.2-.4.32-.6.12-.12.36-.2.28-.44.24-.12.16-.4.36-.56.12-.12.2-.28.28-.44.08-.2.28-.36.48-.64.2.2.28.28.36.4.04.04.08.08.12.2-.16.12-.36.28-.4.48-.04.28-.24.4-.4.52-.2.16-.16.48-.4.6-.24.12-.2.4-.32.56-.16.16-.12.44-.56.52m-.56-1.12c-.12-.2-.2-.36-.28-.52,0-.04,0-.08.04-.12.2-.12.28-.32.36-.52.04-.16.32-.24.32-.44s.2-.24.28-.4c.08-.12.12-.28.2-.4.08-.08.2-.16.28-.24.12-.12.24-.24.32-.36.12.12.2.24.32.32v.4c-.16.16-.36.32-.44.6-.08.2-.36.32-.4.6-.04.2-.4.24-.36.52-.16.2-.32.4-.64.56m-.48-1.04c-.04-.08-.04-.2-.08-.32-.12-.04-.2-.08-.28-.08-.08-.08-.08-.12,0-.16.32-.16.32-.6.6-.8.16-.12.12-.36.28-.48.16-.12.28-.24.4-.36,0-.12,0-.16.04-.24.08-.08.16-.2.28-.28.12.16.28.32.44.52-.12.16-.36.28-.48.52-.12.2-.32.36-.4.6-.08.2-.24.36-.36.52-.16.16-.12.48-.44.56m-.8-.64c-.04.36-.44.4-.44.72,0,.24-.4.32-.36.6-.36.28-.44.72-.76.96-.28.2-.24.52-.48.72-.2.16-.44.36-.56.64-.08.24-.36.44-.56.64,0,.4-.44.48-.52.76-.12.32-.36.48-.56.72-.12-.2-.12-.4-.28-.52v-.76c-.08-.08-.12-.12-.2-.2v-.8c.28-.28.52-.52.76-.76v-.32c.16-.2.2-.52.4-.72-.04-.32.44-.36.4-.68.2-.24.4-.44.6-.64v-.2c.32-.32.64-.64.96-.96,0-.48.52-.52.6-.96.08-.32.6-.4.6-.84.12-.12.28-.24.4-.4.12-.16.36-.24.4-.52,0-.16.32-.28.32-.44.04-.24.2-.32.32-.44.16-.16.08-.4.28-.48.2-.12.2-.4.32-.56.12-.12.36-.2.28-.44.24-.24.48-.48.68-.72.24-.24.56-.44.72-.8.12-.28.4-.44.6-.68.16-.08.32-.16.52-.24,0,.08.04.16.04.24-.24.28-.52.52-.68.72-.2.32-.28.6-.44.8-.16.16-.24.36-.32.56-.12.12-.32.2-.32.44-.04.12-.16.2-.24.28-.24.2-.32.48-.48.68-.16.2-.36.36-.48.6-.12.24-.36.44-.56.64.04.32-.36.4-.4.64-.04.28-.28.4-.44.56-.2.2-.12.52-.4.64-.2.08-.12.36-.28.48-.12.08-.24.16-.28.36,0,.12-.12.24-.2.32-.24.16-.32.44-.48.68-.2.2-.44.36-.52.68,0,.08-.16.16-.24.28-.16.2-.44.28-.48.56-.04.28-.4.32-.4.64-.04.12-.24.28-.4.4-.04.08-.2.16-.16.24,0,.32-.36.36-.4.6-.04.2-.2.28-.2.4-.04.08,0,.12.04.2.12.12.28.04.48.04,0-.08.04-.16.12-.36.12-.12.36-.28.52-.44,0-.28-.04-.48.16-.6.08-.08.04-.28.12-.32.28-.16.28-.52.48-.72.48-.32.64-.92,1.12-1.28.04-.04.08-.04.08-.08-.04-.32.28-.4.36-.6.08-.12.08-.24.16-.32.2-.2.4-.4.52-.68.08-.24.36-.4.52-.56-.08-.36.4-.4.4-.72,0-.24.44-.32.4-.64.24-.16.32-.52.52-.76.12-.12.36-.24.4-.4.08-.24.24-.4.36-.56.12-.12.32-.2.28-.44.36-.28.52-.72.84-1.04.16-.12.08-.36.28-.48.12-.08.28-.16.24-.36.24-.32.52-.6.8-.88v-.16c.28-.12.56-.44.96-.24-.12.16-.28.32-.4.48-.08.16-.12.32-.28.68-.04,0-.2.16-.36.32-.24.16-.28.4-.44.6-.12.16-.24.36-.36.56-.08.16-.36.24-.32.52-.36.32-.48.84-.88,1.12-.24.12-.24.36-.36.52-.16.2-.32.32-.48.52v.32c-.12.24-.4.32-.44.56-.04.24-.24.36-.4.48-.16.16-.12.36-.28.52-.16.12-.32.32-.48.48.04.32-.36.36-.36.6m.08.84s-.04-.08-.08-.12t.08-.08s.04.08.04.16l-.04.04Zm-1.95,6.66h-.36c-.12.08-.24.16-.28.2-.24-.04-.28-.24-.48-.28.4-.24.4-.68.72-.88.28-.2.28-.64.6-.8h.2l.04.04c.04.48,0,.96,0,1.44-.16.08-.36.08-.44.28m.12-3.67c-.2.32-.6.44-.64.84-.2.24-.44.48-.64.68-.12,0-.2-.04-.32-.08.08-.2.4-.28.4-.52,0-.2.2-.32.36-.44.16-.12.2-.36.32-.52.12-.16.24-.32.36-.44.2.16.08.36.16.48m-1.44,3.39c0,.08-.16.16-.24.24-.16,0-.32.08-.48-.04.04-.2.24-.28.36-.4-.04-.08-.12-.16-.16-.2-.04-.04-.04-.08-.04-.16.08-.2.36-.32.48-.52.12-.2.16-.48.4-.6h.2c.24-.24.44-.48.68-.72v-.16c.12-.08.2-.24.4-.28v.36c-.08.2-.16.4-.28.56-.08.16-.24.24-.32.48-.04.2-.24.36-.44.48-.16.12-.08.36-.24.48-.16.12-.28.24-.32.48m-1.91.2c-.08-.04.04-.24,0-.44.08-.04.24-.12.56-.28,0,0,.04.12.04.32-.16.12-.36.24-.6.4m.16-15.67s-.04.08-.04.12c-.04,0-.08-.04-.08-.08s.04-.08.08-.12c0,.04.04.04.04.08m-.28-2.07s-.08-.04-.08-.08v-.96c.2-.16.36-.32.44-.6.08-.24.48-.36.52-.64.08-.28.36-.36.52-.6h.4c.08.08.16.16.24.24-.08.2-.16.4-.28.56-.12.16-.32.32-.48.48v.2c-.32.32-.64.64-.96.96v.2c-.12.08-.16.24-.32.24m-.08-2.39c.12-.08.16-.24.32-.24.16.12.04.28.08.44-.12.08-.16.24-.32.28-.12-.16-.04-.32-.08-.48m-.08,11.8s-.08-.08-.08-.12c0,0,.04-.04.08-.08,0,.04.04.08.04.16l-.04.04Zm2.23-11.4c.16-.16.32-.32.48-.48.04.08.08.12.12.2-.12.28-.4.4-.6.72,0,0-.04.04-.2.04v.36c-.16.16-.4.36-.56.52-.04.08-.04.16-.04.16-.24.24-.48.48-.72.72,0-.08-.04-.16-.08-.28.24-.2.44-.4.64-.56v-.24c.2-.2.44-.44.68-.68h.08c0-.12.08-.2.2-.2v-.28Zm1.16-.2s.12-.08.12-.08c.12.08.08.2.08.28v.16c-.24.32-.6.56-.76.88-.16.36-.56.52-.72.88-.2.44-.56.64-.84,1,0,.08-.04.16-.04.24-.2.08-.4.12-.56-.04.28-.16.32-.48.52-.72.2-.2.4-.36.52-.68.08-.28.52-.36.52-.76.4-.36.76-.76,1.16-1.16m.2,2.95c-.12.2-.2.36-.36.52-.2.24-.4.44-.6.64.04.32-.28.4-.4.6-.12.16-.24.36-.36.52-.12.24-.44.28-.44.6-.12.16-.28.36-.44.52-.08,0-.2,0-.28-.04,0-.04-.04-.08-.04-.08.12-.12.28-.2.36-.32.04-.16.04-.32.2-.4.24-.12.16-.4.32-.56.2-.16.4-.28.48-.48.04-.24.16-.32.28-.44.16-.16.28-.36.36-.56.12-.2.36-.36.56-.56v-.16c.08-.12.16-.2.28-.28,0,.04.08.04.08.08,0,.16.04.28,0,.4m-2.91,1.71c.16-.16.36-.32.52-.52.12-.16.16-.4.28-.56,0-.08.08-.2.16-.24.32-.2.4-.64.68-.88.28-.28.52-.56.8-.84.16-.16.16-.44.44-.52l.04.04v.4c-.24.12-.16.44-.4.6-.2.16-.32.36-.44.6-.12.24-.32.44-.44.68-.12.24-.4.32-.48.6-.08.2-.32.36-.48.56-.12.2-.16.48-.44.6-.04,0-.12-.04-.16-.04-.16-.12-.04-.28-.08-.48m2.91-.2c-.12.2-.4.32-.44.64-.24.2-.28.52-.48.68-.2.2-.2.44-.4.64-.2.2-.4.4-.64.6v.2c-.2.24-.44.48-.68.68,0,.04-.04,0-.08,0v.28c-.12.16-.24.16-.36.04.08-.16.16-.28.36-.32v-.68c.2-.16.2-.52.48-.68.28-.12.24-.48.48-.68.24-.2.28-.56.52-.76.24-.16.4-.36.52-.64.12-.24.4-.44.64-.64h.24c0,.24-.24.36-.16.64m-.2,1.52c0,.2-.2.32-.36.4-.16.16-.16.4-.32.56-.12.12-.32.2-.28.48-.28.24-.52.48-.72.64-.2.52-.36.96-.76,1.2-.04-.04-.08-.04-.08-.08v-.4c.12-.16.36-.24.4-.48.04-.24.24-.36.4-.52.16-.12.12-.36.28-.48.16-.16.32-.32.48-.48v-.2c.24-.24.52-.48.76-.72,0-.28.16-.4.36-.56.08.04.16.08.24.08-.12.24-.36.28-.4.56m.4,1.04c-.24.28-.48.52-.76.76,0,.36-.36.52-.52.76-.12.12-.12.32-.28.48-.16.12-.36.24-.4.48-.04.16-.28.28-.36.44-.04.16-.08.32-.2.4-.12.08-.16.24-.36.28-.12-.16-.04-.32-.04-.48.16-.16.4-.28.4-.6.16-.08.16-.24.2-.4.08-.12.28-.2.32-.32.08-.16.08-.32.24-.4.2-.12.16-.36.28-.48.16-.16.32-.32.48-.48.12-.16.28-.28.4-.4-.04-.28.2-.36.32-.52.08,0,.16,0,.24.04.12.12,0,.28.04.44m-3.07,2.51s.04-.04.04-.08c.04.04.08.12.08.16,0,0-.04.04-.08.04,0-.04-.04-.08-.04-.12m2.47-.52c-.24.2-.48.44-.68.68-.12.12-.12.36-.28.48-.16.12-.28.28-.4.44-.08.12-.08.32-.2.48-.16.24-.36.44-.56.64v.2q-.28.08-.4-.16c.08-.24.36-.36.48-.56.16-.16.16-.4.36-.52.2-.12.08-.36.28-.48.12-.08.28-.2.24-.4,0-.04.08-.12.12-.16.2-.2.4-.44.56-.72.12-.28.44-.48.68-.72h-.04c.08-.16.2-.36.32-.52.2.16.08.32.16.48-.36.2-.4.6-.64.84m.92-.32c.16.16.04.32.08.48-.12.12-.36.28-.36.44-.04.2-.2.28-.32.44-.12.16-.28.24-.32.48-.04.16-.24.28-.4.4-.16.12-.12.32-.24.48-.2.24-.44.36-.52.68-.12.28-.44.48-.68.68-.2.2-.4.4-.64.64,0-.12-.04-.24-.08-.32.2-.2.44-.36.56-.56.12-.16.16-.4.28-.56.04-.16.2-.24.28-.36.08-.12.08-.24.16-.36.12-.16.32-.28.36-.52.04-.2.36-.24.36-.52,0-.08.12-.16.16-.24.44-.44.88-.84,1.32-1.28m1.04-.12c-.04-.24.24-.32.36-.52.08-.16.12-.36.28-.48.08-.08.12-.2.16-.32.2-.28.28-.64.6-.84.08-.04.16-.12.16-.2.04-.24.24-.44.32-.64.12-.2.32-.36.48-.52-.04-.28.2-.4.36-.52.16-.16.2-.4.32-.56h.8s.04.08.08.08c-.08.12-.12.2-.2.32v.16c-.16.16-.36.36-.6.56-.16.16-.36.36-.56.56-.16.16-.32.28-.44.48-.16.2-.2.44-.44.6-.2.12-.24.36-.36.52-.2.28-.52.48-.6.84-.28.12-.28.48-.48.68-.08.08-.04.24-.16.32-.16.16-.4.32-.44.52-.04.2-.2.32-.32.44-.16.16-.24.36-.36.52-.16.28-.44.52-.6.84-.16.28-.44.48-.68.68v.2c-.28.36-.72.56-.84,1.04-.32.24-.4.72-.72.96-.04.32-.36.44-.52.64-.08-.08-.2-.16-.28-.28.08-.08.2-.16.2-.2-.08-.28.32-.36.2-.6.36-.36.76-.72,1.08-1.12.16-.16.2-.36.36-.52.2-.16.36-.32.52-.48v-.24c.24-.24.48-.48.76-.72-.08-.36.44-.44.4-.8,0-.08.16-.2.28-.28.4-.28.52-.8.88-1.12m.28-1.87s0-.08.04-.16c.16.2,0,.16-.16.2.04.08,0,.12-.08.16-.12-.16.04-.16.2-.2m4.86,8.09c.04-.08.12-.2.24-.36.08.2.08.28.12.4-.36.16-.36.56-.6.8-.04.04,0,.16,0,.16-.32.2-.36.6-.64.84-.04.04-.08.04-.16.08,0,.12-.04.16-.2.16,0-.12.08-.2.2-.2,0-.12,0-.24.08-.32.08-.12.12-.24.12-.36.04-.08.2-.16.2-.28.04-.12.12-.2.2-.32.08-.08.2-.16.2-.32,0-.08.16-.16.24-.28m2.71,2.31h.12c0,.08.04.16.04.24,0,.04-.08.08-.12.08s-.08-.04-.08-.04c0-.12.04-.2.04-.28m2.27,2.67c.08-.08.16-.2.24-.28v-.36c-.28-.32-.56-.6-.84-.84-.28-.24-.32-.64-.64-.84-.08-.4-.44-.6-.68-.88.08-.36-.48-.44-.4-.8-.28-.24-.52-.52-.76-.76v-.2c-.36-.32-.68-.64-1-.96v-.2c-.16-.16-.32-.32-.48-.48-.12-.2-.2-.48-.4-.64-.2-.12-.24-.32-.36-.52-.12-.2-.44-.36-.48-.56-.08-.28-.36-.36-.4-.56-.04-.28-.28-.4-.4-.6v-.56c.12-.16.28-.28.4-.44.12-.12.32-.28.36-.44.04-.2.28-.28.2-.48,0-.04.04-.08.08-.08.28-.24.32-.6.52-.84.2-.28.4-.56.56-.84-.08-.28.32-.36.2-.6.16-.16.36-.28.4-.44.04-.28.28-.36.36-.52.04-.08.04-.16.04-.2-.08-.08-.12-.16-.2-.24.16-.12.36-.28.56-.4-.12-.04-.2-.08-.32-.12-.04-.2-.08-.36-.12-.52h-1.95c-.08-.08-.16-.16-.24-.2h-1.75c-.12.2-.32.16-.52.2-.16.04-.36.2-.56.28v.52c-.08.2-.16.32-.24.52-.6.6-1.24,1.24-1.87,1.87-.04.12.08.28-.2.28v-.84c.08-.08.12-.16.16-.2v-1c-.24-.16-.16-.4-.12-.6.04-.08.08-.12.12-.16-.08-.16-.16-.28-.2-.36.08-.12.16-.16.24-.24v-4.31c-.08-.04-.16-.12-.2-.2v-.2c.12-.04.24-.12.4-.16-.16-.2-.36-.08-.48-.12-.08-.04-.16-.12-.24-.2h-.56c-.08-.04-.16-.12-.2-.16h-2.75c-.12.2-.32.12-.52.2-.16.04-.28.16-.48.2-.16.08-.32.2-.44.28v3.71s.12.08.2.16v3.91c.08.12.12.2.2.28v5.42c.08.04.12.12.16.16v1.56c-.04.12-.24.2-.12.52.04.04.2.16.36.24v5.22c.08.24.2.4.28.56h.96s.04.04.08.08c-.08.12-.16.24-.24.4.12.04.2.08.24.12.24-.24.44-.44.56-.6h3.07s.04-.04.08-.04c0-.16.04-.32.04-.44.08-.08.12-.16.16-.2v-1.2c-.08-.04-.12-.12-.16-.16v-3.19s-.04-.08,0-.12c0,0,0-.04.04-.08.2-.12.12-.4.32-.52.12-.04.2-.08.28-.12.2.2.48.36.52.68-.04.08-.12.12-.12.12.08.16.16.28.2.4h.44c.16.24.28.44.4.64.16.24.32.48.52.68.16.2.16.44.4.64.16.16.24.44.44.84.16.12.4.36.64.64v.56c.16.4.44.64.72.88h1.56c.08.08.12.16.2.2.44.08.76-.4,1.2-.16.04.04.08.08.16.16h.44c.2,0,.4.04.56-.08.12-.04.24-.08.32-.16.12.12.16.16.24.24h1.28s.12-.04.16-.08v-.72c-.36.12-.48-.12-.6-.4m-19.62-4.39v1.63s-.04.04-.08.04c0,0-.04-.04-.04-.08,0-1.4-.04-2.83-.04-4.23,0-.04.08-.12.08-.16.24.2.04.48.16.72.04.04.08.08.16.16-.08.56.16,1.16-.24,1.91m-.64,4.23s-.04-.08-.08-.12c0-.04.04-.08.08-.08.08,0,.16.04.24.04,0,.04,0,.08.04.12-.12,0-.2.04-.28.04m-.6-5.14c-.16.4-.24.56-.36.8-.2.24-.44.48-.72.72v.2c-.16.16-.32.32-.48.48-.16.16-.28.32-.36.56-.08.16-.28.28-.48.48,0-.16-.08-.32-.04-.36.32-.2.48-.6.68-.88.2-.28.48-.52.64-.84.12-.2.32-.36.4-.6.08-.2.2-.36.36-.52.2-.2.4-.36.56-.56.08-.12.12-.28.2-.4.16.12.08.32.12.52-.2.16-.44.36-.52.4m.48,2.07c-.08.12-.2.24-.24.36-.12-.04-.2-.04-.24-.04-.04-.04-.08-.04-.08-.08.24-.16.16-.6.52-.64.12.12.04.28.04.4m0,1.44c-.08.08-.32.2-.36.36-.04.28-.24.36-.36.56-.08.12-.2.32-.24.48-.04.2-.2.28-.32.44h-.36c-.12-.12-.2-.2-.28-.28.16-.32.56-.44.6-.84.24-.24.52-.44.6-.8.32-.2.32-.64.72-.88v.96Zm-2.15.4c-.2.16-.2.44-.4.6-.2.16-.4.36-.56.52v.2q-.28.12-.4-.12s.04-.12.08-.16c.16-.16.32-.32.52-.48v-.32c.08-.24.36-.32.4-.56.04-.24.24-.36.4-.52.2-.16.2-.44.4-.6.16-.16.32-.28.4-.52.04-.2.28-.36.44-.52.16-.16.32-.28.52-.48-.08-.24.2-.4.24-.68q.12.2.12.48c-.12.08-.2.28-.36.28v.28c-.36.28-.48.76-.8,1.04v.12c-.16.28-.48.4-.6.72-.08.24-.16.52-.4.72m.2-3.27c.04.32-.08.52-.36.6,0,.12-.08.2-.2.2v.28c-.08.08-.2.2-.32.32-.04-.08-.04-.16-.08-.24.08-.16.2-.32.4-.36,0-.16.04-.2.2-.2-.04-.32.08-.52.36-.6,0-.28.12-.48.4-.56v-.36c.12-.08.28-.2.4-.32v-.2c.32-.32.6-.6.92-.92.08.04.16.04.24.08-.12.32-.56.4-.56.84-.32.28-.6.56-.88.88h-.12c.04.28-.08.48-.4.56m-1.32.28c.2-.16.32-.4.32-.64.08-.32.52-.36.44-.72.24-.12.16-.48.4-.6.2-.08.16-.32.28-.48.12-.08.2-.24.28-.36.04,0,0-.08,0-.08.16-.28.48-.44.6-.72.12-.28.36-.48.56-.68,0-.16.08-.32-.04-.44l-.04-.04c-.28.36-.72.56-.88,1.04-.04.12-.2.28-.32.32-.28.16-.2.48-.4.64-.2.12-.24.36-.36.56-.04.08-.04.24-.12.32-.24.16-.32.48-.52.68-.16.16-.2.36-.32.52-.2-.16-.08-.4-.12-.6.2-.28.28-.64.6-.84v-.2c.24-.24.52-.52.76-.76.04-.36.4-.48.52-.76.12-.28.32-.48.52-.68.2-.16.2-.48.48-.68.12-.12.2-.36.24-.56.04-.04-.04-.12-.08-.2-.36.36-.72.72-1.08,1.12.08.32-.28.36-.4.6-.04.2-.12.4-.2.6-.4.36-.8.76-1.2,1.16,0,0-.04.04-.08.04-.08-.08-.12-.2,0-.32.08-.12.16-.2.12-.32.24-.32.6-.52.68-.92.32-.2.36-.56.64-.8.24-.28.64-.48.68-.88.28-.24.52-.52.76-.72-.04-.2.04-.4-.12-.52-.2.24-.44.48-.68.72v.16c-.36.36-.68.76-1.08,1.08-.4.32-.52.88-1,1.16-.12-.12-.04-.32-.08-.48.12-.12.28-.24.4-.32v-.28c.4-.4.8-.76,1.16-1.16v-.12s0-.08.04-.08c.52-.4.68-1.12,1.32-1.48.04.04.12.04.2.08v.8c.08.08.12.12.2.2v1.4s-.08.08-.2.2c.16.08.36.16.4.2v1.32c-.44.44-.92.92-1.28,1.32-.08.16-.08.28-.16.32-.2.28-.44.52-.64.84-.12.24-.32.48-.44.76-.04.08-.04.16-.08.16-.32.28-.4.8-.84,1-.08-.08-.16-.16-.28-.28.28-.12.2-.44.44-.6m-1-5.82c.12-.12.2-.24.2-.4,0-.12.16-.16.2-.32.04-.2.12-.44.28-.56.28-.2.28-.6.6-.8.12-.08.28-.2.28-.28-.04-.32.32-.4.4-.64.04-.28.32-.4.48-.6.12.08.2.16.28.28v.44c-.12.08-.24.2-.36.32-.04.08-.04.16-.04.24-.32.32-.64.64-.96.96.04.28-.36.36-.36.6-.04.24-.32.32-.28.48-.24.28-.48.48-.68.72-.12-.12,0-.28-.04-.44m-.32-.48c-.08-.04-.16-.04-.24-.04v-.64s0-.08.04-.12c.16-.2.4-.36.48-.56.08-.24.32-.32.4-.52.04-.04,0-.16.04-.2.2-.24.56-.4.6-.8.24-.24.52-.52.76-.76v-.2c.08-.08.16-.16.28-.28.08.08.16.16.28.24-.12.2-.16.48-.36.6-.24.16-.16.48-.4.6-.24.12-.16.4-.36.56-.16.16-.32.32-.48.48-.04.04-.12.08-.12.12.04.36-.4.44-.4.72,0,.16-.12.24-.24.28-.16.12-.12.36-.28.52m-.28-1.48v.16c-.24.24-.48.48-.72.72-.24-.12-.32.36-.56.16-.04,0-.04-.04-.08-.08.24-.24.52-.48.72-.64.12-.32.2-.52.28-.76.32-.32.64-.6.88-1,.2-.36.56-.6.84-.92,0-.16.08-.24.16-.32.04-.12.08-.24.12-.36.16,0,.32-.04.48.08,0,.08.04.16,0,.24-.08.2-.32.24-.36.52-.04.24-.44.32-.4.64-.16.16-.36.28-.44.48-.2.44-.6.72-.92,1.08m-1.75.56c0,.08.04.16,0,.2-.2.28-.56.44-.64.84-.16.08-.36.2-.56.24-.04.04-.12-.08-.16-.12-.04-.24.16-.32.24-.4.2-.2.36-.4.44-.64.08-.28.28-.48.48-.68.16-.16.28-.4.36-.68.76-.76,1.44-1.44,2.11-2.11.08.08.16.16.24.24-.16.32-.4.56-.56.84-.12.36-.4.56-.68.8-.24.2-.28.56-.52.76-.28.24-.52.48-.76.72m-1.6.32h.04c0-.08.08-.12.12-.2.12.16,0,.16-.16.2m-.08.36q-.08-.24.08-.32c0,.08.12.28-.08.32m.88-1.52c0,.12.12.28-.08.36q-.12-.28.08-.36c0-.16.08-.2.2-.2.04-.08.08-.12.12-.2.16.16,0,.16-.16.2.04.12,0,.2-.16.2m-1.36.76v.28c-.16.16-.32.4-.56.52,0,.08,0,.16-.04.24,0,.08-.12.08-.16.12,0,.16-.08.24-.2.2,0,.16-.08.2-.2.2,0-.12.04-.2.2-.2,0-.12.04-.2.2-.2,0-.08-.04-.16,0-.24,0-.08.12-.08.2-.12v-.28c.16-.2.28-.44.56-.52-.16-.28.2-.4.24-.64,0-.16.16-.32.36-.32,0-.16.04-.2.2-.2v-.28c.16-.2.32-.44.56-.52,0-.12.08-.2.2-.2.04-.04.08-.12.12-.16.16.16,0,.16-.16.2.04.12,0,.16-.16.16v.28c-.16.2-.32.44-.56.52,0,.12-.08.2-.2.2.16.28-.2.4-.2.64-.04.12-.2.32-.4.32m-.12,1.32s-.04-.04-.08-.04c.04-.04.08-.04.12-.08.04.04.08.04.08.08-.04,0-.08.04-.12.04m-.12.4s-.12-.04-.16-.04c.04-.04.08-.08.08-.08.04,0,.08.04.12.08l-.04.04Zm-.16,10.05c-.08.16-.16.32-.24.52h-.44c-.36-.32.28-.4.12-.68.16-.16.32-.32.56-.56v.72Zm-1.12,0c-.16.16-.36.36-.56.56-.04-.12-.04-.2-.08-.28.12-.24.4-.32.44-.64,0-.16.28-.24.36-.48.08-.24.32-.4.52-.64q.2.16.28.4c-.16.16-.4.28-.52.48-.12.2-.24.44-.44.6m-1.36.52q-.24-.04-.24-.24v-.32c.08-.04.2-.12.32-.24.16-.16.4-.32.44-.48.04-.28.28-.36.36-.52.12-.2.12-.44.24-.6.2-.28.28-.64.6-.8,0-.12,0-.24.12-.32.04.08.08.12.08.12v.92c-.24.28-.4.48-.6.72.04.32-.48.36-.4.68-.36.32-.44.84-.92,1.08m-.84-.28c-.16.12-.32.2-.64.36.12-.32.2-.52.24-.72.04-.04.08-.12.12-.12.28-.16.24-.44.44-.64.12-.16.36-.28.4-.48.08-.24.24-.32.32-.48.12-.16.24-.36.28-.56.04-.16.2-.24.28-.36.08-.12.12-.32.24-.4.24-.16.24-.48.44-.68.08-.08.08-.24.16-.32.12-.16.2-.32.4-.36.12.2.04.44.08.64-.16.2-.44.32-.44.64-.2.08-.12.32-.28.44-.12.16-.08.4-.24.48-.2.12-.2.32-.28.48-.24.44-.4.92-.84,1.24-.12.08-.12.24-.2.36-.16.2-.32.36-.48.48m-.76-1.36c.12-.12.24-.28.36-.48.12-.16.16-.32.32-.64.08-.04.28-.2.44-.4.12-.16.12-.44.24-.6.44-.4.52-1.08,1-1.44.12-.08.12-.24.2-.4.08-.12.32-.2.32-.32.04-.36.36-.48.52-.72.08.08.16.16.28.28-.08.16-.2.36-.28.52-.12.16-.16.4-.36.52-.2.16-.28.4-.4.6-.16.2-.28.4-.4.64-.12.16-.08.36-.28.48-.2.08-.16.32-.28.44-.2.2-.32.4-.4.64-.12.24-.2.44-.44.6-.2.12-.24.36-.36.52-.08.16-.24.28-.48.52v-.76Zm-.2-.92c.2-.36.32-.68.52-.96.12-.2-.04-.44.2-.64.12-.12.16-.36.32-.52.16-.12.08-.36.28-.48,0-.24.2-.36.36-.52.04-.04.04-.12.08-.16.16-.32.24-.64.56-.84.2-.16.16-.4.32-.56.16-.16.32-.32.48-.48.04-.04,0-.12,0-.16.24-.24.48-.48.68-.72.2.2.08.44.12.72-.12.08-.24.16-.36.24t.04.04l-.08.08c.12.24-.32.32-.24.6.04.04-.12.12-.16.2-.12.16-.24.4-.36.52-.16.16-.2.32-.28.48-.12.2-.36.28-.32.56-.32.16-.36.52-.56.72,0,.36-.36.44-.44.72v.08c-.16.2-.4.36-.52.6-.12.16-.16.36-.36.52-.08,0-.16-.04-.28-.04m-.2-1.32v-.52c.16-.16.32-.04.48-.08.28.32-.08.4-.2.6h-.28Zm3.71-6.58s-.12.08-.2.12c0,.12-.08.2-.2.2.04.32-.08.52-.4.6v.28c-.4.28-.44.92-.96,1.08.04.28-.08.52-.4.6v.28c-.16.2-.4.32-.4.6-.16.08-.2.28-.4.28,0,.08-.04.12-.08.16-.16-.16,0-.16.16-.2-.16-.24.2-.4.16-.64.2-.16.28-.44.56-.48-.04-.32.08-.52.4-.6v-.32c.4-.24.44-.88.96-1.04-.04-.32.08-.52.4-.6,0-.12.08-.2.2-.2,0-.08-.04-.2,0-.24.04-.08.12-.12.2-.16v.28Zm.2,1.2s-.04.04-.08.04c-.2.2-.28.4-.4.64-.12.2-.36.36-.52.56.04.32-.48.36-.4.72-.12.2-.36.32-.4.6-.04.2-.36.24-.36.52-.04.24-.36.28-.4.52-.04.28-.28.36-.4.52-.04.04-.12.08-.16.08-.16.04-.24-.08-.2-.24.12-.24.4-.36.44-.68.2-.16.32-.36.4-.6.28-.16.28-.48.48-.68.2-.2.44-.4.48-.68.28-.16.32-.48.48-.68.16-.2.36-.32.48-.6.08-.24.36-.44.56-.64v-.2c.16-.08.24-.4.56-.2-.12.16-.32.32-.36.48-.04.2-.28.28-.2.52m-3.91,2.19c.32-.16.04-.56.32-.76.04-.04.04-.16.12-.32.2-.24.44-.48.64-.8.2-.36.56-.56.8-.84.16-.6.76-.8,1.04-1.32v-.12c.24-.24.48-.44.68-.68h.12v-.28c.08-.12.16-.2.28-.32.04.08.08.16.12.2-.08.2-.2.36-.4.4.08.28-.24.44-.2.68-.36.24-.44.72-.76.96-.28.24-.32.64-.6.84.04.28-.24.36-.36.52-.28.2-.28.52-.4.84-.16.16-.32.32-.52.44-.16.12-.08.36-.24.48-.24.08-.2.4-.36.52h-.2s-.08-.12-.08-.16c0-.12-.04-.28,0-.28m.08-3.47h.32c0-.08.04-.12.12-.16.12.16-.04.16-.2.2-.04.16-.12.36-.2.56-.08,0-.2-.04-.28-.04-.16-.32.16-.4.24-.56m-.08-4.47h.48s.08.04.08.08c-.12.12-.24.28-.16.52-.28-.16-.44-.28-.4-.6m.92.48c.08-.12.12-.28.24-.4.12-.08.2-.2.32-.32.08.04.16.04.24.08-.12.28-.28.56-.44.92-.24.2-.48.48-.76.76-.2-.04-.16-.2-.12-.28.12-.12.16-.24.2-.4.08-.12.28-.2.32-.36m1.2-.2c.08-.24.2-.4.4-.48q.16.04.2.2c-.04.24-.28.32-.4.52-.16.16-.32.24-.4.52-.04.2-.28.32-.44.48-.16.16-.28.36-.52.44.04.28-.08.48-.36.56-.04.08-.08.12-.12.2-.16-.2,0-.16.16-.2-.08-.28.04-.52.32-.56v-.24c.04-.2.28-.32.44-.48.12-.16.2-.36.32-.52.12-.16.36-.28.4-.44m-1.52,4.98c-.04.08-.08.12-.12.16-.16-.16,0-.16.16-.2-.08-.12,0-.16.12-.16.04-.08.08-.12.12-.2.16.2,0,.16-.16.2.08.12,0,.2-.12.2m.44-.6c-.12-.2.04-.16.2-.2-.04-.08,0-.12.04-.16.12.16,0,.16-.16.2.04.04-.04.08-.08.16m.56-.8h-.04c-.04.08-.08.16-.12.2-.12-.16,0-.16.16-.2m1.91-2.51c.04.28-.08.52-.4.6,0,.12-.04.2-.2.16v.28c-.16.2-.32.44-.56.52v.32c-.28.16-.44.48-.76.64-.04-.08-.04-.16-.04-.28.28-.2.44-.56.8-.68v-.28c.16-.16.32-.4.56-.52,0-.12.08-.2.2-.16-.04-.32.08-.52.4-.6,0-.16.04-.2.2-.2,0-.08.08-.12.12-.16.12.16-.04.12-.2.2.08.08,0,.16-.12.16m-.2-1.28c.16-.16.32-.36.44-.48.36,0,.36.12.36.28-.2.28-.6.4-.64.8-.24.28-.48.52-.76.76v.24c-.24.24-.48.48-.76.72,0,.4-.4.52-.6.84v.16c-.24.32-.68.36-.88.72-.04-.12-.08-.2-.12-.28.12-.2.4-.28.4-.52.04-.28.4-.32.44-.64.04-.16.24-.36.4-.48.2-.16.16-.44.36-.56.16-.12.36-.28.48-.48.12-.24.2-.44.4-.6s.36-.32.48-.48m4.11,0c.16-.16.16-.36.28-.48.16.04.32-.08.44.04-.24.2-.44.44-.68.68-.08,0-.08-.2-.04-.24m2.27-1.28c.04.08.12.24.16.36-.12.12-.28.12-.48-.04-.04-.2,0-.32.32-.32m2.51,1.4h.24c0,.08.04.2.04.32-.12.04-.2.04-.28.08-.16-.16-.16-.28,0-.4m.64,1.44c-.08.2-.4.28-.36.6-.16.16-.36.28-.48.48-.12.24-.2.48-.4.6-.2.16-.24.36-.36.56-.16.2-.36.36-.56.56-.16.12-.28.28-.44.44-.04-.08-.12-.12-.12-.2,0-.04.04-.12.08-.16.2-.12.08-.36.28-.48.28-.2.32-.56.48-.88.24-.2.52-.4.68-.68.12-.28.32-.52.56-.72.24.16.36-.48.64-.12m2.19,6.18c0-.08-.04-.12-.08-.2-.04-.04-.08-.08-.12-.12v-3.07c-.16-.24-.28-.48-.4-.72v-.72c-.08-.04-.12-.08-.2-.16v-.76c-.08-.16-.16-.2-.2-.32v-.72c-.24-.24-.44-.44-.64-.64-.12-.04-.2-.04-.28-.08-.04-.04-.04-.12-.04-.16-.04-.12-.04-.2-.04-.28-.12-.2-.36-.28-.4-.56,0-.12-.16-.28-.32-.28-.24-.04-.32-.28-.52-.4-.2-.04-.44,0-.6-.2-.28,0-.48-.36-.76-.24-.08-.04-.16-.12-.2-.16h-1.12c-.28.16-.52.28-.72.36h-.48c-.12.08-.2.16-.32.2-.08.08-.2.12-.36.2h-.36c-.08.12-.2.28-.32.36-.2.12-.48.12-.64.28-.24.2-.48.32-.72.48-.12.08-.2.08-.28,0-.32-.36.16-.52.12-.72-.2-.24-.36-.44-.48-.6-.28.04-.48.04-.6-.2-.48,0-.96,0-1.44.04-.08,0-.12,0-.2.04-.04.04-.08.08-.12.12h-.96c-.08.08-.16.16-.2.2h-.8s-.08-.08-.16-.16q-.8-.04-.92.08v.36c.12.12.28.24.12.64-.08.04-.32.2-.48.36v5.1c.08.04.12.12.16.16v2.91s.04.04.08.08c.04.04.08.08.12.12v1.2c.08.04.16.12.2.2v4.27c-.08.08-.12.16-.2.24v.52c-.08.16-.16.24-.2.28.36.36.68.68,1.04,1.04.24.04.08-.32.24-.4h3.03s.12.04.16.04c.04.12.08.24.12.44.16-.2.28-.36.4-.48h1c.12-.12.28-.2.28-.32,0-.16.12-.24.16-.4-.04-.04-.08-.08-.16-.16v-.4c.08-.08.12-.12.2-.16-.08-.08-.12-.16-.2-.2v-.44c-.12-.08-.16-.12-.2-.16v-2.75c-.08-.04-.12-.12-.2-.2v-2.31c.08-.08.16-.16.2-.24v-.96c.32-.16.08-.52.28-.68.24-.2,0-.52.2-.68.16-.16.28-.36.4-.52h.8c.08-.04.12-.12.12-.12.24-.12.56.08.8-.24-.16-.08-.36-.2-.48-.28.04-.12.08-.2.08-.28.16-.04.32-.04.48,0,.12.24.36.12.4.12.32.28.48.4.64.52v.52c.12.08.28.16.4.24-.04.16-.04.24-.04.28-.2.04-.36.08-.6.12.16.16.32.28.44.44-.08.08-.16.12-.2.2v.36c.08.12.16.16.2.24v2.51c.08.08.12.12.16.16v4.94c-.12.12-.24.24-.36.36.04.16-.08.32.08.48h5.74v-1.04c.08-.08.12-.12.2-.2v-.84s-.08-.08-.16-.16v-.8c.08-.08.12-.12.2-.2v-1.75c.08-.08.12-.12.2-.2v-2.79Zm-19.98,6.34c-.2.2-.44.04-.68.08-.08.08-.12.12-.2.2h-.6c-.04.08-.12.12-.2.2h-.2c-.04-.08-.08-.12-.08-.16-.08-.32.16-.48.28-.76.04-.16.28-.2.32-.4,0-.2.24-.28.2-.48.2-.12.12-.36.28-.48s.28-.24.4-.36c.08,0,.16.04.2.04s.08.04.08.08v1.67c.08.04.12.12.2.2v.16Zm-2.15-.2c-.2.12-.16.32-.28.48-.16,0-.32.04-.48-.08v-.56c.12-.12.32-.28.36-.44.04-.28.36-.32.4-.6.04-.2.16-.36.28-.56.12-.2.16-.44.4-.56.24-.12.28-.4.44-.6.16-.2.36-.36.52-.52.12.12.24.2.36.32-.08.12-.12.2-.24.36v.32c-.2.12-.52.16-.56.4-.04.28-.32.36-.4.6-.08.2-.16.44-.32.8,0,0-.2.12-.24.28-.08.12-.12.28-.24.36m-.72-1.71c.08-.16.12-.28.12-.44.16.04.2-.04.2-.16-.12,0-.2.04-.2.16-.24.04-.32.32-.52.4-.16-.04-.36.08-.44-.12,0-.12.04-.16.04-.24.2-.2.48-.32.56-.6.04-.28.4-.28.36-.6.28-.28.52-.52.8-.8v-.2c.24-.24.52-.48.76-.72,0-.04,0-.12.04-.24.16-.16.4-.4.64-.6h.12c.08,0,.12.04.2.08.04.32-.36.4-.4.64,0,.24-.24.32-.36.48-.2.2-.4.36-.56.52-.08.2-.12.48-.28.64-.32.28-.4.68-.76.92v.28c.2,0,.28-.2.36-.28.12-.08.2-.2.24-.36.12-.28.44-.4.6-.68.12-.24.36-.44.56-.68,0-.04.04-.12.04-.24h.28c.16.12.04.28.08.44-.16.24-.44.4-.6.68-.12.24-.36.4-.56.64.08.32-.44.4-.4.76-.24.16-.24.44-.48.64-.2.2-.28.52-.4.76-.08-.08-.2-.2-.28-.28-.12-.32.12-.56.24-.8m-1.67.48c-.16.04-.08.28-.2.36-.12.12-.24.2-.32.28,0,.12-.04.2-.04.2-.24.24-.44.48-.68.68h-.32c-.08.08-.2.12-.28.2-.12,0-.28,0-.28-.2.04-.04.04-.12.08-.12.28-.16.28-.48.48-.68.16-.16.44-.28.44-.56,0-.12.16-.2.28-.28.16-.16.32-.36.4-.6.04-.12.12-.24.2-.36.08-.12.24-.16.28-.28.04-.16.08-.28.2-.36.2-.12.16-.32.28-.48.12-.12.32-.2.32-.44,0-.04.04-.08.08-.12.32-.32.6-.6.88-.88.12-.44.56-.6.8-.96v-.12c.28-.28.6-.52.76-.84s.48-.48.64-.76c.24.04.16.2.16.28v.72c-.28.28-.52.52-.76.76,0,.04,0,.12-.04.24-.2.2-.48.44-.72.68.04.36-.48.4-.44.76,0,0-.04.04-.04.08-.2.16-.4.32-.56.52-.12.16-.2.36-.36.52-.56.48-1,1.04-1.24,1.75m-3.07,1.63c.24-.16.16-.48.4-.6.08-.04.16-.12.2-.2.08-.2.12-.4.24-.56s.32-.32.48-.48c.2-.2.4-.36.48-.64.08-.16.32-.28.44-.44.16.16.08.32.12.48-.2.16-.36.36-.56.52,0,.32-.36.4-.44.68-.04.12-.12.24-.2.4v-.04c-.4.4-.76.76-1.12,1.08,0-.04-.08-.2-.04-.2m-.24-.16c-.2.08-.12.32-.28.44-.04.04-.12.12-.16.16-.28.04-.36-.16-.48-.28.28-.28.28-.76.68-1,.12-.4.48-.64.76-.92h.44c.08.04.08.08,0,.12-.12.16-.36.24-.32.52-.2.08-.16.32-.28.44-.16.16-.36.28-.36.52m-1.44.44h-.4c0-.08-.08-.16-.08-.24.08-.16.24-.28.2-.48,0-.16.16-.32.2-.48.32-.28.6-.56.92-.88h.36c.12.08.16.24.04.32-.2.2-.36.4-.48.64-.04.12-.04.24-.12.32-.32.2-.32.6-.64.8m-.88-.2h-.68c-.08-.16-.16-.32-.24-.44.16-.36.36-.72.56-1.08.16-.32.32-.68.76-.92.16.08.36.16.6.28v.56c-.12.16-.32.28-.4.48-.08.2-.16.44-.36.6-.16.16-.28.28-.24.52m-1.24-.56h-.4c-.04-.08-.08-.12-.12-.16,0-.08-.04-.2.04-.28.24-.32.36-.72.56-1.08.08-.08.16-.2.2-.28.08-.08.2-.16.2-.28.04-.12.16-.2.24-.28.04-.04.12-.04.16-.08.2,0,.24.2.36.28-.28.32-.36.72-.64,1.04-.28.28-.4.68-.6,1.12m-1-.6c-.12-.08-.2-.16-.24-.2.12-.32.4-.56.52-.84.16-.32.4-.48.6-.72-.04-.16.2-.24.2-.36,0-.24.2-.32.28-.48.16.04.2.04.28.08-.28.36-.32.88-.76,1.16v.36c-.4.28-.44.8-.88,1m-.68-1c-.04-.2-.04-.4.2-.56-.12-.24.32-.32.2-.56.24-.24.52-.48.68-.68.12-.2.2-.32.28-.52v-.16c-.44.08-.4.6-.76.8-.36.2-.4.64-.72.84-.08-.08-.16-.2-.28-.28v-.4c.12-.08.24-.16.32-.28.08-.12.12-.24.16-.32.24-.44.4-.88.84-1.2.12-.08.04-.28.2-.36.12-.08.24-.2.32-.32.2-.36.36-.68.6-1.08.32-.32.72-.68,1.08-1.04v-.2c.08-.16.28-.24.2-.4.32-.24.4-.64.68-.84h.24s.04.12.08.24c-.28.16-.32.48-.56.72-.2.2-.28.52-.52.72-.2.2-.28.52-.44.76-.08.16-.08.36-.24.44-.2.08-.16.32-.28.44-.24.28-.24.64-.48.84,0,.28-.28.4-.44.6v.24c.2-.08.36-.2.52-.32h.2s.08.12.08.16c0,.08.04.24,0,.28-.2.12-.16.32-.28.44-.12.2-.28.36-.28.56-.04.2-.24.28-.32.44-.08.12-.16.24-.24.36-.08.12-.24.24-.32.36-.16.2-.2.44-.44.56-.08-.08-.16-.16-.28-.28m-.56-2.59c-.16-.24.28-.32.16-.56.12-.12.24-.24.36-.36.04-.08.04-.24.12-.28.48-.32.56-.84.88-1.24-.08-.24.32-.36.24-.6.28-.16.32-.56.6-.76.16-.12.08-.28.2-.4.12-.08.32-.04.4-.2.32,0,.44-.24.64-.4.08.08.16.2.24.32-.16.16-.36.36-.56.56v.16c-.32.32-.64.64-.96.92v.2c-.12.12-.28.28-.4.4v.28c0,.24-.4.28-.4.6,0,.2-.4.28-.36.6-.16.12-.36.28-.48.44-.12.2-.2.44-.4.6-.12-.12-.2-.2-.28-.28m.28-3.07s.08.04.08.08c0,.08,0,.16-.04.24h-.12c0-.08-.04-.16-.04-.24,0-.04.08-.04.12-.08m.2,1.04c.12-.08.08-.28.24-.36.08-.08.04-.28.2-.4.12-.08.24-.2.24-.36,0-.12.2-.2.28-.32.16.16.08.32.08.48-.08.08-.24.2-.32.32-.08.08-.08.2-.16.32-.04.12-.12.28-.2.4-.12.12-.24.24-.4.36-.16-.2-.08-.32.04-.44m5.1-2.91q.24.08.24.4c-.12.24-.36.36-.44.64-.08.2-.36.36-.56.52.08.2-.12.28-.16.4-.04.12,0,.28.24.28.36-.12.4-.52.48-.88.16-.12.36-.28.52-.4.16-.16.28-.36.52-.44v-.24c.08-.16.24-.16.36-.04-.08.16-.16.28-.36.32v.08s.04.16,0,.16c-.24.2-.24.52-.4.72-.24.28-.4.6-.6.88h-.56c-.44.24-.84.44-1.28.64-.04-.12-.08-.2-.12-.28.08-.24.4-.32.44-.6,0-.2.36-.28.4-.6,0-.12.2-.24.32-.32.16-.12.2-.28.28-.44.16-.32.32-.68.68-.8m1.4.8c.12-.28.36-.44.56-.64,0,.12.08.2.04.28-.04.08-.16.16-.2.28-.04.24-.36.32-.36.48,0,.24-.2.32-.24.48-.04.2-.16.36-.28.56-.04.08-.12.12-.16.16-.32,0-.36-.12-.32-.24.16-.24.32-.48.4-.8.2-.16.48-.32.56-.56m.92.12c.04-.12.08-.2.12-.36.08,0,.16,0,.32-.04,0,.16-.24.76-.28.8-.24.16-.36.44-.48.72-.04.16-.16.24-.28.36-.04.04-.16,0-.24,0-.12-.16-.04-.32-.04-.44.24-.12.12-.4.32-.52.2-.12.2-.36.36-.52h.2Zm-1.48,6.26c-.08.08-.2.16-.4.28h-.28c-.08-.08-.2-.16-.32-.32.08-.04.2-.08.32-.12.16-.16.36-.12.64-.12,0,.12.04.16.04.28m2.71-2.47s-.08.12-.16.2c-.04.08-.04.16-.04.24-.24.2-.44.4-.64.6-.12.04-.24.04-.44.04-.08.08-.2.24-.28.36h-.48c-.04.08-.12.12-.2.2h-.96c-.08.04-.12.08-.16.12-.04,0-.12.04-.16.04h-.88c-.12-.24-.4-.16-.6-.2-.08-.08-.2-.16-.28-.24v-.4c-.12-.08-.24-.2-.36-.32v-.8c.36-.28.44-.76.88-1,.32.08.56-.28.92-.2.08-.08.16-.12.24-.2h.96c.08.08.16.12.2.2h.6l.12.12c.24.12.48,0,.72.24.12.16.44.16.8.28.04.04.08.08.16.12.08.2.04.4.04.6m-.28-3.79c.08,0,.2.04.28.04-.2.36-.4.72-.56,1.08-.04.04-.04.08,0,.08,0,.04.04.04.04.08.32-.12.4-.44.72-.56.04-.04.08-.08.12-.16.12.2,0,.16-.16.2,0,.28-.36.96-.64,1.28h-.4c-.16-.16-.36-.28-.48-.52.08-.16.16-.32.32-.64.04-.04.28-.16.4-.36.12-.2.2-.4.36-.52m.32-4.55c.12-.24.24-.48.36-.72.08-.16.16-.4.32-.52.28-.2.28-.6.6-.8.12-.08.32-.2.28-.44.12-.12.2-.32.56-.24,0,.16.04.28,0,.4-.08.2-.24.4-.36.6-.12.16-.36.24-.4.48-.04.24-.32.28-.4.48-.08.16-.12.36-.2.48-.08.2-.2.36-.32.52-.24.04-.32-.16-.44-.24m-.32-.32h-.4c-.16-.12-.04-.28-.08-.44.08-.2.36-.24.4-.48,0-.24.36-.32.36-.52.04-.24.32-.32.36-.48.12-.4.48-.56.72-.92.12.12.24.24.28.28.04.36-.28.4-.32.6-.08.24-.24.32-.36.52-.12.12-.12.32-.28.44-.16.12-.28.32-.32.52-.08.2-.2.36-.36.48m-.28-1.4s-.08.04-.16.08c0,0-.04-.04-.04-.08.04,0,.08-.04.12-.04,0,0,.04.04.08.04m-.48-.32c-.16.12-.08.28-.2.4-.32.24-.4.76-.84.96h-.64c.08-.28.36-.32.4-.56,0-.28.36-.32.4-.6.04-.16.16-.36.24-.52.12-.2.2-.44.44-.6.2-.12.24-.32.36-.48.08-.16.24-.28.4-.4h.48v.36c-.04.24-.28.32-.4.48-.12.16-.2.36-.36.52-.16.12-.16.32-.28.44m-.2,1.32c-.16,0-.12-.16-.12-.24.12-.16.28-.12.4,0-.08.08-.2.16-.28.24m-1.4.8c-.08-.04-.16-.04-.24-.04v-.12c.08,0,.16-.04.24-.04.04,0,.04.08.08.12,0,0-.04.08-.08.08m-.36-.96c-.12.08-.24.24-.4.36h-.48c0-.08-.04-.24,0-.24.16-.12.12-.36.28-.48.44-.32.56-.8.88-1.24.04-.08,0-.24.12-.32.16-.08.24-.28.44-.32.16-.04.32-.16.72-.32-.32.48-.44.76-.56,1.04-.32.16-.36.56-.6.8-.2.16-.28.44-.4.72m-1.52.48c-.16.08-.12.32-.24.48-.12.08-.16.24-.2.36h-.4c-.2-.16.08-.2.08-.28-.08-.24.32-.32.2-.56.2-.08.16-.32.28-.44.16-.16.36-.28.36-.52.4-.32.52-.8.72-1.2.12-.28.32-.36.56-.44.04-.08.04-.16.08-.28.08,0,.16,0,.24-.04.12.12.16.24.08.32-.12.12-.2.2-.16.36-.16.16-.44.32-.52.52-.12.24-.32.36-.44.56-.08.24-.16.44-.28.64-.12.16-.12.44-.36.52m-1.16-1.24c0,.12.04.2,0,.28,0,.04-.08.04-.12.08-.08-.04-.08-.16-.04-.2,0-.08.12-.12.16-.16.04-.12-.08-.28.12-.32q.08.24-.12.32m-.16.4c-.04.08-.08.12-.12.16-.12-.16,0-.16.12-.2v.04Zm-.48-.2s-.12-.08-.12-.12v-.36c.28-.04.08-.44.4-.44,0-.08.04-.12.12-.2.12.2-.04.16-.2.2.08.16.08.32.08.4-.12.2-.2.36-.28.52m.44-2.03c.08,0,.24-.04.48.08-.16.08-.28.16-.44.28-.08-.04-.24.04-.48-.08.16-.12.28-.2.44-.28m.8,2.23v-.68c.16-.16.4-.32.52-.52.16-.16.16-.36.28-.52.08-.12.16-.24.32-.4.04.16.04.24.04.32,0,0,0,.04-.04.08-.28.44-.48.92-.72,1.36,0,.04,0,.08-.04.08-.12.08-.16.28-.36.28-.04.12.08.28-.12.36q-.08-.24.12-.36m1.83-2.95c.16,0,.2.16.32.24-.2.16-.4.16-.6,0,.08-.08.2-.16.28-.24m1.95,0c.16,0,.2.16.28.24-.08.12-.16.28-.24.44h-.24c-.12-.12-.04-.28-.08-.44.08-.08.2-.16.28-.24m3.75,2.19c.08,0,.16.04.2.04.16.12.04.28.08.44-.12.16-.36.24-.4.48-.08.2-.28.36-.44.48-.16.12-.12.32-.24.48-.16.12-.2.36-.28.52-.12.2-.2.36-.32.6-.08-.12-.16-.2-.24-.28-.04-.04-.04-.08-.08-.16.08-.04.12-.16.24-.28v-.36c.28-.12.32-.44.52-.68.08-.12.04-.28.2-.4.16-.08.24-.2.36-.32.08-.12.12-.28.2-.4.04-.04.16-.12.2-.16m.52.56h.44c.08.16.16.32.24.48,0,0,0,.08-.04.08-.24.16-.28.4-.44.6-.12.16-.32.28-.36.4-.16.24-.16.4-.28.52-.36.4-.52.88-.84,1.28h-.28c-.12,0-.28,0-.24-.16v-.48c.08-.12.24-.2.32-.32.08-.08.08-.2.16-.32.2-.4.4-.88.8-1.16.12-.12.08-.36.28-.44.16-.12.2-.28.24-.48m.92,1.4c-.24.32-.4.72-.6,1.08-.04.04-.08.12-.12.2-.16.16-.36.28-.44.48-.04.2-.24.28-.32.44-.12.16-.2.36-.28.52-.08.32-.4.4-.6.72.04-.04-.04.04-.16.04-.04.08-.08.12-.12.16-.16-.16,0-.16.16-.2-.08-.08,0-.16.12-.16v-.48c.16-.08.24-.2.24-.36.2-.12.16-.44.4-.6.2-.12.16-.44.4-.56.2-.12.12-.4.36-.52v-.12c.32-.32.6-.6.92-.88,0,.08.08.16.04.24m-.16,2.23c-.16.2-.32.44-.48.64-.16.2-.44.32-.52.56-.08.28-.36.4-.52.6-.08.12-.12.28-.2.4-.12.12-.24.2-.36.32-.04.08-.08.16-.12.24-.08.2-.16.4-.28.52-.16.16-.28.32-.36.52-.32.2-.28.6-.68.84-.04-.2-.04-.32-.04-.48.2-.2.4-.44.52-.68.08-.2.12-.44.36-.52.16-.12.04-.36.24-.48.04-.2.2-.36.36-.52.08-.08.08-.2.16-.28.08-.12.12-.2.16-.32.04-.2.36-.28.36-.52,0-.16.2-.28.24-.48.04-.16.36-.24.36-.48.28-.32.56-.6.84-.88.24.24.04.52.16.76-.08.08-.16.16-.2.24m.36.92c-.16.28-.56.44-.64.84-.32.16-.32.56-.6.8-.08.04-.08.12-.12.2-.12.2-.2.36-.32.56-.08.12-.32.2-.28.44-.2.12-.16.4-.32.52-.16.12-.2.28-.32.44-.16.24-.44.44-.64.68-.12-.08-.2-.08-.32-.16.16-.28.28-.6.44-.88.04-.08.16-.16.24-.28.04-.04.08-.12.16-.2.04-.12.16-.28.16-.4.04-.2.28-.28.36-.44.08-.12.04-.28.2-.36.24-.12.24-.44.44-.6.16-.12.36-.24.4-.48.04-.28.32-.36.48-.56.12-.12.08-.36.28-.44.12-.08.16-.24.36-.28.08.2.04.4.04.6m-.08,1.6c-.12.2-.44.32-.48.48-.04.24-.2.36-.36.52-.16.16-.32.32-.48.44-.04.04-.12.08-.16.08-.04.08-.08.12-.12.16-.12-.16.04-.12.16-.16-.04-.04-.08-.12-.04-.2.24-.44.4-.88.72-1.28.24-.32.36-.76.8-.96.08.04.12.04.2.04.16.36-.12.64-.24.88m-13.6,5.46c0-.08-.08-.16-.12-.24-.04-.08-.04-.16-.12-.32h.4c.12.24,0,.44.08.68-.2.04-.2-.04-.24-.12m14.67,1.12s-.04-.12-.08-.16c-.04-.04-.08-.08-.12-.12v-7.86c.04-.08.12-.12.2-.2v-.36c-.08-.08-.16-.16-.24-.2v-.92c-.04-.08-.08-.12-.16-.2v-1.87c-.2-.12-.2-.24-.2-.4-.04-.2-.12-.36-.2-.48-.08-.16-.24-.24-.2-.4-.24-.24-.44-.44-.72-.68h-.16c-.4-.36-.76-.76-1.16-1.12h-.2c-.16-.16-.12-.48-.44-.56-.04.08-.08.12-.12.16-.12-.08-.28-.16-.4-.16-.16,0-.28-.08-.4-.16-.12-.08-.32-.04-.44-.04-.08-.08-.12-.12-.16-.16h-2.55c-.04-.08-.12-.12-.2-.2-.12.2-.32.16-.52.2-.12,0-.28.16-.4.16-.2,0-.32.16-.52.2h-.52c-.08.08-.12.12-.2.2h-.6c-.08.08-.12.12-.16.16-.08-.04-.12-.12-.2-.16-.24.28-.6.44-.96.56-.12.04-.2.2-.32.28v.36c-.12.12-.24.24-.36.36,0,.2-.08.44.04.64.04.04.08.08.12.12v1.48c.08.08.16.16.2.24v.92c.08.04.16.12.2.2-.04.32.2.56.32.8h.4c.04-.12.12-.24.16-.36h.36c.04-.08.12-.24.2-.4h.64l.36-.36h3.23s.12.04.16.08c.04.04.12.08.12.12.08.12.16.24.2.4h.4c.16.16.32.28.48.44v.92c.08.08.16.16.2.24-.04.12.08.32-.08.4-.32-.16-.68-.36-1.08-.52h-.48c-.12-.08-.16-.16-.2-.16h-1.99s-.08.08-.16.16h-1.71c-.08.04-.16.12-.24.16-.16,0-.28.04-.4.04-.08.08-.16.12-.2.16h-.76c-.12.24-.44.16-.56.32-.04.08-.16.08-.24.08-.44.4-.84.8-1.28,1.2.16.24-.32.32-.2.56-.12.2-.24.36-.32.52-.12.2,0,.4-.2.6-.16.12.04.44-.28.56v.76c-.08.08-.12.12-.16.2v1.12c.08.04.12.12.2.2v.76c.4.08,0,.56.36.68,0,.2.04.4.04.64.36.24.48.6.64.96.44.44.92.88,1.4,1.32h.16c.24.2.6.24.76.52t.08.08h1.71c.08.04.16.08.24.16.04-.08.08-.12.16-.2h2.91c.16-.24.6-.48.92-.64.24-.2.44-.44.72-.64h.16c.08.08.16.16.28.24v.24s.04.08.08.08c.08.2.04.48.08.68v.04h3.27c.08-.08.12-.12.16-.16.16,0,.32-.04.52-.04.16-.32.36-.68.6-1.04v-1.71ZM11.72,5.19v.24c-.44.4-.84.8-1.28,1.24h-.16c-.16.12-.28.28-.44.4-.2,0-.44,0-.68-.04,1-.96,1.91-1.91,2.91-2.91.04,0,.2-.08.36-.16.04.08.16.16.28.28-.36.32-.68.64-1,.96m.52,1.48c-.08.04-.16.12-.24.2h-.56c-.08.08-.16.12-.2.2h-.44c0-.08-.04-.16-.04-.24.52-.56,1.04-1.08,1.56-1.56v-.32c.08,0,.2-.04.28-.04.08.08.12.08.12.12v1.56c-.16.16-.32.04-.48.08m-.48.72q.16-.12.92-.04c-.44.12-.68.12-.92.04m-1.87,16.47c.24.24-.04.36-.16.52-.04,0-.04.04-.08.04h-.8c0-.08-.04-.2-.04-.28.24-.16.44-.08.68-.08.04-.08.12-.16.2-.2h.2Zm-.04,1.12s-.04-.04-.08-.04c.04-.04.08-.08.12-.08s.08.04.08.08c-.04,0-.08.04-.12.04m-.68-.04c.16-.16.28-.16.4,0-.12.12-.24.12-.4,0m-.92-1.67c.04-.24.2-.32.32-.44.12-.16.24-.24.36-.36.12-.12.08-.36.24-.48.12-.08.24-.2.32-.28.12,0,.16,0,.24.04.12.28,0,.56.08.84-.24.2-.48.44-.72.68h-.84Zm-.32,1.36h-.8s-.08-.04-.12-.08c.12-.08.2-.16.36-.28.24.08.48-.2.8-.24,0,.12.04.2.04.32-.08.08-.16.16-.28.28m-1.08-1.6c.08-.24.32-.36.48-.56.16-.16.32-.36.52-.48.2-.12.4-.2.6-.4.12-.2.32-.32.48-.48.16-.2.36-.4.64-.64v.76c-.24.24-.48.48-.76.76-.28.28-.52.64-.84.8-.36.2-.6.48-.84.68-.4,0-.24-.24-.28-.44m2.71-3.23c-.64.64-1.24,1.24-1.91,1.91-.08-.04-.16-.04-.24-.08.36-.36.68-.76,1.08-1.04.36-.28.44-.76.8-1.04.2-.04.32.04.28.24m-2.71.92c.04-.08.04-.12.08-.16.32-.32.64-.68.96-.96s.44-.68.72-1c.04-.04.04-.16.12-.24.08-.08.16-.16.28-.28v-.24c.08,0,.2-.04.32-.04.08.36.04.72.08,1.08-.32.28-.56.56-.84.8-.2.2-.16.48-.4.64-.24.16-.44.4-.64.6-.2.2-.36.36-.6.6-.12-.12-.2-.2-.28-.32.2-.12.2-.32.2-.48m-.2-.88c.12-.12.16-.24.24-.4.04-.12.2-.24.32-.32.24-.24.32-.52.4-.84.16-.16.36-.36.56-.52.16-.2.36-.36.56-.56.12-.2.12-.48.4-.56h.2c.12.16.04.32.04.48-.24.24-.48.48-.76.76,0,.36-.4.48-.52.76-.12.32-.4.56-.64.8-.2.24-.44.44-.68.68-.2-.04-.16-.2-.12-.28m-.12-2.03c-.2-.2-.04-.44-.08-.64.08-.12.2-.2.2-.32,0-.2.28-.28.2-.48,0-.04.04-.08.04-.08.2-.16.32-.4.44-.6.16-.32.56-.48.68-.8.12-.32.4-.48.6-.72.04-.04.12-.04.16-.08.08,0,.12.04.2.08v.8c-.12.16-.28.36-.48.52-.28.12-.24.44-.44.6-.16.16-.4.36-.52.56-.12.2-.24.44-.44.6-.16.16-.36.36-.56.56m2.55-2.35c.12.12.16.28.04.36-.16.08-.08.28-.2.4-.32.24-.4.72-.76.96-.2.16-.36.36-.56.56v.16c-.36.28-.44.84-.88,1.08-.24-.36.12-.64.16-.92.28-.16.28-.48.48-.68.2-.2.36-.4.56-.56.2-.16.24-.36.36-.56.12-.16.32-.28.48-.48.08-.08.08-.2.12-.32h.2Zm-1.91-1.04c.16-.28.4-.44.56-.72.2-.44.52-.68.84-1.04.04-.16.08-.24.12-.32h.2c.2.24.04.56.12.8-.08.12-.12.2-.2.24-.24.2-.24.56-.52.76-.28.2-.48.44-.72.68-.2.2-.2.52-.48.68-.2.16-.36.36-.56.56-.2-.28,0-.56-.12-.84.28-.28.6-.48.76-.8m-.92-.52c.04-.2.28-.24.2-.48.28-.28.52-.56.8-.84,0-.4.6-.48.56-.92.24-.32.64-.44.64-.88h.24c.2.24.04.56.16.88-.16.12-.32.24-.44.32v.24c-.16.28-.52.4-.6.76-.08.32-.6.4-.56.8-.24.24-.48.48-.72.72h-.16c-.24-.2-.04-.44-.12-.6m0-1.79c.16-.24.2-.48.36-.6.2-.16.2-.44.4-.64.2-.12.36-.28.48-.48.16-.2.2-.44.44-.6.16-.12.32-.32.48-.48v-.24c.12,0,.2-.04.36-.08.04.36.04.64.04.88-.16.2-.24.4-.36.6-.12.2-.48.28-.44.6-.16.16-.32.32-.48.48-.16.2-.4.36-.48.56-.08.24-.28.36-.4.52v.2s-.12.08-.16.08c-.04.04-.12,0-.2-.04-.08-.24,0-.56-.04-.76m-.2-1.24v-.36c.2-.24.48-.4.56-.64.12-.36.4-.52.6-.72.2-.24.44-.4.6-.56,0-.16.04-.2.04-.2.24-.28.44-.52.68-.76.08.04.12.04.2.04.12.12.04.32.08.44-.08.08-.12.16-.2.24v.16c-.24.36-.6.56-.8.96-.16.32-.52.56-.76.84,0,.08-.04.12-.04.12-.24.28-.44.52-.68.72-.08-.08-.16-.16-.28-.28m.44-1.99c.2-.16.16-.48.4-.6.24-.12.32-.4.44-.6.12-.24.36-.4.56-.56.16-.2.36-.36.52-.56.2-.16.4-.36.48-.44.12-.24.2-.44.28-.48.4-.16.6-.48.92-.72,0-.04.12,0,.28,0,.2-.24.48-.52.72-.8.08.04.16.08.28.12-1.28,1.24-2.47,2.47-3.75,3.75v.16c-.36.4-.76.8-1.16,1.16-.04.16.08.32-.12.52-.08-.12-.16-.24-.28-.4.04-.24.28-.36.44-.56m-.92-1.44c-.12-.08-.16-.2-.04-.32.08-.08.16-.2.16-.24.92-.92,1.83-1.83,2.75-2.75.12,0,.2.2.32.28-.08.2-.28.32-.4.48-.2.16-.4.36-.56.56-.12.16-.2.36-.36.52-.12.16-.32.32-.48.48-.16.2-.36.36-.56.56-.12.16-.28.32-.4.44h-.44Zm-.8-.36c-.08,0-.16-.04-.24-.04,0-.08-.04-.16-.08-.28.2-.12.36-.24.52-.36l.04.04c.32-.28.64-.6.96-.92h.28c0-.16.08-.2.2-.2,0-.16.08-.2.2-.2.04-.08.08-.12.12-.2.12.2-.04.16-.16.2.04.12-.04.2-.16.2,0,.12-.08.2-.2.2v.08c-.48.48-1,1-1.48,1.48m-.6-.52c-.16.2-.48.04-.64.24v-.24c.08-.04.12-.04.2-.08h.08c.24-.24.44-.44.68-.68v-.2c.16-.28.48-.28.68-.48.16-.2.36-.36.6-.6h.4c.16.04.32-.04.48.08-.16.24-.4.32-.6.44-.2.12-.32.32-.48.48-.4-.04-.48.44-.76.52-.28.08-.48.28-.64.52m-.76-.48c-.24.4-.76.44-1,.8-.08,0-.16-.04-.28-.08.32-.32.6-.6.92-.92h.16c.32-.32.64-.64.96-.92.32,0,.4-.28.64-.44.04.08.04.16.08.2-.48.44-.88.88-1.4,1.36h-.08Zm-2.15,1c-.04-.08-.08-.16-.12-.28.52-.52,1-1,1.52-1.52.16-.12.36-.2.56-.36.12-.12.24-.28.4-.4.04-.04.2.04.24.04-.36.36-.72.72-1.12,1.16h-.12c-.44.44-.88.88-1.36,1.36m-.28-1.16c.52-.52,1.04-1.04,1.56-1.6h.32c.04.08.04.16.08.24-.12.16-.2.32-.4.36-.28.08-.48.24-.4.52-.12.04-.2.08-.32.08-.24.28-.48.52-.72.76-.2-.12-.08-.28-.12-.36m.04-1.56c.24-.04.48-.08.76.04-.24.24-.44.48-.68.68h-.08c-.08-.24-.08-.48,0-.72m8.69-.28c.08-.04.12-.12.2-.12.24-.04.28.16.4.24-.08.2-.2.36-.44.32-.28.28-.52.52-.8.8h-.2c-.08.24-.2.4-.4.6-.56.52-1.08,1.08-1.56,1.52-.2.44-.28.76-.64,1.08v-.72s.04-.08.08-.12c.36-.4.72-.76,1.08-1.12.2-.2.24-.52.48-.68.24-.16.4-.4.64-.6.16-.2.36-.4.52-.56.24-.2.44-.44.64-.64m4.15.56v-.6c-.12-.12-.28-.28-.36-.4-.04-.08-.08-.2-.08-.28h-1.91c-.24.12-.32.16-.44.2-.2-.12-.28-.4-.56-.4-.08.04-.2.12-.28.2h-4.86c-.08-.08-.16-.12-.2-.16-.12.08-.24.12-.32.2-.12-.12-.16-.16-.28-.24H1.2s-.08.04-.16.04c-.04.04-.08.12-.12.16h-.44c-.12.12-.24.24-.36.4-.08.08-.08.16-.12.24.08.08.16.16.2.24v2.51c.08.08.16.16.2.2.08.24-.12.28-.16.36.08.16.12.28.16.4.08.08.16.2.24.28.08.08.2.16.24.24h.4c.12-.08.2-.16.2-.16h.72c.2.08.32.16.4.2.12-.08.2-.16.28-.24h2.11s.04.04.08.08c0,.16.04.28.04.44.08.08.16.16.2.24v1.71c.08.08.12.12.2.16v3.51s0,.04.04.08c.04.04.08.08.12.12.04.88,0,1.75.04,2.55.08.12.12.16.16.2v7.78c-.04.08-.12.16-.16.24v.16c.16.12.32.2.56.32h.76c.08,0,.12-.04.2-.08.04-.04.08-.08.12-.12.08.08.16.12.2.2h3.03s.12-.08.16-.08v-.44c-.08-.08-.12-.12-.16-.16v-2.43c0-.08.04-.12.04-.2.04-.04.12-.08.2-.2-.16-.08-.32-.2-.44-.28v-1.04c.12-.08.2-.24.28-.24.2,0,.32-.12.44-.24.04-.04.08-.08,0-.12-.24-.16-.44.04-.72.12v-.88c.12-.08.28-.2.16-.4-.12-.04-.2-.08-.4-.16.12-.28.28-.52.28-.84.12-.12.24-.24.36-.32v-.32c.12,0,.2-.04.12-.16-.04.04-.08.08-.12.12-.12.08-.2.2-.32.24-.08.04-.2-.04-.28-.04v-.44c.08-.12.24-.2.2-.4-.08-.08-.12-.12-.2-.2v-.96c-.08-.08-.12-.16-.2-.24v-3.11s-.12-.08-.16-.16v-3.75c.16-.08.32-.16.52-.28h1.52c.04-.08.12-.12.2-.16h.36c.16.08.24.28.44.32.04-.04.08-.08.16-.12.2-.04.4-.04.6-.04.12-.12.2-.24.28-.28v-.6c-.08-.08-.12-.12-.16-.16v-2.19c.04-.08.08-.12.16-.16"/>
      <path class="cls-1" d="m27.92,2.07c-.08.12-.16.2-.28.28-.16-.2-.08-.48-.04-.72.08-.04.16-.04.24-.08.2.16.08.36.08.52m.04,1.16c-.08.08-.12.12-.2.2-.04.08.08.28-.12.28-.04-.04-.08-.08-.08-.08v-.76c.12-.12.16-.24.32-.28.12.2.04.44.08.64m-.8-2.23h-.44c-.12-.12-.24-.2-.4-.32.32-.12.56-.08.84-.04v.36h.28c.16.08.16.24.04.36-.16-.08-.28-.16-.32-.36m-.44,1.91c-.2.24-.44.4-.64.64-.12.2-.16.44-.4.56h-.4c0-.08-.08-.12-.08-.16.08-.2.2-.4.28-.6.08,0,.16-.04.32-.08.36-.32.72-.72,1.12-1.12.12,0,.24,0,.24.24-.04.24-.28.32-.44.52m-.08,1.04c-.08-.04-.16-.08-.28-.08.24-.2.44-.32.64-.52,0,0,.04,0,.12.04q.04.08-.48.56m-.16.76s-.12.12-.2.2c-.2-.04-.44.04-.64-.08,0-.16.2-.2.24-.32h.8s.04.04.08.08c0,.2-.16.08-.28.12m-1.79-1.04s-.04-.16-.08-.24c.64-.6,1.28-1.24,1.87-1.87.08.04.16.04.28.04-.12.36-.56.44-.56.88-.24.2-.48.44-.72.68h-.28c-.12.12-.32.32-.52.52m-.24-.92c.52-.52,1-1,1.52-1.52-.04-.04,0,0,0,0,.04.16.04.28.04.36-.32.64-1.08.8-1.48,1.36-.04-.08-.08-.16-.08-.2m-.2-1c.08-.24.28-.32.4-.48.4-.2.64-.24.72-.2-.24.24-.48.48-.72.72-.04.16-.04.24-.04.32-.08.04-.2.04-.36.04v-.4Zm3.51-.88v-.2c-.08-.08-.2-.16-.32-.28-.16,0-.4.08-.56-.2h-.8c-.08-.08-.12-.12-.2-.2h-1.16c-.28.32-.6.6-.88.88v.12c0,.2-.24.28-.2.52,0,.16-.16.32-.2.48v1.83c.16.12.28.24.4.36,0,.24,0,.44.04.68h1.04c.12.16.24.28.4.44.16,0,.4-.08.56.16.08.04.28.08.36,0,.24-.16.52-.24.76-.36.04-.04.12-.04.16-.08.08-.12.24-.2.2-.4.2-.16.36-.4.56-.48.2-.12.32-.24.4-.36V1.48c-.2-.2-.36-.4-.56-.6m-6.42,1.2c-.08.12-.16.2-.28.28-.16-.2-.08-.48-.04-.72.08-.04.16-.04.24-.08.2.16.08.36.08.52m.04,1.16c-.08.08-.12.12-.2.2-.04.08.08.28-.12.28-.04-.04-.08-.08-.08-.08v-.76c.12-.12.16-.24.32-.28.12.2.04.44.08.64m-.8-2.23h-.44c-.12-.12-.24-.2-.4-.32.32-.12.56-.08.84-.04v.36h.28c.16.08.16.24.04.36-.16-.08-.28-.16-.32-.36m-.44,1.91c-.2.24-.44.4-.64.64-.12.2-.16.44-.4.56h-.4c0-.08-.08-.12-.08-.16.08-.2.2-.4.28-.6.08,0,.16-.04.32-.08.36-.32.72-.72,1.12-1.12.12,0,.24,0,.24.24-.04.24-.28.32-.44.52m-.08,1.04c-.08-.04-.16-.08-.28-.08.24-.2.44-.32.64-.52,0,0,.04,0,.12.04q.04.08-.48.56m-.16.76s-.12.12-.2.2c-.2-.04-.44.04-.64-.08,0-.16.2-.2.24-.32h.8s.04.04.08.08c0,.2-.16.08-.28.12m-1.79-1.04s-.04-.16-.08-.24c.64-.6,1.28-1.24,1.87-1.87.08.04.16.04.28.04-.12.36-.56.44-.56.88-.24.2-.48.44-.72.68h-.28c-.12.12-.32.32-.52.52m-.24-.92l1.52-1.52s0,0,0,0c.04.16.04.28.04.36-.32.64-1.08.8-1.48,1.36-.04-.08-.08-.16-.08-.2m-.2-1c.08-.24.28-.32.4-.48.4-.2.64-.24.72-.2-.24.24-.48.48-.72.72-.04.16-.04.24-.04.32-.08.04-.2.04-.36.04v-.4Zm3.51-.88v-.2c-.08-.08-.2-.16-.32-.28-.16,0-.4.08-.56-.2h-.8c-.08-.08-.12-.12-.2-.2h-1.16c-.28.32-.6.6-.88.88v.12c0,.2-.24.28-.2.52,0,.16-.16.32-.2.48v1.83c.16.12.28.24.4.36,0,.24,0,.44.04.68h1.04c.12.16.24.28.4.44.16,0,.4-.08.56.16.08.04.28.08.36,0,.24-.16.52-.24.76-.36.04-.04.12-.04.16-.08.08-.12.24-.2.2-.4.2-.16.36-.4.56-.48.2-.12.32-.24.4-.36V1.48c-.2-.2-.36-.4-.56-.6"/>
    </g>
  </g>
</svg>