<?xml version="1.0" encoding="utf-8"?>
<!-- Generator: Adobe Illustrator 25.4.1, SVG Export Plug-In . SVG Version: 6.00 Build 0)  -->
<svg version="1.1" id="Layer_2_00000157992771696132382610000016656196719795679134_"
	 xmlns="http://www.w3.org/2000/svg" xmlns:xlink="http://www.w3.org/1999/xlink" x="0px" y="0px" viewBox="0 0 624.7 658"
	 style="enable-background:new 0 0 624.7 658;" xml:space="preserve">
<style type="text/css">
	.st0{fill:#004447;}
</style>
<g id="lamp">
	<g>
		<path class="st0" d="M384.4,521.1c4.6,9.7-4.5,14.3-3.1,19.9c3.9,1.6,6.7,5.7,5.5,9.9c-3.8,12.3-11.7,1.4-0.7,15.4
			c1.1,3.6-1.8,7.4-5,8.8c-1.2,4.9,7.6,6.3,4.4,13.6c-12.2,13.6-2.9,6,0.8,17.7c0.8,6.3-6.3,7.5-9.6,11.4
			c-2.4,8.2-9.4,11.2-15.7,15.3c-9.8,17.9-24.9,27.4-45.8,24.2c-20.3,2.6-32.6-8.9-43.1-24.7c-8.5-3-17.9-8.6-19.6-17.9
			c-1.1-5.8,4.5-4.9,6.6-8.3c-11.1-9.3-6.3-8.4-1.1-18.5c-9.3-3.6-10.4-11.9-1.8-17.4c-3.1-3.7-9-7.2-6-13.5
			c10.4-11.2,5.9-3-1.1-11.2c0.7-13.3-6.3-12.2-0.3-22.1c-13.8-4.6-13.6-19.8-13.9-31.8c1.2-64.7-63.4-105.5-73-168.2
			c-19.2-87.1,49.1-179.2,138.7-180.5C407,133,491.3,238.3,458.8,337.5c-12.4,32.8-36.1,60.4-47.7,93.7
			C397.6,449.8,417.3,502.8,384.4,521.1L384.4,521.1z M338.2,409.1c12.7,1.2,4.5,17.9,3.9,28.6c0.7,25.6,2.9,52.2,1,78.5
			c47.1,12.5,59.6-8.6,57.6-55.6c6-72.2,84.5-125.7,55.6-203.2c-18.6-89.6-131.5-134.5-209.3-97.7c-70.2,30.9-102.1,120.2-72.6,190
			c19.1,49.7,51,70.8,62.3,114.8c5.2,40.9-4.9,65.8,48.4,53.6c0-25.2-0.9-50.7,2.2-75.3c-0.4-11.6-4.6-28.5,0.7-30.5
			c7-7.8-9.4-35.3-11.2-42.3c-5.6-12.3-22.1-50.6-26.8-62.1c-2.8-3.1-4.5-6.5-7.6-8.7c1.6-1.8,3.1-7.3,6.1-3
			c0.7,1.4,1.3-3.4,3.5-2.4c0.1,1.4,4.6-5.3,3.9-0.3c2.5-4.3,3.7-1.5,6.2-4.5c3.8,0.6,5.9-3.7,7.1-0.3c-2.1,2.4,5.9-3.4,2.7,2.1
			c4.7-2.2,3.3-4.4,7.1-0.4c2.8-7.2,11.5-7.5,11.4,0.3c0,1.3,3.2-3.9,3.7,0.8c0.8-2.3,5.7-3.6,3.5-0.1c1.2-1.4,5.1-5.6,4.8-1.7
			c5.3-4.5,2.7,0.2,9.3-2c1.3,0.7,0.1,1.5-0.2,2.2c1.3-0.6,5.9-3.4,4.6,0.1c1.4-0.9,6.4-2.9,4.5,0.4c1.4-0.3,4.7-2.8,4.8,0.2
			c-2.9,2.9,1.8-1.1,3.4,0c0.2,3.3,1.4-0.1,3.6,1.2c0.6,3,3.5-4.8,8.1-3.1c1.8,0.1,2.8,1.7,4,2.8c3-4,2.1,0.7,1,3.1
			c3.5-2.1,0.9,3.1,3.6-0.7c0.9-1.2,2.4-1.5,3.1-0.4c0.6-1.7,4.4-3.9,3.6-0.6c1.2-1.8,6-3.6,4.2-0.1c1.3-1.6,6.9-3,4.3,0.2
			c1.4-0.9,7.6-1.7,4.6,1c1.6-0.5,7-1.2,4,1.5c3.2-1.1,7.3-1.4,6.1,3.3c2.4-0.3,4.1,2.6,1,3.4c-8.3,2.2-17.4,35.5-21,43.1
			c-4.3,12.1-3.5,8.8-17.1,48.7C340.6,398.9,338,404,338.2,409.1L338.2,409.1z M279.6,296.4c-2-0.2-3-1.8-4.2-3.2
			c-1.5,2.1-4.7,1-2.9-1.4c-1.8,0.8-5.8,3.5-4-0.5c-1.3,1.4-4.2,3.7-4.2,0.5c-4.1,5.6-3.4,0.9-4.7,1.9c-0.6,1.1-2.8,3.8-3,1.3
			c-1,0.8-3.6,4.6-3.3,1.5c-5.1,6.7,4.3,20.2,5.6,25.7c8.2,19.4,16,33.3,29.7,66.7c5,7.8-0.2,24.7,12.5,21.4
			c7.5-3.4,1.7-16.4,3-28.8c-0.9-17.7,4.1-14.9-9.8-26.8C304.5,341.3,279.9,310.6,279.6,296.4L279.6,296.4z M257.9,600.4
			c22.8,4.6,60.1-3.4,86.9-0.1c-26.1,6.2-50.6,2.5-77.8,3.5c-4.4-0.5-2.8,3.9-5,6.1c-0.8,1.7-7.4,2.1-4.4,3.9
			c13.9,0.9,108.8-2.7,53.9,3.4c-5.4-0.1-67.8-1.8-47.3,4.4c15.6,2.8,32.4-5.1,47.1-0.1c-12.3,5.5-38.7-0.6-45.2,3.5
			c27.9,6.8,82.7,14.2,105.4-5.9c-3.8-2.1-71.6,5.4-42.9,0.7c16.4-2.4,40.8-0.9,52.6-11.6c-6.2-0.5-35.3,7.5-30.9,2.4
			c8.1-3.5,40-0.9,25.2-11.7c-3.7-4.3-33,4-18.5-1.4c3.2-0.9,15.1-2.4,17.7-4.3c-11.7,0.2-22.1,1.8-33.2,2.6
			C315.8,599.1,284.9,598.4,257.9,600.4L257.9,600.4z M345.9,298.3c-7.1,15.4-10.4,34.2-16.1,50.7c2,1.7,6.5,3.3,4.3,6.7
			c-11.4,4.7-7.6,15.1-7.8,25.2c-1.9,17.6,3.9,45.8,11.9,11.8c9.4-28.3,23.6-62.1,35.1-94.1c1.5-1.4-2.9,0.8-3.5-0.8
			c-0.9-0.7,0.1-2.3-1.4-1.6c-3.8,1.4-1.9-3.2-5.1-0.9c-1.2,0.5-3,0.1-1.8-1.2c-1.3,0.7-6.8,4-5.1,0.4c-1.8,0.6-4,4.3-5.6,1.6
			C349.2,297.6,348.1,299.6,345.9,298.3L345.9,298.3z M327.1,347.6c2.6-10.2,15.3-45.4,12.8-45.3c-4.2,2.3-9.6-3.7-8.4-7.1
			c-1.1,0.3-1.8,1.7-3,1.3c-1.3-0.4-1.1-1.2-0.5-2.1c-1.4,1.1-5.2,1.7-3.6-0.9c-4.4,2.8-2.8-0.8-4.5-0.1c-1.7,1.2-3.8,0.7-2.7-1.5
			c-1.2,0.8-5.2,2.6-3.5-0.3c-5.1,3.5-2.7-1.7-7,1.1c-1.5,0.3-1.4-0.8-1-1.5c-1.6,0.1-2.3,2.7-4,1.4c1.4-3.4-2.4,3.1-3.8,0.9
			c1.4-1.9-1.1,0.1-2,0.4c-2.2,0.5-0.5-2.3-3.4,0.2c-1,0.7-2,0.5-1.5-0.8c-2.1,2.6-9.8,2.2-8.4,6c6.5,15.9,12.6,32.7,18.9,47.6
			C305.8,349.9,320.6,345.8,327.1,347.6L327.1,347.6z M324.8,413.2c-17.9-0.6,4-56.1-13.1-52.1c-11.2-1.4,0.2,40.5-5.4,49
			c-20.6,8.8-8,3-11.5,23.7c-0.3,1.2-1,7.4-1.1,8.7c0.7-1.8,7.8-1.7,7.7-5.5c-1.1-19.3,26.1-20.2,24.4-0.2c1.3,3.2,7,4.8,10,6.1
			c-3.3-9,0-24.6-4.1-30.2c-16.9-4.7-6.1-32.2-8.7-45.8C319,346.5,317.2,413.5,324.8,413.2L324.8,413.2z M374.7,540.2
			c-19.3-2.9-41.2,3.1-61.2,3.4c-17,1.4-41.2-1.5-55.4,3.5c28.8,3.2,59.4-6.6,89.2-0.7c-8.1,3.9-111,0.1-81.9,8.6
			c-41.2,11.3,39,3.2,51.3,2.4c21.6-1.7,45.6,1.4,66.1-5.6c4.3-10.2-12.8-6.1-18.2-6.3c-4.5,0.1-9,0.3-13.5-0.1
			C357.6,540.8,370,544.8,374.7,540.2L374.7,540.2z M253.3,577c40.9,3.7,89,0.6,129.4-8.6c-10-2.4-22.2,3.8-32.1,1.7
			c4.6-4.1,36.2-3.9,23.2-9c-4.5,0.1-9.6,1.8-13.8,0.8c5.1-1.6,10.7-1.2,15.7-3.2c-24.2-4.6-51,6.1-78.4,4.1
			c-11,1.4-31.3-2-39.9,2.7c31.6,4,64.6-5,96.9-1.7C323.4,574.6,277.6,559.1,253.3,577L253.3,577z M253.3,542.9
			c20.4,0.2,42.4-3.3,63.2-4.9c20.9-0.7,44.9,1,64.2-5.8c-8.4-1.3-17.9,2.2-26.3,0.3c6.9-4.3,22.6-1.3,26.1-6.2
			c-6.5-1.5-17.1,1.8-24,0.2c3.9-2.6,17.4-2.9,20.4-3.7c-30.5,1.4-54.6,3.4-84.5,2.5c-12,3.7-39.9-9.4-42.1,6.9
			C256.8,537.8,250.1,538.9,253.3,542.9L253.3,542.9z M380.2,582.2c-9.9-6.4-38.1,3.3-50.4,2.9c-21.8,5.1-60.9-6.7-73.3,12
			c39.2-0.3,83.6-2.5,123.9-8.5c8.1-7.7-17,0-21.9-1.3C358.6,584.3,375.2,584.9,380.2,582.2L380.2,582.2z M335.5,504.3
			c-3.5-15.5-1.1-32.1-1.8-48c-17.1-15.3-7.3,33.8-9.9,49.7c-1.8,11.6,1.9,17.3,14,13.4c3.3-2.8,0.7-9.2,1.9-13.2
			C344.9,447.7,335,439.1,335.5,504.3L335.5,504.3z M289.1,519.4c19.1,6.1,14.4-7.1,14.2-18.7c-0.1-15.2,0-31.8-0.6-46.9
			c-8.1-1.2-6.8,6-6.2,11.9c-1,8.3-0.5,33.2-2.4,42.8c-3.5-16.4,2.6-35.8-2.4-51C282.5,472,291.3,502.2,289.1,519.4L289.1,519.4z
			 M321.3,453.3c-14.3-3.4-18.2,0.8-15.5,15c3,15.6-5.8,41.9,4.9,52.1c14.9,3.6,10.4-10.5,10.7-20.4
			C320.4,485.6,322.1,464.9,321.3,453.3L321.3,453.3z M258.9,584c21.5,3.4,33.4-1.4,56.2-2c17.8-1.6,48.1,1.6,60-6.1
			c-14.5-1-54,5.6-62.2,4.6C296.3,581.8,274.1,578.2,258.9,584L258.9,584z M302.9,436.3c0.2,17.2,24.5,9.2,19.6-5.2
			C319.9,417.7,301.5,424.5,302.9,436.3z M330.5,352.6c-46.7-10.9-39.6,16.3,0,2.7C299.1,356.4,295.6,353.2,330.5,352.6z
			 M337.2,413.1c-0.5,12.8-2.1,19,2.2,25.7C338.9,432.2,348.1,413.3,337.2,413.1z M290.6,439.9c2.3-8.8,2.2-19.1-0.2-25.7
			C285.1,419.9,290.5,432.4,290.6,439.9z M296.9,444.2c-6.6,1.4-5,11.4,0.5,8C304,451.7,300.7,446.4,296.9,444.2z M332.3,452.4
			c4.8-1.6,1.6-11-2.9-7.5C325,449.8,326.6,451,332.3,452.4z M325,441c-2.1,3.4-4.6,6.4-8.3,8.2c2.8-0.7,6.4,2,7.7-0.7
			C326.1,446.1,329.8,441.8,325,441L325,441z M353.3,634.9c-8.5-0.4-17.8,2.8-26.5,2.9C333.1,640.1,345.7,637.1,353.3,634.9z
			 M304.8,637.8c-7.4-0.6-15-2.3-22.2-1.8C289.4,639,297.6,639.1,304.8,637.8z M322.9,644c6.9,1.8,16.5,0.4,23.2-2.7
			C338.4,641.8,330.6,643.3,322.9,644z M299.9,443c1.8,4.7,5.7,8,10.9,6.4C306.2,449.2,304.1,440.1,299.9,443z M319.8,650.5
			c6.9,1,14.8,0.9,20.8-2.2C333.7,648.7,326.5,648.9,319.8,650.5z M285.7,642.1c5.4,2.3,13.9,4.6,19,1.9
			C298.3,644.2,291.6,641.9,285.7,642.1z M306.9,649.9c-5.6-0.6-12-1.8-17.3-2.1C294.6,650.4,301.5,651.6,306.9,649.9z M342.7,295.3
			c1.8-7-10.1-3.8-5.8-1.8c1.4-0.1,1.4,1.3,0.7,2.2C339.5,294.4,340.9,293.7,342.7,295.3L342.7,295.3z M335.6,453.3
			c4.4,3.4,5.3-0.1,3.2-3.5C337.2,446.8,336.3,452,335.6,453.3z M288.3,290.2c0.6-3.9-5.4-4.6-6.2-1.2
			C284.6,289.3,286.2,289.9,288.3,290.2z M290,451.7c-1.5,1.4-2.9,5.7-2.3,7.1C289.4,456.4,292.8,455.4,290,451.7z M334.5,297.3
			c0.6,3.5,6.4,3.5,5.9,0.2C338.2,299.9,336.7,298.3,334.5,297.3z M281.7,294.9c1.7,0.2,3-0.4,3.9-1.9
			C283.7,294.8,280.9,290.9,281.7,294.9z M278.8,293.6c0.2,0.2,0.4,0.4,0.6,0.2C279.7,293.3,279,293,278.8,293.6z"/>
		<path class="st0" d="M247.2,164.1c111-57.2,247.5,59.1,202,177.4c-12.4,28.2-32.1,52.7-42.7,81.9c-19.1,25.9,9.4,85.6-32.7,91.5
			c38.4-10.7,4.5-63,45.4-124C519.4,266,391.9,105.3,247.2,164.1L247.2,164.1z"/>
		<path class="st0" d="M378.8,506.1c17-8.5,9-46.5,11.7-59.3c7.2-35.9,34.3-70,48.9-103.8c39.5-92.8-45.9-200.3-146.9-184.8
			c-4.9,1-20,2.3-25.6,4.9c9.8-7.8,36.4-7.1,42.1-7.7c108.6-3.2,182,124,118.4,214.2c-13.4,27-31.3,49.9-34.5,81.2
			C390.6,459.3,397.2,506.4,378.8,506.1L378.8,506.1z"/>
		<path class="st0" d="M185.3,225.5C139.4,323,201.7,372,240,453.8c10.1,20.3-2,41.2,10.8,61.3c-15.3-3.7-3.2-47.8-14.2-63.6
			C200.2,377.2,134.4,315.1,185.3,225.5L185.3,225.5z"/>
		<path class="st0" d="M188.9,235c-54.6,113.2,68.2,164,64,272.1c0.1,3.4,7.3,6.3,6.1,7.8c-11.5-4.5-9.3-13.7-9.9-25.3
			C249.2,396.1,129.7,343.2,188.9,235L188.9,235z"/>
		<path class="st0" d="M381.8,182.9c17.6,8.4,33.6,24,42.4,41.6C411.9,209,399.1,193.2,381.8,182.9z"/>
		<path class="st0" d="M389.1,434.2c-2.9,10.2,0.9,34.9-4.2,38.3C387.1,460,382.5,445.2,389.1,434.2z"/>
		<path class="st0" d="M337.3,165.9c12.4,0.6,26.1,4.6,36.2,11.7C362,172.7,349.4,169.8,337.3,165.9z"/>
		<path class="st0" d="M438.2,331.3c-4.9,13.9-11.2,29.2-19,40.7C425.1,358.4,431.2,344.2,438.2,331.3z"/>
		<path class="st0" d="M221.2,394.3c-8.1-9.7-17.7-23.7-21-34.5C206.7,371.5,214.6,383,221.2,394.3z"/>
		<path class="st0" d="M194.7,209.8c3.6-7.1,15.5-22.1,20-21.8C207.7,195.1,201.1,202.3,194.7,209.8z"/>
		<path class="st0" d="M442.1,278c2.6,7.5,4.3,17.1,2.2,24.8C443,294.8,442.2,286,442.1,278z"/>
		<path class="st0" d="M240.2,426.8c-4.8-9.2-11.5-19-15.6-27.8C231.8,406.3,236,417.3,240.2,426.8z"/>
		<path class="st0" d="M250.6,453.7c-2.4-6.3-5.2-13.4-6.6-19.9C247.7,438.8,251.4,447.2,250.6,453.7z"/>
		<path class="st0" d="M385.1,482.7c1.1,4.5,0.5,13.5-4.4,15.5C382.2,493.4,383.1,487.1,385.1,482.7z"/>
		<path class="st0" d="M388.7,430.5c0.9-7.6,6.2-14.1,9.3-20.9C397.3,416.4,391.6,423.9,388.7,430.5z"/>
		<path class="st0" d="M302.2,163.1c8-2.4,17.8-0.7,25.8,0.8C319.4,164.4,310.9,162.2,302.2,163.1z"/>
		<path class="st0" d="M427.7,231.3c3.6,6.1,8.4,12.7,8.3,20C433.9,244.6,429.5,237.8,427.7,231.3z"/>
		<path class="st0" d="M183.8,268.2c-0.9,5.8-1.2,11.7-2.7,17.3C179.7,280.4,181.3,273.1,183.8,268.2z"/>
		<path class="st0" d="M402.2,401.5c1-6.6,6.4-12.1,10.4-17.4C409.3,389.9,405.7,395.8,402.2,401.5z"/>
		<path class="st0" d="M222.4,180.9c2.2-2.6,11.6-9,14.4-9.8C232.3,175.2,227.9,178.4,222.4,180.9z"/>
		<path class="st0" d="M195.2,348.5c-2.8-2.7-6.8-12.4-6.4-15.4C191.1,338.1,193.3,343.4,195.2,348.5z"/>
		<path class="st0" d="M184.6,262c-0.2-2.4,4.2-12.7,5.6-15.8C190,251.7,187.1,257.2,184.6,262z"/>
		<path class="st0" d="M181,296.7c1.1,2.1,2.3,12.2,1.8,14.1C181.2,306.5,180.7,301.3,181,296.7z"/>
		<path class="st0" d="M281.9,165.6c2-2.4,8.2-2.6,11.4-1.9C289.7,165.2,285.6,165.2,281.9,165.6z"/>
		<path class="st0" d="M194.3,223.6c-0.9-3.2,2.9-6.9,5.3-8.9C198.6,217.6,196.3,221.1,194.3,223.6z"/>
		<path class="st0" d="M440.5,324.8c0.2-3.2-0.5-7.2,0.9-10C442.8,317.6,441.6,321.9,440.5,324.8z"/>
		<path class="st0" d="M215,195.5c0.7-2.1,4.8-5.6,7.2-6.1C219.6,191.4,217.8,194.2,215,195.5z"/>
		<path class="st0" d="M441.2,270.8c-1.2-2.4-2.8-7.7-2.6-9.2C440.4,263.9,440.9,267.7,441.2,270.8z"/>
		<path class="st0" d="M188.2,219.6c-0.5-2,1.8-3.7,2.7-5.4c0.3-0.6,1.5-1.4,1.1-0.2C190,217.8,189.2,219,188.2,219.6L188.2,219.6z"
			/>
		<path class="st0" d="M262.1,171.6c-2.4,1.9-5.6,3.2-8.4,4.5C255.1,173.9,259.3,172.3,262.1,171.6z"/>
		<path class="st0" d="M367.7,509c1.2-1.6,3.6-1.9,5.3-1.2C372.4,509.4,369.2,509.3,367.7,509z"/>
		<path class="st0" d="M262,164.4c-0.9,0.3-5.2,2.6-5.9,1.8C257.5,164.7,259.8,164.2,262,164.4z"/>
		<path class="st0" d="M184.3,319.4c1.2,0.8,1.8,5.7,2.1,6.8C185.2,324.1,184.3,321.7,184.3,319.4z"/>
		<path class="st0" d="M242.9,174.1c-2,1.6-4.2,2.9-6.5,4.5C237.5,177,240.3,175,242.9,174.1z"/>
		<path class="st0" d="M290.7,627.6c25.2-2.9,51.2-2.3,76.4-5.6C342.4,627.6,315.8,630.6,290.7,627.6z"/>
		<path class="st0" d="M287.5,609.3c15.1-2.7,31.7-4.4,46.5-1.6C319.5,613,302.6,611.2,287.5,609.3z"/>
		<path class="st0" d="M372.2,602.7c-6.1,3.1-13.1,2.5-19.7,2.5C358.5,603,366,600.2,372.2,602.7z"/>
		<path class="st0" d="M315.1,396.1c0.2,4.5,2.6,11.2,0.1,14.7C311.4,408.2,314.4,400.2,315.1,396.1z"/>
		<path class="st0" d="M310.9,396.9c0.8,3.9,2.9,13.2-1.5,15.1C310.1,407.2,309.6,401.6,310.9,396.9z"/>
		<path class="st0" d="M332.1,553.5c-15,2.5-32.6,3.8-46.8,1.7C300.9,551.1,318.6,548.8,332.1,553.5z"/>
		<path class="st0" d="M381.5,549.5c-11.1,2.2-22.6,3.1-33.9,1.9C358,549.5,371.6,545.9,381.5,549.5z"/>
		<path class="st0" d="M273.4,554.8c-1.2,0.8-3.6,1.4-4,0.1C270.2,553.9,272.1,554.3,273.4,554.8z"/>
		<path class="st0" d="M286.4,573.4c16.5-2.1,28.4-4.1,46.1-2.4C319.9,577.3,300.5,575.4,286.4,573.4z"/>
		<path class="st0" d="M253.9,534c26.8-3.7,53.6-9.6,80.5-6.5C308.1,533.4,279.9,532.1,253.9,534z"/>
		<path class="st0" d="M284.5,537.4c10.5-5.7,30.3-4.5,40-4.8C367.1,532.4,295.1,540.3,284.5,537.4z"/>
		<path class="st0" d="M256.5,538.9c2.3-0.9,11.4-2.7,16.2-1C269.8,539,262.3,541.1,256.5,538.9z"/>
		<path class="st0" d="M254.1,528.7c5.1-1.4,6.3-1.8,13.7-0.6C268.5,527.7,255.5,532.3,254.1,528.7z"/>
		<path class="st0" d="M290.7,591.8c14.8-3.3,30.8-4.7,46-3.1C322.5,592.9,305.5,593.8,290.7,591.8z"/>
		<path class="st0" d="M336.7,509.7c0.9,1.3,1.5,4.4-0.2,5.4C335.2,514.1,335.1,510.3,336.7,509.7z"/>
		<path class="st0" d="M318.3,456c0.5,17.3,0.7,40.6-0.3,60.8C314,505.1,315.4,470.5,318.3,456z"/>
		<path class="st0" d="M313.6,456.5c0.3,20.9,1.1,39-0.7,59.8C311.6,492.8,311.2,478.4,313.6,456.5z"/>
		<path class="st0" d="M308.7,456.2c2.5,4.9,1,10.6,0.4,15.5C307.5,467,308.6,461.3,308.7,456.2z"/>
		<path class="st0" d="M309.6,515.7c-1.6-5.5-1.7-12.8-0.7-18.4C309.1,502.9,310.8,510.7,309.6,515.7z"/>
		<path class="st0" d="M309.2,491.7c-1.6-3.4-0.2-7.9,0.1-11.6C310.1,482.7,310.4,490.6,309.2,491.7z"/>
		<path class="st0" d="M308.4,430.4c10.5-14.8,19.1,16.7,1.4,11.9c-3.5-1.4-4.7-6.8-2.3-9.2c-2.4,6.7,5.9,11.7,9.6,5.2
			C322.1,431,312,425.4,308.4,430.4L308.4,430.4z"/>
	</g>
</g>
<g id="rays">
	<g>
		<path class="st0" d="M463,407.7c14,6.2,24.5,21.4,37.1,30.9c18.3,16.5,38.5,32.1,53.9,51.1C524.3,462.7,489,437.7,463,407.7
			L463,407.7z"/>
		<path class="st0" d="M325.7,116.3c-4.5-13.1-1-30.8-1.5-45.3c2.1-23.4,0.3-47.4,2.8-70.6c2.3,16.3,0,33.9,0.8,50.6
			C326.3,72.2,331.3,96.1,325.7,116.3L325.7,116.3z"/>
		<path class="st0" d="M0,289.2c33.1-1,66.9-1.3,100.3-1.3c4.4,1.2,29.6-2.1,27.7,2.4C85.7,292.6,42.2,291,0,289.2L0,289.2z"/>
		<path class="st0" d="M624.7,286.9c-155.1,7.8-155.6-4.2,0-0.3C624.7,286.7,624.7,286.8,624.7,286.9z"/>
		<path class="st0" d="M164.6,402.7c2.6,5-20,17.3-23.9,22.6c-21.1,16.5-40,36.3-61.8,51.7C105.7,450.8,134.3,424.9,164.6,402.7
			L164.6,402.7z"/>
		<path class="st0" d="M524.4,87c-24.1,26.9-51.5,56-78.1,78.1c7.3-13.8,24.1-24.1,34.6-36.6C496.2,115.6,508.6,99.3,524.4,87
			L524.4,87z"/>
		<path class="st0" d="M189.4,163c-25.6-26.2-50.9-54.7-74.2-83c18.6,16.1,34.1,36.7,51.6,54.4C171.3,141.2,190.1,156.9,189.4,163
			L189.4,163z"/>
		<path class="st0" d="M348.3,51.9c1.7,18-2.3,36.2-2.8,54.3c-0.8,3.2,0.6,9.8-3.6,10.3C340.9,95.6,343.8,72.5,348.3,51.9z"/>
		<path class="st0" d="M562.6,380.5c-22.8-8.4-46.7-19.5-67.4-32.1c5.2-3.6,12,5.1,17.6,6.1C529.3,363,547.1,370.7,562.6,380.5
			L562.6,380.5z"/>
		<path class="st0" d="M509.7,135.3c-8.1,9.2-18.3,16.6-27.7,24.6c-7.2,5-14.2,15.3-22.5,16.8c0.1-5,7.4-7.9,10.6-11.5
			C482.9,154.7,495.2,143.2,509.7,135.3L509.7,135.3z"/>
		<path class="st0" d="M152.6,91.7c17.2,18.5,36.4,40.1,49.4,61.1c-8-3-12.6-14.3-18.7-20.6C173.1,118.6,161.9,106,152.6,91.7
			L152.6,91.7z"/>
		<path class="st0" d="M306.6,44.6c2.1,14.8,2.6,30.4,3.7,45.5c-0.3,8,3.3,18.2,0.2,25.3c-5.3-7.2-1.8-20.5-3.6-29.6
			C307.4,71.9,303.9,58.3,306.6,44.6L306.6,44.6z"/>
		<path class="st0" d="M137.2,349.2c-2.7,5.6-12,4.9-17.2,8.1c-16.9,6.1-32.9,13.9-50,19.4c11.3-8,25.6-11.9,38.1-18.2
			C117.7,356.2,127.7,347.9,137.2,349.2L137.2,349.2z"/>
		<path class="st0" d="M560,354c-3.1,0-73.3-22.4-55-22.8C522.9,338.9,543.8,344.4,560,354z"/>
		<path class="st0" d="M50.6,312.3c25.1-5.3,51.9-9.8,77-10C103.9,309.1,75.6,309.6,50.6,312.3z"/>
		<path class="st0" d="M490.1,224.3c-0.1-2.8,3.9-3.4,5.8-4.6c20.3-8.3,39.7-20.1,60.8-25.6C535,204.2,512.7,217.4,490.1,224.3
			L490.1,224.3z"/>
		<path class="st0" d="M504.6,301.8c20.7-2.1,44.1,5.1,65,8.3C548.7,309.1,524.6,308.2,504.6,301.8z"/>
		<path class="st0" d="M415.9,73.1c-6.6,18.6-13.5,39.7-23.9,56.3c-3.3-4.3,5.2-15.6,6.5-21.2C404.5,96.5,408.8,84,415.9,73.1z"/>
		<path class="st0" d="M216.7,70.6c8.9,17.6,16.7,36,23.3,54.6c0.4,1.4,2,5.2-0.8,4.4C230.3,111.5,222.3,90.4,216.7,70.6L216.7,70.6
			z"/>
		<path class="st0" d="M71.6,352.1c5.6-1.7,66.3-26.4,61.5-17.5C112.9,340.9,92.4,348.2,71.6,352.1z"/>
		<path class="st0" d="M517.7,428.9c-15.4-11.2-32.7-21.4-46.7-34.2C471,386.2,514.5,424.5,517.7,428.9z"/>
		<path class="st0" d="M236.7,67.4c7,18,15.7,38.3,18,57.4c-5.4-0.6-4.2-10.6-6.7-14.7C244.2,95.8,238.8,82,236.7,67.4L236.7,67.4z"
			/>
		<path class="st0" d="M374.6,122.6c2.6-14.7,9.6-29.1,15.2-43.1c1-1.9,5.4-15.7,5.9-11.6C391.5,76.3,381.3,123.6,374.6,122.6z"/>
		<path class="st0" d="M541,174.8C466.3,221.4,458.4,211.6,541,174.8L541,174.8z"/>
		<path class="st0" d="M406.8,137.3c-0.1-9.8,9.4-17.7,13-26.6c5.2-9.5,9.2-20,16-28.5c-3.2,14-12.9,25.7-18.6,38.7
			C413.9,126.4,412.2,133.9,406.8,137.3L406.8,137.3z"/>
		<path class="st0" d="M138.1,234.2c-21.5-7.1-42-17.8-63.5-25.6c20,3.5,39.2,14,58.4,20.8C135,230.8,139.8,230.7,138.1,234.2
			L138.1,234.2z"/>
		<path class="st0" d="M134.8,132c7.7,3.6,14.4,11.2,20.8,17.2c6.9,7.7,17.9,13.6,21.9,23.1C161.9,162.8,148.6,145.4,134.8,132
			L134.8,132z"/>
		<path class="st0" d="M81.5,186.4c21.3,9.4,46.1,20.3,64,33.3C126.4,213.2,100.1,197,81.5,186.4z"/>
		<path class="st0" d="M287.7,58.1c3,18.8,8.2,40.5,7.1,59.4c-4-2.5-2.9-10.5-3.8-15.1C290.2,87.7,286.5,72.8,287.7,58.1L287.7,58.1
			z"/>
		<path class="st0" d="M255.5,66.8c6.2,16.4,12.2,37.3,12.1,54.5C259.6,106,259.2,84.3,255.5,66.8z"/>
		<path class="st0" d="M472.6,108.6c-10.2,16.2-25.4,30.5-37.9,45.5c-0.6,0.8-1.8,1-1.9-0.1C442.7,137.2,459.2,122.6,472.6,108.6
			L472.6,108.6z"/>
		<path class="st0" d="M61.6,269.4c22.1,2,48.4-0.5,68.2,5.8C108.1,275.8,83.6,272,61.6,269.4z"/>
		<path class="st0" d="M113.5,423.1c13.5-11.2,28-25.3,43.4-32.9c1.3,1.8-1.2,3.3-2.4,4.2C140.6,403.7,128,414.8,113.5,423.1
			L113.5,423.1z"/>
		<path class="st0" d="M528.1,385.5c-10.2-6.1-35-12.9-39.7-22.1c6.1-0.2,11.3,4.7,16.5,7.4C512.7,375.3,521.8,378.9,528.1,385.5
			L528.1,385.5z"/>
		<path class="st0" d="M186.3,99.6c9.5,12.1,17.1,25.6,26.2,38.1c0.9,1.4,3,4.5,0.9,5.7C203.3,130.9,192.7,114.9,186.3,99.6
			L186.3,99.6z"/>
		<path class="st0" d="M500.3,257.4c0.9-2.4,3.2-2.8,5.4-3.4c14.7-2.9,28.9-8.1,43.8-9.8C534.2,249.3,516.4,257.1,500.3,257.4z"/>
		<path class="st0" d="M503.6,273.8c14.6-7.4,35.3-6.4,52.1-7.7C538.6,269.7,521,273.4,503.6,273.8z"/>
		<path class="st0" d="M517.4,402.8c-9.6-6.4-34-15.8-38.1-24.5c4.3-2.6,9.6,5.3,14,6.7C501,391.2,510.7,395.9,517.4,402.8
			L517.4,402.8z"/>
		<path class="st0" d="M92.4,388.7c15.7-9,33.5-20.8,50.3-25.6C128.6,373.8,108.8,381.4,92.4,388.7z"/>
		<path class="st0" d="M508.1,167.3c-3.4,2.9-37.3,29.1-36.4,21C483.3,180.9,495.1,172.3,508.1,167.3z"/>
		<path class="st0" d="M358.8,119.6c-4.2-10.5,5.2-25.8,6.4-37.4c5.3-13.6,0.9,8.8-0.6,12.1C362,102.4,363.4,112.4,358.8,119.6
			L358.8,119.6z"/>
		<path class="st0" d="M209.3,102.8c2.5,1.3,25.5,41.3,14.2,33.2C218.7,125.2,212.1,113.8,209.3,102.8z"/>
		<path class="st0" d="M281.1,118.8c-4.6,3-7.8-42.6-8-47.7C278.5,86.3,278.8,102.8,281.1,118.8z"/>
		<path class="st0" d="M87.4,328.1c5.5-3.3,13.1-3.7,19.4-5.8c8.2-0.7,18.7-6.5,26-4.1c-3.3,3.8-11.6,2.8-16.6,5
			C106.6,324.4,97,328.3,87.4,328.1z"/>
		<path class="st0" d="M134.3,247.8c-2.8,2-7.1-1-10.3-1.4c-13.1-4.4-27.3-7-40-12.1c10.8,0.1,22.4,5.7,33.5,7.4
			C122.9,243.7,130.4,244,134.3,247.8L134.3,247.8z"/>
		<path class="st0" d="M540.9,223.8c-53.6,25.8-66.1,20.1-0.3-0.5C540.7,223.5,540.8,223.6,540.9,223.8z"/>
		<path class="st0" d="M483.1,449.6c-6.3-3.3-11.4-10.5-17.2-15.2c-2.9-4.1-9.8-7.9-10-12.8C466.2,426.9,475.9,439.7,483.1,449.6
			L483.1,449.6z"/>
		<path class="st0" d="M504.3,317.1c4.4-4.4,32.8,7.6,39.3,10.7C530.5,325.1,516.1,322.9,504.3,317.1z"/>
		<path class="st0" d="M107.9,178.7c15.6,6.8,31,16.6,44.9,26.5c-1,2-4.2-0.6-5.6-1.3C134.4,195,119.9,188.5,107.9,178.7
			L107.9,178.7z"/>
		<path class="st0" d="M442.4,114.6c-2.6,4.6-18.4,34.1-22.5,30.7C424.3,134.1,434.1,123.5,442.4,114.6z"/>
		<path class="st0" d="M159.2,194.2c-10.3-3.2-18.8-13.6-28.9-18.7C112.3,160.7,157.5,189.2,159.2,194.2z"/>
		<path class="st0" d="M469.3,457.6c-7.7-6.3-17.9-16.2-22.2-25C456.5,435.6,462.7,449.8,469.3,457.6z"/>
		<path class="st0" d="M120.1,395.3c4.7-2.5,28.5-22.9,29.8-16.7C140,384.4,130.7,391,120.1,395.3z"/>
		<path class="st0" d="M98.2,255.3c2.9-0.3,43.5,4,29.6,6.4C118.2,259,106.9,259.4,98.2,255.3z"/>
		<path class="st0" d="M173.2,415.5c-0.8,6.9-13.7,12.7-18.1,19C143.6,441.9,169.4,416,173.2,415.5z"/>
		<path class="st0" d="M166.3,443.5c2.5-6.4,9.8-11.9,14.8-17.2C187.1,425.5,168.4,443,166.3,443.5z"/>
		<path class="st0" d="M166.6,184.4c-5.1-5.1-12.3-9-15.9-15C153.7,170.5,170.6,181.8,166.6,184.4z"/>
		<path class="st0" d="M65,204.7c-6.1,1.3-13.2-4.7-19.5-6.1C48.5,198,63.1,202.1,65,204.7z"/>
		<path class="st0" d="M475.3,465.2c4.9,0.6,6.4,6.8,9.2,10.7C480.2,474.1,476.3,469.6,475.3,465.2z"/>
		<path class="st0" d="M569.4,409.2c-4-1.1-11.8-3.3-13.2-7.3C560,400.9,566.4,406.8,569.4,409.2z"/>
		<path class="st0" d="M543.8,448.7c4.2,0.3,8.6,5.6,10.9,8.3C550.1,456.9,545.3,451.8,543.8,448.7z"/>
		<path class="st0" d="M523,433.3c4.9,0.5,8.5,4.6,11.4,8.1C530.5,441.7,525.9,436.8,523,433.3z"/>
		<path class="st0" d="M428,47.8c-2.6,5.4-3.8,12.4-7.6,16.2C419.4,60.9,425.3,49.7,428,47.8z"/>
		<path class="st0" d="M131.4,154c2.5,0.5,10,4.9,11.2,9.1C137.8,162.1,134.7,157.9,131.4,154z"/>
		<path class="st0" d="M586,392.1c-3.1-0.2-11.6-3.5-12.1-6.5C576.3,383.7,583.9,390.2,586,392.1z"/>
		<path class="st0" d="M74.2,251.6c1.8-0.4,21.7,1.1,14.6,3.3C84.2,253.6,78,254.1,74.2,251.6z"/>
		<path class="st0" d="M49.8,384.8c2.2-4,9.4-5,13.7-5.9C59.8,381.9,54.6,384.8,49.8,384.8z"/>
		<path class="st0" d="M454.5,95.9C447,114.8,439.6,109.7,454.5,95.9L454.5,95.9z"/>
		<path class="st0" d="M348.7,43.5c-1-4.4,0.5-9.7,1.9-13.7C351.5,31.8,351.9,43.3,348.7,43.5z"/>
		<path class="st0" d="M377.3,44.6c1,4.5-1.8,9.1-2.7,13.4C369.7,61.5,376.5,46.4,377.3,44.6z"/>
		<path class="st0" d="M30.4,267.6c3.2-1.9,8.9,0.2,12.9-0.2C52.7,270.7,32.6,268.7,30.4,267.6z"/>
		<path class="st0" d="M518.9,128.4c0.2-3.7,6.7-7.4,10.2-7.9C526.9,123.8,521.3,128.1,518.9,128.4z"/>
		<path class="st0" d="M103.8,104.1c3.6,0,5.7,4.7,8.8,6.5c0.7,0.6,2,1.4,1.2,2.4C109.8,113.9,106.6,106.7,103.8,104.1z"/>
		<path class="st0" d="M615.8,315.5c-3.8,0.1-11.9,1.5-13.5-2.3C606,311.5,611.6,314.6,615.8,315.5z"/>
		<path class="st0" d="M582.2,362.1c-4.1,0.2-8.6-2.7-12.6-4.2C568.1,352.9,580.9,360.8,582.2,362.1z"/>
		<path class="st0" d="M232.2,52.9c-2.9-1.2-4.1-10.8-3.1-13.4C231.4,43.6,232.7,48.2,232.2,52.9z"/>
		<path class="st0" d="M582.4,181.6c-2.8,3-8.3,5.7-12.6,6C572.7,184.3,578.1,181.7,582.4,181.6z"/>
		<path class="st0" d="M284.7,24c0.5,3.4,4.3,9.9,0.5,12C282.7,34.2,284.3,27,284.7,24z"/>
		<path class="st0" d="M547.9,396.2c-3.4-1.2-10.2-2.9-11.3-6.6C540.4,388.6,545.1,393.7,547.9,396.2z"/>
		<path class="st0" d="M523.4,407.6c4.3-1,9.9,4.5,12.5,6.9C531.6,413.6,527.1,410.9,523.4,407.6z"/>
		<path class="st0" d="M120.3,118c1.8,1.1,13,9.2,7.6,9.3C125.9,124.3,120.2,121.7,120.3,118z"/>
		<path class="st0" d="M444,62.8c0,3.5-1.6,9.7-4.6,11.4C437.1,72.4,442.4,64.3,444,62.8z"/>
		<path class="st0" d="M64.2,229.7c3.8-0.6,11,0.1,13.3,3C74.1,233.6,67.5,231.3,64.2,229.7z"/>
		<path class="st0" d="M404.6,44.2c-2,3.7-2,10.1-5.2,12.5C397.7,52.7,401.7,47.3,404.6,44.2z"/>
		<path class="st0" d="M490.7,456.7c3,0.7,6.5,4.8,8.4,9.8C495.6,463.9,491.3,460.9,490.7,456.7z"/>
		<path class="st0" d="M498.5,79.3c-2.6,3-5.3,8.9-9,9.7C488.8,85.8,495.6,80.8,498.5,79.3z"/>
		<path class="st0" d="M592.5,313.3c-3.9-0.4-8.2,0.3-11.8-1.1C579.6,308.3,591.4,311.5,592.5,313.3z"/>
		<path class="st0" d="M371.9,63.2c0.9,3.6-1.3,7-2.3,10.4C365.5,75.8,370.1,64.7,371.9,63.2z"/>
		<path class="st0" d="M139.6,447.5c-0.4-2.4,9.4-10.7,7.1-4.9C144.2,443.8,142.4,448.7,139.6,447.5z"/>
		<path class="st0" d="M111.3,160.3C126.5,165.1,119.3,172.1,111.3,160.3L111.3,160.3z"/>
		<path class="st0" d="M548.7,328.8c4.6-0.5,7.9,1.3,11.2,3.9C556.2,332.5,551,332.3,548.7,328.8z"/>
		<path class="st0" d="M549.1,221.5c0.5-3.8,7.1-2.9,10.1-4.6C561.9,219,549.8,222,549.1,221.5z"/>
		<path class="st0" d="M59.2,174.8c5,0.8,9.2,3.1,13,6.5C70.1,181,62.3,178.7,59.2,174.8z"/>
		<path class="st0" d="M353.1,8.9c-0.3,2.8,1.4,11.6-2.3,10.6C349.8,16.3,351.2,11.6,353.1,8.9z"/>
		<path class="st0" d="M580.3,210.4c-2.9,1.8-9.2,5.4-12.3,3.9C569.5,211,576.8,211.2,580.3,210.4z"/>
		<path class="st0" d="M224.7,25.9c-3.1-1.8-3-7.1-2.3-9.9C224,18.4,227,23.1,224.7,25.9z"/>
		<path class="st0" d="M95.8,149.4c2.9,1.5,8.7,3.3,9.1,6.6C101.7,156.6,97.2,152,95.8,149.4z"/>
		<path class="st0" d="M484.9,94.6c-1.5,3.3-4.7,8.9-8.2,9.3C477.1,100.1,482.3,97.4,484.9,94.6z"/>
		<path class="st0" d="M49.6,359c15.6-8.2,18.4-2.9,0.1,0.3C49.7,359.2,49.7,359.1,49.6,359z"/>
		<path class="st0" d="M250.9,47.1c0.8,3.5,4.1,8,2.4,11.3C250.6,56.9,250.3,50,250.9,47.1z"/>
		<path class="st0" d="M102,406.5c3.4-2.7,6.5-5.2,10.3-6.7C113.5,403.1,104.8,405.9,102,406.5z"/>
		<path class="st0" d="M575.9,263.8c-1.4,2.2-6.4,2.9-8.3,1.5C567.2,262.9,574.9,262.2,575.9,263.8z"/>
		<path class="st0" d="M26.9,315.6c3.5-1.4,10.7-2.4,13.1-2C38.1,316.6,31.1,315.7,26.9,315.6z"/>
		<path class="st0" d="M42.8,166.7c2.8-1.2,6,1.9,8.8,2.8C56,174.5,44.1,167.9,42.8,166.7z"/>
		<path class="st0" d="M31,392.9c2.9-1.6,6.8-5.3,9.9-4.6C40.6,391.6,34,392.2,31,392.9z"/>
		<path class="st0" d="M70.3,399.7c3-2.5,7-5.6,10.3-5.3C79.7,397.8,73.9,398.5,70.3,399.7z"/>
		<path class="st0" d="M601.1,262.3c-1.7,1.2-13.2,1.8-7-1.1C596.3,260.9,599.9,260.2,601.1,262.3z"/>
		<path class="st0" d="M100.3,175c-2.1-0.3-9.2-3.1-6.6-4.9C96,170.8,100.6,172.2,100.3,175z"/>
		<path class="st0" d="M209.8,55.5c2.6,2.8,3.8,5.5,3.6,8.1C210,64,210,58.2,209.8,55.5z"/>
		<path class="st0" d="M306.8,27.5c2.1,1.6,0.4,5,0.7,7.3C304.7,40.9,305.2,27.4,306.8,27.5z"/>
		<path class="st0" d="M513,481.8c-1.8-0.9-10-7.9-5.3-7.7C509.4,476.4,512.8,479.1,513,481.8z"/>
		<path class="st0" d="M98.7,433.7c1.4-3.1,5.1-4.8,7.9-6.5C109.3,428.8,100.4,433,98.7,433.7z"/>
		<path class="st0" d="M435.4,30.3c-0.3,2.2-2.4,9.6-5,9.5C429.6,36.8,433.8,32.8,435.4,30.3z"/>
		<path class="st0" d="M70.9,332.6c2.1-2,6.9-3.7,9.3-2.7C79.3,332.8,73.9,332.3,70.9,332.6z"/>
		<path class="st0" d="M86.3,166.6c-3-0.3-6.5-2.5-8.1-5.1C81.1,161.1,84.7,163.8,86.3,166.6z"/>
		<path class="st0" d="M114.7,140.1c2.3,1,7.6,3.9,7.2,6.5C119.3,146.7,115.9,142.5,114.7,140.1z"/>
		<path class="st0" d="M27.9,158.4c2.7,0.6,7.6,1.3,7.9,4.2C33.7,163.3,29,160.6,27.9,158.4z"/>
		<path class="st0" d="M50.4,338.2C62.5,330.8,64.3,337.8,50.4,338.2L50.4,338.2z"/>
		<path class="st0" d="M567.9,240.3c-2.4,0.8-6.8,3.6-8.7,1.3C560.7,239.1,565.3,240.1,567.9,240.3z"/>
		<path class="st0" d="M269.5,53.9c1,2.8,3,7.3,1.3,9.8C268.6,61.5,269.4,57,269.5,53.9z"/>
		<path class="st0" d="M175.7,85.2c2.8,0.6,4,3.8,5.5,6C180,95.4,176.6,87,175.7,85.2z"/>
		<path class="st0" d="M565.1,334.5c2.4-1.5,6.1,0.6,8.2,2.4C572.5,337.4,566.7,337.2,565.1,334.5z"/>
		<path class="st0" d="M286,43.6c1.5,1.2,2.6,7.3,1,8.5C285.3,50.6,285.2,45.5,286,43.6z"/>
		<path class="st0" d="M127.7,457.9C134.2,447.4,138.2,453.7,127.7,457.9L127.7,457.9z"/>
		<path class="st0" d="M307,8.9c0.7,2.5,1.3,6.1-0.9,7.8C304.7,15.1,305,12.1,307,8.9z"/>
		<path class="st0" d="M87.6,415c2.5-1,5.8-6,8.3-4.1C95,413.4,90.1,414.8,87.6,415z"/>
		<path class="st0" d="M548.8,423.5c-1.6-0.3-11.8-5.1-5.7-4.9C544.6,420.3,548.9,421.3,548.8,423.5z"/>
		<path class="st0" d="M201.1,88c2.2,0.1,2.3,2.9,3.6,4.4C205.2,98.8,200.4,90.6,201.1,88z"/>
		<path class="st0" d="M560.8,165.1c-2.3,1.4-5.7,5.3-8.3,3.7C552.6,166,558.6,165.9,560.8,165.1z"/>
		<path class="st0" d="M140.9,76.6c2.5,1.1,4.3,3.9,5.8,6.1C145.1,86.4,141.9,78.5,140.9,76.6z"/>
		<path class="st0" d="M583,236.1c-1.7,1.8-6.5,3.6-8.4,2C575.4,235.4,580.6,236.9,583,236.1z"/>
		<path class="st0" d="M159.7,451c-0.1,2.1-3.3,5.9-5.6,6.8C154,455.3,157.2,452.7,159.7,451z"/>
		<path class="st0" d="M535.5,150.1c-1.9,2-4.4,5.3-6.9,4.1C528.7,151.7,532.8,150.6,535.5,150.1z"/>
		<path class="st0" d="M205.1,44c2-0.2,2.2,2.7,2.8,4.1C207.5,52.5,204.1,45.9,205.1,44z"/>
		<path class="st0" d="M196.5,79.6c-3,0.2-2.5-3.9-3-6C195.7,74.9,196.9,77.5,196.5,79.6z"/>
		<path class="st0" d="M55.8,249.6c2.5,0.5,7-1.2,8.4,1.1C62.7,252.5,57.6,250.2,55.8,249.6z"/>
		<path class="st0" d="M521.6,159.4c-1.2,1.5-5.5,5.3-5.5,2.7C517.2,160.4,519.3,159.4,521.6,159.4z"/>
		<path class="st0" d="M87.7,414.9c0,0.3-0.2-0.1,0,0.1C87.7,415.1,87.8,415,87.7,414.9L87.7,414.9L87.7,414.9z"/>
		<path class="st0" d="M111.4,160.3l-0.2-0.1h0.1C111.6,160.3,111.2,160,111.4,160.3L111.4,160.3L111.4,160.3z"/>
		<path class="st0" d="M50.4,338.2v0.2C50.3,338.3,50.4,338.2,50.4,338.2z"/>
		<path class="st0" d="M186.3,99.6c-0.3-0.1,0-0.3-0.1,0C186.2,99.7,186.3,99.7,186.3,99.6L186.3,99.6z"/>
		<path class="st0" d="M560.7,165.1c0.2-0.3,0.3,0.1,0.1-0.1C560.7,164.8,560.6,165.1,560.7,165.1L560.7,165.1L560.7,165.1z"/>
		<path class="st0" d="M540.9,174.9l0.1-0.2C541,174.7,541,174.8,540.9,174.9z"/>
		<path class="st0" d="M454.6,96c0.1-0.3-0.3-0.1,0-0.2c0.2-0.1,0.2,0,0.1,0.1C454.6,96.2,454.8,95.8,454.6,96L454.6,96L454.6,96z"
			/>
		<path class="st0" d="M127.6,457.9C127.8,458.5,127,457.8,127.6,457.9L127.6,457.9z"/>
	</g>
</g>
</svg>
