<?xml version="1.0" encoding="utf-8"?>
<!-- Generator: Adobe Illustrator 25.4.1, SVG Export Plug-In . SVG Version: 6.00 Build 0)  -->
<svg version="1.1" id="Lager_1" xmlns="http://www.w3.org/2000/svg" xmlns:xlink="http://www.w3.org/1999/xlink" x="0px" y="0px"
	 viewBox="0 0 87.31 44.23" style="enable-background:new 0 0 87.31 44.23;" xml:space="preserve">
<style type="text/css">
	.st0{fill:#FFFFFF;}
</style>
<g>
	<path class="st0" d="M32.24,12.91c0-0.18,0.14-0.34,0.34-0.34h1.67c0.18,0,0.35,0.16,0.35,0.34v10.17h4.62
		c0.2,0,0.35,0.16,0.35,0.34v1.49c0,0.18-0.14,0.34-0.35,0.34h-6.63c-0.2,0-0.34-0.16-0.34-0.34V12.91z"/>
	<path class="st0" d="M40.61,12.91c0-0.18,0.16-0.34,0.34-0.34h1.72c0.2,0,0.34,0.16,0.34,0.34v7.56c0,1.54,1.05,2.61,2.63,2.61
		c1.58,0,2.64-1.07,2.64-2.59v-7.57c0-0.18,0.14-0.34,0.34-0.34h1.72c0.18,0,0.34,0.16,0.34,0.34v7.68c0,2.75-2.19,4.84-5.05,4.84
		c-2.85,0-5.04-2.08-5.04-4.84V12.91z"/>
	<path class="st0" d="M53.3,12.71c0-0.18,0.16-0.33,0.34-0.33h0.27c0.13,0,0.22,0.04,0.31,0.13l7.39,7.88h0.04v-7.48
		c0-0.18,0.15-0.34,0.34-0.34h1.67c0.18,0,0.35,0.16,0.35,0.34v12.2c0,0.18-0.16,0.33-0.35,0.33h-0.25c-0.13,0-0.22-0.04-0.31-0.13
		l-7.43-8.19h-0.04v7.79c0,0.18-0.14,0.34-0.34,0.34h-1.65c-0.18,0-0.34-0.16-0.34-0.34V12.71z"/>
	<path class="st0" d="M66.72,12.91c0-0.18,0.15-0.34,0.33-0.34h4.29c3.5,0,6.36,2.85,6.36,6.32c0,3.52-2.86,6.36-6.36,6.36h-4.29
		c-0.18,0-0.33-0.16-0.33-0.34V12.91z M71.13,23.04c2.36,0,4.08-1.67,4.08-4.15c0-2.46-1.72-4.13-4.08-4.13h-2.07v8.28H71.13z"/>
	<path class="st0" d="M79.15,24.02c-0.18-0.14-0.25-0.25-0.09-0.54l0.65-1.12c0.15-0.25,0.45-0.25,0.62-0.13
		c0.74,0.56,1.56,1.12,2.74,1.12c0.94,0,1.65-0.62,1.65-1.4c0-0.92-0.78-1.56-2.3-2.17c-1.7-0.69-3.41-1.78-3.41-3.91
		c0-1.61,1.2-3.48,4.08-3.48c1.85,0,3.26,0.94,3.62,1.21c0.18,0.11,0.24,0.42,0.11,0.6l-0.69,1.03c-0.14,0.22-0.42,0.36-0.63,0.22
		c-0.78-0.49-1.52-1-2.52-1c-1.03,0-1.6,0.58-1.6,1.27c0,0.85,0.67,1.43,2.14,2.03c1.76,0.71,3.79,1.76,3.79,4.1
		c0,1.87-1.61,3.59-4.17,3.59C80.86,25.43,79.68,24.47,79.15,24.02"/>
	<path class="st0" d="M32.24,28.11c0-0.16,0.13-0.3,0.3-0.3h1.11c0.16,0,0.3,0.14,0.3,0.3v3.4l3.17-3.57
		c0.05-0.06,0.13-0.13,0.24-0.13h1.26c0.24,0,0.36,0.26,0.2,0.45l-3.28,3.7l3.52,4.21c0.13,0.16,0.02,0.44-0.23,0.44h-1.37
		c-0.13,0-0.2-0.05-0.23-0.09l-3.28-4.05v3.84c0,0.16-0.14,0.3-0.3,0.3h-1.11c-0.18,0-0.3-0.14-0.3-0.3V28.11z"/>
	<path class="st0" d="M43.66,27.68c2.51,0,4.53,2.02,4.53,4.54c0,2.51-2.01,4.51-4.53,4.51c-2.52,0-4.52-2-4.52-4.51
		C39.14,29.7,41.14,27.68,43.66,27.68 M43.66,35.1c1.58,0,2.89-1.29,2.89-2.88c0-1.59-1.31-2.91-2.89-2.91
		c-1.59,0-2.88,1.32-2.88,2.91C40.78,33.8,42.07,35.1,43.66,35.1"/>
	<path class="st0" d="M50.5,27.87c0.01-0.1,0.09-0.19,0.23-0.19h0.2c0.1,0,0.18,0.05,0.21,0.13l2.77,5.94h0.04l2.77-5.94
		c0.04-0.07,0.1-0.13,0.21-0.13h0.2c0.14,0,0.21,0.09,0.23,0.19l1.48,8.45c0.04,0.18-0.06,0.29-0.23,0.29h-1.14
		c-0.11,0-0.21-0.1-0.24-0.19l-0.74-4.77h-0.04l-2.2,4.94c-0.02,0.08-0.1,0.14-0.21,0.14h-0.23c-0.11,0-0.18-0.06-0.21-0.14
		l-2.23-4.94h-0.04l-0.73,4.77c-0.01,0.09-0.11,0.19-0.23,0.19h-1.13c-0.16,0-0.26-0.11-0.24-0.29L50.5,27.87z"/>
	<path class="st0" d="M61.27,27.87c0.01-0.1,0.09-0.19,0.23-0.19h0.2c0.1,0,0.18,0.05,0.21,0.13l2.77,5.94h0.04l2.77-5.94
		c0.04-0.07,0.1-0.13,0.21-0.13h0.2c0.14,0,0.21,0.09,0.23,0.19l1.48,8.45c0.04,0.18-0.06,0.29-0.23,0.29h-1.14
		c-0.11,0-0.21-0.1-0.24-0.19l-0.74-4.77h-0.04l-2.2,4.94c-0.02,0.08-0.1,0.14-0.21,0.14h-0.23c-0.11,0-0.18-0.06-0.21-0.14
		l-2.23-4.94H62.1l-0.73,4.77c-0.01,0.09-0.11,0.19-0.23,0.19h-1.13c-0.16,0-0.26-0.11-0.24-0.29L61.27,27.87z"/>
	<path class="st0" d="M70.83,28.04c0-0.13,0.11-0.24,0.24-0.24h1.2c0.14,0,0.24,0.11,0.24,0.24v5.25c0,1.07,0.73,1.81,1.82,1.81
		c1.09,0,1.84-0.74,1.84-1.8v-5.26c0-0.13,0.1-0.24,0.24-0.24h1.2c0.13,0,0.24,0.11,0.24,0.24v5.33c0,1.91-1.52,3.36-3.51,3.36
		c-1.98,0-3.5-1.45-3.5-3.36V28.04z"/>
	<path class="st0" d="M79.63,27.9c0-0.13,0.11-0.23,0.24-0.23h0.19c0.09,0,0.15,0.03,0.21,0.09l5.13,5.47h0.02v-5.2
		c0-0.12,0.1-0.24,0.24-0.24h1.16c0.13,0,0.24,0.11,0.24,0.24v8.47c0,0.13-0.11,0.23-0.24,0.23h-0.18c-0.09,0-0.15-0.03-0.21-0.09
		l-5.16-5.68h-0.02v5.41c0,0.13-0.1,0.24-0.24,0.24h-1.14c-0.13,0-0.24-0.11-0.24-0.24V27.9z"/>
	<path class="st0" d="M25.56,12.46H24.5v0H20.1c0,0,0,0,0,0H5.58c0,0,0,0,0,0H1.11v0H0.02L0,12.48V34.7c0,2.56,0.58,4.03,1.79,5.48
		c1.59,1.91,5.5,4.05,11,4.05c4.89,0,12.77-2.22,12.77-8.41l0.02-23.33L25.56,12.46z M0.12,31.41l0.87,0v1.94H0.12V31.41z
		 M3.08,31.41l0,1.95H1.08v-1.94L3.08,31.41z M1.87,31.32l0-2.02h0.69v2.02H1.87z M7.53,25.07c0.12,0.18,0.02,0.46-0.24,0.46H3.03
		c-0.2,0-0.33-0.21-0.23-0.41c1.08-1.93,1.76-3.91,2.18-5.85c-0.12-0.05-0.33-0.19-0.33-0.49c0-0.31,0.25-0.53,0.51-0.53
		c0.27-0.01,0.51,0.23,0.51,0.53c0,0.23-0.15,0.4-0.23,0.44C5.74,21.16,6.64,23.57,7.53,25.07 M5.19,35.52h1.84v1.96H5.19V35.52z
		 M7.04,39.48H6.39v-1.92h0.64V39.48z M3.31,35.52H5.1v1.96H3.31V35.52z M4.09,39.48H3.31v-1.92h0.78V39.48z M5.09,33.35H3.31v-1.94
		h1.79V33.35z M3.31,31.31v-2.01l0.78,0l0,2.01H3.31z M4.19,31.31l0-2.01h0.57v2.01H4.19z M5.04,31.31v-3.12l0.45,0l0,3.12H5.04z
		 M6.28,35.41h-2.1v-1.97h2.1V35.41z M4.09,35.41H3.31v-1.97h0.78V35.41z M4.19,37.56h2.1v1.92h-2.1V37.56z M6.39,33.44h0.64v1.97
		H6.39V33.44z M5.19,31.41h1.84v1.94H5.19V31.41z M5.57,29.31l0.71,0v2.01H5.57L5.57,29.31z M6.39,29.31h0.64v2.01H6.39V29.31z
		 M5.57,29.2v-1.29H4.76v1.29H3.31v-1.87h3.73l0,1.88L5.57,29.2z M3.31,25.79h0.78v1.46H3.31V25.79z M4.19,25.79l2.1,0l0,1.46H4.19
		L4.19,25.79z M6.39,25.79h0.64v1.46H6.39V25.79z M1.08,37.47v-1.96h2.01l0,1.96L1.08,37.47z M3.08,39.48H1.87v-1.92h1.22V39.48z
		 M3.08,35.41H1.87v-1.97l1.22,0L3.08,35.41z M1.79,31.32l-0.84,0l0-2.01h0.84V31.32z M0.12,33.45l1.67-0.01v1.97l-1.65,0
		C0.11,34.79,0.12,34.09,0.12,33.45 M0.14,35.52l0.85,0l0,1.96l-0.55,0C0.35,37.23,0.15,36.15,0.14,35.52 M0.47,37.56H1.8v1.92H1.4
		C1.07,39.05,0.6,38.1,0.47,37.56 M9.02,33.35H7.29v-1.94h1.73V33.35z M7.59,29.31h0.74v2H7.59V29.31z M8.23,25.32l1.56,0v1.82
		l-1.56,0V25.32z M8.22,25.21v-2.06h0.81v2.06H8.22z M15.21,19.56c0.1,0.18-0.03,0.37-0.2,0.37h-4.2c-0.14,0-0.31-0.17-0.21-0.36
		c0.8-1.4,1.75-3.92,2.04-5.48c-0.17-0.09-0.31-0.22-0.31-0.49c0-0.26,0.2-0.53,0.51-0.53c0.28,0,0.51,0.24,0.51,0.53
		c0,0.22-0.13,0.39-0.21,0.43C13.48,15.81,14.28,18.03,15.21,19.56 M17.84,33.35h-1.7v-1.94h1.7V33.35z M16.49,29.31h0.81v2h-0.81
		V29.31z M22.92,25.07c0.11,0.19-0.02,0.45-0.25,0.45h-4.28c-0.19,0-0.31-0.24-0.21-0.42c0.99-1.73,1.83-4.02,2.18-5.85
		c-0.16-0.05-0.33-0.25-0.33-0.5c0-0.33,0.27-0.53,0.51-0.53c0.28,0,0.51,0.24,0.51,0.53c0,0.21-0.11,0.36-0.23,0.44
		C21.13,21.13,21.96,23.38,22.92,25.07 M24.61,31.42l0,1.94l-1.84,0l-0.01-1.95L24.61,31.42z M23.15,31.31v-2.01h0.69l0,2.01H23.15z
		 M23.93,31.31l0.01-2.01l0.83,0.01l0,2L23.93,31.31z M25.44,31.41l0,1.95h-0.73v-1.95H25.44z M22.77,37.46v-1.95h1.84l0,1.95H22.77
		z M23.84,39.48l-1.07,0v-1.92h1.07L23.84,39.48z M22.77,35.41v-1.96h1.07l0,1.96L22.77,35.41z M20.54,37.46v-1.95l1.98,0l0,1.94
		L20.54,37.46z M22.52,39.48l-0.73,0v-1.91h0.73L22.52,39.48z M18.75,35.52h1.67v1.94h-1.67V35.52z M19.44,39.48l-0.69,0v-1.91h0.69
		L19.44,39.48z M22.52,27.33v1.87h-1.55v-1.31h-0.83l0,1.31l-1.4,0v-1.87H22.52z M18.75,25.79h0.69v1.46h-0.69V25.79z M19.52,25.79
		h2.19v1.46h-2.19V25.79z M21.79,25.79h0.73v1.46h-0.73V25.79z M20.54,31.41h1.98v1.94h-1.98V31.41z M21.71,35.41h-2.19v-1.96h2.19
		V35.41z M20.41,28.2h0.45v3.11h-0.45V28.2z M20.97,29.31h0.74v2h-0.74V29.31z M21.79,33.46h0.73v1.96h-0.73V33.46z M21.79,29.31
		h0.73v2h-0.73V29.31z M20.14,31.31h-0.62v-2h0.62V31.31z M19.44,31.31h-0.69v-2h0.69V31.31z M20.41,33.35h-1.67v-1.94h1.67V33.35z
		 M19.44,35.41h-0.69v-1.96h0.69V35.41z M19.52,37.56h2.19l0,1.92l-2.19,0V37.56z M16.14,35.52h1.69v1.94h-1.69V35.52z M17.3,39.48
		h-1.15v-1.92h1.15V39.48z M16.14,33.46h1.16v1.96h-1.16V33.46z M17.38,33.46h1.14v1.96h-1.14V33.46z M17.38,37.56h1.14v1.92h-1.14
		V37.56z M18.53,37.46h-0.6v-1.94h0.6V37.46z M18.52,33.35h-0.6v-1.94h0.6V33.35z M18.03,31.31h-0.64v-2h0.64V31.31z M15.88,29
		l0,0.21h-1.05l0-1.8h2.55l0,0.2h-0.22C17.11,28.19,16.58,28.87,15.88,29 M11.81,33.46h2v1.96h-2V33.46z M13.81,39.48h-1.49v-3.7
		h1.49V39.48z M12.47,21.35v1.61l-0.74,0v0.12H11.1v-1.73H12.47z M11.1,20.26h0.63v1H11.1V20.26z M14.74,29.2H12.9v-1.8h1.84V29.2z
		 M15.88,31.31h-1.97v-2h1.97V31.31z M13.11,30.81c0.08,0.06,0.18,0.09,0.29,0.09c0.18,0,0.33-0.09,0.41-0.21l0,0.61l-0.64,0
		c0.02-0.06,0.03-0.12,0.03-0.19C13.2,31,13.17,30.9,13.11,30.81 M13.07,31.02c0,0.17-0.11,0.31-0.25,0.31
		c-0.14,0-0.25-0.14-0.25-0.31c0-0.12,0.05-0.22,0.13-0.28c-0.05-0.02-0.1-0.05-0.13-0.09c-0.05,0.07-0.14,0.11-0.25,0.11
		c-0.17,0-0.3-0.12-0.3-0.26s0.13-0.26,0.3-0.26c0.1,0,0.19,0.04,0.25,0.11c0.04-0.04,0.08-0.08,0.14-0.1
		c-0.08-0.05-0.14-0.16-0.14-0.28c0-0.17,0.11-0.31,0.25-0.31c0.14,0,0.25,0.14,0.25,0.31c0,0.12-0.06,0.23-0.14,0.28
		c0.06,0.02,0.11,0.05,0.15,0.1c0.05-0.07,0.15-0.12,0.25-0.12c0.17,0,0.3,0.12,0.3,0.26s-0.13,0.26-0.3,0.26
		c-0.11,0-0.2-0.05-0.25-0.12c-0.03,0.04-0.08,0.08-0.14,0.1C13.01,30.8,13.07,30.9,13.07,31.02 M12.83,29.43
		c-0.2,0-0.36,0.21-0.36,0.47c0,0.15,0.05,0.28,0.13,0.37c-0.01,0-0.02,0.01-0.02,0.01c-0.08-0.08-0.21-0.14-0.35-0.14
		c-0.18,0-0.34,0.09-0.41,0.22l0-1.05h2l0,1.04c-0.08-0.12-0.23-0.21-0.41-0.21c-0.13,0-0.25,0.05-0.34,0.12
		c0.08-0.09,0.13-0.22,0.13-0.37C13.2,29.64,13.04,29.43,12.83,29.43 M11.81,30.68c0.07,0.13,0.23,0.22,0.42,0.22
		c0.15,0,0.29-0.06,0.37-0.16l0.01,0.01c-0.09,0.09-0.14,0.22-0.14,0.37c0,0.07,0.01,0.13,0.03,0.19l-0.69,0L11.81,30.68z
		 M12.55,31.41c0.06,0.09,0.14,0.16,0.23,0.18v1.76H11v-1.95L12.55,31.41z M13.21,22.96h-0.5v-2.13l0.5,0L13.21,22.96z M13.75,25.21
		h-0.98v-2.06h0.98V25.21z M12.71,25.21h-0.9v-2.06h0.9V25.21z M13.87,25.32l0,1.83h-2.05v-1.83L13.87,25.32z M13.99,23.08v-0.12
		h-0.68v-1.61h1.39v1.73H13.99z M14.7,25.21h-0.71v-2.06h0.71V25.21z M13.91,21.25h-0.6v-0.71h-0.84v0.71h-0.66v-1h2.1V21.25z
		 M12.78,29.2H11v-1.8h1.77V29.2z M11.73,31.31H9.97v-2h1.76V31.31z M10.92,33.35H9.97v-1.94h0.95V33.35z M11.73,35.41H9.97v-1.96
		h1.76V35.41z M10.92,37.46H9.97v-1.94h0.95V37.46z M12.02,39.48H9.97v-1.92h2.06V39.48z M11,35.52h1.02v1.94H11V35.52z M12.9,33.35
		v-1.76c0.09-0.02,0.17-0.09,0.22-0.18h1.62l0.01,1.95L12.9,33.35z M13.91,35.52h0.84v1.94h-0.84V35.52z M13.91,37.56h1.97v1.92
		h-1.97V37.56z M14.83,35.52h1.05v1.94h-1.05V35.52z M13.91,33.46h1.97v1.96h-1.97V33.46z M14.83,31.41h1.05v1.94h-1.05V31.41z
		 M17.38,25.21h-1.06v-2.06l1.06,0L17.38,25.21z M17.38,25.32v1.83l-1.4,0v-1.83H17.38z M16.24,25.21l-0.77,0l0-2.06h0.77V25.21z
		 M15.9,27.14h-1.91v-1.83h1.91V27.14z M14.7,21.25h-0.71v-1h0.71V21.25z M11.1,23.15h0.63v2.06H11.1V23.15z M11.73,25.32v1.83
		l-1.83,0v-1.83H11.73z M10.12,25.21H9.11v-2.06h1.01V25.21z M8.23,27.4h2.69v1.8H9.97l0-0.2c-0.78-0.12-1.45-0.87-1.5-1.4H8.23
		V27.4z M9.1,35.52h0.63v1.94H9.1V35.52z M9.73,39.48H8.42v-1.92h1.31V39.48z M8.42,33.46h1.31v1.96H8.42V33.46z M9.73,33.35H9.1
		v-1.94h0.63V33.35z M9.22,31.31h-0.8v-2h0.8V31.31z M8.33,35.41H7.29v-1.96h1.05V35.41z M9.02,37.46H7.29v-1.94h1.73V37.46z
		 M8.33,39.48H7.29v-1.92h1.05V39.48z M24.29,39.48h-0.36l0-1.91l1.28-0.01C25.09,38.14,24.66,38.97,24.29,39.48 M25.23,37.48h-0.51
		l0.01-1.96l0.72,0C25.44,36.18,25.39,36.98,25.23,37.48 M25.44,35.42l-1.5,0v-1.96h1.5L25.44,35.42z M25.46,12.78l-0.02,18.53
		l-0.4,0.01v-1.93l-0.32-0.19h-1.65v2.1h-0.29v-5.51c0.48,0,0.65-0.5,0.45-0.8c-0.87-1.36-1.84-3.58-2.15-5.67
		c0.15-0.12,0.22-0.27,0.22-0.47c0-0.18-0.11-0.42-0.28-0.51c-0.15-0.08-0.27-0.18-0.47-0.18c-0.32,0-0.57,0.26-0.57,0.59
		c0,0.36,0.29,0.51,0.29,0.51s-0.49,2.76-2.16,5.8c-0.17,0.3,0.01,0.72,0.42,0.72v5.51h-0.22l0-1.97l-0.28-0.13h-1.62l0,2.11
		l-0.27-0.01v-2.1c0.57-0.25,0.94-0.61,1.16-1.31h0.37l0-4.65l-0.28-0.17h-1.97l0,2.13l-0.46,0l0-4.96
		c0.63,0.01,0.65-0.61,0.52-0.81c-0.97-1.5-1.83-3.74-2.09-5.29c0.09-0.07,0.21-0.22,0.21-0.47c0-0.15-0.07-0.35-0.24-0.47
		c-0.08-0.06-0.18-0.1-0.26-0.15c-0.04-0.03-0.18-0.06-0.25-0.06c-0.31,0-0.57,0.27-0.57,0.59c0,0.19,0.1,0.41,0.27,0.51
		c-0.34,1.59-1.11,3.84-2.04,5.45c-0.19,0.37,0.14,0.68,0.34,0.68l0,4.96l-0.46,0l0-1.98l-0.28-0.16H8.14l0,4.63h0.25
		c0.19,0.67,0.53,1.2,1.23,1.49h0.11v2.1H9.46l0-1.94L9.22,29.2H7.51v2.11l-0.22,0l-0.01-5.51h0.15c0.44,0,0.62-0.5,0.41-0.79
		c-0.91-1.29-1.92-3.94-2.16-5.66c0.16-0.12,0.23-0.32,0.23-0.47c0-0.19-0.1-0.41-0.27-0.51c-0.12-0.07-0.24-0.13-0.28-0.15
		c-0.03-0.01-0.09-0.04-0.19-0.04c-0.28,0-0.57,0.24-0.57,0.59c0,0.23,0.13,0.42,0.29,0.51c-0.47,2.15-1.11,3.86-2.16,5.8
		c-0.19,0.36,0.07,0.72,0.36,0.72v5.53H2.85l0-2.02l-0.29-0.1h-1.7v2.12l-0.74,0V12.6l25.26,0.01c0.02-0.02,0.04-0.01,0.06-0.01
		C25.49,12.65,25.42,12.72,25.46,12.78"/>
	<path class="st0" d="M5.14,20.77v4.43c0,0.1,0.07,0.1,0.07,0v-4.44C5.21,20.69,5.14,20.69,5.14,20.77"/>
	<path class="st0" d="M4.79,21.37c-0.27,1.54-0.75,2.83-1.22,3.81c-0.02,0.04,0.02,0.11,0.06,0.03c0.58-1.2,1-2.54,1.23-3.83
		C4.87,21.32,4.8,21.32,4.79,21.37"/>
	<path class="st0" d="M6.76,25.19c-0.47-0.98-0.95-2.27-1.22-3.81c-0.01-0.06-0.08-0.06-0.07,0.02c0.23,1.29,0.64,2.63,1.22,3.83
		C6.74,25.3,6.78,25.22,6.76,25.19"/>
	<path class="st0" d="M12.87,15.23v4.43c0,0.1,0.07,0.1,0.07,0v-4.44C12.94,15.15,12.87,15.15,12.87,15.23"/>
	<path class="st0" d="M12.52,15.83c-0.26,1.54-0.75,2.83-1.21,3.81c-0.02,0.04,0.02,0.11,0.06,0.03c0.58-1.2,1-2.54,1.23-3.83
		C12.6,15.78,12.53,15.78,12.52,15.83"/>
	<path class="st0" d="M14.49,19.65c-0.47-0.98-0.95-2.27-1.22-3.81c-0.01-0.06-0.08-0.06-0.07,0.02c0.23,1.29,0.64,2.63,1.23,3.83
		C14.47,19.76,14.51,19.68,14.49,19.65"/>
	<path class="st0" d="M20.55,20.78v4.43c0,0.1,0.07,0.1,0.07,0v-4.44C20.62,20.69,20.55,20.7,20.55,20.78"/>
	<path class="st0" d="M20.2,21.38c-0.26,1.54-0.75,2.83-1.22,3.81c-0.02,0.04,0.02,0.11,0.06,0.03c0.58-1.2,1-2.54,1.23-3.83
		C20.28,21.32,20.21,21.32,20.2,21.38"/>
	<path class="st0" d="M22.17,25.19c-0.47-0.98-0.95-2.27-1.22-3.81c-0.01-0.06-0.08-0.06-0.07,0.02c0.23,1.29,0.64,2.63,1.22,3.83
		C22.15,25.3,22.19,25.23,22.17,25.19"/>
	<path class="st0" d="M15.88,27.61v1c0.48-0.12,0.82-0.5,0.9-1H15.88z M15.97,28.5l0-0.79l0.72,0
		C16.58,28.09,16.36,28.35,15.97,28.5"/>
	<path class="st0" d="M9.97,28.63v-1.02H8.88C8.93,28.1,9.48,28.53,9.97,28.63 M9.88,27.71l0,0.79c-0.44-0.18-0.74-0.39-0.87-0.79
		L9.88,27.71z"/>
	<polygon class="st0" points="24.52,2.1 24.5,2.09 24.5,2.19 	"/>
	<path class="st0" d="M5.58,12.47c1.84-0.56,4.49-1.02,7.25-1.02c3.03,0,5.55,0.51,7.27,1.02h4.39v0l-3.85,0l0.14-0.76
		c0,0-0.21-0.06-0.33-0.1l0.09-0.49c0.11,0.03,0.23,0.07,0.33,0.1l0.14-0.74c-0.12-0.04-0.21-0.06-0.33-0.1l0.52-2.82l1.57-0.93
		l0.7-2.7l0.65-0.3l0.38-1.46v-0.1l-0.74-0.31l-0.17,0.67c-0.07-0.04-0.36-0.15-0.46-0.18l0.17-0.65l-0.93-0.3L22.19,2
		c-0.11-0.03-0.43-0.09-0.58-0.1l0.18-0.68l-0.75-0.1L20.65,2.6l0.37,0.54l-0.1,0.38c0,0-0.32-0.07-0.64-0.09l-0.18,0.71
		c-0.09-0.03-0.56-0.13-0.68-0.16l0.19-0.73c-0.02-0.01-0.58-0.17-0.69-0.2l0.06-0.37l0.53-0.38l0.23-1.57l-0.81-0.21l-0.1,0.68
		c-0.15-0.05-0.34-0.09-0.5-0.13l0.09-0.64l-0.98-0.14l-0.09,0.63C17.13,0.9,16.82,0.9,16.82,0.9l0.09-0.64l-0.76,0l-0.22,1.49
		l0.46,0.53l-0.06,0.38c-0.11,0-0.47-0.01-0.69-0.02l-0.04,0.73c-0.08-0.01-0.57-0.05-0.69-0.06V2.55c-0.15-0.02-0.61-0.09-0.7-0.1
		V2.13l0.49-0.42V0.17L13.9,0.03l0,0.71c-0.08-0.01-0.33-0.04-0.47-0.05V0h-1.07v0.68c-0.09,0.01-0.36,0.02-0.51,0.05v-0.7
		l-0.77,0.13v1.55l0.52,0.44v0.29c-0.15,0.01-0.46,0.05-0.64,0.08v0.74c-0.09,0.01-0.68,0.05-0.68,0.05l-0.11-0.73
		c-0.18,0-0.5,0.01-0.66,0.02L9.47,2.21l0.39-0.42L9.63,0.27L8.84,0.24l0.1,0.69c-0.13,0-0.4,0.01-0.53,0.03l-0.1-0.65L7.36,0.45
		l0.1,0.65C7.37,1.12,7,1.22,6.9,1.26L6.8,0.61L6.09,0.84l0.22,1.49l0.56,0.3l0.05,0.37C6.86,3.02,6.37,3.17,6.29,3.19L6.4,3.91
		c-0.17,0.04-0.45,0.1-0.6,0.13L5.6,3.31C5.38,3.34,5.11,3.39,4.91,3.43L4.81,3.09l0.42-0.49L4.81,1.09L3.98,1.21l0.19,0.67
		C4.06,1.89,3.79,1.94,3.65,1.97l-0.2-0.69L2.54,1.57l0.19,0.67c0,0-0.4,0.15-0.53,0.22L2.02,1.8l-0.7,0.32l0.43,1.51l0.59,0.2
		l0.74,2.65l1.49,0.97l0.54,2.89c-0.07,0.02-0.33,0.1-0.33,0.1l0.14,0.73c0.1-0.03,0.25-0.07,0.33-0.1l0.09,0.49
		c-0.07,0.02-0.24,0.07-0.33,0.1l0.14,0.79H1.11v0H5.58z M6.58,11.85v-0.48c1.29-0.33,2.69-0.56,4.08-0.67l0,0.5
		C9.42,11.29,7.45,11.61,6.58,11.85 M3.53,4.32l0.1,0.33C3.52,4.68,3.27,4.77,3.17,4.8l-0.2-0.7c0.2-0.08,1.03-0.35,1.44-0.44
		l0.19,0.69C4.46,4.4,4.2,4.47,4.08,4.51L3.99,4.2c-0.03-0.12-0.15-0.22-0.3-0.17C3.55,4.07,3.51,4.22,3.53,4.32 M5.05,4.38
		l0.16,0.57C5.06,4.98,4.42,5.17,4.28,5.21L4.12,4.66C4.29,4.6,4.85,4.44,5.05,4.38 M4.85,5.23L5.01,5.8c0,0-1.25,0.37-1.44,0.45
		L3.42,5.69C3.76,5.56,4.58,5.31,4.85,5.23 M4.97,5.2C5.04,5.18,5.2,5.13,5.25,5.12l0.16,0.57C5.33,5.71,5.21,5.74,5.13,5.76
		L4.97,5.2z M9.58,5.12L9.52,5.23C8.82,5.29,8.35,5.37,7.65,5.5l-0.1-0.09C8.32,5.27,8.87,5.19,9.58,5.12 M9.29,4.32
		c0.1-0.01,0.27-0.03,0.33-0.04l0.08,0.6c-0.1,0.01-0.23,0.03-0.33,0.04L9.29,4.32z M12.62,3.35l0,0.61c-0.28,0-0.71,0.01-0.91,0.01
		V3.37C11.97,3.36,12.31,3.35,12.62,3.35 M11.71,3.24V2.57c0.07-0.01,0.2-0.02,0.28-0.02v0.69H11.71z M14.07,3.38l0,0.61
		C14,3.99,13.35,3.96,13.1,3.96v-0.6C13.41,3.36,13.77,3.37,14.07,3.38 M13.79,3.24V2.55c0.09,0.01,0.2,0.02,0.28,0.02v0.66H13.79z
		 M14.22,4.29V3.94c0.4,0.01,1.35,0.1,1.9,0.16l-0.05,0.33C15.49,4.37,14.81,4.32,14.22,4.29 M16.05,4.55L16,4.89
		c-0.14-0.01-0.56-0.06-0.8-0.08l0.02-0.34C15.44,4.48,15.88,4.53,16.05,4.55 M15.08,4.45L15.07,4.8c-0.2-0.01-0.67-0.04-0.84-0.05
		V4.4C14.45,4.41,14.79,4.43,15.08,4.45 M16.16,5.22l0.06,0.1c-0.78-0.1-1.53-0.17-2.31-0.18l0.08-0.1
		C14.71,5.06,15.54,5.12,16.16,5.22 M22.13,4.11C22,4.07,21.87,4.17,21.84,4.26l-0.09,0.34c-0.09-0.03-0.37-0.11-0.48-0.15
		l0.18-0.68c0.25,0.04,1.13,0.31,1.44,0.43l-0.19,0.72c-0.12-0.04-0.34-0.12-0.5-0.17L22.3,4.4C22.33,4.29,22.27,4.15,22.13,4.11
		 M22.49,5.78l-0.14,0.56c-0.16-0.05-1.24-0.41-1.43-0.46l0.15-0.57C21.27,5.36,22.28,5.7,22.49,5.78 M21.72,4.76l-0.15,0.56
		c-0.23-0.07-0.65-0.2-0.92-0.27l0.15-0.57C21.05,4.54,21.58,4.71,21.72,4.76 M20.91,5.26l-0.15,0.57
		c-0.05-0.01-0.21-0.06-0.29-0.08l0.15-0.57C20.7,5.2,20.86,5.24,20.91,5.26 M19.15,10.6c-1.19-0.3-2.88-0.56-4.07-0.66V9.47
		c1.45,0.11,3.22,0.43,4.07,0.65V10.6z M20.42,11.09l-0.09,0.49c-1.02-0.31-2.05-0.56-3.14-0.74v-0.5
		C17.94,10.44,19.51,10.81,20.42,11.09 M10.81,9.92l0-0.46c1.01-0.1,3.06-0.1,4.12,0v0.47C13.88,9.83,11.9,9.82,10.81,9.92
		 M12.76,9.98l0,0.49c-0.98-0.02-2.8,0.11-4.09,0.34l0-0.5C10.24,10.08,11.3,10,12.76,9.98 M14.92,8.68
		c-1.4-0.11-3.07-0.11-4.11-0.01l0-0.48c1.18-0.1,3.18-0.1,4.12,0L14.92,8.68z M17.05,9.07v0.5c-1.08-0.17-2.84-0.33-4.13-0.32v-0.5
		C13.85,8.71,16.02,8.87,17.05,9.07 M12.76,8.73v0.5c-0.86,0-2.49,0.07-4.09,0.32v-0.5C9.65,8.88,11.53,8.73,12.76,8.73
		 M17.05,10.31v0.5c-1.35-0.22-2.8-0.34-4.13-0.34l0-0.49C14.06,9.97,15.99,10.13,17.05,10.31 M17.2,9.59V9.09
		c0.79,0.11,2.7,0.57,3.44,0.81l-0.08,0.45C19.77,10.11,18.18,9.72,17.2,9.59 M19.15,9.35c-0.88-0.24-3.02-0.6-4.08-0.66V8.21
		c1.13,0.08,3.07,0.4,4.08,0.66V9.35z M17.05,8.31c-1.18-0.21-3.09-0.33-4.13-0.33V7.49c1.07,0.01,2.69,0.09,4.13,0.33V8.31z
		 M12.56,5.93l0.07,0.09C11.34,6,10.3,6.07,8.98,6.29l0.07-0.11C10.23,5.98,11.36,5.92,12.56,5.93 M12.42,5.61l-0.08-0.1
		c0.31,0,0.77,0,1.07,0.01l-0.08,0.1C13.01,5.62,12.74,5.61,12.42,5.61 M12.59,5.83c0.08,0,0.42,0,0.58,0l-0.09,0.1
		c-0.07,0-0.34,0-0.41,0L12.59,5.83z M13.24,5.93c1.2-0.01,2.32,0.1,3.51,0.3l0.06,0.1c-1.28-0.22-2.31-0.3-3.65-0.3L13.24,5.93z
		 M16.69,5.89l-0.07-0.11c0.31,0.05,0.73,0.13,1.03,0.19l-0.09,0.08C17.24,5.99,17.01,5.95,16.69,5.89 M16.48,5.54l-0.07-0.11
		c0.49,0.08,0.97,0.17,1.51,0.29l-0.09,0.08C17.31,5.69,16.92,5.61,16.48,5.54 M16.41,5.65c0,0-1.46-0.22-2.77-0.22l0.08-0.1
		c0.88,0.01,1.83,0.1,2.63,0.22L16.41,5.65z M16.56,5.9L16.62,6c-1.14-0.18-2.04-0.26-3.21-0.27l0.08-0.1
		C14.45,5.64,15.49,5.73,16.56,5.9 M13.55,5.35c-0.53-0.03-0.94-0.04-1.38-0.03l-0.09-0.1c0.5-0.01,0.99,0.01,1.54,0.04L13.55,5.35z
		 M12.32,5.64l0.07,0.09c-1.16-0.01-2.05,0.06-3.22,0.23l0.07-0.11C10.2,5.7,11.24,5.63,12.32,5.64 M7.93,5.74l-0.1-0.09
		c0.49-0.09,1.01-0.16,1.57-0.22L9.33,5.54C8.8,5.6,8.37,5.67,7.93,5.74 M9.2,5.75L9.14,5.85C8.82,5.9,8.54,5.94,8.22,6l-0.1-0.09
		C8.43,5.85,8.91,5.78,9.2,5.75 M9,6.08L8.93,6.19C8.86,6.21,8.59,6.25,8.52,6.26l-0.1-0.09C8.5,6.16,8.84,6.1,9,6.08 M8.67,6.53
		c1.13-0.18,2.78-0.31,4.09-0.31v0.49c-1.18,0-2.77,0.1-4.09,0.31V6.53z M10.81,6.93c1.13-0.09,2.81-0.11,4.12,0v0.49
		c-1.34-0.11-2.63-0.1-4.12-0.01V6.93z M15.07,7.44l0-0.49c1.33,0.1,3.01,0.37,4.07,0.63v0.51C18.02,7.8,16.28,7.53,15.07,7.44
		 M17.05,7.03c-1.02-0.15-2.34-0.3-4.14-0.32V6.22c0.95,0,2.8,0.1,4.14,0.31V7.03z M16.89,6.25l-0.07-0.12
		c0.08,0.01,0.41,0.07,0.58,0.1l-0.1,0.08C17.23,6.31,16.95,6.26,16.89,6.25 M17.47,6.33c1.18,0.18,2.28,0.46,3.43,0.84l0.04,0.11
		c-1.23-0.42-2.24-0.66-3.57-0.86L17.47,6.33z M17.65,6.16l0.1-0.09c0.95,0.15,1.97,0.41,3,0.75l0.04,0.11
		C19.69,6.56,18.82,6.35,17.65,6.16 M17.94,5.89l0.1-0.08c0.87,0.15,1.8,0.39,2.57,0.63l0.04,0.1C20.65,6.55,19.23,6.1,17.94,5.89
		 M18.24,5.64l0.09-0.09c0.72,0.15,1.53,0.34,2.13,0.53l0.04,0.1C19.73,5.96,19.01,5.77,18.24,5.64 M18.16,5.21l0.09-0.6
		c0.07,0.01,0.2,0.04,0.28,0.06l-0.1,0.59C18.38,5.26,18.24,5.23,18.16,5.21 M18.54,5.29l0.06-0.34c0.19,0.03,0.65,0.14,0.85,0.19
		l-0.08,0.33C19.18,5.42,18.68,5.32,18.54,5.29 M19.48,5.49l0.08-0.33c0.21,0.04,0.75,0.19,0.88,0.23l-0.08,0.32
		C20.2,5.67,19.6,5.52,19.48,5.49 M20.47,5.29c-0.19-0.06-1.58-0.4-1.85-0.45l0.06-0.38c0.57,0.12,1.55,0.36,1.88,0.46L20.47,5.29z
		 M18.68,3.82c-0.06-0.01-0.22-0.04-0.29-0.06l0.11-0.68c0.08,0.02,0.22,0.04,0.3,0.07L18.68,3.82z M18.65,3.95l-0.1,0.58
		c-0.28-0.05-0.69-0.13-0.89-0.17l0.08-0.59C18.02,3.82,18.49,3.92,18.65,3.95 M18.26,3.74c-0.09-0.01-0.42-0.07-0.5-0.09l0.05-0.33
		c0.02-0.17-0.11-0.27-0.2-0.28c-0.14-0.02-0.25,0.08-0.27,0.2l-0.05,0.34c-0.13-0.02-0.34-0.05-0.5-0.07l0.09-0.68
		c0.46,0.03,1.13,0.16,1.49,0.23L18.26,3.74z M18.12,4.59l-0.09,0.6c-0.32-0.07-1.19-0.2-1.42-0.23l0.08-0.6
		C16.93,4.39,17.82,4.53,18.12,4.59 M18.19,5.48L18.1,5.56c-0.67-0.16-1.12-0.24-1.82-0.33l-0.07-0.12
		C16.98,5.22,17.5,5.31,18.19,5.48 M16.48,4.94c-0.06-0.01-0.25-0.03-0.35-0.04l0.09-0.6c0.1,0.01,0.26,0.03,0.33,0.04L16.48,4.94z
		 M13.79,4.73V4.12c0.06,0,0.25,0.01,0.28,0.01l0,0.62C14,4.73,13.89,4.73,13.79,4.73 M13.65,4.11v0.61c-0.48-0.01-1.16-0.01-1.5,0
		V4.11C12.46,4.09,13.65,4.11,13.65,4.11 M13.65,3.24H13.1V2.89c0-0.15-0.11-0.25-0.24-0.25c-0.13,0-0.24,0.11-0.24,0.25l0,0.34
		h-0.48l0-0.7c0.48-0.03,0.99-0.03,1.5,0V3.24z M12,4.12v0.61c-0.05,0-0.21,0.01-0.28,0.01V4.13C11.77,4.12,11.93,4.12,12,4.12
		 M13.86,4.98l-0.08,0.09c-0.7-0.05-1.13-0.05-1.84-0.04l-0.09-0.1C12.64,4.91,13.15,4.93,13.86,4.98 M12.08,5.34l0.07,0.08
		c0,0-1.48,0.01-2.77,0.21l0.06-0.11C10.32,5.4,11.27,5.34,12.08,5.34 M7.39,5.23L7.3,4.63C7.38,4.62,7.5,4.6,7.55,4.59l0.09,0.6
		C7.58,5.19,7.46,5.22,7.39,5.23 M7.78,5.16l-0.09-0.6c0.39-0.08,1.21-0.2,1.48-0.23l0.09,0.6C8.97,4.97,8.15,5.09,7.78,5.16
		 M8.46,3.2C8.44,3.08,8.34,2.96,8.19,2.99c-0.11,0.02-0.21,0.14-0.2,0.26L8.04,3.6c-0.09,0.02-0.4,0.07-0.48,0.08l-0.1-0.67
		c0.35-0.08,1.04-0.2,1.48-0.23l0.1,0.68C8.88,3.48,8.63,3.52,8.51,3.53L8.46,3.2z M8.06,3.73l0.09,0.59C8,4.35,7.45,4.44,7.28,4.47
		L7.2,3.88C7.48,3.84,7.76,3.78,8.06,3.73 M7.25,5.26C7.1,5.28,6.65,5.38,6.5,5.42L6.41,5.09C6.63,5.04,7.09,4.94,7.2,4.92
		L7.25,5.26z M7.18,3.75L7.08,3.1c0.05-0.01,0.2-0.05,0.24-0.06l0.1,0.66C7.36,3.72,7.25,3.74,7.18,3.75 M7.18,4.81
		C6.71,4.9,5.84,5.12,5.41,5.22l-0.1-0.37c0.21-0.07,1.45-0.35,1.82-0.41L7.18,4.81z M6.38,5.44C6.21,5.48,5.69,5.61,5.53,5.65
		L5.44,5.33c0.17-0.05,0.7-0.18,0.85-0.21L6.38,5.44z M5.37,5.98c0.76-0.19,1.39-0.33,2.18-0.45l0.1,0.09
		C6.8,5.75,6.14,5.89,5.31,6.11L5.37,5.98z M7.84,5.79l0.11,0.09C6.64,6.09,6.3,6.13,5.17,6.44l0.06-0.14
		C6.13,6.07,6.89,5.92,7.84,5.79 M8.13,6.04l0.11,0.09C6.45,6.35,5,6.82,5,6.82l0.06-0.14C6.04,6.4,6.93,6.2,8.13,6.04 M8.43,6.29
		l0.11,0.09C7.5,6.49,5.86,6.86,4.83,7.21L4.9,7.07C6.1,6.7,6.99,6.48,8.43,6.29 M10.66,6.94v0.49C9.76,7.47,7.69,7.79,6.58,8.07
		v-0.5C7.74,7.3,9.42,7.02,10.66,6.94 M8.67,7.8c1.17-0.17,2.61-0.32,4.09-0.32v0.49c-1.03,0-2.77,0.11-4.09,0.33L8.67,7.8z
		 M10.66,8.2v0.48c-1.2,0.08-2.87,0.36-4.08,0.65V8.86C7.39,8.62,9.84,8.24,10.66,8.2 M8.52,9.08v0.5
		c-0.98,0.14-2.38,0.48-3.29,0.74L5.14,9.87C6.29,9.52,7.5,9.24,8.52,9.08 M6.58,10.1c0.93-0.24,3.07-0.59,4.08-0.64v0.47
		c-1.33,0.11-3.03,0.39-4.08,0.65V10.1z M8.52,10.33v0.5c-0.62,0.1-2.03,0.38-3.07,0.71l-0.09-0.49C6.1,10.81,7.86,10.43,8.52,10.33
		 M14.92,11.19c-1.3-0.1-2.68-0.12-4.12-0.01v-0.49c1.34-0.09,2.77-0.11,4.12,0.01V11.19z M19.15,11.87
		c-1.22-0.31-3.12-0.62-4.07-0.67v-0.49c1.24,0.08,2.99,0.39,4.07,0.67V11.87z M20.64,11.81l-0.08,0.44
		c-0.39-0.13-0.86-0.26-1.26-0.34l0-0.49C19.8,11.55,20.36,11.72,20.64,11.81 M20.86,10.59l-0.08,0.46
		c-0.38-0.13-1.08-0.32-1.48-0.42l0-0.48C19.66,10.23,20.61,10.51,20.86,10.59 M20.67,9.77C19.9,9.54,19.3,9.38,19.3,9.38V8.91
		c0.4,0.1,1.11,0.3,1.45,0.41L20.67,9.77z M20.77,9.18c-0.79-0.28-2.89-0.76-3.58-0.85v-0.5c0.93,0.14,2.69,0.55,3.67,0.86
		L20.77,9.18z M20.89,8.56c-0.39-0.13-1.2-0.35-1.59-0.44V7.61c0.42,0.09,1.14,0.29,1.68,0.46L20.89,8.56z M21,7.94
		c-0.89-0.31-3.04-0.78-3.81-0.88v-0.5c0.94,0.13,2.63,0.49,3.9,0.89L21,7.94z M21.44,7.33c-0.07-0.02-0.33-0.11-0.39-0.14L21,7.06
		c0.07,0.03,0.4,0.14,0.55,0.2L21.44,7.33z M21.77,7.12c-0.3-0.11-0.57-0.21-0.88-0.32l-0.05-0.12c0.3,0.1,0.76,0.26,1.04,0.38
		L21.77,7.12z M22.08,6.94c-0.49-0.21-0.91-0.35-1.33-0.49L20.7,6.32c0.48,0.16,0.97,0.34,1.49,0.56L22.08,6.94z M22.39,6.75
		c-0.65-0.27-1.1-0.44-1.78-0.66l-0.05-0.13c0.75,0.24,1.27,0.44,1.94,0.72L22.39,6.75z M22.69,6.46c-0.03-0.01-0.15-0.05-0.23-0.08
		l0.15-0.56c0.07,0.02,0.17,0.06,0.23,0.09L22.69,6.46z M22.87,5.76c-0.13-0.05-0.62-0.22-0.84-0.3l0.14-0.56
		c0.23,0.08,0.74,0.26,0.84,0.3L22.87,5.76z M23.05,5.05c-0.08-0.03-0.16-0.05-0.23-0.08l0.18-0.72c0.09,0.03,0.17,0.07,0.23,0.09
		L23.05,5.05z M23.36,3.86l-0.09,0.36c-0.26-0.12-0.98-0.36-1.03-0.37l0.17-0.64c0.58,0.15,1.31,0.5,1.31,0.5L23.36,3.86z
		 M23.83,1.91l0.55,0.23l-0.17,0.63c-0.08-0.05-0.39-0.21-0.54-0.28L23.83,1.91z M24.18,2.92l-0.16,0.64
		c-0.17-0.09-0.59-0.27-0.74-0.34l0.17-0.67C23.59,2.62,24.04,2.83,24.18,2.92 M22.43,1.43l0.72,0.23l-0.15,0.56
		c-0.17-0.07-0.53-0.16-0.73-0.21L22.43,1.43z M23.33,2.51l-0.17,0.67c-0.38-0.15-1.08-0.35-1.44-0.41l0.18-0.67
		C22.36,2.15,22.88,2.32,23.33,2.51 M21.13,1.23l0.54,0.07l-0.15,0.59c-0.17-0.02-0.54-0.04-0.54-0.04L21.13,1.23z M20.93,1.99
		c0.33,0.01,0.81,0.07,0.81,0.07l-0.18,0.67c-0.23-0.03-0.53-0.08-0.8-0.1L20.93,1.99z M21.01,2.92c0.19,0.01,0.94,0.14,1.28,0.24
		l-0.17,0.64c-0.26-0.09-0.86-0.23-1.08-0.26l0.11-0.42L21.01,2.92z M21.01,3.68c0.1,0.02,0.23,0.04,0.3,0.06l-0.17,0.68
		c-0.07-0.02-0.23-0.07-0.29-0.08L21.01,3.68z M20.37,3.58c0.13,0.02,0.41,0.07,0.52,0.09L20.72,4.3c-0.1-0.03-0.36-0.1-0.51-0.13
		L20.37,3.58z M19.81,4.21c0.19,0.05,0.65,0.17,0.88,0.23l-0.1,0.37c-0.1-0.03-0.75-0.2-0.88-0.23L19.81,4.21z M19.7,4.19l-0.1,0.37
		c-0.26-0.06-0.66-0.15-0.9-0.2l0.07-0.38C18.94,4.01,19.47,4.13,19.7,4.19 M19.47,3.34l-0.16,0.61c-0.1-0.02-0.4-0.09-0.52-0.11
		l0.11-0.66C19.09,3.23,19.3,3.29,19.47,3.34 M18.87,2.64l-0.06,0.38c-0.28-0.08-0.93-0.21-1.11-0.23l0.11-0.68
		c0.28,0.04,1.03,0.21,1.35,0.33L18.87,2.64z M19.03,0.64l0.58,0.15l-0.1,0.65c-0.14-0.06-0.42-0.16-0.57-0.21L19.03,0.64z
		 M18.7,1.32c0.25,0.07,0.63,0.2,0.79,0.28l-0.1,0.65C19.22,2.19,18.83,2.05,18.6,2L18.7,1.32z M17.54,0.4l0.74,0.11l-0.08,0.54
		c-0.18-0.03-0.54-0.1-0.74-0.11L17.54,0.4z M17.12,1.05c0.48,0.02,1,0.1,1.46,0.23l-0.1,0.69c-0.43-0.11-1.02-0.2-1.46-0.22
		L17.12,1.05z M16.24,0.35l0.54,0L16.7,0.9c-0.14,0-0.35,0.01-0.54,0.03L16.24,0.35z M16.14,1.08c0.26-0.03,0.55-0.04,0.81-0.03
		l-0.1,0.69c-0.25-0.02-0.56,0.01-0.81,0L16.14,1.08z M16.29,2.01C16.7,2,17.26,2.03,17.68,2.1l-0.1,0.68
		c-0.36-0.05-0.7-0.1-1.1-0.12l0.06-0.38L16.29,2.01z M16.45,2.79c0.06,0,0.24,0.02,0.3,0.02l-0.08,0.67
		c-0.04,0-0.24-0.03-0.31-0.04L16.45,2.79z M17.28,3.7L17.19,4.3c-0.18-0.03-0.83-0.11-0.95-0.13l0.09-0.6
		C16.58,3.6,17.01,3.66,17.28,3.7 M15.77,2.77c0.17,0,0.38,0.01,0.55,0.01l-0.1,0.65c-0.1-0.01-0.33-0.03-0.48-0.05L15.77,2.77z
		 M15.26,3.46c0.28,0.02,0.94,0.09,0.94,0.09l-0.06,0.39c-0.25-0.03-0.73-0.07-0.9-0.09L15.26,3.46z M15.13,3.45l-0.02,0.4
		l-0.89-0.06l0-0.4C14.51,3.4,14.94,3.43,15.13,3.45 M14.77,2.66v0.58h-0.55V2.59C14.37,2.61,14.64,2.64,14.77,2.66 M14.07,2.06
		v0.38c-0.36-0.04-0.86-0.05-1.13-0.06V1.77c0,0,0.62,0,1.34,0.11L14.07,2.06z M14,0.14l0.57,0.1v0.61
		c-0.16-0.03-0.41-0.09-0.57-0.1V0.14z M13.77,0.87c0.29,0.04,0.52,0.07,0.79,0.14l0,0.7c-0.21-0.05-0.53-0.12-0.79-0.15V0.87z
		 M12.5,0.09h0.78v0.59c-0.18-0.01-0.55-0.02-0.78,0V0.09z M12.14,0.85c0.42-0.05,1.07-0.04,1.48,0v0.69
		c-0.35-0.05-1.02-0.05-1.48,0V0.85z M11.2,0.24l0.51-0.09v0.6c-0.17,0.02-0.34,0.06-0.51,0.09V0.24z M11.2,1
		c0.2-0.05,0.6-0.11,0.79-0.13v0.69c-0.27,0.03-0.61,0.1-0.79,0.14V1z M11.5,1.87c0.66-0.1,1.3-0.1,1.3-0.1v0.62
		c-0.35,0-0.67,0.02-1.08,0.05V2.05L11.5,1.87z M11.83,5.03l0.07,0.09c-0.79,0.02-1.54,0.06-2.31,0.18l0.06-0.11
		C10.38,5.1,11.21,5.03,11.83,5.03 M9.79,4.41L9.73,4.05c0.34-0.04,1.29-0.11,1.87-0.13v0.35C11,4.29,10.37,4.37,9.79,4.41
		 M11.6,4.4v0.35c-0.12,0-0.62,0.03-0.85,0.04V4.44C10.93,4.43,11.51,4.4,11.6,4.4 M10.64,4.45v0.35c-0.17,0.01-0.61,0.04-0.78,0.07
		L9.8,4.52C9.92,4.51,10.55,4.45,10.64,4.45 M11.08,2.64c0.2-0.03,0.4-0.05,0.52-0.06v0.65h-0.52V2.64z M10.76,3.43
		c0.25-0.03,0.68-0.05,0.85-0.05v0.39c-0.2,0.01-0.62,0.03-0.85,0.04V3.43z M10.64,3.43v0.39C10.49,3.84,9.81,3.9,9.71,3.91
		L9.65,3.51C9.65,3.51,10.33,3.44,10.64,3.43 M10.07,2.69l0.1,0.65C10,3.36,9.64,3.39,9.64,3.39l-0.1-0.64
		C9.72,2.73,9.9,2.7,10.07,2.69 M9.6,4.13C9.37,4.15,8.89,4.21,8.62,4.25L8.53,3.66c0.34-0.05,0.65-0.09,0.98-0.12L9.6,4.13z
		 M9.49,3.41C9.4,3.42,9.27,3.43,9.16,3.45l-0.1-0.68c0.15-0.01,0.27-0.02,0.33-0.03L9.49,3.41z M9.32,2.24l0.05,0.37
		C8.98,2.63,8.54,2.69,8.25,2.73L8.16,2.1c0.38-0.07,1.03-0.14,1.43-0.15L9.32,2.24z M9.54,0.35l0.09,0.61
		c-0.1-0.01-0.47-0.03-0.59-0.03l-0.09-0.6L9.54,0.35z M9.65,1.11l0.09,0.65C9.39,1.74,8.93,1.77,8.93,1.77l-0.1-0.68
		C9.12,1.06,9.65,1.11,9.65,1.11 M8.2,0.41l0.08,0.56C8.1,0.98,7.74,1.04,7.56,1.08L7.48,0.52L8.2,0.41z M8.68,1.09l0.1,0.69
		c-0.21,0-1.08,0.13-1.47,0.24l-0.1-0.69C7.5,1.23,8.31,1.1,8.68,1.09 M6.2,0.9l0.51-0.16l0.08,0.55C6.63,1.34,6.4,1.43,6.28,1.48
		L6.2,0.9z M6.3,1.64c0.14-0.06,0.63-0.25,0.76-0.27l0.1,0.69C7,2.09,6.55,2.24,6.4,2.3L6.3,1.64z M6.69,2.43
		c0.28-0.09,0.93-0.24,1.32-0.31L8.1,2.75C7.8,2.8,7.31,2.91,7.06,2.97L7.01,2.59L6.69,2.43z M6.94,3.14l0.09,0.64
		c-0.12,0.03-0.38,0.08-0.51,0.1l-0.09-0.6C6.56,3.25,6.84,3.17,6.94,3.14 M7.04,3.91L7.1,4.3C6.97,4.32,6.24,4.49,6.24,4.49
		l-0.1-0.38C6.38,4.05,6.82,3.96,7.04,3.91 M6.01,4.14l0.11,0.37C5.84,4.58,5.56,4.65,5.27,4.72l-0.1-0.37
		C5.31,4.31,5.78,4.19,6.01,4.14 M5.51,3.46l0.17,0.62C5.56,4.1,5.26,4.18,5.13,4.21L4.94,3.55C5.17,3.51,5.29,3.49,5.51,3.46
		 M4.82,3.58l0.19,0.67C4.92,4.27,4.81,4.3,4.73,4.32L4.53,3.64C4.62,3.62,4.74,3.59,4.82,3.58 M4.68,3.07l0.1,0.38
		c-0.3,0.06-0.83,0.19-1.07,0.27L3.55,3.14c0.38-0.12,1.12-0.25,1.3-0.26L4.68,3.07z M4.13,1.3c0.22-0.03,0.36-0.05,0.59-0.09
		l0.17,0.61c-0.04,0-0.38,0.01-0.6,0.05L4.13,1.3z M4.93,1.96L5.1,2.59c-0.16,0-0.73,0.09-0.83,0.11L4.09,2.04
		C4.3,2.01,4.68,1.97,4.93,1.96 M2.69,1.64l0.68-0.22L3.53,2C3.37,2.04,3.05,2.12,2.84,2.2L2.69,1.64z M3.97,2.06l0.18,0.66
		C3.78,2.8,3.19,2.96,2.71,3.15L2.52,2.48C2.84,2.34,3.53,2.12,3.97,2.06 M1.46,2.17l0.48-0.21l0.16,0.55
		C2.02,2.54,1.74,2.69,1.62,2.76L1.46,2.17z M1.66,2.91c0.16-0.1,0.56-0.3,0.74-0.38l0.19,0.67C2.4,3.26,2.07,3.42,1.84,3.54
		L1.66,2.91z M2.44,3.76l-0.28-0.1c0.38-0.19,0.97-0.4,1.27-0.49L3.6,3.76c-0.32,0.1-0.65,0.21-1.05,0.38L2.44,3.76z M2.58,4.26
		c0.07-0.03,0.22-0.09,0.28-0.11l0.2,0.7c-0.09,0.03-0.24,0.08-0.29,0.1L2.58,4.26z M2.81,5.09C3.08,5,3.39,4.89,3.67,4.8l0.15,0.56
		C3.67,5.41,3.14,5.58,2.97,5.65L2.81,5.09z M3.02,5.83C3.1,5.8,3.23,5.75,3.3,5.73l0.16,0.56c-0.06,0.02-0.2,0.07-0.29,0.1
		L3.02,5.83z M3.3,6.53c0.25-0.12,1.67-0.54,1.99-0.59L5.24,6.07C4.7,6.2,4.13,6.36,3.43,6.61L3.3,6.53z M3.62,6.73
		c0.29-0.12,1.26-0.41,1.53-0.47L5.09,6.4C4.87,6.45,4,6.72,3.75,6.81L3.62,6.73z M3.93,6.93c0.2-0.07,0.9-0.3,1.08-0.34L4.95,6.73
		C4.8,6.76,4.24,6.94,4.05,7.01L3.93,6.93z M4.37,7.22L4.25,7.14c0.12-0.04,0.46-0.16,0.6-0.2L4.8,7.08C4.7,7.1,4.5,7.18,4.37,7.22
		 M4.69,7.42c1.27-0.38,2.69-0.7,3.83-0.87v0.5C7.62,7.18,5.65,7.63,4.78,7.91L4.69,7.42z M4.8,8.04C5.12,7.93,5.94,7.71,6.43,7.6
		l0,0.51C6.12,8.18,5.02,8.48,4.89,8.52L4.8,8.04z M4.92,8.66C5.73,8.39,7.37,8,8.52,7.83v0.5C7.59,8.46,6.16,8.79,5.01,9.15
		L4.92,8.66z M5.03,9.29c0.11-0.04,1.05-0.3,1.4-0.39v0.47c-0.3,0.07-1.18,0.32-1.31,0.36L5.03,9.29z M5.01,11.01l-0.09-0.46
		c0.33-0.1,1.13-0.32,1.51-0.41l0,0.49C5.97,10.72,5.38,10.89,5.01,11.01 M6.43,11.41v0.48c-0.23,0.05-0.93,0.25-1.2,0.33
		l-0.08-0.44C5.36,11.7,6.08,11.49,6.43,11.41"/>
</g>
</svg>
