<?xml version="1.0" encoding="UTF-8"?>
<svg id="Layer_2" data-name="Layer 2" xmlns="http://www.w3.org/2000/svg" viewBox="0 0 852.26 469.19">
  <defs>
    <style>
      .cls-1 {
        fill: #004447;
      }
    </style>
  </defs>
  <g id="Layer_1-2" data-name="Layer 1">
    <g>
      <path class="cls-1" d="m498.51,250.46c-3.86.55-4.09.94-3.01,4.54.24.79.17,1.68.24,2.53-.3.15-.6.29-.9.44-1-1.37-2-2.75-3.2-4.39-.65.35-1.49.67-2.18,1.18-1.35,1-2.85,1.93-3.87,3.21-6.74,8.46-14.39,16.26-19.31,26.06-.33.67-.53,1.41-.78,2.11-.24.34-.48.68-.73,1.01-2.06,3.06-4.33,6.01-6.12,9.22-2.01,3.6-3.6,7.43-5.34,11.17-2.25,4.84-4.92,9.36-8.75,13.2-1.6,1.6-2.67,3.72-3.98,5.61.2.16.4.32.6.47.53-.5,1.07-1.01,1.6-1.51.2.13.41.26.61.38-.78,1.36-1.29,3-2.39,4.02-3.24,3.04-3.52,6.41-2.24,10.45.86,2.7,1.07,5.61,1.53,8.44.43,2.63.85,3.16,3.57,3.87.12-1.22.23-2.38.34-3.55.24-.03.48-.05.73-.08.11,1.02.27,2.04.32,3.06.06,1.07.01,2.14.01,3.24-3.16,1.04-6.66-1.33-7.34-5.04-.81-4.39-1.7-8.76-2.44-13.16-.32-1.9-1.21-2.8-3.16-2.81-2.44,0-4.88-.17-7.32-.25-1.29-.05-2.04.4-2.05,1.87-.08,10.78-.22,21.56-.32,32.33,0,.21.17.43.06.16.88-1.79,1.71-3.9,2.93-5.76.51-.78,1.79-1.34,2.79-1.46,2.58-.32,5.2-.33,7.8-.5,1.34-.08,2.91.18,3.96-.43,3.81-2.18,7.55-.76,11.32-.19.47.07,1.16.27,1.32.61,1.08,2.3,2.34,4.58,2.94,7.02.34,1.38-.44,3.04-.77,4.86,1.04.48,2.32,1.06,3.59,1.64-.06.18-.12.37-.18.55-.85-.06-1.7-.11-2.54-.17,0,4.87.04,9.64-.02,14.4-.02,1.76-.17,3.54-.52,5.26-.57,2.83-2.3,4.68-5.26,5.03-2.08.25-4.19.41-6.29.4-15.59-.11-31.18-.28-46.77-.42-5.37-.05-7.64-1.52-8.19-6.83-.64-6.08-.47-12.25-.65-18.38,1.1.08,2.23.37,3.28.2,3.39-.56,6.76-1.28,10.13-1.95.07.33.14.65.21.98-4.13,1.2-8.77.79-13.03,3.8,1.63.18,2.62.28,4.27.46-1.65.76-2.68,1.23-4.11,1.88,1.05.56,1.6.85,1.98,1.06-.51,1.43-1.27,2.73-1.38,4.09-.18,2.26-.05,4.55.16,6.82.47,5.02,2.32,6.65,7.33,6.68,1.35,0,2.7-.02,4.05,0,13.15.13,26.3.31,39.44.39,3.27.02,6.58,0,9.81-.44,2.73-.38,3.79-2.18,3.7-5.02-1.35.61-2.65,1.41-4.07,1.8-7.54,2.11-14.98,1.87-22.22-1.32-2.99-1.32-3.25-1.87-2.75-5.26-1,.5-2.04,1.1-2.47,2-1.6,3.35-4.18,5.23-7.8,5.67-5.94.72-11.75.44-17.29-2.19-1.77-.84-3.29-2.06-2.85-3.91.33-1.39,1.67-3.12,2.96-3.59,3.13-1.12,6.47-1.96,9.78-2.23,5.44-.46,10.69.61,15.92,4.28-1.12-3.45,1.51-1.8,2.29-2.76.78-2.34-.7-3.05-3.25-3.32,1.41-.58,2.18-.9,2.95-1.22,0-.2,0-.4-.01-.59-.96-.22-1.92-.43-3-.67.96-.71,1.69-1.25,2.43-1.79-.71-.41-1.43-.81-1.83-1.04.48-.86.95-1.69,1.41-2.52-.79-.31-1.58-.61-2.37-.92-.48-.19-.94-.42-1.98-.88,1.71-.25,2.76-.4,3.81-.55-.35-.71-.71-.97-1.06-.96-8.5.23-17.01.3-25.49.82-3.02.19-5.97,1.48-8.96,2.27-.96.18-1.91.37-2.87.55-.09-.22-.18-.43-.28-.65,1.3-.57,2.55-1.45,3.91-1.67,5.97-.97,11.95-1.96,17.96-2.52,4.1-.39,8.26-.13,12.39-.07,1.51.02,2.07-.48,2.08-2.04.08-10.2.19-20.39.41-30.59.05-2.28-.64-3.21-3-3.07-2.7.16-5.42.04-8.13.04,0,.27,0,.55-.01.82h9.2v.88c-5.89.27-11.8.54-17.7.81.01.35.02.71.03,1.06h7.56v1.06h-24.88c-.07.46-.14.92-.21,1.38.76.26,1.51.73,2.27.73,3.63.01,7.25-.11,10.88-.16.88-.01,1.76.1,2.65.16.02.23.03.46.05.69-.76.06-1.51.15-2.27.18-3.88.14-7.76.19-11.62.44-.67.04-1.29.87-1.94,1.34.68.3,1.38.87,2.05.85,3.09-.1,6.17-.36,9.25-.56.05.33.1.65.15.98-3.95.35-7.9.7-11.85,1.06.01.41.03.82.04,1.23h8.77c0,.39-.01.78-.02,1.16-2.36,0-4.73-.03-7.09,0-2.06.04-2.09.11-2,2.65,1.95-.16,3.9-.32,5.84-.48.05.26.1.53.16.79-1.36.24-2.74.37-4.06.75-.85.25-1.59.86-2.39,1.31.78.27,1.56.55,2.34.81.36.12.74.18,1.14.79-1.19.25-2.38.5-4.22.89,1.31.54,1.98.82,3.06,1.27-1.14.39-1.88.64-2.62.9.21.09.43.18.64.26-.34,1.48-.68,2.96-1,4.45-.13.57-.29,1.14-.32,1.72-.53,9.08-1.07,18.17-1.49,27.26-.04.98.7,2,1.19,3.31-.05.03-.68.39-1.52.88.6.37,1.05.65,1.64,1.02-.67.54-1.31,1.06-2.48,2.01,1.72.19,2.8.32,4.63.52-2,.77-3.31,1.28-4.63,1.79.06.26.12.51.19.77h19.28c.02.25.04.49.06.74-.83.08-1.65.21-2.48.22-4.47.04-8.95-.14-13.4.11-4.26.24-5.19,1.64-4.75,5.88,4.8-.53,9.62-1.06,14.44-1.58.04.36.07.72.11,1.07-2.28.18-4.59.23-6.84.59-2.31.38-4.6.96-6.83,1.68-.71.23-1.2,1.15-1.36,2.15,3.81-.55,7.61-1.11,11.42-1.66.05.25.09.5.14.75-3.87,1.98-9.6-.31-12.3,4.38.09.32.19.63.28.95h5.27c.01.18.02.37.04.55-1.12.22-2.23.59-3.36.63-1.85.07-2.6.9-2.35,2.7.28,1.95,1.69,1.1,2.75,1.11.49,0,.97,0,1.61.54-1.03.29-2.11.47-3.07.91-.57.26-.95.92-1.42,1.4.53.29,1.03.69,1.59.83.76.18,1.58.15,2.37.21,0,.26.01.51.02.77-1.22.06-2.43.11-3.88.18-1.08,3.87,2.94,1.34,3.81,3.03-.87.11-1.66.32-2.44.3-1.53-.03-2.12.92-1.73,2.08.76,2.27-1.06,3.75-1.71,5.8-1.02-2.93-2.04-5.86-3.2-9.21.82.43,1.25.66,2.4,1.26-1.01-4.54-1.89-8.48-2.76-12.43.15-.05.29-.11.44-.16.61,1.39,1.23,2.77,1.84,4.16.16-.05.32-.1.48-.15-.99-5.11-1.98-10.22-2.97-15.32.21-.05.43-.1.64-.15.72,2.6,1.44,5.21,2.16,7.81,1.54-6.08-1.54-11.78-.72-17.83.64,2.96,1.28,5.92,1.92,8.88.27-.04.55-.07.82-.11-.56-5.22-1.11-10.44-1.67-15.66.26-.03.52-.07.78-.1.49,2.82.98,5.65,1.48,8.47.21,0,.42.02.63.03.08-1.74.52-3.55.18-5.2-2.2-10.71-4.57-21.38-6.89-32.06-.24-1.09-.5-2.17-.74-3.26.35-.08.7-.16,1.05-.25,2.39,9.56,4.78,19.12,7.16,28.67.1,0,.2,0,.3.01.18-3.68.36-7.36.53-11.04.02-.33.05-.78-.13-.98-3.22-3.63-1.99-8.32-3.02-12.45-.95-3.8-2.31-7.5-3.49-11.24-.18-.56-.44-1.11-.55-1.68-2.01-10.56-7.2-19.62-12.75-28.66-5.2-8.46-9.71-17.36-14.32-26.17-7.21-13.81-18.8-22.73-32.48-29.21-6.8-3.22-14.31-2.68-21.64-2.75-11.79-.12-23.58-.24-35.37-.53-9.19-.23-18.37-.73-27.55-1.06-5.81-.21-11.63-.47-17.44-.48-4.71-.01-9.43.53-14.14.41-3.74-.09-7.46-1-11.21-1.18-3.5-.17-7.15-.41-10.51.36-6.8,1.57-13.46,3.8-20.17,5.76-4.13,1.2-7.02,3.9-9.04,7.61-2.7,4.97-4.18,10.24-4.3,15.94-.32,14.62,2.34,28.86,5.39,43.04,2.85,13.26,6.31,26.39,8.95,39.68,3.55,17.85,4.43,35.94,3.35,54.1-.11,1.9-.6,3.78-.92,5.67-.22,0-.43,0-.65.01-.24-1.84-.65-3.68-.68-5.53-.09-5.82.04-11.63-.06-17.45-.32-18.97-3.66-37.45-8.12-55.88-3.91-16.18-6.62-32.67-9.28-49.12-.98-6.08-.51-12.43-.29-18.64.2-5.5,2.53-10.41,5.33-15.1.65-1.09,1.15-2.47,1.17-3.73.16-9.95-1.51-19.63-4.53-29.09-.07-.22-.27-.4-.48-.71-2.69,1.2-5.31,2.52-8.05,3.56-5.19,1.96-8.56-.61-8.15-6.15.05-.63.62-1.22.94-1.83.5.54,1.39,1.04,1.44,1.62.5,5.4,2.77,4.83,6.49,3.14,1.91-.87,4.06-1.3,5.8-2.4.98-.62,1.83-2.13,1.96-3.33.69-6.36,1.23-12.74,1.62-19.13.29-4.68.15-4.69-4.27-6.35-2.34-.87-4.68-1.74-7.2-2.67-1.86,6.24-.59,12.61-2.77,18.36-.33.02-.66.04-.99.05-.19-1.35-.66-2.73-.52-4.05.89-8.03,1.63-16.09,3-24.04.84-4.84,2.26-9.71,4.29-14.17,1.4-3.08,3.84-6.16,6.61-8.07,10.63-7.33,15.18-17.55,16.09-30.04.7-9.57,1.95-19.1,3.01-28.64.45-4.07,1.85-5.4,5.84-4.43,5.95,1.45,11.91,3.1,17.6,5.33,10.02,3.94,19.35,9.06,26.74,17.26,3.38,3.75,6.48,7.5,8.1,12.35.54,1.62,1.41,3.12,2.13,4.68.25-.07.49-.13.74-.2-.15-1.9-.29-3.8-.44-5.69.2-.04.39-.08.59-.13.5,2.02,1.01,4.03,1.51,6.05l.63-.07v-7c.24-.02.49-.04.73-.06.37,2.37.74,4.75,1.11,7.12l.61.02c.55-3.19,1.09-6.39,1.64-9.58.16-.05.32-.1.48-.15.46,1.5.94,2.99,1.36,4.5.42,1.5.79,3.02,1.34,5.18,1.02-6.15.12-10.39-2.65-15.13-4.59-7.89-11.15-13.65-19.02-18.06-1.73-.97-3.46-1.92-5.53-3.07,2.26-.3,7.08,1.92,11.95,5.81,3.47,2.77,6.89,5.76,9.7,9.17,2.79,3.39,4.78,7.44,7.18,11.3,1.46-.96,1.26-2.22.53-3.77-3.93-8.27-8.74-15.8-16.91-20.59-.25-.15-.41-.45-.37-.9,9.55,4.33,14.39,12.82,18.63,21.71,3.3-1.29,5.94-5.6,5.73-8.81-.12-1.76-.39-3.65.09-5.28.62-2.06-.2-3.11-1.55-4.29-1.07-.94-2.08-1.98-2.94-3.12-2.39-3.18-2.04-5.57,1.06-8.05.39-.32.77-.65,1.16-.97,0,0-.06.03-.06.03,17.14-1.33,34.25-2.99,51.41-3.88,15.31-.79,30.67-.69,46-1.02,6.05-.13,12.17-1.04,18.13-.39,5.69.62,11.27,2.61,16.78,4.36,3.6,1.15,5.72,4.27,7.85,7.26,3.38,4.75,8.22,7.72,13.83,8.28,10.98,1.1,22.03,1.53,33.05,2.1,2.59.14,5.23-.13,7.82-.42,3.35-.37,2.06-3.37,2.56-5.2.47-1.71-.94-2.64-2.59-2.6-4.71.1-9.43.21-14.13.57-.78.06-1.71,1.27-2.12,2.15-.47,1.02-.45,2.26-.67,3.6-1.91-3.87-.32-6.87,3.61-7.08,4.04-.22,8.08-.41,12.12-.46,4.29-.06,5.43,1.36,4.76,5.54-.13.82-.19,1.66-.31,2.78,1.23,0,2.35.07,3.46-.01,5.12-.39,10.24-.77,15.36-1.25,2.93-.27,5.84-.73,8.75-1.12.41-.06.9-.16,1.18-.42,2.79-2.61,6.77-3.82,8.68-7.5,3.04-5.85,8.59-7.53,14.48-7.56,10.85-.06,21.71.39,32.57.68,5.56.15,11.12.56,16.68.6,15.1.12,30.19.05,45.29.16,9.78.07,19.56.34,29.34.51.91.02,1.82,0,3.35,0-1.08-1.25-1.84-2.06-2.52-2.92-2.36-3.02-2.11-5.5.88-7.81,5.27-4.07,10.76-7.57,17.86-7.25,7.82.36,15.64.53,23.46.84.82.03,1.78.2,2.4.67.5.38.98,1.46.79,1.96-1.6,4.18-4.14,5.69-8.66,5.64-5.65-.07-11.3-.05-16.95.03-2.27.03-4.53.33-6.52,2.66,1.14.27,1.98.39,2.76.67,1.24.45,2.81.71,3.55,1.62.84,1.02,1.43,2.78,1.15,4-.2.88-1.93,1.87-3.07,1.99-2.22.24-4.5-.1-7.19-.22,2.38,4.21-.37,6.51-3.08,8.51-3.73,2.75-5.36,5.59-3.77,10.53,1.23,3.82.88,8.16,1.17,12.27.17,2.47,2.84,4.97,5.22,5.51,1.49.34,2.79,1.58,4.12,2.5.57.4.99,1,1.48,1.52.27-.19.54-.38.82-.57-.52-.79-.93-1.69-1.59-2.34-.71-.7-1.65-1.17-2.2-2.19,1.46.4,2.91.79,5.04,1.37.73,1.11,1.92,3.07,3.31,4.86.2.26,1.54-.09,2.12-.49.38-.27.34-1.14.67-2.46.5,1.55.77,2.38,1.23,3.82.64-1.2,1.13-1.91,1.41-2.69,6.42-18,19.65-28.7,37.24-34.69,5.5-1.87,11.08-3.54,16.62-5.29.72-.23,1.46-.45,2.2-.54,3.69-.45,4.75.26,5.25,3.92,2.27,16.51,4.36,33.05,6.79,49.55.69,4.71,2.32,9.28,3.62,14.3.85-.4,1.42-.68,2.25-1.07-.72-.62-1.26-.93-1.55-1.39-.23-.36-.37-1.01-.19-1.34.19-.35.78-.54,1.23-.66.29-.07.67.07.97.2,12.96,5.47,20.93,12.01,22.29,26.92,1.31,14.39.86,28.79-.43,43.17-.32,3.61-1.63,5.16-5.22,5.76-1.79.3-3.71.41-5.49.11-5.03-.85-6.93-3.09-7.34-8.14-.05-.66-.1-1.33-.75-2.05-1.26,9.68-2.64,19.35-3.72,29.05-.42,3.75-.06,7.59-.3,11.37-.11,1.76-.81,3.49-1.2,5.24-.12.56-.24,1.17-.15,1.72,2.01,11.5.62,22.92-1.48,34.17-2.83,15.14-6.17,30.2-9.71,45.2-4.41,18.65-6.4,37.5-6.11,56.64.07,4.6-.2,9.22-.32,13.82-.36.02-.72.04-1.08.06-.33-2.45-.83-4.89-.97-7.35-1.35-24.88,1.79-49.2,8.19-73.27,4.5-16.93,7.97-34.14,9.33-51.66.65-8.33.78-16.66-3.18-24.5-2.37-4.7-5.63-8.1-10.79-9.56-4.38-1.24-8.74-2.54-13.07-3.96-7.05-2.31-14.12-2.84-21.42-1.23-2.89.64-5.97.5-8.97.53-10.95.14-21.9.05-32.84.32-17.86.45-35.71,1.16-53.57,1.68-4.96.14-9.93-.03-14.9,0-7.09.03-13.56,2.22-19.47,6-11.17,7.13-20.59,15.75-26.72,27.94-7.34,14.59-15.87,28.58-23.35,43.11-6.46,12.55-9.64,26.08-10.77,40.23-.75,9.43,1.91,18.58,1.2,27.93-.02.29.2.59.31.89.25,0,.5,0,.76,0,0-1.28.05-2.57,0-3.85-.61-14.1-.27-28.19,2.8-41.98,1.54-6.93,4.6-13.52,6.97-20.26.14-.39.26-.79.39-1.19.31.21.62.43.92.64-.31.89-.62,1.77-.92,2.66-2.24,6.61-5.16,13.08-6.56,19.86-2.79,13.58-2.98,27.43-2.55,41.28.05,1.69-.67,3.4-.99,5.11-.08.4,0,.83.02,1.25.21,5.13.44,10.27.6,15.4.04,1.15-.17,2.31-.27,3.47-.26.05-.52.11-.78.16-.66-2.51-1.44-4.99-1.95-7.52-.66-3.3-.97-6.68-1.7-9.96-.23-1.01-1.17-2.14-2.1-2.66-4.49-2.5-9.49-2.73-14.48-2.79-2.47-.03-4.94,0-8.08,0,3-1.99,9.07-1.47,23.55,1.5.03-.58.2-1.17.07-1.68-4.05-15.84-5.38-32.04-6.21-48.29-.13-2.52-1.08-3.3-3.41-2.84-.49.09-1.1.19-1.49-.02-.66-.36-1.18-.96-1.76-1.47.62-.42,1.35-1.29,1.85-1.17,3.61.83,5.06-1.18,6.45-4.06,2.12-4.38,4.66-8.56,7.03-12.83.26.13.52.27.79.4-2.69,5.16-5.38,10.31-8.06,15.47.28.23.55.45.83.68.58-.56,1.35-1.03,1.7-1.71,1.49-2.91,2.86-5.89,4.28-8.84.27.11.54.22.81.33-1.26,2.97-2.51,5.93-3.84,9.06,2.19.44,3.33-.52,4.12-2.19,2.27-4.8,4.55-9.59,6.87-14.37.57-1.17,1.27-2.28,2.35-3.21-.4,1.34-.8,2.68-1.2,4.02l.27.19c.36-.56.75-1.11,1.08-1.69,2.94-5.31,5.95-10.58,8.74-15.97.94-1.81,1.32-3.9,1.46-6.08-2.27,6.01-5.06,11.67-9.53,16.42.54-1.08.98-2.23,1.64-3.24,3.51-5.35,5.49-11.29,7.29-17.39,2.13-7.26,4.9-14.33,7.42-21.47.16-.44.48-.82,1.08-1.84v2.87l.5.28c1.19-1.93,2.62-3.75,3.51-5.81,2.42-5.59,6.23-10.16,10.12-14.73,4.69-5.5,9.32-11.07,13.73-16.81,2.06-2.69,3.54-5.83,5.44-9.04-2.28-.09-2.26-.08-3.41,2.26-.59,1.2-1.27,2.35-2.32,3.36.48-1.6.96-3.2,1.59-5.26-7.71,1.56-14.78,3.81-21.61,6.87-.5.19-1,.37-1.5.56-1.55.52-3.11,1.03-4.66,1.55l.03-.04Zm-49.57-112.75c-1.1-.97-2.16-2.01-3.33-2.89-.42-.32-1.12-.27-1.7-.39.03.54-.12,1.21.14,1.59.75,1.1,1.6,2.14,2.52,3.1,1.12,1.17,2.35,2.24,3.54,3.35.2-.19.4-.39.6-.58-.6-1.41-1.21-2.82-1.81-4.23h3.14c-1.27-1.65-2.07-2.78-2.99-3.79-.21-.22-.93-.15-1.3.03-.18.08-.22.78-.09,1.11.36.92.85,1.79,1.28,2.69Zm-160.52,18.1l.05.04v6.65c.25,0,.49-.02.74-.02.41-.63.83-1.26,1.62-2.47v4.84c.31.05.62.1.93.14.96-2.81,1.92-5.62,2.88-8.43,1.02,3.93-2.82,7.1-1.23,11.23.76-.4,1.27-.67,1.94-1.01v3.45c.99-1.92,3.97-1.69,4.07-4.34.07-2.02.82-4.01,1.27-6.02-.28-.06-.55-.11-.83-.17-.52,1.9-1.05,3.79-1.57,5.69-.22-.06-.44-.11-.67-.17.62-3.91,1.24-7.82,1.86-11.73-.11-.02-.22-.05-.34-.07l-3.36,9.5c-.23-.08-.47-.16-.7-.24,1.44-5.02,2.89-10.04,4.33-15.07-.09-.04-.18-.08-.26-.12-1.6,2.41-3.19,4.81-4.79,7.22l-1.11-.5c.34-2.8.67-5.6,1.01-8.4.3.03.6.06.9.08-.1,1.81-.21,3.62-.31,5.43,1.85-3.16,4.71-5.77,4.18-9.85-.72.67-1.45,1.34-2.28,2.11-.37-2.56,3.27-4.11,1.14-7.08-.64,1.55-1.17,2.83-1.7,4.11-.25-.1-.5-.19-.75-.29.82-3,1.64-5.99,2.46-8.99.32,0,.64,0,.96-.01,2.98,3.73,2.81,8.59,4.16,13.36,10.37-2.69,20.65-5.36,30.93-8.02.06-.23.11-.46.17-.7-5.3-3.28-10.6-6.57-15.91-9.85.14-.24.29-.48.43-.72.79.39,1.61.72,2.36,1.17,4.47,2.7,8.91,5.46,13.4,8.13.84.5,1.93,1.14,2.76.98,3.36-.66,6.66-1.61,9.98-2.46.05-.21.09-.42.14-.63-3.63-2.23-7.27-4.46-10.9-6.69.19-.29.39-.58.58-.87,3.6,2.14,7.19,4.29,10.81,6.4,2.19,1.27,5.79.79,7.62-.9.25-.23.71-.29,1.08-.33,1.07-.11,2.2,0,3.23-.26,11.01-2.82,22.01-5.69,33.02-8.56.85-.22,1.66-.55,2.49-.83.01-.22.03-.45.04-.67-5.39.24-10.15-1.3-14.39-4.48-.38-.29-1.43.16-2.1.44-1.43.6-2.79,1.79-4.23,1.88-7.9.53-15.82.89-23.73,1.13-18.2.56-36.4,1.01-54.6,1.53-.85.02-1.7.27-3.19.52,3.94,4.56,1.01,8.53-.07,12.62.05-2.94.92-5.7-.8-8.75-2.83-5.03-3.23-5.87-6.31-5.12.12.81.23,1.62.35,2.43-1.12-.92-1.59-2.18-2.49-2.96-.72-.62-1.95-.64-2.95-.93-.07.19-.14.38-.2.57-1.21-1.18-2.41-2.37-3.62-3.55-.16.17-.33.33-.49.5,1.77,4.07,3.54,8.14,5.31,12.21-.23.11-.47.22-.7.33-2.95-4.18-3.34-10.06-7.81-13.23-.19.12-.38.24-.57.36,2.55,4.51,5.09,9.01,7.64,13.52-.26.14-.51.28-.77.43-1.08-1.78-2.14-3.58-3.25-5.35-1.56-2.5-3.1-5.01-4.74-7.46-.82-1.23-1.94-1.83-3.41-.67,3.18,4.54,6.31,9.01,9.44,13.47-.22.16-.44.31-.67.47-2.46-3.25-4.91-6.5-7.37-9.75-.13.08-.27.17-.4.25,1.94,3.54,3.89,7.08,5.83,10.62l-.6.34c-2.63-4.2-5.24-8.41-7.92-12.58-.5-.78-1.29-1.39-1.94-2.07-.21.2-.43.39-.64.59,1.11,1.51,2.23,3.03,3.34,4.54-.17.13-.34.26-.51.39-1.6-1.53-3.19-3.07-4.79-4.6-.16.16-.33.33-.49.49,3.34,4,6.69,8.01,10.03,12.01-.2.18-.39.35-.59.53-1.06-1.12-2.15-2.22-3.18-3.37-2.31-2.57-4.53-5.22-6.95-7.69-.66-.68-1.89-.81-2.86-1.19-.1.25-.2.51-.3.76l11.38,12.92-.62.57c-1.2-1.24-2.41-2.47-3.59-3.73-2.54-2.7-5.02-5.46-7.63-8.09-.87-.87-1.97-2-3.59-.55,3.56,3.69,7.04,7.32,10.53,10.94-1.14-.16-1.91-.68-2.57-1.31-2.74-2.63-5.4-5.33-8.18-7.91-.65-.61-1.63-.87-2.46-1.29-.17.27-.34.53-.5.8,2.03,2.07,4.07,4.15,6.1,6.22l-.47.48c-2.42-2.01-4.84-4.03-7.26-6.04-.2.24-.41.49-.61.73,3.13,2.81,6.26,5.62,9.39,8.43-.18.2-.36.4-.54.6-2.92-2.39-5.87-4.75-8.76-7.19-1.6-1.35-2.64-.94-4.3,1.63,3.39,2.99,6.79,5.99,10.18,8.98-.18.18-.36.35-.54.53-2.79-2.65-5.57-5.33-8.4-7.95-.73-.68-1.66-2.01-2.61-.52-.35.55.09,1.99.63,2.64,1.96,2.34,4.12,4.52,6.21,6.76-.17.17-.34.33-.51.5-2.58-2.43-5.17-4.87-7.75-7.3-.24.16-.48.33-.73.49-.8,4.11,4.55,5.32,4.85,9.01-.51-.41-1.01-.74-1.4-1.16-.98-1.04-1.93-2.12-2.86-3.2-2.16-2.51-2.93-2.39-4.55.73,1.98,1.83,3.97,3.67,5.96,5.5-.14.17-.27.33-.41.5-1.19-.78-2.37-1.56-3.56-2.34-.11.14-.22.28-.34.42,1.56,1.86,3.12,3.73,4.75,5.68.23-.96.4-1.66.56-2.36.8.26,1.69.36,2.37.8.97.63,1.78,1.51,3.11,2.67-.61-2.25-1.01-3.77-1.42-5.29.25-.15.5-.29.76-.44,1.47,1.47,2.95,2.94,4.58,4.58-.85.2-1.24.29-1.63.39l.02.68c1.64.17,3.28.34,4.92.51.22-.34.44-.69.66-1.03-2.03-1.62-4.05-3.23-6.08-4.85.25-.26.49-.53.74-.79,2.65,2.29,5.29,4.58,7.94,6.87.13-.11.26-.21.39-.32-.27-.8-.53-1.6-.89-2.66,2.28.64,2.29,3.96,5.47,3.56-1.95-2.9-3.7-5.51-5.45-8.12l.55-.38c2.24,3.01,4.47,6.02,6.71,9.02.21-.13.43-.27.64-.4-2.04-3.69-4.08-7.38-6.12-11.07.25-.14.5-.28.76-.42,2.51,4.31,5.02,8.62,7.53,12.93l.64-.33v-1.59c3.34-1.01,3.06,2.73,5.31,3.89-.22-1.54-.39-2.72-.64-4.48,1.55,1.25,2.76,2.24,4.46,3.61.13-.36.38-1.05.63-1.74.25.07.51.15.76.22.83,1.97,1.65,3.94,2.6,6.2.55-1.17,1-2.14,1.53-3.27.97,2.62,1.89,5.11,2.87,7.74.5-1.46.91-2.67,1.33-3.88Zm10.69,73.44c-.19.59-.38,1.17-.62,1.92,1.65.15,2.97.26,4.29.38q-5.04,2.13-5.11,3.12c1.46.17,2.93.34,4.54.53-1.92,2.22-5.33-1.01-6.82,2.55,2,.21,3.75.4,5.5.58.04.24.07.48.11.72-4.11.17-8.66-.71-10.74,4.09,6.54.58,13.15,1.17,19.75,1.75-.03.35-.07.71-.1,1.06-3.97-.39-7.94-.95-11.93-1.12-3.97-.16-7.95.08-11.87.14.1,1.2.14,1.7.16,1.86-5.36,1.19-10.45,2.33-15.54,3.47.03.28.07.56.1.85h10.75v.59c-2.45.39-4.91.79-7.37,1.18.02.35.05.69.07,1.04h8.3c0,.33-.02.66-.03.98-1.58,0-3.17-.12-4.73.04-1.37.14-3.18-.69-4.16,1.56,8.88-.27,17.49-.53,26.1-.79.01.27.03.54.04.8-.8.12-1.59.32-2.39.35-3.7.18-7.41.35-11.12.45-4.21.12-8.42.23-12.63.17-.83-.01-2.06-.63-2.41-1.33-.92-1.84-1.46-3.88-2.3-6.27-.43,1.26-.7,2.04-.96,2.82-.4-2.88-2.22-3.08-4.45-2.91-5.63.41-11.25.96-16.89,1.02-13.24.15-26.47.05-39.71.07-3.42,0-4.27,1.45-2.88,4.75,2.04-1.39,50.68-2.05,54.35-.74,0,.22,0,.44.01.66h-48.83c0,.24,0,.47,0,.71.24.05.47.15.71.16,17.18.69,34.36,1.37,51.54,2.08,1.51.06,1.94-.67,1.81-2.01-.12-1.17-.37-2.36-.27-3.52.06-.7.66-1.35,1.02-2.02.55.62,1.4,1.17,1.58,1.88.32,1.29.2,2.68.33,4.02.18,1.86,1.17,2.19,2.71,1.46.1-1,.18-1.87.27-2.73,1.67,3.46,1.67,3.52,5.59,3.44,6.07-.12,12.14-.29,18.2-.53,11.37-.46,22.08,1.56,31.18,8.82,5.71,4.56,11.07,9.55,16.6,14.35.29.25.63.44,1.44,1,0-1.47-.06-2.45.01-3.41.26-3.61.47-7.23.91-10.81.1-.83,1.07-1.55,1.64-2.32.3.86.91,1.74.86,2.58-.3,5.79-.75,11.57-1.1,17.36-.03.55.17,1.18.45,1.67,6.92,12.44,13.86,24.88,20.82,37.3.92,1.65,2.01,3.2,3.02,4.79.18-.1.36-.19.54-.29-1.39-2.86-2.78-5.71-4.17-8.57,3.58,3.19,4.35,8.57,9.68,11.05-1.75-2.72-3.17-4.93-4.59-7.15,4.25,2.46,5.18,8.26,10.03,9.99l.56-.51c-2.84-3.95-5.67-7.9-8.51-11.86.2-.15.4-.29.61-.44,3.16,4.05,6.31,8.1,9.47,12.14.88,1.13,1.84,2.14,3.77,1.4-2.68-3.82-5.22-7.44-7.77-11.07.21-.15.43-.3.64-.46,2.64,3.48,5.24,7,7.97,10.41.65.81,1.75,1.24,2.65,1.85l.68-.78c-2.35-3.39-4.71-6.78-7.06-10.17,3.98,2.83,6,7.41,9.45,10.65.26-.22.53-.45.79-.67-1.73-2.37-3.46-4.74-5.18-7.11.19-.15.37-.3.56-.45.82.9,1.67,1.77,2.46,2.69.87,1.03,1.61,2.18,2.55,3.14.7.71,1.63,1.19,2.46,1.77.19-.26.39-.52.58-.79-4.35-6.58-8.71-13.17-13.06-19.75.22-.15.45-.3.67-.44,4.7,6.74,9.41,13.48,14.11,20.23.26-.18.52-.36.79-.53-5.48-8.62-10.97-17.24-16.45-25.86l.79-.51c1.04,1.51,2.1,2.99,3.1,4.52,4.39,6.7,8.79,13.38,13.09,20.13.89,1.39,1.76,1.53,3.32,1.26,4.4-.77,6.98-3.03,7.3-7.63.07-1.08.45-2.14.68-3.21,1.29-6.21,1.57-12.38-.81-18.41-.52-1.32-1.44-2.48-2.17-3.72.06,3.72,3.02,6.52,2.14,10.47-1.07-.61-1.92-1.35-2.39-2.28-1.09-2.18-1.89-4.51-3.01-6.68-4.33-8.38-8.81-16.69-13.09-25.09-2.02-3.97-4.59-7.41-7.91-10.38-2.06-1.84-4.22-3.78-5.62-6.11-4.96-8.23-11.11-15.36-18.03-22.02-4.51-4.34-9.47-7.14-15.45-8.53-7.87-1.83-15.71-3.82-23.58-5.64-2.62-.61-5.29-1.05-7.96-1.34-3.93-.43-7.88-.69-11.83-.95-.54-.04-1.1.34-1.65.53.51.37,1.01,1.05,1.52,1.06,3.37.08,6.74,0,10.12.02.85,0,1.7.22,2.56.34,0,.23,0,.47-.01.7-.87.06-1.75.18-2.62.18-2.86.01-5.73-.1-8.59,0-3.9.13-3.97.27-3.97,4.27,0,0,.03-.02.03-.02Zm39.49-38.42s-.03-.04-.03-.04c1.55,1.01,3.08,2.06,4.66,3.03,2.4,1.49,4.53,3.91,7.87,2.26.39-.19.99.05,1.5.09,2.94.25,5.87.69,8.82.73,14.33.23,28.66.36,43,.53,16.44.19,32.88.25,49.32.63,11.08.26,21.64,2.64,31.56,7.99,7.26,3.92,11.55,9.56,12.93,17.6,1.37,7.94-1.62,13.05-9.28,15.59-1.35.45-2.77.82-4.18.94-6.38.57-12.76,1.44-19.15,1.48-24.04.16-48.07.12-72.11,0-7.66-.04-15.32-.58-22.99-.87-.86-.03-1.73.08-2.59.13-.01.25-.03.5-.04.75,4.3.33,8.6.66,12.9.99-.02.26-.03.52-.05.77h-10.63c-.14.3-.27.61-.41.91,1.57.98,3.14,2.79,4.71,2.79,11.63,0,23.26-.43,34.89-.52,2.66-.02,5.4.47,7.96,1.2,3.84,1.09,5.47,4.64,4.24,8.42-1.14,3.48-4.16,4.45-7.19,4.65-9.08.58-18.17.86-27.27,1.13-.75.02-1.62-.89-2.27-1.53-1.16-1.15-2.12-2.55-4.52-2.32.73,1.08,1.17,1.99,1.83,2.66,2.42,2.46,5.2,4.63,7.3,7.33,2.07,2.67,4.16,3.58,7.62,3.32,8.82-.65,17.68-.84,26.53-.99,9.68-.16,19.37-.17,29.05,0,2.28.04,4.67.75,6.76,1.71,2.42,1.11,3.77,5.12,2.97,7.73-.85,2.79-3.25,2.94-5.56,2.88-4.13-.11-8.25-.55-12.37-.55-14.59.03-29.18.18-43.77.3-.8,0-1.59.18-2.44.29,1.14,3.96,1.38,4.13,5.09,4.21,1.35.03,2.71.13,4.06.2,0,.26,0,.52,0,.78-1.98.14-3.95.29-5.93.43,0,.27,0,.53,0,.8,7.1.29,14.21.59,21.31.88,0,.28-.02.56-.03.83h-20.27c-.03.27-.05.53-.08.8,1.87.35,3.74.7,5.61,1.06,0,.16,0,.32,0,.48-1.15.11-2.3.21-3.45.32.45.67,1.23,1.42,1.09,1.67-.82,1.52.14,1.46,1.18,1.94,1.74.81,3.92,1.7,4.75,3.2,1.55,2.82,2.59,6.03,3.21,9.2.45,2.27.95,4.09,3.57,4.88-1.31.56-2.25.97-3.19,1.38.05.19.09.39.14.58.75.2,1.49.39,2.8.73-1.32,1.54-2.35,2.74-3.52,4.12,2.12.47,3.63.53,4.04-1.87.14-.81.72-1.53.93-2.34.54-2.09,1.07-3.96-.99-5.93-3.17-3.03-2.36-8.69,1.18-11.1,1.92-1.31,4.41-1.31,6.03.24-.9,0-1.54,0-2.18,0-2.76,0-4.54,1.2-5.42,3.66-.93,2.57-.18,5.42,1.86,7.12,1.99,1.65,5.08,2.25,6.79.89.71-.57.65-2.11.94-3.21-.8-.16-1.6-.42-2.41-.44-1.15-.02-2.3.14-3.44.23-.03-.19-.07-.38-.1-.58.64-.41,1.28-.83,1.97-1.27-2.86-2.35-2.89-2.45-1.69-4.68.34.89.63,1.66,1.04,2.72.59-.89.98-1.48,1.7-2.56.21,1.91.35,3.19.48,4.41,3.64.82,1.56-2.85,3.23-3.8.25,2.25.48,4.29.76,6.75,1.57-1.79,2-3.4,1.29-5.16-.62-1.52-1.45-2.95-2.46-4.98,4.87,3.46,4.86,8.5,2.03,11.33-2.6,2.61-2.37,4.87-.65,7.58.35.55.47,1.25.69,1.89.73,2.13,1.26,4.35,2.26,6.35.51,1.03,1.94,2.39,2.76,2.27,1.06-.15,2.14-1.5,2.83-2.58,1.45-2.26,2.15-5.23,4.04-6.92,4.71-4.21,7.18-9.67,9.96-15.06,3.08-5.98,6.42-11.83,9.63-17.74.21-.39.32-.85.29-.76-20.34-.55-40.68,1.24-61.04-.38.71-.4,1.43-.53,2.14-.53,3.8.02,7.59.12,11.39.12,13.74-.01,27.48-.05,41.22-.1,1.09,0,2.19-.14,3.26-.34,4.06-.77,6.6-3.97,7.13-8.05.17-1.29,1.6-2.49,2.63-3.56.59-.62,1.74-.73,2.29-1.37,2.7-3.12,5.46-6.22,7.87-9.57,3.56-4.94,7.67-9.14,13.23-11.84.93-.45,1.5-1.66,2.42-2.74,3.07-.62,6.75-1.1,10.28-2.12,7.2-2.08,14.33-4.4,21.43-6.78,1.1-.37,2.37-1.45,2.74-2.5,1.07-3.05,2.08-6.2,2.48-9.39,1-8.02,1.61-16.09,2.45-24.13.17-1.59-.43-2.13-1.91-2.21-2.86-.15-5.71-.4-8.57-.6-10.34-.73-20.68-1.4-31.01-2.19-11.51-.89-23-1.98-34.5-2.83-9.16-.68-18.33-1.39-27.5-1.61-15.84-.39-31.69-.56-47.54-.54-11.72.02-23.43.49-35.15.74-.84.02-1.67-.14-2.51-.22.51-.65.98-.78,1.45-.8,9.77-.28,19.55-.82,29.32-.76,21.24.13,42.49.26,63.72.99,14.64.5,29.25,1.98,43.86,3.07,14.87,1.11,29.73,2.31,44.61,3.39,6.57.48,6.82.14,6.55-6.57,0-.08.04-.2,0-.25-.57-.66-1.1-1.81-1.74-1.89-11.81-1.3-23.61-2.71-35.45-3.57-8.65-.63-17.36-.57-26.04-.69-15.67-.22-31.36-.86-47.02-.38-28.73.88-57.51.26-86.17,3.04-.74.07-1.48.18-2.22.27-.01.21-.02.42-.03.63.89.41,1.79.82,2.68,1.23Zm-139.16,25.58c0,.24,0,.49,0,.73-2.34.11-4.69.21-7.03.32-.59.03-1.58-.14-1.7.11-1.31,2.75-3.74.85-5.54,1.41-.39.12-.89-.1-1.25.06-.6.27-1.12.71-1.67,1.07.58.34,1.15.96,1.74.98,3.2.1,6.41.05,9.61.05,2.89,0,5.78,0,8.67,0-5.65,1.08-11.27,1.72-16.9,2.36-.5.06-1.06-.1-1.51.06-.69.25-1.31.69-1.96,1.05.69.41,1.34.94,2.08,1.19.61.2,1.34.04,2.01.07,9.56.45,19.12.9,28.68,1.35-.66.54-1.32.67-1.97.65-6.65-.16-13.34.02-19.95-.64-3.89-.38-6.98,1.69-10.54,2.01-.11,0-.18.41-.51,1.22,18.49.79,36.8-.34,53.08,1.55-7.66,0-17.21.43-26.7-.13-8.45-.5-16.71.9-25.05,1.29-1.32.06-2.77-.22-3.94.24-8.08,3.17-16.1,6.49-24.14,9.77-.74.3-1.43.72-2.36,1.19.7.9,1.53,1.51,1.61,2.2.12,1.02.03,2.42-.59,3.08-.52.55-1.92.27-2.93.36,0-.99-.08-1.99,0-2.97.05-.58.36-1.15.58-1.81-4.49-.14-4.94.44-4.46,4.21.47,3.67.65,7.37.98,11.06.1,1.11.28,2.22.38,2.99,8.29-2.47,16.34-4.63,24.21-7.32,3.18-1.08,5.98-3.3,8.94-5.03.1-.06.01-.43.01-.94-2.03.91-3.88,1.74-5.73,2.56-.11-.19-.22-.39-.32-.58,2.47-1.52,4.94-3.04,7.4-4.56-.09-.16-.19-.33-.28-.49-2.02.97-4.05,1.95-6.07,2.92-.09-.18-.18-.36-.27-.53,2.3-1.52,4.6-3.04,6.9-4.56l-.44-.78c-2.25,1.02-4.5,2.05-6.76,3.07-.1-.17-.19-.34-.29-.51,1.98-1.31,3.96-2.62,5.94-3.92-.16-.26-.32-.52-.48-.78-5.82,2.93-11.63,5.86-17.45,8.78-.14-.28-.28-.55-.43-.83,5.8-3.09,11.6-6.19,17.4-9.28-.21-.42-.42-.83-.64-1.25-6.62,3.15-13.25,6.3-19.87,9.45-.12-.22-.24-.43-.36-.65.79-.51,1.55-1.1,2.39-1.51,5.07-2.49,10.18-4.88,15.23-7.43.98-.49,1.86-1.37,2.5-2.28,1.45-2.05,2.89-3.29,5.83-3.22,11.12.27,22.26.1,33.39.13,1.31,0,2.63.19,3.94.29l-.02.63h-27.57c-.04.24-.08.47-.12.71,1.07.32,2.14.87,3.22.91,5.9.23,11.8.48,17.7.46,18.38-.08,36.76-.19,55.13-.48,7.98-.13,15.76-1.3,22.61-6.02,1.36-.94,1.94-1.74,1.93-3.35-.07-7.67-.1-15.34,0-23.01.15-12-1.52-23.53-8.21-33.86-.45-.7-.67-1.56-1.21-2.87.83.42,1.14.47,1.23.63,3.25,5.9,7.16,11.63,7.78,18.5.85,9.29,1.11,18.63,1.59,27.96.08,1.64.01,3.29.01,4.94.23,0,.46.02.69.03.37-2.8.87-5.6,1.09-8.41.75-9.91-.72-19.65-2.36-29.39-.82-4.85-2.39-9.36-5.8-12.95-3.42-3.59-6.97-7.09-10.71-10.35-3.79-3.31-8.19-5.91-13.21-6.56-9.84-1.27-19.71-2.61-29.61-2.97-9.06-.33-18.18.47-27.25.98-10.03.57-16.94,5.92-21.48,14.64-.13.25-.02.63-.02,1.22,5.88,0,11.68,0,17.48,0s11.34,0,17.02,0c-.99.66-1.98.75-2.98.77-10.2.15-20.4.28-30.6.46-.9.02-1.8.34-2.7.51.05.37.09.73.14,1.1,2.33.13,4.67.25,7,.38,0,.32,0,.65-.01.97-2.03,0-4.07.08-6.1-.02-2.4-.12-3.04,1.09-2.88,3.3,2.23.14,4.33.28,6.42.41,0,.24-.01.49-.02.73-1.48.07-2.97.19-4.45.22-2.77.06-2.77.04-2.73,2.59h16.98l.02.81c-.78.05-1.56.15-2.34.15-4.47.01-8.94,0-13.41,0-1.15,0-2.47.05-2.22,1.58.09.54,1.38,1.15,2.18,1.25,2.67.31,5.36.41,8.04.58-.02.22-.04.45-.06.67-2.85,0-5.71-.1-8.55.07-.68.04-1.31.96-1.96,1.48.66.43,1.28,1.15,1.98,1.24,2.42.3,4.86.38,7.29.55-.01.23-.03.47-.04.7-2.26,0-4.51-.04-6.77.02-1.09.03-2.61-.44-2.64,1.43-.04,1.85,1.48,1.54,2.58,1.55,4.18.05,8.35.02,12.53.02,0,.23.02.47.03.7-.97.1-1.95.28-2.92.3-3.46.07-6.92.02-10.37.18-.6.03-1.16.87-1.73,1.33.57.44,1.11,1.21,1.73,1.27,1.68.18,3.4.06,5.1.06,0,.29,0,.57,0,.86-1.56.12-3.11.3-4.67.34-1.28.03-2.09.33-2.08,1.84,0,1.43.5,2.25,2,2.3,1.68.06,3.37.11,5.05.21,1.13.07,2.25.2,3.38.31-.01.21-.02.41-.04.62-2.51,0-5.02-.1-7.52.05-.87.05-1.71.74-2.56,1.14.81.49,1.58,1.27,2.45,1.4,2.3.34,4.64.4,6.97.57-.02.23-.04.45-.06.68-2.18,0-4.35.01-6.53,0-1.32,0-2.57-.08-2.52,1.88.04,1.83,1.13,1.96,2.53,1.95,4.07-.03,8.15-.01,12.22-.01-.62.5-1.26.67-1.9.71-3.28.18-6.57.33-9.85.49-.42.02-.94-.13-1.24.07-.61.39-1.1.96-1.64,1.45.55.46,1.09,1.3,1.67,1.32,2.89.14,5.8.06,8.7.06,0,.3,0,.61.01.91-2.64.09-5.28.2-7.92.28-2.92.09-3.22.46-2.73,3.98h16.44Zm467.66,21.53c-.06-.4-.12-.81-.19-1.21h-24.61c0-.36,0-.72,0-1.08h24.95c0-.32,0-.64,0-.96h-14.11c0-.29,0-.58,0-.86,1.65,0,3.31.02,4.96,0,2.95-.04,5.91-.04,8.85-.22.52-.03,1-.85,1.5-1.3-.56-.36-1.07-.91-1.68-1.03-.71-.14-1.5.14-2.26.15-2.74.02-5.49,0-8.23,0,0-.14,0-.29,0-.43,3.84-.4,7.68-.8,11.52-1.19-.04-.33-.08-.66-.12-.99h-22.66c2.02-.55,4.06-.82,6.11-.92,4.88-.23,9.77-.32,14.65-.6.74-.04,1.91-.64,2.08-1.22.55-1.78-.72-2.06-2.18-2.05-5.59.03-11.18.01-16.76.01,1.06-.45,2.13-.66,3.21-.7,4.55-.2,9.1-.3,13.65-.56.69-.04,1.34-.78,2.01-1.2-.65-.35-1.29-.97-1.97-1.01-2.15-.13-4.31-.05-6.47-.05,1.91-.74,3.87-1.11,5.84-1.14,2.11-.03,2.45-.92,2.29-2.85-.39-4.6-.72-9.23-.71-13.84,0-7.12.51-14.23.42-21.35-.11-8.34-3.89-15.37-8.6-22.02-4.54-6.4-10.86-9.52-18.45-10.02-8.58-.57-17.18-1.09-25.77-1.03-7.82.06-15.62,1.13-23.44,1.4-16.51.57-37.17,18.3-38.33,34.82-.86,12.29-2.74,24.44-.07,36.68.15.71.31,1.62.8,2.02,7.02,5.82,14,11.82,23.36,13.48,5.21.92,10.52,1.68,15.79,1.75,18.04.23,36.09.12,54.14.13,6.07,0,12.13.02,18.2-.03.78,0,1.55-.38,2.32-.58Zm-161.52-53.66l.32-.79c-16.66-13.65-33.32-27.29-50.02-40.97-1.81,2.35-.07,3.14,1.01,4.03,12.96,10.66,25.94,21.29,38.91,31.94.68.56,1.25,1.27,1.86,1.92-.18.17-.36.35-.53.52-.78-.59-1.58-1.16-2.34-1.78-12.52-10.26-25.07-20.5-37.54-30.82-1.84-1.53-3.3-2.76-5.41-.41-.58.65-1.83.86-2.8.97-3.01.34-6.04.76-9.06.74-9.1-.05-18.21-.16-27.31-.49-6.48-.24-12.95-.77-19.41-1.41-3.47-.34-4.97-2.06-4.93-5.56.04-3.1.48-6.2.92-9.28.29-2.03,1.68-3.3,3.69-3.67,1.48-.28,3-.47,4.51-.48,6.58-.07,13.16-.02,19.73-.13.83-.01,1.64-.7,2.46-1.07-.61-.58-1.16-1.24-1.83-1.74-1.73-1.29-3.52-2.51-5.28-3.77-.46-.33-.88-.99-1.34-1.01-3.77-.18-7.73-1.04-11.29-.22-12.55,2.9-24.97,6.38-37.43,9.65-.93.24-1.83.56-3.29,1.01,2.69,1.85,4.86,3.35,7.04,4.85-.48.29-.81.27-1.07.13-1.99-1.1-3.98-2.21-5.94-3.36-2.45-1.44-4.59-1.26-7.16.75,4.05,2.54,8.05,5.05,12.04,7.56-.12.19-.24.39-.35.58-4.01-2.28-8.01-4.58-12.04-6.82-.86-.48-1.93-1.2-2.75-1.04-3.42.67-6.78,1.63-10.16,2.49-.03.23-.06.46-.09.69,7.99,5.06,15.98,10.13,23.97,15.19-1.05.04-1.86-.33-2.63-.79-7.22-4.35-14.41-8.76-21.67-13.04-1.07-.63-2.62-1.2-3.73-.92-10.06,2.48-20.07,5.15-30.09,7.79-.62.16-1.36.46-1.7.94-1.18,1.64-.13,7.7,1.47,9.08,3.93,3.4,4.67,6.32,2.86,11.25-.29.78-.74,1.6-.71,2.39.16,4.45.47,8.9.68,13.34.08,1.71.9,2.35,2.59,2.28,2.68-.12,5.44-.51,8.05-.07,8.78,1.48,17.55,1.59,26.42,1.02,13.11-.85,26.25-1.37,39.38-1.92,5.47-.23,10.96-.11,16.44-.23,17.03-.39,34.05-1.04,51.08-1.16,10.36-.07,20.73.64,31.09,1.01,6.91.25,13.81.54,20.72.8.88.03,1.75,0,2.63,0Zm207.43,5.9c-1.03-1.51-2.46-2.89-2.97-4.54-.92-3-1.26-6.18-1.91-9.27-.77-3.69-1.62-7.37-2.43-11.05-.7-3.2-1.58-6.38-2.03-9.61-2.2-15.59-4.25-31.2-6.43-46.79-.44-3.14-.95-3.33-4-2.35-4.98,1.6-9.9,3.37-14.94,4.73-6.7,1.8-12.83,4.73-18.34,8.85-8.3,6.21-15.27,13.5-18.58,23.69-.67,2.07-.31,2.81,1.9,3.14,7.76,1.16,13.71,5.15,18.18,11.63,4.84,7.02,8.23,14.49,8.54,23.14.05,1.43.59,2.05,2.09,2.22,3.18.36,6.38.72,9.48,1.48,7.85,1.91,15.71,3.8,23.43,6.17,4.11,1.26,4.77,1.56,8.01-1.43Zm-181.66-43.08l.2-.51c-11.26-7.04-22.51-14.07-33.77-21.11.14-.25.28-.5.41-.75.57.24,1.19.4,1.7.72,9.77,6.17,19.62,12.2,29.23,18.61,4.13,2.75,8.3,4.95,13.14,6.15,2.49.62,3.86.38,4.97-2.02,2.24-4.83,6.1-8.18,11.05-9.84,5.49-1.84,11.12-3.38,16.8-4.47,6-1.15,12.06-1.37,17.64,2.18.84.53,2.43.04,3.63-.21,1.52-.32,2.97-1.19,4.48-1.25,4.23-.18,8.48-.06,13.02-.06.45-4.49-.24-9.09-1.23-13.71-.36-1.68-.98-2.18-2.7-2.04-5.88.46-11.77,1.06-17.66,1.06-17.37,0-34.74-.07-52.1-.5-18.03-.44-36.05-1.18-54.06-2.11-5.27-.27-10.86-.19-15.55-4.09-2.67,3.91-6.62,5.37-11.06,5.74-3.1.26-6.22.27-9.32.52-3.79.31-7.57.75-11.35,1.13-.02.33-.03.65-.05.98,30.85,8.53,61.71,17.06,92.56,25.6Zm13.28,4.95c-1.14-.36-2-.67-2.88-.91-34.48-9.55-68.96-19.08-103.44-28.65-1.86-.52-3.27-.67-4.51,1.28-.61.96-1.97,1.55-3.11,2.04-1.24.53-2.29,1.21-1.54,2.54.38.67,1.65,1.17,2.52,1.17,4.46,0,8.92-.32,13.38-.28,8.13.07,9.9,1.88,10.4,9.88.06.92.65,2.06,1.36,2.65,17.06,14.13,34.16,28.21,51.27,42.28.43.35,1.01.63,1.55.7,7.44.9,14.89,1.71,22.32,2.66,2.34.3,2.89-.55,3.18-2.81,1.41-10.68,2.6-21.46,8.76-30.81.27-.4.38-.91.72-1.73Zm-328.21-5.42c-.79-4.95-3.67-10.01-7.2-13.95-6.6-7.36-14.43-12.94-23.57-16.56-6.32-2.5-12.81-4.62-19.32-6.59-3.11-.94-3.77-.35-4.13,2.81-1.03,8.86-1.69,17.77-2.94,26.6-.83,5.88-1.98,11.79-3.8,17.43-1.2,3.72-3.45,6.99-3.53,11.2-.06,3.1-1.27,6.17-1.87,9.27-.53,2.78-1,5.59-1.33,8.4-.12,1-.14,2.4.43,3.01,1,1.07,2.35,1.64,4.02.5,1.35-.92,3.05-1.5,4.68-1.83,6.26-1.28,12.54-2.42,18.83-3.55,1.51-.27,2.99-.18,3.14-2.4.57-8.24,3.97-15.38,8.63-22.07,4.67-6.71,10.95-10.59,19.03-11.55,2.91-.35,5.84-.47,8.94-.71Zm150.31,90.08c.01.36.02.71.03,1.07.94.08,1.88.22,2.82.23,3.88.07,7.75.06,11.63.15,14.82.35,29.65.82,44.47,1.06,8.59.14,17.2.06,25.79-.17,10.18-.27,20.36-.75,30.54-1.27,3.64-.19,7.16-1.01,10.21-3.27,2.26-1.67,3.53-3.75,3.5-6.62-.11-8.43-3.43-14.83-11.06-19.02-9.06-4.98-18.69-7.7-28.96-7.99-15.92-.45-31.85-.73-47.78-.97-5.56-.08-11.12.26-16.68.23-6.32-.04-12.64-.24-18.96-.44-6.4-.21-12.79-.52-19.18-.77-.6-.02-1.2.11-2.1.2.47.65.66,1.02.95,1.3,4.57,4.52,7.59,10.06,10.33,15.78,1.18,2.46,1.12,5.9,5.6,6.16-1.4.59-2.07.87-3.11,1.31,1.16.52,1.85.83,2.72,1.22-.6.48-.99.78-1.6,1.28,1.67.19,2.99.33,4.58.51,0-1.36.01-2.59,0-3.82-.06-5.22-.22-10.44-.15-15.66.04-3.09.91-3.75,4.05-3.79.59,0,1.18.08,1.77.08,14.83-.11,29.66-.32,44.49-.29,5.79.01,11.59.49,17.37.9,2.17.15,3.6,1.46,3.76,3.74.25,3.44.28,6.89.6,10.32.57,5.98-.16,11.56-4.05,16.71,1.62-1,3.23-2,4.85-3,.15.17.31.33.46.5-1.04.9-1.94,2.27-3.13,2.62-3.43,1-6.98,2.26-10.49,2.24-19.56-.08-39.11-.52-58.67-.81-1.54-.02-3.07.19-4.61.29Zm-43.75-119.35c-.41-3.17.95-4.14,3-4.32,2.77-.24,5.54-.35,8.31-.5,1.77-.09,2.97.62,3.85,2.27.41.77,1.61,1.61,2.42,1.59,11.28-.37,22.56-.86,33.83-1.4,2.1-.1,2.8-1.29,1.83-3.07-1.96-3.59-4.31-6.87-8.33-8.46-8.01-3.18-16.21-5.02-24.93-3.99-3.84.45-7.73.55-11.6.66-7.49.21-14.98.19-22.47.49-15.65.61-31.3,1.26-46.95,2.11-7.14.39-14.26,1.23-21.37,1.99-1.18.13-2.37.79-3.41,1.44-.41.26-.69,1.25-.52,1.74.15.45.96.86,1.53.93.81.11,1.67-.16,2.51-.17,2.83-.03,5.66-.01,8.49-.01,0,.17,0,.34,0,.51-3.51.32-7.02.64-10.53.97.01.32.02.64.04.96h9.46c.01.25.02.49.03.74-2.24.29-4.47.58-6.71.87.03.28.07.55.1.83h9.66c.01.2.03.4.04.61-2.43.31-4.86.62-7.28.92,6.27.05,12.59,2.02,18.65-.79.61-.28,1.29-.4,1.92-.62,6.19-2.18,12.15-2.22,17.93,1.44,1.99,1.26,4.22,1.99,6.4-.2.65-.65,2.03-.72,3.09-.8,1.76-.13,3.54,0,5.31-.06,1.99-.08,3.59.45,4.84,2.14.43.59,1.36,1.13,2.08,1.14,6.13.09,12.26.05,18.77.05Zm268.41.12c0-.07,0-.13,0-.2,4.2-.25,8.42-.43,12.61-.79,2.66-.23,5.69-.07,7.85-1.31,3-1.72,5.39-4.53,7.94-6.98,1.21-1.16.64-2.24-.8-2.62-1.61-.43-3.3-.78-4.96-.82-9.52-.25-19.05-.45-28.57-.55-19.47-.21-38.95-.34-58.42-.52-1.85-.02-3.7-.16-5.55-.28-11.52-.74-23.02-1.99-34.58-.73-4.66.5-8.97,1.5-11.59,6.01-1.99,3.42-1.86,4.28,2.02,4.69,10.38,1.07,20.79,1.88,31.21,2.66.8.06,1.74-.9,2.53-1.5,1.04-.78,1.93-2.26,3.01-2.4,2.96-.37,6.01-.36,9-.12.86.07,2.22,1.36,2.31,2.19.24,2.37,1.68,2.31,3.36,2.34,10.7.2,21.41.4,32.11.7,2.12.06,3.88.02,5.31-1.95.65-.9,2.09-1.56,3.25-1.72,2.73-.38,5.52-.45,8.28-.56,1.74-.07,2.96.74,3.17,2.56.18,1.52,1.05,1.94,2.42,1.92,2.69-.03,5.39-.01,8.08-.01Zm-384.85,120.4h-22.97c0,.27,0,.54-.01.81h15.63c0,.33,0,.67.01,1h-16.05c.98,1.46,1.45,2.43,2.16,3.18,2.53,2.65,5.62,4.37,9.28,4.67,4.36.36,8.75.69,13.12.6,20.72-.42,41.47.67,62.15-1.12,3.49-.3,7.28-.37,10.3-1.84,4.24-2.06,7.9-5.34,11.79-8.11.12-.09.07-.43.12-.82-1.13.34-2.11.63-3.1.93-.06-.17-.11-.34-.17-.52,2.11-1.41,4.22-2.83,6.33-4.24-.17-.26-.33-.52-.5-.78-.44.14-.94.18-1.31.43-6.9,4.6-14.78,5.48-22.73,5.6-18.63.3-37.25.35-55.88.55-.82,0-1.66.43-2.45.77-2.72,1.18-5.42.67-8.12.54l-.1-.75c.64-.23,1.28-.46,2.48-.88Zm506.24-37.69c-.17-.2-.33-.41-.5-.61,2.25-1.95,4.49-3.89,6.74-5.84-.18-.24-.36-.49-.54-.73-.83.41-1.7.75-2.48,1.24-9.71,6.08-19.39,12.21-29.11,18.27-1.09.68-2.36,1.07-3.55,1.59,5.34-3.88,10.95-7.12,16.42-10.58,5.51-3.49,10.88-7.19,16.31-10.8-3.79,1.48-7.34,3.35-10.77,5.42-10.96,6.61-21.89,13.29-32.81,19.96-1.1.67-2.45,1.33-1.44,3.31,1.31-.68,2.53-1.31,3.69-1.92,1.39,1.39.75,2.33-.36,3.33-1.26,1.13-2.4,2.39-3.6,3.59.18.19.37.38.55.57,1.76-1.14,3.52-2.28,5.29-3.42.28.32.55.65.83.97-1.31.95-2.61,1.9-3.92,2.85.13.21.26.43.39.64,1.59-.6,3.18-1.2,4.77-1.79.05.1.1.21.15.31-2.4,2.11-4.81,4.23-7.21,6.34.14.17.28.34.42.51,7-2.53,11.92-8.44,18.4-11.82l.38.51c-2.95,2.29-5.89,4.59-8.84,6.88.14.2.28.41.43.61,3.17-1.87,6.51-3.51,9.49-5.65,12.41-8.93,25.22-17.16,39.14-23.59.71-.33,1.23-1.04,1.84-1.57-.14-.23-.28-.46-.42-.68-2.09.88-4.18,1.77-6.27,2.65-.09-.2-.19-.4-.28-.6,2.16-1.3,4.31-2.61,6.46-3.91-.13-.2-.26-.41-.4-.61-3.42,1.94-6.85,3.88-10.27,5.82-.15-.25-.3-.5-.44-.75,2.18-1.42,4.37-2.84,6.55-4.26-.17-.31-.34-.62-.52-.94-1.74.92-3.51,1.79-5.22,2.78-1.77,1.02-3.47,2.16-5.2,3.25-.12-.19-.25-.38-.37-.56,2.14-1.66,4.29-3.31,6.54-5.05-2.45-1.55-2.5-1.56-4.34-.18-1.98,1.48-3.95,2.98-5.93,4.47Zm-159.4,25.4c.08.78.08,1.51.22,2.21,1.56,7.95,11.38,17.44,19.48,18.15,9.72.85,19.48,1.35,29.23,1.66,7.49.24,15-.06,22.5-.08,8.51-.02,17.02.07,25.53-.03,4.51-.05,8.96-.66,12.58-3.73,1.14-.96,2.03-2.22,3.48-3.86-4.73,0-8.58.01-12.43,0-16.01-.07-32.01-.16-48.02-.21-3.04,0-6.2-.52-8.9,1.53-7.29-.56-14.58-1.07-21.87-1.73-1.43-.13-2.81-.8-4.63-1.34.8-.64,1.13-.9,1.09-.87-5.99-3.83-12.04-7.71-18.28-11.7Zm156.55,37.21c-1.86-5.57-8.04-5.5-10.4-9.69,3.19,1.78,6.38,3.56,9.72,5.42.89-6.64,1.89-8-1.67-8.54-1.05,1.7-2.42,3.2-4.66,2.05-2.85-1.46-1.83-3.92-1.13-6.3-.75-.37-1.41-.72-2.09-1.02-6.01-2.64-12.03-5.24-18.03-7.92-3.2-1.43-3.74-1.36-6.85,1.65,5.99,2.93,11.86,5.8,17.74,8.67-.11.22-.22.45-.33.67-1.15-.44-2.32-.81-3.43-1.33-4.65-2.19-9.28-4.41-13.9-6.66-1.54-.75-2.82-.81-3.9.99,6.13,3.12,12.12,6.17,18.11,9.22l-.39.78c-6.51-3.1-13.02-6.21-19.52-9.31l-.52,1.04c3.42,1.72,6.85,3.43,10.27,5.15-.1.22-.2.44-.31.66-3.71-1.55-7.43-3.1-11.14-4.66-.1.23-.21.47-.31.7,2.24,1.41,4.48,2.81,6.73,4.22-.12.21-.25.42-.37.63-2.48-1.24-4.95-2.49-7.43-3.73-.1.19-.2.37-.31.56,2.21,1.39,4.42,2.77,7.11,4.46-4.55,1.56-7.37-2.05-11.04-1.91,1.97,1.04,3.94,2.08,5.89,3.11-.37.61-.9,1.3-.82,1.37.58.56,1.22,1.25,1.95,1.41,1.47.31,3.06.1,4.5.48,7.56,2.03,15.1,4.15,22.63,6.3,5.09,1.45,8.63,4.76,11.02,9.4.48.94,1,1.86,1.5,2.79.21-.07.41-.13.62-.2-.54-3.62,2.88-7.94-2.28-10.95.76.12,1.53.24,3.05.48Zm-274.21-52.1c-.59-.24-.74-.35-.9-.36-4.76-.26-9.6.96-14.29-.83-.4-.15-1.23.53-1.74.97-1.64,1.39-3.26,2.81-4.8,4.31-.64.63-1.54,1.54-1.49,2.26.38,5.02.96,10.02,1.52,15.02.16,1.39.99,1.91,2.44,1.9,4.04-.04,8.09.09,12.13.11,2.01.01,4.06.16,6.03-.14,5.31-.79,7.77-7.73,4.75-12.06-2.27-3.25-6.45-6.11-3.65-11.17Zm265.99-14.25c-.16-.22-.26-.51-.46-.59-9.38-3.99-19.19-6.22-29.31-7.21-1.5-.15-1.81.83-1.88,2.07-.28,5.47-.72,10.93-.81,16.4-.05,2.85.5,5.72.81,8.84,10.9-6.72,21.25-13.1,31.65-19.51Zm-312.09,14.52c-.57,3.99-.98,7.81-1.75,11.56-.22,1.07-1.35,2.11-2.3,2.84-1.39,1.07-3.1,1.73-4.5,2.79-1.18.89-2.36,1.96-3.1,3.22-1.3,2.21-.63,3.45,1.93,3.48,6.82.09,13.65-.02,20.47-.04,1.56,0,2.25-.83,2.45-2.28.33-2.33.94-4.65,1.02-6.98.16-4.82.05-9.64.05-14.59h-14.27Zm50.67-78.61c-.6-.16-.92-.33-1.23-.32-5.39.16-10.78.3-16.16.55-.64.03-1.38.57-1.85,1.08-4.16,4.61-7.81,4.21-10.87-1.16-.24-.42-1.51-.81-1.6-.69-1.43,1.9-2.74,3.88-4.18,5.99.18.11-.07-.11-.36-.19-1.21-.34-2.42-.64-3.64-.95-.16,1.07-.44,2.15-.44,3.22,0,.82.55,1.63.55,2.44,0,.86-.39,1.71-.7,2.95.51,0,1.49.04,2.47,0,2.56-.13,5.13-.46,7.68-.38,1.02.04,1.98,1.38,3,1.42,6.23.28,12.46.4,18.69.42.6,0,1.65-.93,1.73-1.53.24-1.74.08-3.54.08-5.52.89.71,1.85,1.47,3.35,2.66,1.17-3.38,2.3-6.63,3.46-9.99Zm51.6,176.7c.32.14.63.28.95.42,1.98-3.88,4.77-7.55,5.78-11.67,2.01-8.19,6.44-14.47,12.66-19.82,2.75-2.36,5.67-4.62,7.96-7.38,5.69-6.86,11.25-13.86,16.46-21.09,1.64-2.27,2.39-5.39,2.87-8.24.77-4.55,1.07-9.19,1.41-13.81.63-8.39,1.18-16.79,1.71-25.18.18-2.77.06-5.57.31-8.33.69-7.63,1.46-15.25,2.28-22.86.37-3.42.95-6.81,1.43-10.21-1.33,2.25-2.6,4.55-3.21,7.01-.8,3.26-1.29,6.62-1.53,9.97-1.28,18.23-2.46,36.46-3.64,54.69-.55,8.45-4.31,15.65-8.58,22.68-.25.41-.65.79-1.06,1.04-5.46,3.33-8.25,9.41-14,12.77-3.69,2.15-6.26,6.78-8.47,10.78-3.16,5.72-5.52,11.88-8.25,17.84-.52,1.15-1.2,2.22-1.71,3.38-1.17,2.66-2.27,5.34-3.4,8.02Zm-346.55-101.76c-.23,4.7-.51,8.95-.59,13.21-.01.61.78,1.59,1.41,1.81,2.83.97,5.72,2.36,8.62,2.44,7.05.2,14.12-.21,21.19-.46,1.07-.04,2.9.78,2.94-1.27.04-1.66,1.01-3.59-1.88-4.57-9.64-3.26-19.16-6.88-28.73-10.35-.77-.28-1.59-.44-2.95-.81Zm585.5,31.21c2.37-3.58,3.21-33.01.79-35.37-.28,4.2-.56,8.4-.85,12.6-.26,0-.53-.02-.79-.02v-10.43c-.32,0-.65.01-.97.02v16.26c-.34,0-.67-.02-1.01-.03v-15.7c-.32,0-.63-.01-.95-.02-.36,7.47-.72,14.94-1.09,22.4-.2,0-.39-.02-.59-.03v-21.28l-.85-.07c-.39,2.97-.77,5.94-1.16,8.91-.24-.02-.47-.04-.71-.06v-7.56c-.22-.1-.43-.2-.65-.3-.66.73-1.55,1.37-1.91,2.22-.41.98-.35,2.15-.49,3.24-.2-.01-.4-.03-.6-.04-.15-.94-.3-1.87-.45-2.81-4.86.84-5.92,3.97-2.87,8.35.41-.68.81-1.34,1.21-2.01.21,0,.43-.01.64-.02.34,1.41.86,2.81.98,4.24.42,4.86.64,9.75,1.06,14.61.26,3.02,2.11,4.44,5.07,4.13.18-1.01.35-2.03.53-3.04.17,0,.34,0,.51-.01.27,1.18.53,2.35.8,3.53.28,0,.56,0,.84,0l1-6.04c.16,0,.33,0,.49,0,.24.55.48,1.1.83,1.92.18-3.49.34-6.7.5-9.9.22.01.44.02.66.03v12.27Zm-304.57,137.75c-1.61,7.11,4.49,7.46,8.39,9.67-.15.22-.29.44-.44.66-2.35-.84-4.71-1.68-7.06-2.52,3.24,5.13,8.8,4.22,13.58,5.39-4.62.78-8.97.11-13.33-1.77.48,1.02,1.1,1.83,1.92,2.25,4.18,2.09,8.6,2.83,13.25,2.07,1.9-.31,3.81-.51,5.71-.76.01.21.03.42.04.64-6.7,2.34-13.37,2.01-20.01-.86,0,.61-.07.83.01.92.22.24.47.51.76.63,7.08,2.9,14.27,2.91,21.48.56.65-.21,1.35-1.28,1.43-2.02.45-4.18.73-8.39,1.02-12.59.05-.77-.09-1.56-.16-2.6-9.03,3.38-17.78,3.12-26.62.35ZM162.68,202.32c.13-.29.26-.58.38-.87,5.64,2.61,11.29,5.22,16.93,7.82.09-.21.18-.42.26-.63-2.98-1.6-5.97-3.17-8.92-4.8-7.02-3.89-13.98-7.87-21.91-9.43.96.67,2.02,1.41,3.09,2.16-.04.1-.09.21-.13.31-1.09-.29-2.18-.58-3.31-.88.06.42.11.78.21,1.46-3.81-1.33-7.43-2.59-11.05-3.85-.09.26-.17.51-.26.77,3.73,1.42,7.45,2.84,11.18,4.27-.09.23-.17.45-.26.68-5.53-1.8-11.07-3.6-16.6-5.4l-.24.59c3.22,1.27,6.51,2.37,9.63,3.85,3.1,1.48,6.02,3.34,9.02,5.03-.08.16-.15.32-.23.48-6.2-1.92-12.39-3.83-18.59-5.75-.1.33-.2.65-.3.98,15.86,5.72,31.72,11.44,47.58,17.15.12-.28.25-.57.37-.85-2.67-1.35-5.35-2.7-8.02-4.04.09-.19.17-.38.26-.57,2.54.93,5.07,1.86,7.61,2.79.07-.2.14-.4.21-.59-3.42-1.54-6.84-3.08-10.26-4.62.1-.24.21-.48.31-.71,3.27,1.23,6.55,2.46,9.82,3.69.09-.22.18-.44.27-.66-5.69-2.78-11.38-5.57-17.07-8.35Zm177.92,5.9c-3.45-3.57-7-5.92-10.82-7.77-1.24-.6-2.99-.2-4.51-.16-5.64.16-11.28.34-16.92.56-1.04.04-2.06.31-3.1.47.04.26.08.51.12.77,4.68.27,9.4.26,14.02,1.19-.95.48-1.85.51-2.76.48-3.28-.12-6.57-.25-9.85-.39-2.35-.1-2.91,1.09-2.43,3.23,1.92,0,3.87-.43,5.51.1,2.45.79,4.69,2.25,7.44,1.69.02,0,.09.27.19.57-.84.26-1.68.52-2.51.78-.05.25-.09.51-.14.76,1.25.35,2.49.69,4.02,1.11-1.08.53-1.88.92-3.34,1.63,1.7.32,2.61.49,3.52.66-.64.6-1.37.73-1.99,1.06-.36.19-.65.66-.79,1.07-.06.18.24.62.48.77,1.18.7,6.75-.43,7.76-1.56,3.1-3.46,7.05-5.42,11.49-6.46,1.27-.3,2.6-.32,4.59-.55Zm198.92,51.12c.24.06.47.12.71.18.32-.81.76-1.59.94-2.43,1.31-6.08,2.73-12.14,3.77-18.27.68-4.03.78-8.17,1.12-12.26.01-.15-.16-.31-.39-.72-.13.96-.21,1.59-.29,2.22-.11,0-.22-.01-.33-.02v-9.04c-.14,0-.27-.02-.41-.03-.86,6.12-1.72,12.23-2.58,18.35-.21-3.4-.09-6.77.28-10.1,1.53-13.63,3.37-27.21,3.51-40.98.07-7.02,1.21-14.03,1.96-21.04.22-2.02.8-4.01,1.21-6.01-.27-.08-.54-.17-.81-.25-.6,1.77-1.51,3.49-1.73,5.31-1.27,10.35-3.21,20.72-3.33,31.09-.16,14.19-1.83,28.21-2.84,42.31-.43,6.1-2.2,11.67-6.27,16.46-2.5,2.94-4.6,6.23-6.85,9.39-.34.48-.51,1.07-.85,1.83,5.04-.55,5.43-5.35,8.37-7.7-.42,1.26-.85,2.52-1.3,3.86,3.29.1,4.18-2.32,5.69-4.59.18,1.11.29,1.78.4,2.44Zm-99.18-50.64c.33-2.47-.91-3.28-2.55-3.45-3.84-.41-7.7-.91-11.56-.95-9.01-.1-18.02.03-27.03.09-2.11.01-4.21.18-6.32.18-5.81,0-11.62.06-17.43-.09-3.2-.08-3.81.39-3.58,2.97,6.44.74,12.74,1.63,19.06,2.11,4.34.34,8.73.24,13.1.1,3.41-.11,6.81-.61,10.22-.89,2.24-.19,4.68-.92,6.71-.32,6.49,1.93,12.84.19,19.39.25Zm-89.54,19.95c.28-.18.55-.37.83-.55-2.03-4.57-3.99-9.18-6.16-13.68-.45-.94-1.69-1.49-3.03-2.61,0-1.85-.05-1.92-2.07-2.19-6.53-.86-15.35,4.53-17.27,10.69-.16.5.71,1.78,1.34,2,2.86,1,5.79,1.79,8.72,2.59,1.41.39,2.86.63,4.99,1.08-1.64-4.53-3.04-8.39-4.44-12.25l.83-.5c.57.76,1.3,1.44,1.68,2.29,1.34,3,2.5,6.07,3.84,9.07.35.78.98,1.8,1.67,1.99,2.98.83,6.04,1.4,9.06,2.07Zm-206.84.36c-1.92,4.95.36,9.06,1.53,13.28.09.34.93.67,1.41.67,2.6-.03,3.83-1.31,4-3.91.03-.39.31-.77.74-1.76.42,1.55.67,2.47,1.04,3.85,8.67-3.48,17.17-6.89,25.68-10.3-.07-.25-.13-.5-.2-.75-11.33-.69-22.78,2.11-34.2-1.08Zm560.84,8.92c.27.01.54.03.82.04.05.98.22,1.97.12,2.93-.45,4.06.7,5.68,5.01,6.59,1.29-5.29,2.86-10.52,2.28-15.78-3.48.37-6.63.91-9.78.98-5.96.13-11.93-.03-17.9,0-1,0-2,.3-3,.47-.03.4-.07.8-.1,1.2,7.09,3.06,14.19,6.12,21.51,9.28.43-2.35.74-4.02,1.05-5.69Zm-329.08-4.15c1.73-4.68,2.29-5.33,6.57-7.77.88-.5,1.78-.98,2.6-1.56,3.03-2.15,2.7-5.73-.54-7.46-1.22-.65-2.3-1.64-3.29-2.64-1.35-1.38-2.34-3.19-3.88-4.27-1.01-.71-2.72-.67-4.09-.56-1.58.12-1.82,1.43-1.76,2.83.21,5.38.3,10.77.57,16.15.12,2.4,1.17,4.34,3.82,5.29Zm171.86-27.56c-.14,0-.28-.01-.43-.02,0,6.65.13,13.3-.05,19.94-.11,4.34-.39,8.72-1.08,13-.91,5.64-2.35,11.18-3.43,16.8-.16.82.37,1.77.57,2.66.73-.64,1.71-1.14,2.14-1.94.72-1.33,1.1-2.84,1.62-4.28.22.07.43.14.65.21-.35,1.75-.71,3.49-1.06,5.26,2.2.85,3.88.17,4.69-1.55.98-2.08,1.6-4.38,2.08-6.65.61-2.87.61-5.88,1.44-8.67.84-2.82-.31-4.57-2.37-6.36,1.41,7.75-1.2,14.79-3.49,21.89,0-2.16.03-4.41.81-6.35,2.8-6.98,1.67-14.19,1.2-21.24-.51-7.6-2.15-15.13-3.29-22.69Zm-367.99-.96c0-5.87.05-11.38-.1-16.89-.01-.39-1.55-1.17-2.25-1.04-5.7,1.04-11.37,2.21-17.03,3.43-1.13.25-2.17.9-3.26,1.37,0,.25,0,.5,0,.76,7.56,4.13,15.11,8.26,22.64,12.37Zm245.31,160.91c1.9,1.29,3.24,2.2,4.58,3.11-.11.16-.22.32-.32.48-.78-.19-1.56-.38-2.35-.56-.17.19-.34.38-.52.57.53.56.97,1.46,1.6,1.63,1.78.48,3.63.74,5.46.94,6.52.72,12.95.19,19.25-1.64.79-.23,1.41-1.02,2.11-1.55-.16-.21-.32-.43-.49-.64-3.24,1.03-6.35,2.89-10,1.7,3.45-1.02,7.36-.91,9.87-4.3-7.68,3.48-15.58,3.2-23.58,1.81.55-.38,1.13-.59,1.72-.6.84,0,1.68.17,2.52.23,5.15.37,10.29.39,15.22-1.41.74-.27,1.74-1.17,1.76-1.79.02-1.05-.49-2.91-1.07-3.03-2.59-.53-5.29-.83-7.92-.71-2.63.11-5.22.89-7.85,1.22-2.62.33-5.25.47-8.5.75,1.59,2.26,1.56,3.6-1.49,3.8Zm161.8-220.57c-1.2-2.66-3.15-3.22-5.57-2.89-5.98.82-11.97,1.6-17.95,2.41-1.1.15-2.19.37-3.29.55-.06-.25-.11-.5-.17-.75,2.54-.69,5.05-1.7,7.64-2,5.59-.65,11.22-.93,16.83-1.4.8-.07,1.66-.25,2.33-.65,1.05-.62,1.96-1.47,3.01-2.29-1.47,0-3.13-.11-4.77.02-4.61.37-9.21.95-13.82,1.23-7.45.46-13.07,4.01-17.31,9.94-.54.76-.61,1.86-.89,2.8.92-.19,1.88-.26,2.74-.6,2.39-.96,4.65-2.38,7.12-3.01,7.87-2,15.7-4.39,24.11-3.38Zm124.6,30.58c.04.77-.01,1,.07,1.08,3.83,3.85,7.36,8.34,13.9,6.24.58-.19,1.37.28,2.06.44-.4.65-.67,1.67-1.23,1.86-1.71.58-3.6,1.33-5.31,1.12-2.55-.31-5-1.39-7.88-2.25,2.73,6.19,15.34,10.35,19.04,6.5-1.53-.18-2.92-.34-4.3-.5,0-.18.01-.36.02-.54,1.24-.19,2.48-.38,4.45-.68-1.02-1.7-1.79-2.97-2.55-4.24-.27-.5.03-1.5-.31-2.16-2.82-5.44-7.41-8.85-13.25-10.8,2.25,2.13,4.5,4.27,6.75,6.4-.15.18-.3.36-.45.53-2.73-2.17-5.46-4.33-8.19-6.5-.19.25-.38.51-.57.76,1.91,1.63,3.81,3.27,5.72,4.9-.16.21-.33.42-.49.63-2.12-1.51-4.25-3.02-6.37-4.53-.12.16-.23.32-.35.47,2.52,2.3,5.04,4.59,7.56,6.89-.18.2-.36.39-.54.59-2.47-1.97-4.93-3.95-7.76-6.22Zm-293.54,34.02c-.15-.25-.31-.51-.46-.76-1.03.18-2.18.14-3.07.6-1.91.98-3.75,1.32-5.96,1.08-2.84-.31-3.02.28-3.02,3.15,0,4.01-.16,8.02-.41,12.02-.17,2.62-.62,5.23-1,8.28,3.27-.21,6.14-.4,9.19-.6-.13-.97-.22-1.53-.28-2.09-.5-4.83-1.04-9.66-1.45-14.49-.16-1.91.61-3.2,2.64-4.01,1.46-.59,2.56-2.08,3.82-3.18Zm229.79-120.66h-14.09c.3.56.62.66.94.66,5.38.13,10.77.37,16.15.26,1.12-.02,2.22-1.35,3.33-2.08l-.4-.8c-1.06-.18-2.12-.48-3.19-.53-5.47-.22-10.94-.27-16.4-.58-7.13-.41-13.21,1.96-18.65,6.4-2.36,1.93-2.52,3.25-.22,5.26.74.65,1.67,1.26,2.6,1.47,3.11.69,6.26,1.28,9.42,1.71.96.13,2.01-.38,3-.65.05-.01,0-.86-.12-.88-1.11-.26-2.25-.43-3.38-.61-.15-.02-.36.02-.48.12-2.19,1.73-4.2.47-6.09-.51-2.03-1.05-2.31-3.09-.97-5.24,1.14,4.65,1.3,4.83,4.2,4.8-.67-1.36-1.35-2.73-2-4.04,4.67-5.5,20.23-8.57,26.38-4.77Zm-230.78,191.49l.05-1.29h-18.1c-.03-.35-.06-.7-.09-1.05.71-.27,1.43-.79,2.13-.78,2.01.04,4.02.38,6.03.44,3.75.1,7.5.05,11.25.14,2.74.06,5.47.27,8.2.3.64,0,1.29-.44,1.94-.68l-.25-.89c-1.07,0-2.15.04-3.22,0-3.61-.17-7.23-.23-10.81-.65-1.28-.15-3.33-1.01-3.53-1.89-.7-3.09-2.82-2.59-4.85-2.53-2.94.09-5.89.25-8.83.43-1.04.06-2.07.29-3.52.51,1.1,2.35,2.1,4.27,2.92,6.27.65,1.57,1.75,2.11,3.35,2.09,4.46-.06,8.92-.06,13.38-.13,1.31-.02,2.62-.18,3.93-.27Zm272.77-52.17c2,0,3.32.09,4.63-.02,4.96-.38,9.9-.93,14.26-3.61,4.16-2.56,5.03-6.45,2.31-10.85-6.89,4.71-13.77,9.4-21.2,14.48Zm-360.04-38.6c17.8,10.19,29.37,25.01,33.79,45.39.71-18.78-11.77-38.42-33.79-45.39Zm-26.83,29.47c3.13.16,6.2.41,9.28.42.68,0,1.59-.63,2-1.24,2.93-4.39-.36-11.17-5.6-11.45-1.94-.1-4.12.17-4.54,2.63-.53,3.03-.74,6.12-1.14,9.63Zm-.75-19.21c.92-1.72,1.94-3.26,2.58-4.95.49-1.3,1.16-3.55.58-4.06-2.12-1.87-.9-3.21-.58-5.34.69-4.58-.05-9.39-.35-14.09-.04-.59-.91-1.36-1.56-1.61-.54-.21-1.45.04-1.99.41-1.16.8-2.19,1.8-2.95,2.45,1.42,9.03,2.83,18.04,4.26,27.2Zm298.17-61.94c6.97-.05,11.44,1.07,13.77,3.79-6.29-2.47-12.16-4.01-18.11-.67h4.94c-.09.21-.18.41-.27.62.76.51,1.46,1.2,2.3,1.51,6.06,2.28,12.49,1.29,18.73,2.06.47.06.99-.22,1.75-.4-2.69-2.07-5.04-3.95-7.47-5.74-4.71-3.45-9.95-2.59-15.17-1.73-.12.02-.21.24-.46.55Zm-243.5,86.65c.35-.18.7-.37,1.05-.55-.22-1.32-.21-2.73-.7-3.95-3.5-8.89-9.91-15.58-16.94-21.72-6-5.24-12.68-9.18-20.84-10.06-1.07-.11-2.12-.56-3.12-.97-2.55-1.06-4.4-1.05-6.3-.2,21.27,4.69,39.15,14.43,46.85,37.46Zm-44.27-33.25c18.51,3.16,33.3,11.37,40.39,30.25.07-1.71-.02-3.25-.65-4.52-7.69-15.65-21.61-22.93-37.44-27.51-2.08-.6-4.41-.37-6.62-.52-.03.35-.05.69-.08,1.04h5.73c.02.2.05.39.07.59-.53.25-1.05.51-1.41.68Zm108.49,197.33c.17-.25.33-.51.5-.76-.89-.62-1.71-1.41-2.69-1.84-4.19-1.87-8.67-2.26-13.12-1.67-2.87.38-5.7,1.41-8.4,2.5-.7.28-.86,1.88-1.27,2.87.95.09,1.93.37,2.85.23,2.56-.36,5.08-1.25,7.63-1.28,3.76-.05,7.52.45,11.96.77-5.49-3.12-10.86-2.01-16.05-2.22,6.4-2.19,12.54-.94,18.6,1.39Zm8.53-112.09l-.1,1.16c4.82.02,9.64.05,14.45.06,4.94.01,9.89,0,14.35,0-.07,1.04-.13,1.93-.2,2.82.97-.29,2.51-.32,2.79-.93.5-1.1.46-2.59.2-3.82-.1-.44-1.51-.85-2.31-.83-5.21.12-10.43.31-15.64.58-4.52.24-9.03.63-13.54.95Zm110.81-105.84c-.08-.03-.16-.06-.24-.09-.67,4.13-1.56,8.24-1.97,12.4-1.08,10.87-1.93,21.76-2.93,32.63-.41,4.41-.96,8.8.82,13.36,1.46-19.63,2.89-38.97,4.33-58.31Zm-393.77,10.56c-4,.79-7.97,1.29-11.71,2.5-.96.31-1.35,2.81-1.66,4.38-.08.42,1.01,1.32,1.72,1.6,3.75,1.5,6.43-.95,9.16-2.8,2.03-1.38,2.58-3.57,2.49-5.68Zm278.98,133.87c.45-.51.89-1.01,1.33-1.51-.17-.25-.34-.5-.52-.75-1.55.91-3.09,1.82-4.76,2.81.53.38,1.04.74,1.62,1.15-.83.71-1.55,1.33-2.05,1.76.33,1.33.62,2.52.94,3.83.75.23,2.32.32,2.49.84.79,2.53,2.69,2.49,4.62,2.63,1.45-3.83-.43-9.26-3.67-10.76Zm123.5-164.36c.23.22.46.44.69.66,1.1-1.11,2.28-2.14,3.27-3.34,3.55-4.29,7.38-8.16,13.13-9.25,2.72-.51,5.48-.9,8.24-1.18,4.49-.45,8.99-.77,13.49-1.15-.74-.7-1.56-1.1-2.41-1.14-9.95-.47-19.49,1.3-28.33,5.91-3.87,2.02-6.1,5.73-8.08,9.47Zm-132.53,99.59c-3.46-2.19-26.23-2.6-28.78-.33,9.58.38,19.16.46,28.78.33Zm-271.89-25.83c-.1.24-.2.49-.29.73,2.38.82,4.7,1.83,7.14,2.39,2.48.58,5.05.91,7.6.99,2.68.09,5.45.08,8.04-.5,2.38-.53,4.58-1.87,6.58-2.74-3.76,0-7.7,0-11.64,0-.33,0-.79-.07-.99.11-2.61,2.46-5.71,1.33-8.57.98-2.66-.33-5.24-1.29-7.86-1.97Zm245.47,27.54c1.27,1.44,26.36,1.95,28.85.77-1.07-1.2-24.04-1.86-28.85-.77Zm-10.67-43.42c-.06.23-.13.45-.19.68,2.47,2.48,3.76,6.39,8.14,6.62,2.51-4.79,1.24-7.07-3.98-7.29-1.32-.06-2.64,0-3.96,0Zm38.98,47.06c-3.08-1.77-31.51-1.65-34.51,0h34.51Zm167.89-6.99c0,2.36,0,4.31,0,6.26,0,1.07-.31,2.45,1.38,2.33,1.36-.09,3.28.41,3.47-1.89.13-1.67.22-3.36.14-5.03-.02-.5-.63-1.3-1.07-1.38-1.41-.25-2.87-.23-3.92-.29Zm-145.5-27.76c.25-.08.5-.16.75-.24-.16-3.47-.24-6.95-.54-10.41-.11-1.22-2.55-1.68-3.21-.46-.8,1.49-1.64,3.62-1.14,5,.82,2.24,2.7,4.1,4.14,6.12Zm-133.85-24.5c.17.25.33.49.5.74h14.66c.02-.28.03-.56.05-.85-4.27-1.7-8.74-2.36-13.34-1.72-.69.1-1.25,1.2-1.87,1.83Zm252.42,61.06c.92-.64,1.67-1.05,2.29-1.6,1.18-1.07,2.21-2.32,3.46-3.3,1.67-1.32,2.03-4.85.4-6.83-.11,1.52-.2,2.88-.34,4.73-.64-.91-.97-1.37-1.31-1.85-.36.33-.66.61-1.41,1.3v-5.78c-.06.02-.12.04-.18.05-.93,4.22-1.85,8.44-2.91,13.29Zm-106.37,114.92c-7.7,2.83-15.61,2.82-23.59,1.87,4.51,3.76,20.9,2.51,23.59-1.87Zm105.96-131.2c-.83,5.23-1.64,10.36-2.45,15.44,3.85-2,5.78-12.82,2.45-15.44Zm-142.05-120.38c3.8,3.64,12.54,3.53,14.47,0h-14.47Zm-3.05,136.86c-.01-.13-.03-.25-.04-.38h-29.51c-.19.32-.38.64-.56.97.53.25,1.06.73,1.58.71,9.51-.4,19.02-.85,28.53-1.3Zm270.06-69.3c5.14,1.41,9.95,2.73,14.82,4.07-.18-3.28-11.07-6.36-14.82-4.07Zm-488.57,67.58c5.13.85,6.46-.36,5.34-5.08-.43,1-.75,1.75-1.31,3.05-.23-1.58-.37-2.58-.59-4.06-.61.85-.95,1.31-1.31,1.8-.56-.72-1.03-1.33-1.5-1.93-.21.05-.43.11-.64.16v6.06Zm269.15,113.49c.33-.05.65-.1.98-.15,0-.76.03-1.52,0-2.28-.14-3.69-.27-7.37-.48-11.06-.04-.64-.42-1.26-.64-1.89-.39.62-1.13,1.26-1.11,1.87.09,3.94.33,7.88.59,11.81.04.58.44,1.13.67,1.69Zm-44.39-237.42c-3.16.05-5.46-2.68-8.49-.88.37,2.07,1.55,3.33,3.44,3.66,1.96.35,3.6-.35,5.06-2.78Zm286.19,96.33c-1.09-.13-2.34-.65-3.25-.3-2.34.9-5.15-.02-7.23,2.25-.7.76-2.71.32-4.13.43,4.89.08,9.93,1.45,14.6-2.38Zm-562.74-53.11c.04.22.07.44.11.67l-6.41,1.56c2.83.29,5.58.35,8.25-.08.77-.12,1.41-1.6,1.88-2.58.11-.24-.75-1.37-1.06-1.32-2.63.39-5.24.95-7.86,1.46.04.23.08.45.12.68,1.66-.13,3.31-.26,4.97-.39Zm417.89-17.21c-.16-.15-.31-.29-.47-.44-4.42,2.7-7.45,6.4-8.07,11.85,2.85-3.8,5.69-7.61,8.54-11.41Zm-94.34,211.89c1.46-6.07,2.81-11.72,4.2-17.52-2.42.61-5.16,12.37-4.2,17.52Zm114.79-223.3c-5.96-1.26-10.85.72-11.53,3.79,3.76-1.24,7.64-2.52,11.53-3.79Zm-29.1,110.15c3.75-.73,5.11-11.12,3.55-16.5-.97,5.53.4,11.56-3.55,16.5Zm-142.21-22.15c0,.18,0,.36,0,.55h24.13c0-.18,0-.36,0-.55h-24.13Zm204.99,15.27c-.4,0-.79,0-1.19.01.19,1.93.31,3.87.7,5.75.03.14,2.8.09,2.88-.21.42-1.77.41-3.63.55-5.46-.23,0-.45,0-.68,0-.54,1.29-1.08,2.59-1.63,3.88-.21-.06-.42-.12-.63-.17v-3.8Zm-65.87-87.61l.61.34c1.79-3.18,3.57-6.37,5.49-9.79-5.31,1.41-5.22,5.72-6.1,9.44Zm-146.72,229.15h11.17c0-.38,0-.75,0-1.13-3.72-.23-7.43-.45-11.17-.68v1.81Zm43.88-112.15c-.02.39-.04.78-.06,1.18,3.18.2,6.37.4,9.64.61.07-2.03-.64-2.6-2.14-2.38-.95.14-1.92.14-2.88.22-1.52.12-3.04.25-4.57.38Zm109.66-122.05c2.79-2.49,5.07-4.51,7.34-6.54-4.27.09-7.2,2.63-7.34,6.54Zm47.81,95.52s.04,0,.06,0c.04.58-.04,1.21.14,1.74.21.61.64,1.15.98,1.72.47-.54,1.28-1.06,1.33-1.64.11-1.29-.07-2.63-.33-3.91-.07-.36-.84-.84-1.26-.8-.34.03-.76.7-.89,1.15-.15.54-.04,1.16-.04,1.74Zm-197.32-121.65c-5.53-1.08-6.42-.57-6.21,3.18,3.32,1.61,3.63-2.37,6.21-3.18Zm-172.4,6.08c-.33,2.96,4.38,7.77,6.97,7.48-2.3-2.47-4.43-4.76-6.97-7.48Zm334.82,12.19c-.31-.36-.62-.72-.94-1.08-2.84,2.52-5.68,5.03-8.52,7.55.2.24.4.48.61.72,2.95-2.4,5.9-4.79,8.85-7.19Zm-265.62,13.02c3.64-2.77,3.49-4.34-.58-6.39.2,2.17.37,4.09.58,6.39Zm268.1,87.99c-.15-.04-.3-.08-.45-.13-.92,2.32-1.84,4.65-2.77,7.01,1.81.67,2.76.39,2.85-1.42.09-1.82.24-3.64.36-5.46Zm-416-61.8c2.76,1.87,4.96-.44,7.55-.51-2.02-2-4.15-1.82-7.55.51Zm86.67-70.71v4.37c1.75-1.34,3.12-2.38,5.02-3.84-2.06-.22-3.36-.36-5.02-.54Zm408.72,134.43c1.01-.07,1.89-.41,2.33-.1.58.41.82,1.31,1.2,1.99.26-1.67.04-3.25-.47-4.72-.07-.22-1.91-.27-2.25.15-.57.71-.6,1.85-.82,2.69Zm-505.98-83.49c-1.78,1.4-3.19,2.5-4.59,3.6.1.24.2.47.29.71,1.71-.27,3.43-.53,5.36-.84-.37-1.21-.63-2.07-1.06-3.47Zm437.97,79.41c-.99,1.48-1.4,2.49-2.14,3.12-1.64,1.4-2.09,3.49-.96,5.56.2-4.34.45-4.66,3.1-3.83v-4.85Zm-277.08-86.2c-.99,1.38-1.98,2.76-3.12,4.34,2.95.74,3.95-.64,3.12-4.34Zm111.46,159.75c-1.45.47-2.5.81-3.55,1.15.06.26.11.52.17.78.63.2,1.26.41,2.16.7-.94.6-1.59,1.01-2.45,1.56q3.06.49,3.67-4.19Zm-47.42-95.47c-1.37.55-2.73,1.1-4.09,1.65.86.36,1.7.95,2.59,1.02,1.39.12,2.53-.32,1.49-2.68Zm77.26,44.02c-.15.35-.31.7-.46,1.05,1.81.71,2.86,3.32,5.29,2.5.13-.31.27-.61.4-.92-1.74-.88-3.49-1.76-5.23-2.64Zm-21.3-141.03c.39-2.26-.23-3.18-1.82-2.9-.63.11-1.13,1.02-1.69,1.56,1.11.42,2.21.84,3.51,1.34Zm196.17,122.87c-.19.02-.37.03-.56.05-.12.53-.24,1.05-.44,1.92-.59-.93-.98-1.56-1.38-2.18l-.63.27c.44,1.15.82,2.34,1.39,3.42.08.16,1.51-.08,1.54-.24.15-1.06.07-2.15.07-3.24Zm-437.51-2.08h6.85c-2.59-1.65-5.57-1.62-6.85,0Zm418.07.16c-.25-.03-.49-.07-.74-.1-2.04,4.09-2.05,4.36-.16,6.02.31-2.07.61-4,.9-5.92Zm-228.01-15.92c-3.02-1.99-5.45-.53-7.84-.74l-.04.74h7.88Zm50.14,40.61c-2.51-3.66-2.61-3.73-4.29-3.3q2.15,3.55,4.29,3.3Zm-282.42-95.63c-.07-.28-.14-.56-.21-.84-2.2.46-4.41.93-6.61,1.39l.28,1.13c2.18-.56,4.36-1.12,6.54-1.68Zm485.99,75.98l.74-.14c.75-2.59.11-4.97-1.64-5.25.31,1.86.6,3.62.9,5.39Zm13.12-5.39c-.28.03-.55.07-.83.1-.11,1.31-.29,2.62-.28,3.93,0,.34.52.87.89.96.25.06.95-.53.93-.77-.15-1.42-.45-2.81-.7-4.22Zm-46.24.76c-.26,0-.53.01-.79.02,0,1.49-.06,2.99.04,4.48.03.45.53.87.82,1.3.32-.49.95-1.02.89-1.46-.19-1.46-.62-2.9-.96-4.34Zm30.8-1.03c-.44.06-.88.11-1.33.17.27,1.89.54,3.78.82,5.68.39-.05.77-.11,1.16-.16-.22-1.9-.43-3.79-.65-5.69Zm31.62,2.3c.2,1.42.18,2.8.43,2.84,1.17.23,2.41.1,3.63.1.03-.3.06-.59.1-.89-1.14-.57-2.28-1.13-4.15-2.06Zm-49.03-1.84c0,1.98-.06,3.48.04,4.96.02.33.59.88.92.89.5.02,1.24-.21,1.47-.58.26-.42.05-1.12.05-1.69-2.55.26-1.24-2.07-2.49-3.57Zm28.94,4.82c-.65-1.75-1.27-3.4-1.89-5.05-1,3.55-.31,5.2,1.89,5.05Zm-63.64-5.76c-.26-.05-.52-.1-.77-.16-.34,2.76-.68,5.52-1.02,8.28.28.03.56.07.85.1.31-2.74.63-5.49.94-8.23Zm-23.32-82.7c.25.12.51.23.76.35,1.22-2.17,2.44-4.34,3.65-6.51-.25-.14-.5-.27-.76-.41-1.22,2.19-2.44,4.38-3.66,6.57Zm47.22,85.25l-.84.48c.83,1.26-.34,3.41,1.62,4.17.32-.13.63-.26.95-.4-.58-1.42-1.15-2.84-1.73-4.26Zm-413.81,1.59v.56h7.05v-.56h-7.05Zm248.84,21.96c.31-.33.63-.65.94-.98-1.13-1.15-2.26-2.31-3.39-3.46-.25.25-.5.49-.75.74,1.07,1.23,2.13,2.47,3.2,3.7Zm34.57,78.76c-.38-.06-.75-.12-1.13-.18-.15,1.97-.29,3.94-.44,5.9l.68.07c.3-1.93.59-3.86.89-5.79Zm-33.69-83.33l-.62.64c1.07,1.32,1.43,3.5,4.67,3.22-1.66-1.58-2.86-2.72-4.06-3.86Zm-284.5-104.6c-.3-.18-.6-.36-.91-.54-.65.67-1.31,1.34-2.12,2.18.96.79,1.5,1.24,2.36,1.95.27-1.45.47-2.52.67-3.59Zm305.07,213.19c-.16,0-.33,0-.49,0v8.01c.16,0,.33,0,.49,0v-8.01Zm248.4-131.98c-.27.11-.54.23-.81.34.43.83.7,1.83,1.35,2.42.38.34,1.54.24,2.02-.11.42-.3.39-1.23.56-1.89-.16-.03-.32-.06-.48-.09-.55.5-1.11,1.01-1.86,1.7-.33-1.01-.56-1.69-.78-2.37Zm-275.73,28.09c.28-.26.56-.52.84-.78-1.05-1.28-2.1-2.57-3.14-3.85-.3.25-.59.49-.89.74,1.07,1.3,2.13,2.59,3.2,3.89Zm138.34-18.21c2.78.24,3.12-.46,1.92-3.58-.67,1.25-1.22,2.27-1.92,3.58Zm-188.71,93.24c-.02.2-.03.39-.05.59h3.55c0-.2,0-.39,0-.59h-3.51Zm66.35-214.11c-.12,3.02.29,3.48,3.05,3.41-1.1-1.23-1.89-2.11-3.05-3.41Zm-3.3,143c.01.21.03.42.04.64h5.24c0-.21,0-.42,0-.64h-5.28Zm-21.72-8.26c-.31.32-.62.63-.93.95,1.38.88,1.54,3.22,4.42,3.16-1.39-1.64-2.44-2.87-3.49-4.11Zm115.4-33.64c.25.01.51.03.76.04v-7.15c-.11,0-.22-.02-.34-.03-.14,2.38-.28,4.76-.43,7.14Zm111.87,17.02c.33-.04.65-.09.97-.13-.17-1.41-.34-2.82-.51-4.23-.3.04-.6.07-.9.11.15,1.42.29,2.84.44,4.26Zm-51.57-2.38c-.35-.05-.71-.09-1.06-.14-.19,1.45-.37,2.9-.56,4.36.33.04.65.09.98.13.21-1.45.43-2.9.64-4.35Zm-366.2-106.58c.4-.06.8-.13,1.21-.19-.31-1.43-.62-2.86-.93-4.29-.25.05-.5.09-.75.14.16,1.45.31,2.9.47,4.34Zm246.71,198c-.23-.15-.46-.3-.7-.44-.75,1.56-1.5,3.11-2.25,4.67.3.14.6.28.91.43.68-1.55,1.36-3.1,2.04-4.65Zm-95.08,14.07c.24.01.47.03.71.04.05-.99.21-2,.07-2.96-.03-.19-1.2-.22-2.09-.36.58,1.44.95,2.36,1.32,3.28Zm86.15,14.43c-.51.98-.98,1.48-.96,1.96.02.36.76,1.03,1.01.96.5-.14,1.19-.66,1.24-1.09.05-.41-.6-.91-1.29-1.83Zm-92.76-35.96c.03.3.06.6.09.89,1.35-.09,2.69-.19,4.04-.28-.04-.33-.08-.66-.11-1-1.34.13-2.68.26-4.01.38Zm-56.51-118.4c.04.34.08.69.13,1.03l5.42-.68c-.03-.25-.05-.5-.08-.75-1.82.13-3.64.27-5.46.4Zm-166.23-25.6l.32-.69c-1.49-.69-2.97-1.39-4.46-2.08-.11.27-.22.53-.33.8,1.49.66,2.98,1.32,4.47,1.98Zm246.8-61.06c.87,1.19,1.35,1.84,2.25,3.07.35-1.44.52-2.16.74-3.07h-2.99Zm234.25,123.68l.9-.11c-.08-1.48-.17-2.97-.25-4.45-.33.02-.66.05-.99.07.11,1.5.23,2.99.34,4.49Zm1.01-110.45c-.65-.5-1.08-1.06-1.45-1.03-.34.03-.86.73-.85,1.11.01.39.59.76.92,1.14.38-.33.76-.67,1.38-1.22Zm-202.12,130.95c.25-.18.5-.36.76-.53-.91-1.25-1.81-2.51-2.72-3.76-.26.19-.51.38-.77.57.91,1.24,1.82,2.48,2.73,3.73Zm132.28-17.8c2.87.15,2.64-1.55,2.65-3.04-.74.85-1.49,1.71-2.65,3.04Zm-184.99,80.5v.4h4.95c0-.22-.01-.45-.02-.67-1.65.09-3.29.18-4.94.28Zm256.14-82.65c.38-.04.75-.08,1.13-.12-.22-1.46-.44-2.91-.66-4.37-.25.03-.5.05-.75.08.09,1.47.19,2.94.28,4.41Zm-247.77-4.51c.12-.36.24-.72.36-1.08l-2.47-.75-.3.91c.81.3,1.61.61,2.42.91Zm214.02-106.36c-.05-.29-.1-.59-.15-.88-1.03.19-2.06.37-3.09.56.04.25.08.5.13.74,1.04-.14,2.07-.28,3.11-.42Zm-462.97,53.17c.04-.2.08-.4.12-.6-1.43-.48-2.86-.97-4.29-1.45-.07.23-.13.46-.2.68,1.46.46,2.92.91,4.38,1.37Zm237.41,142.36c0,.11,0,.22.01.33h6.12l-.02-.33h-6.11Zm5.25-90.92l-.43,1.21,2.68.85c.12-.34.24-.67.36-1.01-.87-.35-1.74-.7-2.61-1.05Zm-201.22,4.82c.11.27.23.53.34.8.84-.33,1.68-.67,2.52-1-.13-.32-.27-.64-.4-.96-.82.39-1.64.78-2.46,1.17Zm-32.52-59.57l.42-.68-4.01-1.86c-.13.29-.26.58-.39.86,1.33.56,2.65,1.11,3.98,1.67Zm403.03-41.21c-.22-.15-.44-.3-.65-.46-.68,1.08-1.37,2.15-2.05,3.23.19.13.38.26.57.39.71-1.05,1.42-2.11,2.13-3.16Zm-133.03,122.06c.12-.14.24-.27.36-.41l-2.59-3.13c-.17.17-.35.34-.52.51l2.75,3.03Zm-26.93-21.58c.07-.3.13-.61.2-.91-.84-.21-1.68-.42-2.52-.63-.07.36-.15.72-.22,1.08.84.16,1.69.31,2.53.47Zm186.31-.05c.2.05.39.09.59.14.22-1.51.43-3.02.65-4.53-.19-.03-.38-.05-.57-.08-.22,1.49-.44,2.98-.67,4.47Zm-195.01,91.9c0-.08-.02-.16-.02-.25h-4.3c0,.08.02.16.03.25h4.3Zm73.2-74.36c-.16.21-.31.41-.47.62l3.2,1.93c.11-.18.23-.35.34-.53l-3.07-2.02Zm159.76-19.43c-.12,0-.25,0-.37,0,.14,1.22.27,2.45.41,3.67.17-.03.34-.05.5-.08-.18-1.2-.36-2.4-.54-3.6Zm-194.57,27.94c0,.2.01.4.02.59h2.01c0-.2-.01-.4-.02-.59h-2.01Zm112.36-31.72c-.24-.15-.48-.3-.72-.46-.54.93-1.09,1.85-1.63,2.78.2.12.4.24.6.35.58-.89,1.17-1.78,1.75-2.68Zm-150.47,99.55c0-.2,0-.4-.01-.6-1.36.1-2.72.19-4.09.29,0,.1.01.21.02.31h4.08Zm60.12,26.31c.07-.07.14-.14.2-.22h-3.6c0,.07,0,.14-.01.22h3.41Zm130.38-125.11c-.23-.08-.45-.16-.68-.25-.37,1-.74,2.01-1.11,3.01.21.08.42.15.64.23l1.15-2.99Zm-198.55,86.4c.24-.19.48-.39.73-.58-.48-.54-.97-1.09-1.45-1.63l-.54.43,1.27,1.79Zm9.98-82.79c-.06.33-.12.66-.19.99.78.1,1.55.2,2.33.3.04-.28.09-.55.13-.83-.76-.16-1.52-.31-2.28-.47Zm166.45-96.9c.19.17.37.34.56.52.49-.61.97-1.22,1.46-1.83-.18-.14-.36-.29-.54-.43-.49.58-.98,1.16-1.47,1.74Zm-229.13,64.44c.02.27.04.54.06.8.64-.05,1.28-.1,1.92-.15-.01-.22-.03-.44-.04-.65h-1.94Zm118.54,53.15c.16-.15.33-.31.49-.46-.5-.54-.99-1.08-1.49-1.62-.17.16-.34.32-.52.48.51.53,1.01,1.07,1.52,1.6Zm78.74-8.67c.15.14.3.27.45.41.53-.59,1.05-1.18,1.58-1.78-.14-.13-.28-.25-.42-.38-.54.58-1.07,1.17-1.61,1.75Zm-227.04-148.55c-.01.2-.02.39-.03.59h2.07c0-.15.02-.3.03-.44-.69-.05-1.38-.1-2.07-.14Zm354.31,135.11c-.21-.02-.43-.04-.64-.05l.14,2.88c.12,0,.25,0,.37,0,.04-.94.09-1.88.13-2.82Z"/>
      <path class="cls-1" d="m99.25,0c3.2.92,6.47,1.65,9.58,2.79,26.88,9.86,53.01,21.36,78.04,35.3,16.4,9.13,33.58,16.49,51.26,22.76,7.07,2.51,14.15,5.01,21.09,7.85,12.05,4.93,24.68,6.61,37.53,7.34,20.34,1.17,40.59-.44,60.87-1.78,10.66-.7,21.39-.35,32.09-.39,5.48-.02,10.96.14,16.44.24,30.26.55,60.53,1.18,90.79,1.64,17.63.27,35.26-.14,52.78-2.17,11.87-1.38,23.82-2.69,35.45-5.28,7.7-1.72,15.24-5.03,22.28-8.71,16.79-8.8,33.15-18.44,49.87-27.39,13.45-7.2,27.17-13.88,40.78-20.78,6.47-3.28,12.95-6.51,19.43-9.77.9-.45,1.75-1.14,2.7-1.35,1-.23,2.1-.02,3.16,0-.62.78-1.07,1.87-1.88,2.3-5.95,3.17-11.97,6.2-17.97,9.3-20.97,10.83-42,21.55-62.88,32.54-10.74,5.65-21.17,11.87-31.84,17.67-12.6,6.85-26.21,10.37-40.39,12.3-36.67,5.01-73.52,4.17-110.35,3.83-20.06-.19-40.12-.94-60.18-1.42-8.34-.2-16.7-.73-25.03-.44-13.72.47-27.42,1.66-41.14,2.24-19.64.82-39.28,1.16-58.71-2.75-2.14-.43-4.31-.92-6.35-1.7-20.24-7.72-40.63-15.06-60.6-23.43-11.55-4.84-22.41-11.33-33.53-17.17-20.79-10.91-42.44-19.86-64.38-28.15-3.19-1.21-6.22-2.85-9.32-4.3.13-.37.26-.74.4-1.11Z"/>
      <path class="cls-1" d="m851.87,316.16c-1.5-.36-3.11-.49-4.49-1.13-6.49-3.01-13-5.99-19.33-9.32-7.54-3.97-10.83-10.69-11.58-18.96-1.48-16.36-2.99-32.71-4.66-49.05-1.27-12.48-2.75-24.95-4.24-37.4-2.88-24-5.92-47.97-8.71-71.98-.86-7.35-1.19-14.77-1.62-22.17-.11-1.82.22-3.7.54-5.51.69-3.97,2.81-7.12,6.78-8.04,7.29-1.69,14.68-2.92,22.05-4.25.46-.08,1.05.57,1.58.88-.34.52-.56,1.31-1.03,1.51-.99.42-2.1.58-3.18.76-4.57.76-9.16,1.43-13.72,2.26-8.03,1.46-10.5,4.14-10.24,12.3.26,8.16.87,16.32,1.8,24.43,2.85,24.85,6,49.66,8.89,74.5,2.25,19.41,4.32,38.84,6.4,58.26.94,8.79,1.65,17.61,2.63,26.39.59,5.32,3.15,9.72,7.81,12.39,5.84,3.34,11.94,6.2,17.89,9.34,2.32,1.22,4.54,2.61,6.81,3.93-.13.29-.26.58-.39.87Z"/>
      <path class="cls-1" d="m12.01,94.82c1.71-.24,3.42-.68,5.13-.69,14.16-.02,28.33.04,42.38,2.16,10.5,1.58,13.23,4.92,13.38,15.57.14,9.69-2.56,18.83-4.88,28.04-4.31,17.11-7.01,34.48-8.94,52-1.1,10.04-2.72,20.03-3.63,30.09-.63,6.95-.3,13.98-.66,20.96-.43,8.31-.85,16.64-1.8,24.9-.74,6.49-4.19,11.44-10.36,14.26-1.91.87-3.61,2.18-5.5,3.11-.61.3-1.51.03-2.27.01.31-.76.4-1.84.96-2.22,2.23-1.51,4.55-2.91,6.93-4.16,3.59-1.88,6.15-4.7,6.79-8.64,1.11-6.79,2.14-13.63,2.54-20.49.53-9.08.08-18.21.68-27.28.6-8.89,1.87-17.75,3.06-26.59,1.75-12.93,3.32-25.9,5.66-38.73,2.07-11.34,5.35-22.46,7.54-33.78,1-5.14.89-10.54.89-15.82,0-3.86-2.21-6.63-6.06-7.39-5.19-1.03-10.44-2.09-15.7-2.41-10.09-.63-20.21-.72-30.32-1.1-1.96-.07-3.91-.48-5.87-.73,0-.36.01-.71.02-1.07Z"/>
      <path class="cls-1" d="m154.58,100.89c-2.08-.13-4.15-.25-6.23-.4-4.28-.31-8.57-.56-12.85-.97-2.03-.19-2.6.54-2.59,2.52.08,10.96.17,21.92,0,32.88-.19,12.72-.23,25.61-4.26,37.77-3.68,11.1-4.92,22.3-4.79,33.81,0,.76-.03,1.52-.11,2.27-.03.31-.23.61-.5,1.25-.23-1.06-.55-1.78-.52-2.49.43-9.98-.31-20.03,3.19-29.75,1.84-5.11,3.1-10.52,3.86-15.91,1.03-7.24,1.69-14.57,1.86-21.88.29-12.55.1-25.12.07-37.68,0-.98-.27-1.95-.41-2.93-.3,0-.6,0-.9-.01-.16.8-.46,1.61-.46,2.41.1,13.99.43,27.99.27,41.98-.07,5.85-1.12,11.69-1.78,17.53-.08.72-.44,1.4-1.09,2.08-.04-.6-.23-1.24-.09-1.79,2.38-9.02,1.86-18.22,1.72-27.4-.16-10.28-.18-20.57-.26-30.85,0-.76.18-1.58-.05-2.26-.24-.72-.88-1.3-1.34-1.95-.47.62-1.29,1.22-1.34,1.88-.13,1.58.1,3.19.18,4.79.23,4.8.47,9.59.65,14.39.04,1.15-.15,2.3-.24,3.45-.22,0-.44,0-.65,0-.26-5.1-.52-10.19-.79-15.29-.14-2.61-.21-5.23-.5-7.82-.07-.61-.87-1.14-1.33-1.71-.32.58-.93,1.17-.92,1.75.05,3.03.27,6.06.38,9.09.02.64-.17,1.28-.83,1.94-.26-3.47-.64-6.94-.74-10.42-.05-1.86-.55-2.58-2.55-2.78-12.23-1.2-24.47-2.42-36.67-3.92-9.94-1.22-19.83-2.9-29.76-4.23-13.49-1.8-27.03-2.13-40.61-1.02-3.84.31-7.73.05-11.64-.21,5.26-.42,10.5-.93,15.77-1.24,17.94-1.06,35.65.94,53.35,3.65,13.14,2.01,26.37,3.56,39.6,4.85,14.75,1.44,29.55,2.36,44.33,3.52.53.04,1.05.22,1.57.33-.02.25-.03.49-.05.74Z"/>
      <path class="cls-1" d="m237.37,102.23c-4.23,1.16-8.46,2.29-12.67,3.48-2.79.78-4.11-.13-4.79-3.42-.47-2.31.39-3.4,3.1-3.86,1.95-.33,3.9-.62,5.87-1.27-3.45-2.67-6.21-6.2-11.47-4.76-3.86,1.05-7.97,1.23-11.98,1.65-2.16.23-4.15-.22-4.49-2.9-.25-1.99,1.28-3.79,3.82-4.29,3.22-.64,6.46-1.24,9.73-1.57,3.68-.37,7.4-.5,11.1-.59,5.81-.14,10.67,2.32,14.85,6.07,4.5,4.04,3.85,7.94-1.55,10.72-.52.27-1.06.53-1.58.79,0,0,.06-.03.06-.03Zm-14.41-.89c0,.34-.01.67-.02,1.01.74.11,1.54.49,2.2.3,4.22-1.18,8.46-2.31,12.57-3.8,3.42-1.24,3.76-3.35,1.1-5.88-4.98-4.75-11.03-6.24-17.74-5.4-.41.05-.76.59-.86.67,3.77,2.11,7.37,4.14,10.97,6.16.11-.15.22-.31.32-.46-1.91-1.69-3.82-3.37-5.73-5.06.28-.29.56-.57.84-.86,2.58,2.47,5.23,4.87,7.67,7.47.52.56.65,2.48.34,2.65-1.59.87-3.35,1.53-5.12,1.98-2.15.55-4.37.82-6.56,1.22Zm-18.86-11.26c.07.33.14.66.21.99h4.25c-.15-.19-.3-.39-.45-.58.58-.55,1.15-1.1,2.11-2-2.31.6-4.21,1.1-6.12,1.59Z"/>
      <path class="cls-1" d="m388.91,109.12c.48-8.31,2.16-10.19,10.02-10.32,11.79-.19,23.59-.04,35.38-.04,7.16,0,14.31,0,21.47,0,4.83,0,6.44,3.16,6.65,7.48.03.58-.61,1.2-.95,1.8-.46-.42-.93-.84-1.39-1.27-.06-.05-.06-.15-.09-.23-2.12-5.27-2.12-5.36-7.99-5.32-11.62.09-23.25.34-34.87.44-6.64.06-13.3-.27-19.93.02-4.5.19-5.44,1.6-5.55,6.11-.03,1.26.07,2.55-.16,3.78-.11.59-.84,1.07-1.28,1.6-.44-.53-1.13-1-1.26-1.6-.21-.96-.06-2.01-.06-2.44Z"/>
      <path class="cls-1" d="m604.49,279.44c-1.85.14-3.71.43-5.55.38-4.12-.11-8.25-.67-12.36-.54-13.38.43-26.75,1.07-40.12,1.67-4.2.19-8.41.38-12.6.78-4.21.4-7.94,2.06-11.18,4.85-.61.53-1.68.52-2.53.77.28-.95.26-2.21.88-2.8,3.67-3.51,8.23-5.21,13.23-5.61,5.62-.45,11.26-.7,16.89-1,9.08-.48,18.16-1.2,27.24-1.32,7.4-.1,14.8.48,22.2.87,1.34.07,2.65.69,3.98,1.06-.02.3-.04.6-.06.9Z"/>
      <path class="cls-1" d="m357.23,386.83c-.42-2.66-1.05-5.31-1.23-7.99-1.64-24.03-8.47-46.62-18.9-68.21-.15-.3-.44-.6-.44-.9,0-.9.12-1.79.2-2.69.72.46,1.72.76,2.09,1.42,1.3,2.26,2.48,4.6,3.53,6.99,7.71,17.7,13.26,36.02,15.53,55.24.52,4.42.57,8.9.74,13.35.04.91-.35,1.84-.53,2.76-.33.01-.66.03-.99.04Z"/>
      <path class="cls-1" d="m491.11,386.23c0-3.22-.21-6.46.03-9.67,1.72-22.25,7.94-43.31,17.04-63.6.76-1.69,1.55-3.38,2.57-4.92.45-.68,1.5-.97,2.27-1.44,0,.92.3,1.95-.02,2.74-3.29,8.11-7.02,16.05-9.97,24.28-5.58,15.54-8.64,31.64-9.66,48.13-.1,1.53-.66,3.04-1.01,4.56-.42-.03-.83-.06-1.25-.08Z"/>
      <path class="cls-1" d="m686.94,262.9c1.21.38,2.49.63,3.63,1.17,4.54,2.18,8.46,5.25,11.72,9.06,4.57,5.34,4.83,11.74,4.38,18.38-1.47,21.82-8.08,42.61-12.73,63.78-3.77,17.17-5.85,34.48-6.36,52.03-.16,5.52-.77,11.04-1.38,16.53-.27-26.88,2.36-53.42,9.03-79.53,3-11.73,5.71-23.55,8.04-35.43,1.34-6.83,1.76-13.84,2.36-20.79.8-9.3-4.01-15.68-11.36-20.5-2.36-1.55-4.96-2.73-7.45-4.08.04-.21.09-.42.13-.62Z"/>
      <path class="cls-1" d="m156.8,267.44c4.04-.55,8.07-1.47,12.13-1.59,16.84-.49,33.7-.96,50.55-1.01,21.23-.06,42.47.17,63.7.56,11.92.22,23.7,1.68,34.79,6.55.74.33,1.47.68,2.2,1.02-.06.22-.11.44-.17.66-.79-.18-1.63-.25-2.35-.57-11.18-4.87-23.03-6.23-35.05-6.52-15-.37-30-.89-44.99-.85-21.74.06-43.48.52-65.22.92-3.35.06-6.69.76-10.04,1.11-1.81.19-3.64.28-5.46.41-.03-.23-.06-.47-.08-.7Z"/>
      <path class="cls-1" d="m728.76,148.23c.92,4.16,1.41,8.48,2.85,12.46,2.67,7.36,5.85,14.53,8.9,21.75,4.59,10.88,6.25,22.33,6.8,34,.25,5.22.37,10.44.5,15.66.03,1.13-.17,2.27-.82,3.4-.26-4.27-.86-8.55-.73-12.81.59-19.1-4.53-36.82-12.66-53.83-5.04-10.54-7.21-21.64-7.31-33.27-.06-6.99-.7-13.97-.81-20.96-.04-2.91.36-5.9,1.04-8.74.84-3.51,4.42-5.18,7.87-3.77-.64.23-1.04.45-1.45.5-3.9.42-5.66,1.75-5.75,5.69-.18,8.49-.01,16.99.16,25.49.08,4.04.48,8.07.8,12.1.06.81.41,1.6.63,2.39,0,0-.03-.05-.03-.05Z"/>
      <path class="cls-1" d="m686.62,100.09c.86-.36,1.69-.88,2.58-1.05,6.6-1.26,13.21-2.5,19.83-3.64,16.34-2.82,32.65-5.83,49.04-8.3,13.23-1.99,26.54-3.41,39.84-4.9,8.95-1,17.93-1.68,26.92-2.14-23.12,2.86-46.29,5.31-69.33,8.71-22.98,3.39-45.81,7.75-68.71,11.69-.06-.12-.12-.25-.18-.37Z"/>
      <path class="cls-1" d="m281.32,287.87c2.7.56,5.44.98,8.09,1.7,5.93,1.61,12.06,2.79,17.67,5.18,17.29,7.37,28.48,20.61,34.58,38.16,4.17,12.01,7.65,24.25,9.29,36.92.25,1.93.28,3.9.41,5.85-.28.03-.56.06-.84.09-.38-2.81-.68-5.64-1.14-8.44-2.29-13.92-5.62-27.63-11.47-40.47-8.59-18.83-23.25-30.59-43.63-35.01-4.4-.96-8.75-2.15-13.13-3.24.06-.25.12-.5.17-.75Z"/>
      <path class="cls-1" d="m145.53,284.61c-.13,1.21-.32,2.41-.38,3.62-.72,13.64.64,27.09,3.82,40.35,3.68,15.39,7.65,30.72,11.03,46.18,1.68,7.69,2.31,15.62,3.42,23.43-.27.06-.54.11-.81.17-.24-.95-.59-1.89-.69-2.86-2.41-23.73-9.2-46.53-14.72-69.6-2.93-12.27-3.81-24.79-3.23-37.4.06-1.36.46-2.7.71-4.05.29.05.58.11.87.16Z"/>
      <path class="cls-1" d="m338.28,339.94c9.42,31.43,11.37,63.92,14.13,96.29-4.13-32.18-5.77-64.73-14.13-96.29Z"/>
      <path class="cls-1" d="m665,287.17c-32.38-.32-64.75-.64-97.13-.98-.44,0-.89-.3-1.26-.89,32.8.22,65.6.45,98.4.67,0,.4,0,.79,0,1.19Z"/>
      <path class="cls-1" d="m687.57,363.29c3.73-16.13,7.62-32.23,11.11-48.42,1.66-7.71,2.75-15.57,3.72-23.41.76-6.2-.41-12.14-4.64-17.04-1.27-1.47-2.98-2.57-4.23-4.35.76.35,1.58.59,2.26,1.05,4.64,3.16,6.72,7.84,7.56,13.18,1.07,6.87-.17,13.65-1.6,20.28-4.17,19.4-8.69,38.72-13.08,58.07-.07.31-.22.59-.33.89-.25-.08-.5-.17-.76-.25Z"/>
      <path class="cls-1" d="m500.37,408.27c2.79-32.02,7.88-63.55,19.55-93.72-10.7,30.37-15.28,62.01-19.55,93.72Z"/>
      <path class="cls-1" d="m611.03,262c-3.33.3-6.65.75-9.98.88-14.38.57-28.76,1.09-43.15,1.54-3.77.12-7.59-.47-11.33-.11-6.28.6-11.68,3.59-16.68,7.3-.98.73-2,1.4-3.39,1.73.21-.36.35-.81.65-1.06,5.84-4.75,12.2-8.46,19.86-9.2,2.57-.25,5.2.18,7.8.1,13.63-.38,27.25-.8,40.88-1.27,5.11-.17,10.22-.51,15.33-.77,0,.28,0,.57,0,.85Z"/>
      <path class="cls-1" d="m505.15,342.2c-4,28.36-8.87,56.59-9.7,85.3-.8-28.91,4.78-57.08,9.7-85.3Z"/>
      <path class="cls-1" d="m484.34,439.72c.24-3.54.33-7.1.76-10.62,1.05-8.69,2.26-17.37,3.4-26.06.01-.08-.01-.18.03-.25.55-.93,1.11-1.86,1.67-2.79.36,1,1.11,2.04,1.01,2.99-.8,7.03-1.73,14.04-2.71,21.05-.62,4.41-1.36,8.81-2.11,13.2-.15.88-.6,1.71-.91,2.56-.38-.03-.76-.06-1.13-.08Z"/>
      <path class="cls-1" d="m508.22,333.12c.24-1.19.3-2.46.75-3.56,4.36-10.84,8.66-21.71,13.22-32.47,2.62-6.18,7.73-9.5,14.25-10.37,6.99-.93,14.03-1.49,21.05-2.19.72-.07,1.46.08,2.25.7-1.33.16-2.66.34-3.99.48-6.43.72-12.87,1.3-19.28,2.18-6.09.84-10.82,3.98-13.23,9.71-4.57,10.84-8.87,21.8-13.26,32.72-.39.97-.61,2-.9,3.01-.28-.07-.57-.14-.85-.21Z"/>
      <path class="cls-1" d="m148.9,302.93c.16,1.74.17,3.51.5,5.22,1.64,8.58,3.41,17.14,5.06,25.72,2.62,13.62,5.2,27.25,7.73,40.88.23,1.26.03,2.6-.26,3.94-3.96-25.33-10.76-50.13-14.43-75.5.47-.09.93-.17,1.4-.26Z"/>
      <path class="cls-1" d="m365.49,469.19c-3.01-25.11-4.91-50.33-7.21-75.5.35-.03.7-.07,1.05-.1,2.33,25.18,4.66,50.35,6.98,75.53-.28.03-.55.05-.83.08Z"/>
      <path class="cls-1" d="m464.76,287.15c.24-.34.48-.68.73-1.01,4.49-5.76,9.01-11.5,13.47-17.28,2.72-3.53,5.32-7.14,8.04-10.67.57-.75,1.41-1.29,2.12-1.93.18.16.35.31.53.47-.4.54-.8,1.07-1.2,1.61-3.02,4.03-6.02,8.08-9.05,12.1-3.09,4.1-6.22,8.16-9.28,12.27-1.61,2.15-3.43,4.21-4.63,6.58-3.81,7.58-7.28,15.34-11.09,22.92-1.32,2.62-3.25,4.93-4.9,7.38-.27-.18-.54-.35-.81-.53.33-.6.64-1.2,1-1.78,5.83-9.36,10.8-19.16,14.92-29.39.09-.23.09-.49.14-.74Z"/>
      <path class="cls-1" d="m358.37,453.87c-2.59-23.48-5.19-46.95-7.78-70.43.39-.04.77-.09,1.16-.13,2.57,23.51,5.13,47.01,7.7,70.52-.36.01-.72.03-1.08.04Z"/>
      <path class="cls-1" d="m632.89,141.54c-3.47-13.02,26.11-38.81,42.28-37.09-2.35.71-4.7,1.43-7.05,2.14-10.17,3.06-18.86,8.49-25.99,16.33-4.28,4.71-6.67,10.47-8.53,16.47-.18.57-.37,1.13-.71,2.15Z"/>
      <path class="cls-1" d="m537.8,270.19c1.25-.86,1.97-1.48,2.79-1.91,4.39-2.28,9.12-1.91,13.85-1.85,10.28.13,20.56.06,30.84.07,2.51,0,5.02,0,7.64.46-.98.18-1.96.52-2.94.52-11.54.08-23.09.19-34.63.12-5.57-.03-11.17-.58-16.17,2.69-.15.1-.45-.03-1.39-.12Z"/>
      <path class="cls-1" d="m400.25,407.95c18.62.03,37.25-.95,55.82,1.16h-55.84c0-.39.01-.77.02-1.16Z"/>
      <path class="cls-1" d="m300.08,299.6c12.82.84,36.25,21.89,36.87,32.97-8.76-14.95-19.21-27.99-36.87-32.97Z"/>
      <path class="cls-1" d="m431.46,405.61h-49c-.05-.25-.09-.5-.14-.75,1.3-.29,2.59-.84,3.89-.82,14.65.23,29.29.55,43.94.86.49.01.98.3,1.47.45-.05.09-.1.17-.15.26Z"/>
      <path class="cls-1" d="m728.79,148.27c-.12-10.84-.33-21.68-.29-32.53,0-2.72.62-5.5,1.32-8.15.52-1.97,2.1-2.96,4.36-2.56-4.54,1.72-4.44,5.75-4.45,9.32-.04,10.42.25,20.84.4,31.27.02,1.22,0,2.45,0,4.18-.74-.85-1.06-1.21-1.37-1.58,0,0,.03.05.03.05Z"/>
      <path class="cls-1" d="m732.29,178.32c.84,1.19,1.77,2.34,2.51,3.59,3.27,5.54,4.15,11.77,4.35,17.99.23,7.23-.25,14.48-.47,21.72-.03.88-.33,1.74-.96,2.57,0-2.54-.09-5.09.02-7.62.34-8.25,1.13-16.55-.8-24.66-.94-3.93-2.9-7.63-4.43-11.42-.23-.58-.61-1.11-.93-1.66.24-.17.48-.34.71-.51Z"/>
      <path class="cls-1" d="m748.68,198.7c-2.9-16.05-12.17-29.55-17.28-44.68,6.24,14.72,15.64,28.19,17.28,44.68Z"/>
      <path class="cls-1" d="m742.61,169.99c-7.2-11.65-13.06-23.69-10.04-37.66.7,6.29.68,13.07,2.36,19.4,1.68,6.32,5.05,12.19,7.68,18.26Z"/>
      <path class="cls-1" d="m553.72,291.16c-.86.05-1.73.06-2.58.15-4.51.44-9.07.6-13.51,1.41-6.15,1.11-10.48,4.72-12.64,10.73-.55,1.53-1.3,2.99-1.95,4.48-.25-.09-.5-.18-.75-.28.37-1.1.76-2.19,1.1-3.3,2.77-9.08,9.67-12.68,18.4-13.68,3.42-.39,6.89-.41,10.33-.56.53-.02,1.07.16,1.61.24,0,.27,0,.54,0,.8Z"/>
      <path class="cls-1" d="m163.36,101.68c11.78-1.43,23.16-.1,33.92,5.49-1.03-.23-2.07-.44-3.1-.69-5.62-1.36-11.19-3.05-16.89-3.98-3.51-.57-7.21.02-10.83.05-1.05,0-2.09-.13-3.14-.19l.03-.68Z"/>
      <path class="cls-1" d="m418.63,367.93c-10.97.63-22.24-1.44-32.62,4.04,10.2-6.75,21.5-4.75,32.62-4.04Z"/>
      <path class="cls-1" d="m54.03,131.39c-7.69-8.16-15.37-16.32-23.06-24.48.3-.28.61-.57.91-.85,7.61,8.27,15.22,16.54,22.84,24.81-.23.17-.46.35-.69.52Z"/>
      <path class="cls-1" d="m476.01,394.48v29.08c-.22,0-.45,0-.67,0v-29.08c.22,0,.45,0,.67,0Z"/>
      <path class="cls-1" d="m823.95,98.73c7.59,6.91,15.18,13.81,22.77,20.72-.21.24-.43.47-.64.71-7.64-6.84-15.29-13.68-22.93-20.52.27-.31.54-.61.81-.92Z"/>
      <path class="cls-1" d="m825.96,121.4c-3.24-3.55-9.46-10.34-15.68-17.13-.33.33-.67.66-1,.99,6.61,6.4,13.22,12.8,16.68,16.14Z"/>
      <path class="cls-1" d="m699.13,303.52c-2.25,9.09-4.5,18.18-6.75,27.27l-.97-.24c2.19-9.11,4.38-18.22,6.58-27.33.38.1.76.2,1.14.29Z"/>
      <path class="cls-1" d="m424.14,360.68v-23.93c.18,0,.36-.01.55-.02v23.93h-.55Z"/>
      <path class="cls-1" d="m647.51,112.13c-7.87,4.7-13.83,10.94-16.56,19.92-1.43-5.46,8.57-17.57,16.56-19.92Z"/>
      <path class="cls-1" d="m478.27,414.22v20.23c-.2,0-.4,0-.6,0v-20.23c.2,0,.4,0,.6,0Z"/>
      <path class="cls-1" d="m396.17,411.09c6.98-.26,13.95-.53,20.93-.79.01.31.03.62.04.94-6.98.35-13.95.69-20.93,1.04-.02-.39-.03-.79-.05-1.18Z"/>
      <path class="cls-1" d="m461.18,304.09c3.18-5.5,4.12-11.99,7.4-17.44.28.12.55.24.83.36-2.36,5.88-4.72,11.75-7.07,17.63-.39-.18-.77-.37-1.16-.55Z"/>
      <path class="cls-1" d="m121.07,190.9c.62-6.21,1.41-12.39,3.26-18.38.27.05.53.1.8.15-1.12,6.12-2.25,12.24-3.37,18.36-.23-.04-.46-.08-.68-.13Z"/>
      <path class="cls-1" d="m480.54,444.09v-22.15c.17,0,.34,0,.51,0v22.16c-.17,0-.34,0-.51-.01Z"/>
      <path class="cls-1" d="m323.53,321.83c-3.25-5.77-9.66-7.38-15.08-11.36,6.72,1.26,14.99,7.53,15.08,11.36Z"/>
      <path class="cls-1" d="m448.56,357.01c-1.31-.24-2.13-1.69-1.45-2.98,2.08-3.93-.38-7.5-.44-11.24,0-.46,0-.92,0-1.38.24,0,.36-.03.39,0,1.35,1.89,2.33,9.05,1.79,11.05-.36,1.35-.21,2.84-.3,4.54Z"/>
      <path class="cls-1" d="m818.53,131.27c-4.41-4.09-8.82-8.17-13.23-12.26.24-.26.48-.52.73-.79,4.36,4.1,8.72,8.2,13.08,12.29-.19.25-.38.5-.57.75Z"/>
      <path class="cls-1" d="m499.59,274.93c-2.28-1.98-2.47-4.5-2.84-6.91-.05-.31.46-.86.84-1.04.25-.12.8.14,1.08.38,1.17,1.03,1.83,5.59.92,7.57Z"/>
      <path class="cls-1" d="m683.18,394.17c.28-4.44.56-8.88.84-13.32.38.03.77.06,1.15.09-.38,4.43-.76,8.86-1.15,13.3-.28-.02-.57-.04-.85-.07Z"/>
      <path class="cls-1" d="m698.55,280.87c2.49,3.44,1.61,7.35,1.85,11.1-.21.03-.43.06-.64.08-.4-3.73-.8-7.46-1.2-11.18Z"/>
      <path class="cls-1" d="m371.7,438.05c.78,4.25,1.56,8.5,2.33,12.75-.31.05-.62.11-.93.16-.68-4.26-1.37-8.53-2.05-12.79.22-.04.43-.08.65-.13Z"/>
      <path class="cls-1" d="m58.28,115.32c-2.33-2.76-4.65-5.53-6.98-8.29.27-.23.55-.46.82-.69,2.28,2.76,4.56,5.52,6.84,8.28-.23.23-.46.47-.69.7Z"/>
      <path class="cls-1" d="m732.76,115.85v9.78c-.18,0-.36,0-.54.01v-9.76l.54-.03Z"/>
      <path class="cls-1" d="m473.18,317.99c-.97,2.77-1.95,5.53-2.92,8.3-.35-.13-.7-.26-1.05-.39,1.04-2.74,2.07-5.48,3.11-8.22.29.11.58.21.86.32Z"/>
      <path class="cls-1" d="m512.12,246.89c2.63-.84,5.25-1.69,7.88-2.53.1.31.2.62.3.93-2.62.87-5.23,1.75-7.85,2.62-.11-.34-.22-.68-.33-1.02Z"/>
      <path class="cls-1" d="m503.15,248.95c.5-.19,1-.37,1.5-.56.55.1,1.09.19,1.64.29.06.24.11.47.17.71-2.13.67-4.24,1.41-6.41,1.95-.41.1-1.02-.57-1.53-.88,0,0-.03.04-.03.04,1.55-.52,3.11-1.03,4.66-1.55Z"/>
      <path class="cls-1" d="m441.6,332.74c.66-1.4,1.16-2.67,1.86-3.8.21-.33,1.02-.41,1.54-.38.24.02.67.64.61.9-.14.61-.38,1.36-.83,1.7-.81.6-1.81.93-3.17,1.58Z"/>
      <path class="cls-1" d="m46.92,138.85l-5.49-5.21c.19-.21.39-.42.58-.62,1.84,1.71,3.69,3.41,5.53,5.12-.21.24-.41.47-.62.71Z"/>
      <path class="cls-1" d="m488.84,293.67c.7-2.21,1.39-4.43,2.09-6.64.33.09.66.19.98.28l-2.07,6.62c-.33-.08-.67-.17-1-.25Z"/>
      <path class="cls-1" d="m471.35,328.39c.87-1.61,1.73-3.23,2.6-4.84.27.14.54.28.81.42-.83,1.66-1.66,3.32-2.49,4.98-.3-.19-.61-.37-.91-.56Z"/>
      <path class="cls-1" d="m225.47,132.78c-.74-1.58-1.47-3.16-2.21-4.74.3-.14.6-.27.89-.41.73,1.58,1.47,3.16,2.2,4.74-.3.14-.59.27-.89.41Z"/>
      <path class="cls-1" d="m506.9,251.99c-1.24.67-2.47,1.34-3.71,2.02-.15-.26-.29-.52-.44-.79,1.23-.68,2.47-1.37,3.7-2.05.15.27.3.55.45.82Z"/>
      <path class="cls-1" d="m419.16,365.48h-4.13c.01-.28.03-.56.04-.83,1.38.09,2.75.17,4.13.26-.01.19-.02.38-.03.58Z"/>
      <path class="cls-1" d="m473.23,331.06c.56-1.16,1.12-2.31,1.68-3.47.28.13.55.26.83.39-.55,1.16-1.1,2.32-1.66,3.48l-.86-.41Z"/>
      <path class="cls-1" d="m452.34,350.05c-.17,1.22-.34,2.44-.5,3.66-.27-.02-.54-.05-.8-.07.15-1.23.3-2.46.45-3.68.29.03.57.06.86.09Z"/>
      <path class="cls-1" d="m425.99,353.36v-3.27c.19,0,.38,0,.57,0v3.27c-.19,0-.38,0-.57,0Z"/>
      <path class="cls-1" d="m475.37,308.69c.5-1.03,1-2.05,1.5-3.08.24.11.49.22.73.33-.45,1.05-.9,2.11-1.35,3.16l-.88-.42Z"/>
      <path class="cls-1" d="m636.18,116.24c-.61.75-1.21,1.5-1.82,2.25-.21-.17-.42-.35-.64-.52.62-.74,1.24-1.48,1.86-2.22.2.16.4.32.6.49Z"/>
      <path class="cls-1" d="m455.81,349.71c.43-.6.86-1.21,1.29-1.81.2.14.4.27.6.41-.41.64-.83,1.28-1.24,1.93-.22-.17-.43-.35-.65-.52Z"/>
      <path class="cls-1" d="m448.34,328.92c-.21.5-.42,1.01-.63,1.51-.21-.07-.42-.15-.64-.22.17-.55.33-1.1.5-1.66.25.12.51.25.76.37Z"/>
      <path class="cls-1" d="m279.46,213.95c-.33-1.75-.81-3.49-.97-5.26-.79-8.97-1.17-17.99-2.3-26.92-1.62-12.84-6.56-17.48-19.35-19.4-1.03-.16-1.96-1.05-2.93-1.6,1.18-.33,2.35-.79,3.56-.93.8-.09,1.66.24,2.47.43,13.68,3.28,18.05,8.62,19.29,23.62.68,8.22,1.37,16.45,1.93,24.68.12,1.76-.27,3.55-.42,5.32-.43.02-.86.04-1.28.06Z"/>
      <path class="cls-1" d="m275.92,232.21c-.31-3.29-.7-6.57-.9-9.86-.73-11.84-1.33-23.69-2.11-35.52-.19-2.92-.85-5.82-1.31-8.72-.86-5.45-4.2-9.01-9.36-10.07-6.47-1.32-13.1-1.97-19.69-2.6-3.55-.34-7.16-.06-10.81-.59.42-.13.84-.34,1.27-.36,8.6-.54,17.18-.4,25.66,1.26,10.19,1.99,14.01,6.3,14.94,17.32.87,10.31,1.37,20.64,2.05,30.97.36,5.54.75,11.08,1.12,16.62.03.48,0,.96,0,1.44-.29.04-.58.08-.87.12Z"/>
      <path class="cls-1" d="m270.17,191.61c-.24-1.84-.48-3.67-.74-5.51-.22-1.58-.35-3.18-.71-4.72-1.91-8.22-5.7-11.52-14.27-12.46-2.42-.26-4.85-.39-7.28-.62-.78-.07-1.54-.27-2.24-.78,7.28-.25,14.71-.41,20.61,4.67,3.97,3.42,4.4,8.71,5.06,13.63.25,1.88.3,3.8.44,5.7-.29.03-.58.05-.87.08Z"/>
      <path class="cls-1" d="m266.61,182.73c-1.42-2.49-2.43-5.74-4.6-7.68-2.14-1.92-5.46-2.52-8.12-3.64,6.49-1.48,14.24,5.51,12.72,11.32Z"/>
      <path class="cls-1" d="m239.06,168.92h-2.7c0-.17,0-.34,0-.51h2.7c0,.17,0,.34,0,.51Z"/>
      <path class="cls-1" d="m229.84,234.13h2.2c0,.2.01.4.02.6-.76.04-1.52.09-2.28.13.02-.25.04-.49.07-.74Z"/>
      <path class="cls-1" d="m569.12,213.37c-.2-1.37-.68-2.76-.57-4.1.92-10.9,1.79-21.81,2.99-32.69.82-7.37,5.09-12.36,12.06-14.85,3-1.07,6.13-1.85,9.25-2.47.9-.18,1.99.66,3,1.04-.82.52-1.6,1.14-2.49,1.53-.67.3-1.48.28-2.22.44-12.49,2.73-16.48,7.04-17.73,19.77-.88,8.88-1.4,17.79-2.17,26.68-.14,1.6-.68,3.16-1.04,4.73-.36-.03-.73-.06-1.09-.09Z"/>
      <path class="cls-1" d="m554.96,221.94c-.12-1.05-.3-2.1-.35-3.16-.64-12.87-.93-25.72,1.21-38.5,1.22-7.25,5.07-12.9,10.56-17.56.47-.4,1.06-.66,1.99-.57-.37.45-.67.98-1.11,1.33-7.5,5.99-10.83,14.05-11.14,23.37-.35,10.58-.33,21.17-.47,31.75-.01,1.08,0,2.16,0,3.25-.23.03-.45.06-.68.09Z"/>
      <path class="cls-1" d="m623.32,165.62c-3.16,0-6.33-.06-9.49.01-8.14.2-16.29.23-24.4.81-2.82.2-5.55,1.8-8.31,2.78-.59.21-1.15.47-1.73.71-.12-.18-.23-.36-.35-.54.74-.53,1.41-1.31,2.24-1.53,4.76-1.28,9.53-3.27,14.35-3.44,8.96-.33,17.97.42,26.96.73.24,0,.47.13.7.2,0,.09.01.19.02.28Z"/>
      <path class="cls-1" d="m579.56,188.18v32.32c-1.36-10.75-.76-21.54-.96-32.31.32,0,.64-.01.96-.02Z"/>
      <path class="cls-1" d="m605.17,169.07c-4.99.59-10,1.08-14.98,1.78-7.97,1.12-8.8,1.99-10.21,9.96-.1.55-.23,1.1-.34,1.64-.25-.01-.5-.02-.75-.03.07-1.1.1-2.2.22-3.3.66-5.71,2.54-8,8.21-8.95,5.22-.87,10.52-1.26,15.79-1.81.7-.07,1.43.17,2.14.27l-.09.43Z"/>
      <path class="cls-1" d="m577.51,174.23c-.63,10.33-1.27,20.66-1.9,30.99-.25-.02-.49-.04-.74-.06.52-10.36-.5-20.84,2.64-30.93Z"/>
      <path class="cls-1" d="m574.98,210.83v19.81c-.18,0-.36,0-.54.01v-19.78c.18-.01.36-.02.54-.04Z"/>
      <path class="cls-1" d="m635.25,235.46h-15.34c0-.21,0-.43,0-.64h15.32c0,.21.01.43.02.64Z"/>
      <path class="cls-1" d="m562.84,172.02c-.74,1.97-1.47,3.93-2.21,5.9-.31-.11-.61-.23-.92-.34.74-1.97,1.47-3.93,2.21-5.9.31.12.62.23.92.35Z"/>
      <path class="cls-1" d="m585.65,175.5c-.53.76-1.06,1.52-1.59,2.28-.21-.14-.41-.28-.62-.42.51-.77,1.02-1.54,1.53-2.32.23.15.45.3.68.46Z"/>
      <path class="cls-1" d="m377.1,158.34c.65-.46,1.3-.92,1.95-1.39.21.22.42.44.63.65-2.15,2.05-4.21,4.19-6.51,6.06-.44.36-1.77-.37-2.7-.6.37-.68.62-1.48,1.14-2.02,1.17-1.21,2.43-2.33,3.74-3.38.31-.25.96-.08,1.45-.1.1.25.2.51.3.76Zm-4.66,3.65c.21.25.43.49.64.74.56-.63,1.12-1.25,1.68-1.88-.15-.16-.3-.32-.44-.48-.63.54-1.25,1.08-1.88,1.62Z"/>
      <path class="cls-1" d="m362.28,175.93c-2.11.41-3.56.68-4.91.94.55-1.61,1.82-2.5,3.52-2.13.53.12.93.78,1.39,1.18Z"/>
      <path class="cls-1" d="m355.62,179.95c-.39.51-.78,1.03-1.17,1.54-.19-.14-.38-.28-.56-.41.38-.52.77-1.03,1.15-1.55.19.14.39.28.58.42Z"/>
      <path class="cls-1" d="m449.23,262.79c-6.22-.41-12.43-.78-18.64-1.24-3.08-.23-5.11-1.84-6.12-4.83-1.09-3.23.81-5.53,2.45-7.79.48-.66,2-.72,3.06-.75,6.82-.24,13.64-.4,20.47-.59,6.91-.19,13.81-.44,20.72-.55,4.12-.07,6.39,1.48,6.95,4.44.77,4.04-.85,7.62-4.85,8.48-5.8,1.25-11.77,1.78-17.69,2.46-2.08.24-4.21.04-6.32.04,0,.11-.01.22-.02.34Zm-17.15-4.69c3.5,2.21,30.82,2.1,36.51,0h-36.51Zm17.47-5.17l-.09.8c.92.15,1.85.43,2.77.42,6.98-.13,13.96-.29,20.93-.51.72-.02,1.42-.51,2.13-.79-.73-.33-1.46-.96-2.18-.94-7.23.16-14.45.42-21.68.67-.63.02-1.26.23-1.88.35Zm2.93,2.37c-.04.29-.09.58-.13.87.49.18.99.51,1.48.51,6.32.03,12.65.05,18.97-.02.68,0,1.35-.63,2.03-.96-.09-.13-.18-.27-.26-.4h-22.08Zm-5.28-4.82c.01.39.02.78.03,1.17,8.65-.28,17.31-.55,25.96-.83-.01-.39-.02-.78-.03-1.17-8.65.28-17.31.55-25.96.83Zm-2.65,5.88c.01-.21.03-.42.04-.63-1.36-.08-2.73-.16-4.09-.24-.02.29-.03.58-.05.87h4.1Zm-12.09-3.5c-.05.37-.1.74-.15,1.12l2.95.24c.03-.32.07-.64.1-.95-.97-.13-1.93-.27-2.9-.4Zm5.44-.04c-.05.38-.09.75-.14,1.13,1.2.05,2.4.11,3.61.16.03-.33.05-.66.08-.99-1.18-.1-2.37-.2-3.55-.3Zm8.4,2.64c-.01.28-.03.57-.04.85h3.54c.02-.22.03-.45.05-.67-1.18-.06-2.36-.12-3.54-.17Zm-2.19-4.08c0-.19,0-.39,0-.58h-2.5c0,.19,0,.39,0,.58h2.49Zm-6.38,5.02c0-.2,0-.4,0-.6h-2.79c0,.2,0,.4,0,.6h2.79Zm9.23-2.25c.01-.35.02-.7.03-1.05-1-.06-1.99-.12-2.99-.19-.03.3-.06.59-.09.89,1.01.12,2.02.23,3.04.35Zm-8.35-2.74c0-.23-.02-.46-.03-.69-.87.05-1.73.1-2.6.15l.02.54h2.61Z"/>
      <path class="cls-1" d="m481.72,201.07c8.44.44,15.97,7.54,17.56,16.52-.88-1.82-1.62-3.73-2.69-5.43-1.11-1.76-2.34-3.52-3.87-4.91-1.59-1.45-3.53-2.57-5.43-3.63-1.78-.99-3.7-1.72-5.57-2.56Z"/>
      <path class="cls-1" d="m498.18,238.56c-1.57,4.95-16.55,6.94-23.29,5.98,7.86-1.6,16.42-.49,23.29-5.98Z"/>
      <path class="cls-1" d="m338.6,190.82c.63-.46,1.25-1.3,1.88-1.31,6.46-.1,12.92-.06,19.4.48-7.11.26-14.21.53-21.32.79,0,0,.03.04.03.04Z"/>
      <path class="cls-1" d="m498.53,204.45c.51,1.15,1.02,2.31,1.54,3.46-.26.13-.53.25-.79.38-.53-1.13-1.07-2.26-1.6-3.39.28-.15.57-.3.85-.44Z"/>
      <path class="cls-1" d="m346.83,258.26c0-.98-.2-2,.03-2.92,1.08-4.14,2.2-8.28,3.52-12.35.24-.74,1.48-1.16,2.26-1.73.05.92.35,1.9.12,2.75-.95,3.57-2,7.12-3.13,10.64-.44,1.36-1.18,2.62-1.79,3.93l-1.02-.32Z"/>
      <path class="cls-1" d="m354.77,273.58c4.94,8.43,9.69,16.97,13.89,25.81-.21.12-.42.23-.63.35-4.73-8.55-9.45-17.1-14.18-25.65.31-.17.61-.34.92-.51Z"/>
      <path class="cls-1" d="m367.64,310.2c-5.26-4.48-5.82-11.11-9.49-16.56,2.77,1.4,8.72,12.01,9.49,16.56Z"/>
      <path class="cls-1" d="m321.05,226.04c7.46,2.25,15.11,4.56,22.34,6.75-6.38.33-19.12-3.49-22.34-6.75Z"/>
      <path class="cls-1" d="m357.61,285.18c3.53,5.75,7.06,11.51,10.59,17.26-.28.18-.57.35-.85.53-3.59-5.74-7.19-11.47-10.78-17.21.35-.19.69-.39,1.04-.58Z"/>
      <path class="cls-1" d="m363.94,268.62l-7.52-10.12.94-.7c2.46,3.4,4.91,6.8,7.37,10.2-.26.2-.52.41-.78.61Z"/>
      <path class="cls-1" d="m215.78,253.03h-10.52v-.55h10.52c0,.18,0,.36,0,.55Z"/>
      <path class="cls-1" d="m356.67,262.49c2.02,3.06,4.05,6.12,6.07,9.18-.27.18-.54.37-.81.55-2.06-3.03-4.13-6.06-6.19-9.09l.93-.64Z"/>
      <path class="cls-1" d="m341.02,264.72c-.23,2.75-.47,5.5-.7,8.25-.35-.03-.7-.06-1.05-.09.24-2.76.48-5.52.72-8.28.35.04.69.08,1.04.12Z"/>
      <path class="cls-1" d="m361.86,260.11c-1.44-2.02-2.88-4.04-4.32-6.06.26-.19.53-.38.79-.57,1.45,2,2.89,4,4.34,6-.27.21-.54.42-.81.63Z"/>
      <path class="cls-1" d="m299.08,229.26c2.04.15,4.08.3,6.11.45-.04.31-.07.61-.11.92-2-.43-4.28,1.18-5.98-1.39,0,0-.03.02-.03.02Z"/>
      <path class="cls-1" d="m336.9,268.7v-5.59c.18,0,.36,0,.54,0v5.59c-.18,0-.36,0-.54,0Z"/>
      <path class="cls-1" d="m327.14,231.47c1.75.8,3.49,1.59,5.24,2.39l-.38.91c-1.75-.77-3.5-1.55-5.25-2.32l.39-.98Z"/>
      <path class="cls-1" d="m365.92,313.66c-1.11-1.65-2.23-3.31-3.34-4.96.23-.16.46-.32.68-.48,1.14,1.61,2.29,3.22,3.43,4.83-.26.2-.52.41-.78.61Z"/>
      <path class="cls-1" d="m333.86,265.88v-4.61h.6v4.72l-.6-.12Z"/>
      <path class="cls-1" d="m301.44,226.51c1.26.1,2.53.2,3.79.3,0,.18-.01.36-.02.54h-3.84l.06-.85Z"/>
      <path class="cls-1" d="m370.76,307.74c.57.82,1.13,1.64,1.7,2.46-.22.16-.44.32-.67.48l-1.79-2.43c.25-.17.51-.34.76-.5Z"/>
      <path class="cls-1" d="m372.15,307.21c-.48-.85-.95-1.7-1.43-2.55.17-.11.34-.23.51-.34.55.79,1.11,1.58,1.66,2.37-.25.17-.5.35-.75.52Z"/>
      <path class="cls-1" d="m399.11,310.41c-.4-.75-.8-1.49-1.19-2.24.2-.11.4-.22.6-.33.43.74.85,1.49,1.28,2.23-.23.11-.45.22-.68.34Z"/>
      <path class="cls-1" d="m404.66,318.89l1.31,1.88c-.15.12-.29.23-.44.35l-1.49-1.77c.2-.15.41-.31.61-.46Z"/>
      <path class="cls-1" d="m328.62,238.17c-.39,0-.79.07-1.16-.02-.28-.07-.51-.33-.65-.92.62.1,1.24.21,1.87.31-.02.21-.04.42-.06.63Z"/>
      <path class="cls-1" d="m689.27,139.55c-6.06-6.34-12.12-12.69-18.18-19.03.3-.28.59-.56.89-.84,5.98,6.42,11.96,12.84,17.95,19.25-.22.2-.43.41-.65.61Z"/>
      <path class="cls-1" d="m689.21,130.35c-2.88-2.67-5.76-5.34-8.65-8.01l.75-.82c2.86,2.68,5.72,5.37,8.58,8.05-.23.26-.46.52-.68.78Z"/>
      <path class="cls-1" d="m686.35,117.88c1.42,1.33,2.83,2.66,4.25,3.99-.08.1-.17.2-.25.31-1.43-1.3-2.86-2.6-4.29-3.9.1-.13.2-.26.29-.39Z"/>
      <path class="cls-1" d="m526.18,134.51c-3.82-2.33-7.64-4.67-11.46-7,.19-.31.39-.63.58-.94,3.81,2.38,7.63,4.76,11.44,7.13-.19.27-.37.54-.56.82Z"/>
      <path class="cls-1" d="m529.48,128.49l4.27,3.14c-.16.22-.33.44-.49.66-1.39-1.09-2.77-2.19-4.16-3.28.13-.17.26-.35.39-.52Z"/>
      <path class="cls-1" d="m174.98,117.16c5.64,5.1,11.29,10.21,16.93,15.31-.21.23-.42.47-.63.7-5.7-5.04-11.4-10.08-17.1-15.12.27-.3.53-.6.8-.9Z"/>
      <path class="cls-1" d="m170.54,119.97c5.43,4.55,10.86,9.1,16.29,13.65-.21.25-.42.51-.63.76-5.47-4.5-10.94-9-16.42-13.5.25-.3.5-.6.76-.91Z"/>
      <path class="cls-1" d="m187.55,144.6c-4.51-3.01-9.02-6.03-13.53-9.04.22-.33.44-.66.66-.99,4.46,3.07,8.92,6.15,13.37,9.22-.17.27-.34.54-.51.81Z"/>
      <path class="cls-1" d="m281.5,120.58c5.64,6.76,5.47,15.2,6.65,23.26-2.84-7.56-1.99-16.21-6.65-23.26Z"/>
      <path class="cls-1" d="m288.12,126.58c1.49,5.43,2.98,10.85,4.48,16.28-.28.08-.57.16-.85.25-1.59-5.41-3.19-10.81-4.78-16.22.39-.1.77-.2,1.16-.3Z"/>
      <path class="cls-1" d="m281.05,131.38c2.58,3.69,3.32,8.1,4.74,12.24-.24.09-.48.19-.72.28-1.56-4.09-3.11-8.18-4.67-12.27.22-.09.43-.17.65-.26Z"/>
      <path class="cls-1" d="m277.99,143.91c-1.38-2.96-2.76-5.92-4.14-8.88l.78-.38c1.94,2.67,2.88,5.84,4.07,8.89-.23.12-.47.25-.7.37Z"/>
      <path class="cls-1" d="m291.08,155.62c.19-2.85.38-5.7.57-8.56.14.01.27.02.41.03v8.59l-.98-.07Z"/>
      <path class="cls-1" d="m292.63,138.92c1.03-2.7,2.05-5.4,3.08-8.1.34.14.68.27,1.02.41-1.09,2.67-2.19,5.35-3.28,8.02-.28-.11-.55-.22-.83-.33Z"/>
      <path class="cls-1" d="m267.4,144.09c-1.36-2.42-2.72-4.85-4.07-7.27.27-.16.55-.32.82-.48,1.38,2.4,2.75,4.81,4.13,7.21-.29.18-.58.36-.87.54Z"/>
      <path class="cls-1" d="m271.9,144.55c-1.29-2.3-2.59-4.6-3.88-6.9.28-.16.56-.32.84-.47,1.31,2.3,2.63,4.6,3.94,6.89-.3.16-.6.32-.9.48Z"/>
      <path class="cls-1" d="m282.95,145.92c-1.17-2.39-2.35-4.78-3.52-7.17.26-.13.53-.26.79-.39,1.17,2.39,2.33,4.79,3.5,7.18l-.77.37Z"/>
      <path class="cls-1" d="m276.42,145.21c-1.27-1.78-2.54-3.56-3.81-5.34.17-.13.34-.26.51-.39,1.36,1.71,2.72,3.42,4.08,5.13-.26.2-.52.39-.77.59Z"/>
      <path class="cls-1" d="m288.42,155.8c.11-1.96.21-3.92.32-5.87l.91.12c-.39,1.93-.79,3.86-1.18,5.79,0,0-.05-.04-.05-.04Z"/>
      <path class="cls-1" d="m281.59,146.18c.6,1.05,1.19,2.1,1.79,3.15-.25.13-.51.27-.76.4l-1.58-3.26c.18-.1.37-.2.55-.3Z"/>
      <path class="cls-1" d="m467.55,224.77c-.32-5.38-.64-10.75-.96-16.13-.2-3.35.96-4.57,3.95-3.23,6.34,2.86,12.71,5.8,18.6,9.46,4.26,2.64,5.39,7.39,4.54,12.33-.5,2.92-2.57,4.92-5.21,5.72-4.49,1.35-9.12,2.24-13.71,3.21-1.64.34-3.34.35-5.02.51-1.84.17-2.57-.6-2.49-2.5.12-3.11.03-6.23.03-9.35.1,0,.19-.01.29-.02Zm22.54-7.33c-.94-1.23-1.79-2.62-3.86-2.25.31,2.31,2.27,1.96,3.58,2.52-.18.75-.71,1.67-.45,2.21.39.8,1.34,1.32,2.05,1.96l.83-.75c-.72-1.23-1.44-2.46-2.16-3.69Zm-8.42-.48c-1.51-1.77-3.36-1.95-5.45-1.26.8,2.33,1.91,2.63,5.75,1.66h3.06c.06-.34.12-.68.18-1.02-.95-.36-1.9-.76-2.88-1.01-.07-.02-.43,1.07-.65,1.64Zm10.73,8.79c.58-2.01.33-2.83-1.41-2.8-4.46.07-8.93.03-13.39.1-.86.01-1.73.56-2.58.54-1.56-.05-3.11-.47-4.66-.45-.6,0-1.18.78-1.78,1.2.63.47,1.25,1.35,1.89,1.35,7.35.1,14.71.06,21.93.06Zm-3.24,6.05c-.07-.42-.14-.84-.21-1.25-6.01-.15-12.02-.32-18.04-.45-1.05-.02-2.27-.25-2.34,1.48-.07,1.85,1.18,1.72,2.37,1.72,3.7,0,7.41.16,11.09-.09,2.4-.16,4.76-.92,7.13-1.41Zm-1.37-2.61c.12-.32.25-.64.37-.95-.82-.46-1.64-1.31-2.47-1.33-5.12-.1-10.25-.05-15.37.05-.56.01-1.1.68-1.65,1.04.6.29,1.2.81,1.81.84,4.78.22,9.57.36,14.35.49.98.03,1.97-.09,2.95-.14Zm-14.11-9.87c1.33,2.6,10.17,3.48,15.42,2-1.08-1.78-2.29-2.98-4.61-2.69-2.17.27-4.37.24-6.56.36-1.3.08-2.6.2-4.26.33Zm-2.67-4.38c1.15,3.39,2.09,3.74,5.29,1.96-1.95-.72-3.37-1.25-5.29-1.96Zm1.98,7.3c-.73-2.96-2.19-3.01-3.72-2.61-.31.08-.42.9-.63,1.38,1.28.36,2.57.73,4.35,1.23Zm-3.91,12.38c.02.28.04.56.07.84,1.91-.19,3.81-.38,5.72-.57-.02-.09-.03-.18-.05-.27h-5.74Zm2.98-25.56c-.11.33-.21.66-.32,1,.71,1.59,2.1,1.2,3.48.83.09-.28.17-.55.26-.83-1.14-.33-2.28-.67-3.42-1Zm2.31,3.25c-.09.44-.19.88-.28,1.32,1.2.16,2.4.31,3.6.47.06-.41.13-.81.19-1.22-1.17-.19-2.34-.38-3.51-.57Zm7.35,1.91c.11-.23.22-.47.33-.7q-1.12-2.08-3.28-.67c1.15.54,2.06.96,2.96,1.38Zm7.92,12.55c-.19.38-.39.75-.58,1.13.7.34,1.4.68,2.1,1.02.16-.33.5-.93.45-.96-.62-.44-1.31-.8-1.97-1.19Zm-17.5-12.56c.08-.4.15-.8.23-1.2-.95-.12-1.89-.24-2.84-.36-.05.34-.11.68-.16,1.02.92.18,1.85.36,2.77.53Zm-2.07-2.82c.08-.36.16-.72.23-1.08-.65-.09-1.3-.21-1.96-.24-.06,0-.22.79-.2.8.63.21,1.28.36,1.92.52Zm-.3-5.05c-.15.34-.31.68-.46,1.02.87.29,1.74.57,2.61.86.1-.27.2-.54.3-.8-.82-.36-1.63-.72-2.45-1.08Zm-.56,9.57c-.3.16-.6.31-.89.47.44.59.88,1.18,1.35,1.74.02.02.44-.3.79-.55-.48-.65-.87-1.15-1.25-1.66Z"/>
      <path class="cls-1" d="m465.13,220.9c-.36,4.11-.72,8.21-1.1,12.32-.05.5-.11,1.07-.38,1.45-.44.61-1.07,1.08-1.62,1.6-.31-.68-.82-1.35-.86-2.05-.05-.9.4-1.81.44-2.73.27-6.14.64-12.28.65-18.42,0-2.3-.98-4.58-1.32-6.89-.14-.95.23-1.97.36-2.96.71.65,1.91,1.22,2.04,1.97.9,5.17,1.57,10.39,2.32,15.59-.18.04-.37.08-.55.12Z"/>
      <path class="cls-1" d="m308.05,102.76c1.07-.11,2.14-.28,3.21-.32,10.94-.46,21.88-.86,32.81-1.35,7.3-.33,14.51-.16,21.2,3.3,1.05.54,2.02,1.24,2.78,2.4-.29-.03-.65.04-.87-.1-8.31-5.18-17.5-4.77-26.72-4.33-9.92.48-19.85.85-29.78,1.25-.89.04-1.78-.1-2.67-.15l.04-.7Z"/>
      <path class="cls-1" d="m302.24,103.55c-20.7,1.2-41.4,2.4-62.1,3.61-.02-.43-.05-.85-.07-1.28,20.75-.33,41.36-3.16,62.13-3.09.01.25.03.51.04.76Z"/>
      <path class="cls-1" d="m261.49,108.47c9.89-.34,19.77-.69,29.66-1.03.01.37.02.74.04,1.1-9.89.33-19.77.67-29.66,1l-.04-1.07Z"/>
      <path class="cls-1" d="m349.17,106.58c3.45-.25,6.89-.5,10.34-.75.03.36.05.72.08,1.07-3.45.23-6.9.47-10.34.7-.02-.34-.05-.69-.07-1.03Z"/>
      <path class="cls-1" d="m346.07,104.2c1.79-.21,3.57-.42,5.36-.63.04.33.08.65.12.98l-5.34.7c-.05-.35-.1-.7-.14-1.04Z"/>
      <path class="cls-1" d="m331.21,106.05h-3.19c0-.15,0-.3,0-.46h3.22c0,.15-.02.3-.03.46Z"/>
      <path class="cls-1" d="m258.78,113.14h-2.36c0-.16,0-.32,0-.48h2.34c.01.16.02.32.03.48Z"/>
      <path class="cls-1" d="m527.19,105.44h59.49c-2.51,1.67-56,1.45-59.49,0Z"/>
      <path class="cls-1" d="m476.53,109.07c.9-1.89,2.83-3.12,5.04-3.57,3.44-.71,6.97-1.41,10.46-1.43,9.17-.07,18.35.23,27.52.4.74.01,1.48.25,2.22.38,0,.22,0,.45-.01.67-3.43,0-6.87-.02-10.3,0-8.66.07-17.33-.11-25.96.39-3.04.18-5.99,2.06-8.97,3.16Z"/>
      <path class="cls-1" d="m590.91,106.95c.64-.14,1.28-.4,1.93-.4,6.9-.1,13.8-.19,20.7-.17.78,0,2.01.53,2.22,1.11.22.62-.52,1.58-1.29,2.5.58-2.81-1.1-2.69-2.66-2.66-6.06.12-12.11.25-18.17.36-.9.02-1.79-.09-2.69-.14l-.03-.6Z"/>
      <path class="cls-1" d="m496.85,107.11h-10.08c0-.19,0-.37,0-.56h10.11c0,.19-.02.37-.02.56Z"/>
      <path class="cls-1" d="m228.74,240.34h23.49c0,.15.01.3.02.45h-23.47l-.04-.45Z"/>
      <path class="cls-1" d="m256.96,240.5c7.36-.31,14.72-.63,22.08-.94.02.27.03.55.05.82-7.29,1.25-14.69.64-22.02,1.07-.04-.32-.07-.64-.11-.95Z"/>
      <path class="cls-1" d="m278.89,243.66c-1.09-.09-2.19-.18-3.28-.28l.04-.63h3.3c-.02.3-.04.6-.06.9Z"/>
      <path class="cls-1" d="m696.98,209.17l11.23-6.99c.19.31.38.61.58.92-3.75,2.34-7.49,4.68-11.24,7.02-.19-.32-.38-.63-.56-.95Z"/>
      <path class="cls-1" d="m607.95,243.14c-11.7.88-23.37,1.12-34.84-1.95,11.61.65,23.22,1.3,34.84,1.95Z"/>
      <path class="cls-1" d="m632.37,241.52c9.57-.34,19.14-.68,28.7-1.02,0,.41.02.83.02,1.24h-28.72c0-.07,0-.15-.01-.22Z"/>
      <path class="cls-1" d="m655.89,245.04h-3.54c-.02-.21-.05-.41-.07-.62,1.18-.1,2.36-.21,3.54-.31.02.31.04.62.07.93Z"/>
      <path class="cls-1" d="m623.9,241.13h2.24v.52c-.72.03-1.46.07-2.19.1-.02-.21-.04-.41-.06-.62Z"/>
      <path class="cls-1" d="m422.27,384.16c.63-.08,1.25-.17,1.88-.25l.13.72c-.62.11-1.23.21-1.85.32-.05-.26-.11-.53-.16-.79Z"/>
      <path class="cls-1" d="m680.14,199.74l-8.03-6c.21-.28.41-.56.62-.84,2.66,2.02,5.33,4.03,7.99,6.05-.19.26-.39.52-.58.79Z"/>
      <path class="cls-1" d="m673.06,198.05l3.24,2.81c-.17.23-.35.45-.52.68l-3.37-2.73c.22-.25.44-.51.65-.76Z"/>
      <path class="cls-1" d="m680.15,192.57c.7.45,1.4.9,2.09,1.35-.13.21-.27.42-.4.63-.7-.47-1.41-.93-2.11-1.4.14-.19.28-.39.42-.58Z"/>
      <path class="cls-1" d="m407.66,137.57c1.15-.23,2.3-.46,3.45-.69.06.27.13.53.19.8-1.18.29-2.37.58-3.55.88-.03-.33-.06-.66-.09-.99Z"/>
      <path class="cls-1" d="m432.85,134.42c.17-.46.35-.92.52-1.38.21.09.42.17.62.26-.2.45-.41.9-.61,1.35-.18-.07-.36-.15-.54-.22Z"/>
      <path class="cls-1" d="m510.15,275.74c.59-.82,1.18-1.64,1.78-2.45.2.14.41.28.61.42l-1.62,2.59c-.26-.19-.51-.37-.77-.56Z"/>
      <path class="cls-1" d="m331.82,214.17c.35.32.71.64,1.06.96-.11.14-.22.29-.32.43l-1.21-.82c.16-.19.32-.38.47-.57Z"/>
      <path class="cls-1" d="m330.43,217.28c-.42-.27-.84-.54-1.26-.8.11-.17.22-.34.33-.51.42.27.83.55,1.25.82-.1.16-.21.33-.31.49Z"/>
      <path class="cls-1" d="m340.96,211.9c-.68.49-.96.74-1,.71-.22-.19-.42-.43-.53-.69-.03-.07.3-.41.45-.4.3.02.59.2,1.08.38Z"/>
      <path class="cls-1" d="m549.61,239.97c-.3,1.62-.59,3.24-.89,4.85l-.99-.2c.34-1.61.67-3.22,1.01-4.83.29.06.58.12.86.17Z"/>
      <path class="cls-1" d="m169.75,192.38c2.12,1,4.24,2.01,6.36,3.01-.15.31-.3.62-.45.93-2.12-1.04-4.25-2.07-6.37-3.11.15-.28.31-.56.46-.83Z"/>
      <path class="cls-1" d="m172.96,190.1c1.24.5,2.48.99,3.73,1.49-.12.29-.23.58-.35.87-1.24-.51-2.47-1.01-3.71-1.52.11-.28.23-.56.34-.84Z"/>
      <path class="cls-1" d="m437.62,365.11c2.08-.22,4.16-.43,6.23-.65.04.32.08.64.12.96-2.09.26-4.19.52-6.28.77-.02-.36-.04-.73-.07-1.09Z"/>
      <path class="cls-1" d="m431.03,362.75c1.05.98,1.85,1.73,2.82,2.63-2.78-.05-3.21-.44-2.82-2.63Z"/>
      <path class="cls-1" d="m449.13,362.3h-2.57c0-.2-.01-.4-.02-.59h2.51c.02.2.05.4.07.59Z"/>
      <path class="cls-1" d="m727.08,188.06c.52-.3.78-.57,1.02-.55.23.01.44.32.66.49-.23.18-.44.48-.7.52-.22.04-.49-.21-.99-.46Z"/>
      <path class="cls-1" d="m408.72,222.01c-.07.93-.14,1.85-.21,2.78-.22-.01-.44-.02-.65-.03v-2.79c.29.02.58.03.87.05Z"/>
      <path class="cls-1" d="m616.8,94.45c-.27.77-.55,1.54-.82,2.31-.25-.09-.5-.18-.74-.26.26-.78.52-1.55.77-2.33.26.09.53.19.79.28Z"/>
      <path class="cls-1" d="m397.07,273.73h4.05c.02.22.05.43.07.65-1.36.07-2.71.14-4.07.21-.01-.29-.03-.57-.04-.86Z"/>
      <path class="cls-1" d="m403.9,274.06c.61-.03,1.23-.06,1.84-.08.03.22.06.44.08.65-.61.1-1.22.21-1.83.31-.03-.29-.07-.59-.1-.88Z"/>
      <path class="cls-1" d="m306.77,214.72c1.27-1.36,2.54-2.73,4.03-4.34.22,2.2-1.09,3.85-3.43,4.88-.2-.18-.4-.36-.59-.54Z"/>
      <path class="cls-1" d="m301.27,184c-.46-2.97-.93-5.94-1.39-8.9.31-.05.62-.1.94-.15.49,2.96.99,5.92,1.48,8.89-.34.06-.69.11-1.03.17Z"/>
      <path class="cls-1" d="m139.54,185.33c.83.64,1.35,1.05,1.87,1.45-.81.58-1.55,1.33-2.45,1.66-.33.12-1.02-.71-1.55-1.11.65-.61,1.31-1.23,2.13-2Z"/>
      <path class="cls-1" d="m423.22,320.69c.37-.07.74-.14,1.11-.22.03.15.06.3.09.45-.37.07-.74.14-1.12.21-.03-.15-.06-.29-.09-.44Z"/>
      <path class="cls-1" d="m163.41,227.45h2.53v.44h-2.52c0-.15,0-.29-.01-.44Z"/>
      <path class="cls-1" d="m236.16,97.06c-.59-1.15-1.17-2.31-1.76-3.46.27-.14.55-.28.82-.42.58,1.15,1.17,2.31,1.75,3.46-.27.14-.54.28-.82.41Z"/>
    </g>
  </g>
</svg>